<?xml version="1.0" encoding="utf-8"?>
<svg id="master-artboard" viewBox="0 0 381.0426330566406 285.50006103515625" version="1.1" xmlns="http://www.w3.org/2000/svg" x="0px" y="0px" width="381.0426330566406px" height="285.50006103515625px" enable-background="new 0 0 1400 980"><rect id="ee-background" x="0" y="0" width="381.0426330566406" height="285.50006103515625" style="fill: white; fill-opacity: 0; pointer-events: none;"/>
<g transform="matrix(1, 0, 0, 1, -908.9249267578125, -70.6321792602539)">
			<g>
				<g>
					<path d="M1214.1,277.4h-7.4c-0.7,0-1.2-0.6-1.2-1.2s0.6-1.2,1.2-1.2h6.2v-6.2c0-0.7,0.6-1.2,1.2-1.2c0.7,0,1.2,0.6,1.2,1.2v7.4&#10;&#9;&#9;&#9;&#9;&#9;&#9;C1215.4,276.8,1214.8,277.4,1214.1,277.4z"/>
				</g>
			</g>
			<g>
				<g>
					<path d="M1192.4,277.4h-14.3c-0.7,0-1.2-0.6-1.2-1.2s0.6-1.2,1.2-1.2h14.3c0.7,0,1.2,0.6,1.2,1.2S1193.1,277.4,1192.4,277.4z&#10;&#9;&#9;&#9;&#9;&#9;&#9; M1163.8,277.4h-14.3c-0.7,0-1.2-0.6-1.2-1.2s0.6-1.2,1.2-1.2h14.3c0.7,0,1.2,0.6,1.2,1.2S1164.5,277.4,1163.8,277.4z&#10;&#9;&#9;&#9;&#9;&#9;&#9; M1135.2,277.4h-14.3c-0.7,0-1.2-0.6-1.2-1.2s0.6-1.2,1.2-1.2h14.3c0.7,0,1.2,0.6,1.2,1.2S1135.9,277.4,1135.2,277.4z&#10;&#9;&#9;&#9;&#9;&#9;&#9; M1106.6,277.4h-14.3c-0.7,0-1.2-0.6-1.2-1.2s0.6-1.2,1.2-1.2h14.3c0.7,0,1.2,0.6,1.2,1.2S1107.2,277.4,1106.6,277.4z&#10;&#9;&#9;&#9;&#9;&#9;&#9; M1077.9,277.4h-14.3c-0.7,0-1.2-0.6-1.2-1.2s0.6-1.2,1.2-1.2h14.3c0.7,0,1.2,0.6,1.2,1.2S1078.6,277.4,1077.9,277.4z&#10;&#9;&#9;&#9;&#9;&#9;&#9; M1049.3,277.4H1035c-0.7,0-1.2-0.6-1.2-1.2s0.6-1.2,1.2-1.2h14.3c0.7,0,1.2,0.6,1.2,1.2S1050,277.4,1049.3,277.4z"/>
				</g>
			</g>
			<g>
				<g>
					<path d="M1020.7,277.4h-7.4c-0.7,0-1.2-0.6-1.2-1.2v-7.4c0-0.7,0.6-1.2,1.2-1.2c0.7,0,1.2,0.6,1.2,1.2v6.2h6.2&#10;&#9;&#9;&#9;&#9;&#9;&#9;c0.7,0,1.2,0.6,1.2,1.2S1021.4,277.4,1020.7,277.4z"/>
				</g>
			</g>
			<g>
				<g>
					<path d="M1013.3,255.6c-0.7,0-1.2-0.6-1.2-1.2V240c0-0.7,0.6-1.2,1.2-1.2c0.7,0,1.2,0.6,1.2,1.2v14.4&#10;&#9;&#9;&#9;&#9;&#9;&#9;C1014.5,255.1,1014,255.6,1013.3,255.6z M1013.3,226.8c-0.7,0-1.2-0.6-1.2-1.2v-14.4c0-0.7,0.6-1.2,1.2-1.2&#10;&#9;&#9;&#9;&#9;&#9;&#9;c0.7,0,1.2,0.6,1.2,1.2v14.4C1014.5,226.3,1014,226.8,1013.3,226.8z M1013.3,198.1c-0.7,0-1.2-0.6-1.2-1.2v-14.4&#10;&#9;&#9;&#9;&#9;&#9;&#9;c0-0.7,0.6-1.2,1.2-1.2c0.7,0,1.2,0.6,1.2,1.2v14.4C1014.5,197.5,1014,198.1,1013.3,198.1z M1013.3,169.3&#10;&#9;&#9;&#9;&#9;&#9;&#9;c-0.7,0-1.2-0.6-1.2-1.2v-14.4c0-0.7,0.6-1.2,1.2-1.2c0.7,0,1.2,0.6,1.2,1.2v14.4C1014.5,168.7,1014,169.3,1013.3,169.3z"/>
				</g>
			</g>
			<g>
				<g>
					<path d="M1013.3,140.5c-0.7,0-1.2-0.6-1.2-1.2v-7.4c0-0.7,0.6-1.2,1.2-1.2h7.4c0.7,0,1.2,0.6,1.2,1.2c0,0.7-0.6,1.2-1.2,1.2&#10;&#9;&#9;&#9;&#9;&#9;&#9;h-6.2v6.2C1014.5,140,1014,140.5,1013.3,140.5z"/>
				</g>
			</g>
			<g>
				<g>
					<path d="M1214.1,254.6c-0.7,0-1.2-0.6-1.2-1.2V238c0-0.7,0.6-1.2,1.2-1.2c0.7,0,1.2,0.6,1.2,1.2v15.4&#10;&#9;&#9;&#9;&#9;&#9;&#9;C1215.4,254,1214.8,254.6,1214.1,254.6z M1214.1,223.8c-0.7,0-1.2-0.6-1.2-1.2v-15.4c0-0.7,0.6-1.2,1.2-1.2&#10;&#9;&#9;&#9;&#9;&#9;&#9;c0.7,0,1.2,0.6,1.2,1.2v15.4C1215.4,223.2,1214.8,223.8,1214.1,223.8z M1209.7,194.2c-0.4,0-0.8-0.2-1.1-0.6l-7.9-13.2&#10;&#9;&#9;&#9;&#9;&#9;&#9;c-0.3-0.6-0.2-1.3,0.4-1.7c0.6-0.3,1.3-0.2,1.7,0.4l7.9,13.2c0.3,0.6,0.2,1.3-0.4,1.7C1210.1,194.2,1209.9,194.2,1209.7,194.2z&#10;&#9;&#9;&#9;&#9;&#9;&#9; M1194,167.7c-0.4,0-0.8-0.2-1.1-0.6l-7.9-13.2c-0.3-0.6-0.2-1.3,0.4-1.7c0.6-0.3,1.3-0.2,1.7,0.4l7.9,13.2&#10;&#9;&#9;&#9;&#9;&#9;&#9;c0.3,0.6,0.2,1.3-0.4,1.7C1194.4,167.7,1194.2,167.7,1194,167.7z M1172,148.9c-0.1,0-0.3,0-0.4-0.1l-14.5-5.2&#10;&#9;&#9;&#9;&#9;&#9;&#9;c-0.6-0.2-1-0.9-0.7-1.6c0.2-0.6,0.9-1,1.6-0.7l14.5,5.2c0.6,0.2,1,0.9,0.7,1.6C1172.9,148.6,1172.5,148.9,1172,148.9z&#10;&#9;&#9;&#9;&#9;&#9;&#9; M1143,138.5c-0.1,0-0.3,0-0.4-0.1l-14.5-5.2c-0.6-0.2-1-0.9-0.7-1.6c0.2-0.6,0.9-1,1.6-0.7l14.5,5.2c0.6,0.2,1,0.9,0.7,1.6&#10;&#9;&#9;&#9;&#9;&#9;&#9;C1143.9,138.2,1143.5,138.5,1143,138.5z M1113.1,133.1h-15.4c-0.7,0-1.2-0.6-1.2-1.2c0-0.7,0.6-1.2,1.2-1.2h15.4&#10;&#9;&#9;&#9;&#9;&#9;&#9;c0.7,0,1.2,0.6,1.2,1.2C1114.3,132.6,1113.8,133.1,1113.1,133.1z M1082.3,133.1h-15.4c-0.7,0-1.2-0.6-1.2-1.2&#10;&#9;&#9;&#9;&#9;&#9;&#9;c0-0.7,0.6-1.2,1.2-1.2h15.4c0.7,0,1.2,0.6,1.2,1.2C1083.5,132.6,1083,133.1,1082.3,133.1z M1051.5,133.1h-15.4&#10;&#9;&#9;&#9;&#9;&#9;&#9;c-0.7,0-1.2-0.6-1.2-1.2c0-0.7,0.6-1.2,1.2-1.2h15.4c0.7,0,1.2,0.6,1.2,1.2C1052.7,132.6,1052.2,133.1,1051.5,133.1z"/>
				</g>
			</g>
		</g><g transform="matrix(1, 0, 0, 1, -908.9249267578125, -70.6321792602539)">
				<g>
					<path fill="#A8CAFF" d="M1073.1,166.7c-1.2-4.5-1.8-9.2-1.8-14.1c0-31.2,25.3-56.4,56.4-56.4c25.6,0,47.2,17,54.1,40.3&#10;&#9;&#9;&#9;&#9;&#9;&#9;c3.6-1.2,7.4-1.9,11.4-1.9c18.3,0,33.4,13.6,35.8,31.2c21.1,1.9,37.6,19.6,37.6,41.1c0,22.8-18.5,41.3-41.3,41.3h-143&#10;&#9;&#9;&#9;&#9;&#9;&#9;c-22.8,0-45.1-18.5-45.1-41.3C1037.3,187.3,1053.9,170.8,1073.1,166.7z" style="fill: rgb(48, 207, 255);"/>
				</g>
				<g>
					<path d="M1225.4,249.5h-143c-24.7,0-46.3-19.9-46.3-42.5c0-18.8,15.2-36.3,35.6-41.2c-1-4.3-1.5-8.7-1.5-13.2&#10;&#9;&#9;&#9;&#9;&#9;&#9;c0-31.8,25.9-57.7,57.7-57.7c24.9,0,47.3,16.4,54.9,40c3.5-1,7-1.5,10.6-1.5c18.3,0,33.9,13.4,36.9,31.3&#10;&#9;&#9;&#9;&#9;&#9;&#9;c21.6,2.4,37.7,20.4,37.7,42.2C1267.9,230.4,1248.8,249.5,1225.4,249.5z M1127.8,97.4c-30.4,0-55.2,24.8-55.2,55.2&#10;&#9;&#9;&#9;&#9;&#9;&#9;c0,4.7,0.6,9.3,1.7,13.8c0.1,0.3,0,0.7-0.1,1c-0.2,0.3-0.5,0.5-0.8,0.6c-19.9,4.3-34.8,21.1-34.8,39.1&#10;&#9;&#9;&#9;&#9;&#9;&#9;c0,21.3,20.5,40.1,43.9,40.1h143c22.1,0,40.1-18,40.1-40.1c0-20.9-15.7-38-36.5-39.9c-0.6-0.1-1-0.5-1.1-1.1&#10;&#9;&#9;&#9;&#9;&#9;&#9;c-2.4-17.2-17.2-30.2-34.6-30.2c-3.7,0-7.4,0.6-11,1.8c-0.3,0.1-0.7,0.1-1-0.1c-0.3-0.2-0.5-0.4-0.6-0.7&#10;&#9;&#9;&#9;&#9;&#9;&#9;C1173.8,113.6,1152,97.4,1127.8,97.4z"/>
				</g>
			</g><g transform="matrix(1, 0, 0, 1, -908.9249267578125, -70.6321792602539)">
					<path d="M1214.1,169.1c-0.6,0-1.1-0.4-1.2-1.1c-1.3-9.8-9.8-17.2-19.7-17.2c-0.7,0-1.2-0.6-1.2-1.2s0.5-1.2,1.2-1.2&#10;&#9;&#9;&#9;&#9;&#9;&#9;c11.1,0,20.6,8.3,22.1,19.3c0.1,0.7-0.4,1.3-1.1,1.4C1214.3,169.1,1214.2,169.1,1214.1,169.1z"/>
				</g><g transform="matrix(1, 0, 0, 1, -908.9249267578125, -70.6321792602539)">
					<path d="M1225.4,234.4c-0.7,0-1.2-0.6-1.2-1.2s0.5-1.2,1.2-1.2c13.8,0,25-11.2,25-25c0-0.7,0.6-1.2,1.2-1.2&#10;&#9;&#9;&#9;&#9;&#9;&#9;c0.7,0,1.2,0.6,1.2,1.2C1252.8,222.1,1240.5,234.4,1225.4,234.4z"/>
				</g><g transform="matrix(1, 0, 0, 1, -908.9249267578125, -70.6321792602539)">
					<path d="M1086.4,153.8c-0.7,0-1.2-0.6-1.2-1.2c0-23.5,19.1-42.6,42.6-42.6c0.7,0,1.2,0.6,1.2,1.2c0,0.7-0.6,1.2-1.2,1.2&#10;&#9;&#9;&#9;&#9;&#9;&#9;c-22.1,0-40.2,18-40.2,40.2C1087.6,153.3,1087.1,153.8,1086.4,153.8z"/>
				</g><g transform="matrix(1, 0, 0, 1, -908.9249267578125, -70.6321792602539)">
				<path fill="#D1D3D4" d="M1167.8,300.2v-124c0-8.9-7.2-16.2-16.2-16.2H978c-8.9,0-16.2,7.2-16.2,16.2v124H1167.8z" style="fill: rgb(169, 169, 170);"/>
			</g><path d="M1167.8,301.4h-206c-0.7,0-1.2-0.6-1.2-1.2v-124c0-9.6,7.8-17.4,17.4-17.4h173.7c9.6,0,17.4,7.8,17.4,17.4v124&#10;&#9;&#9;&#9;&#9;&#9;C1169,300.9,1168.5,301.4,1167.8,301.4z M963,299h203.5V176.2c0-8.2-6.7-14.9-14.9-14.9H978c-8.2,0-14.9,6.7-14.9,14.9V299z" transform="matrix(1, 0, 0, 1, -908.9249267578125, -70.6321792602539)"/><g transform="matrix(1, 0, 0, 1, -908.9249267578125, -70.6321792602539)">
				<path fill="#FFFFFF" d="M973.9,300.2v-124c0-2.2,1.8-4,4-4h173.7c2.2,0,4,1.8,4,4v124H973.9z"/>
			</g><path d="M1155.7,301.4H973.9c-0.7,0-1.2-0.6-1.2-1.2v-124c0-2.9,2.4-5.3,5.3-5.3h173.7c2.9,0,5.3,2.4,5.3,5.3v124&#10;&#9;&#9;&#9;&#9;&#9;C1156.9,300.9,1156.3,301.4,1155.7,301.4z M975.1,299h179.3V176.2c0-1.5-1.3-2.8-2.8-2.8H978c-1.5,0-2.8,1.3-2.8,2.8V299z" transform="matrix(1, 0, 0, 1, -908.9249267578125, -70.6321792602539)"/><g transform="matrix(1, 0, 0, 1, -908.9249267578125, -70.6321792602539)">
				<path fill="#FFFFFF" d="M939.2,300.2v4.5c0,8.9,7.2,16.2,16.2,16.2h218.9c8.9,0,16.2-7.2,16.2-16.2v-4.5H939.2z"/>
			</g><path d="M1174.2,322.1H955.3c-9.6,0-17.4-7.8-17.4-17.4v-4.5c0-0.7,0.6-1.2,1.2-1.2h251.2c0.7,0,1.2,0.6,1.2,1.2v4.5&#10;&#9;&#9;&#9;&#9;&#9;C1191.6,314.3,1183.8,322.1,1174.2,322.1z M940.4,301.4v3.3c0,8.2,6.7,14.9,14.9,14.9h218.9c8.2,0,14.9-6.7,14.9-14.9v-3.3&#10;&#9;&#9;&#9;&#9;&#9;H940.4z" transform="matrix(1, 0, 0, 1, -908.9249267578125, -70.6321792602539)"/><g transform="matrix(1, 0, 0, 1, -908.9249267578125, -70.6321792602539)">
				<path d="M 1037.300049 300.200012 H 1092.300049 V 307.400012 H 1037.300049 V 300.200012 Z" fill="#D1D3D4" style="fill: rgb(169, 169, 170);"/>
			</g><path d="M1092.3,308.6h-55c-0.7,0-1.2-0.6-1.2-1.2v-7.2c0-0.7,0.6-1.2,1.2-1.2h55c0.7,0,1.2,0.6,1.2,1.2v7.2&#10;&#9;&#9;&#9;&#9;&#9;C1093.5,308.1,1093,308.6,1092.3,308.6z M1038.5,306.2h52.5v-4.7h-52.5V306.2z" transform="matrix(1, 0, 0, 1, -908.9249267578125, -70.6321792602539)"/><path d="M 1050.099976 193.300003 H 1079.399975 V 222.600002 H 1050.099976 V 193.300003 Z" fill="#F4FFA0" transform="matrix(1, 0, 0, 1, -908.9249267578125, -70.6321792602539)" style="fill: rgb(255, 191, 41);"/><path d="M1079.4,223.9h-29.3c-0.7,0-1.2-0.6-1.2-1.2v-29.3c0-0.7,0.6-1.2,1.2-1.2h29.3c0.7,0,1.2,0.6,1.2,1.2v29.3&#10;&#9;&#9;&#9;C1080.7,223.3,1080.1,223.9,1079.4,223.9z M1051.4,221.4h26.8v-26.8h-26.8V221.4z" transform="matrix(1, 0, 0, 1, -908.9249267578125, -70.6321792602539)"/><path d="M 1000.700012 243.800003 H 1030.000011 V 273.100002 H 1000.700012 V 243.800003 Z" fill="#FF9D9A" transform="matrix(1, 0, 0, 1, -908.9249267578125, -70.6321792602539)" style="fill: rgb(48, 206, 254);"/><path d="M1030,274.3h-29.3c-0.7,0-1.2-0.6-1.2-1.2v-29.3c0-0.7,0.6-1.2,1.2-1.2h29.3c0.7,0,1.2,0.6,1.2,1.2v29.3&#10;&#9;&#9;&#9;C1031.2,273.8,1030.7,274.3,1030,274.3z M1001.9,271.8h26.8V245h-26.8V271.8z" transform="matrix(1, 0, 0, 1, -908.9249267578125, -70.6321792602539)"/><path d="M 1050.099976 243.800003 H 1079.399975 V 273.100002 H 1050.099976 V 243.800003 Z" fill="#FF9D9A" transform="matrix(1, 0, 0, 1, -908.9249267578125, -70.6321792602539)" style="fill: rgb(48, 206, 254);"/><path d="M1079.4,274.3h-29.3c-0.7,0-1.2-0.6-1.2-1.2v-29.3c0-0.7,0.6-1.2,1.2-1.2h29.3c0.7,0,1.2,0.6,1.2,1.2v29.3&#10;&#9;&#9;&#9;C1080.7,273.8,1080.1,274.3,1079.4,274.3z M1051.4,271.8h26.8V245h-26.8V271.8z" transform="matrix(1, 0, 0, 1, -908.9249267578125, -70.6321792602539)"/><path d="M 1099.599976 243.800003 H 1128.899975 V 273.100002 H 1099.599976 V 243.800003 Z" fill="#FF9D9A" transform="matrix(1, 0, 0, 1, -908.9249267578125, -70.6321792602539)" style="fill: rgb(48, 206, 254);"/><path d="M1128.9,274.3h-29.3c-0.7,0-1.2-0.6-1.2-1.2v-29.3c0-0.7,0.6-1.2,1.2-1.2h29.3c0.7,0,1.2,0.6,1.2,1.2v29.3&#10;&#9;&#9;&#9;C1130.1,273.8,1129.6,274.3,1128.9,274.3z M1100.8,271.8h26.8V245h-26.8V271.8z" transform="matrix(1, 0, 0, 1, -908.9249267578125, -70.6321792602539)"/><path d="M 1015.299988 243.800003 L 1015.299988 207.800003 L 1050.099976 207.800003" fill="#FFFFFF" transform="matrix(1, 0, 0, 1, -908.9249267578125, -70.6321792602539)"/><path d="M1015.3,245c-0.7,0-1.2-0.6-1.2-1.2v-36c0-0.7,0.6-1.2,1.2-1.2h34.8c0.7,0,1.2,0.6,1.2,1.2c0,0.7-0.6,1.2-1.2,1.2h-33.6&#10;&#9;&#9;&#9;v34.8C1016.6,244.5,1016,245,1015.3,245z" transform="matrix(1, 0, 0, 1, -908.9249267578125, -70.6321792602539)"/><path d="M 1079.400024 207 L 1114.199951 207 L 1114.199951 243.800003" fill="#FFFFFF" transform="matrix(1, 0, 0, 1, -908.9249267578125, -70.6321792602539)"/><path d="M1114.2,245c-0.7,0-1.2-0.6-1.2-1.2v-35.6h-33.6c-0.7,0-1.2-0.6-1.2-1.2s0.6-1.2,1.2-1.2h34.8c0.7,0,1.2,0.6,1.2,1.2v36.8&#10;&#9;&#9;&#9;C1115.5,244.5,1114.9,245,1114.2,245z" transform="matrix(1, 0, 0, 1, -908.9249267578125, -70.6321792602539)"/><path d="M 1064.800049 222.600006 L 1064.800049 244.600006" fill="#FFFFFF" transform="matrix(1, 0, 0, 1, -908.9249267578125, -70.6321792602539)"/><path d="M1064.8,245.9c-0.7,0-1.2-0.6-1.2-1.2v-22c0-0.7,0.6-1.2,1.2-1.2s1.2,0.6,1.2,1.2v22&#10;&#9;&#9;&#9;C1066,245.3,1065.5,245.9,1064.8,245.9z" transform="matrix(1, 0, 0, 1, -908.9249267578125, -70.6321792602539)"/>
<path d="M 373.0421142578125 242.55850219726562" style="fill: rgb(48, 206, 254); fill-opacity: 1; stroke: rgb(0, 0, 0); stroke-opacity: 1; stroke-width: 0; paint-order: fill;" transform="matrix(1, 0, 0, 1, -270.8281555175781, -56.31080627441406)"/><path d="M 431.91888427734375 196.41184997558594 L 431.91888427734375 196.41184997558594" style="fill: rgb(255, 191, 41); fill-opacity: 1; stroke: rgb(0, 0, 0); stroke-opacity: 1; stroke-width: 0; paint-order: fill;" transform="matrix(1, 0, 0, 1, -270.8281555175781, -56.31080627441406)"/></svg>