<?xml version="1.0" encoding="utf-8"?>
<svg id="master-artboard" viewBox="0 0 759.0717163085938 735.599365234375" version="1.1" xmlns="http://www.w3.org/2000/svg" x="0px" y="0px" style="enable-background:new 0 0 1400 980;" width="759.0717163085938px" height="735.599365234375px"><rect id="ee-background" x="0" y="0" width="759.0717163085938" height="735.599365234375" style="fill: white; fill-opacity: 0; pointer-events: none;"/>




<g id="XMLID_2_" transform="matrix(1, 0, 0, 1, -366.6010437011719, -142.15142440795898)">
	<g id="XMLID_111_">
		<g id="XMLID_5_">
			<path d="M 628.2999877929688 201.60000610351562 L 433.20001220703125 231 L 484.70001220703125 573.2000122070312 L 745.2999877929688 533.9000244140625 L 703.5999755859375 257.20001220703125 Z" id="XMLID_7_" class="st3" style="fill: rgb(255, 255, 255); stroke: rgb(0, 0, 0);"/>
			<path d="M 638.0999755859375 267.1000061035156 L 703.5999755859375 257.20001220703125 L 628.2999877929688 201.60000610351562 Z" id="XMLID_6_" class="st5" style="fill: rgb(244, 244, 244);"/>
		<path d="M 460.8707580566406 257.6053161621094" style="fill: rgb(255, 255, 255); fill-opacity: 1; stroke: rgb(0, 0, 0); stroke-opacity: 1; stroke-width: 0; paint-order: fill;"/></g>
		<g id="XMLID_33_">
			<g id="XMLID_4_">
				
					<path d="M 496.799988 525.5 H 507.599988 V 531.5 H 496.799988 V 525.5 Z" id="XMLID_2351_" transform="matrix(0.9888 -0.149 0.149 0.9888 -73.1451 80.7186)" class="st6" style="fill: rgb(235, 76, 69);"/>
				
					<path d="M 510.200012 512.099976 H 521.000012 V 529.499975 H 510.200012 V 512.099976 Z" id="XMLID_2350_" transform="matrix(0.9888 -0.149 0.149 0.9888 -71.843 82.626)" class="st7" style="fill: rgb(249, 139, 56);"/>
				
					<path d="M 523.5 497.5 H 534.3 V 527.4 H 523.5 V 497.5 Z" id="XMLID_2349_" transform="matrix(0.9888 -0.149 0.149 0.9888 -70.4496 84.5113)" class="st8" style="fill: rgb(247, 209, 52);"/>
				
					<path d="M 537.400024 492 H 548.200025 V 525.299999 H 537.400024 V 492 Z" id="XMLID_2348_" transform="matrix(0.9888 -0.149 0.149 0.9888 -69.7214 86.5466)" class="st9" style="fill: rgb(84, 187, 155);"/>
				
					<path d="M 551.5 487.5 H 562.3 V 523.099998 H 551.5 V 487.5 Z" id="XMLID_2356_" transform="matrix(0.9888 -0.149 0.149 0.9888 -69.0758 88.6038)" class="st10" style="fill: rgb(40, 190, 224);"/>
				
					<path d="M 565 476.399994 H 575.8 V 520.999992 H 565 V 476.399994 Z" id="XMLID_2355_" transform="matrix(0.9888 -0.149 0.149 0.9888 -67.9417 90.549)" class="st6" style="fill: rgb(235, 76, 69);"/>
				
					<path d="M 579 471.5 H 589.8 V 519 H 579 V 471.5 Z" id="XMLID_2354_" transform="matrix(0.9888 -0.149 0.149 0.9888 -67.2598 92.6004)" class="st7" style="fill: rgb(249, 139, 56);"/>
				
					<path d="M 593.900024 478.399994 H 604.700025 V 516.799995 H 593.900024 V 478.399994 Z" id="XMLID_2353_" transform="matrix(0.9888 -0.149 0.149 0.9888 -67.4418 94.846)" class="st8" style="fill: rgb(247, 209, 52);"/>
				
					<path d="M 610.299988 505.200012 H 621.099988 V 514.400012 H 610.299988 V 505.200012 Z" id="XMLID_19_" transform="matrix(0.9888 -0.149 0.149 0.9888 -69.0898 97.4256)" class="st6" style="fill: rgb(235, 76, 69);"/>
				
					<path d="M 623.299988 485.899994 H 634.099988 V 512.399994 H 623.299988 V 485.899994 Z" id="XMLID_16_" transform="matrix(0.9888 -0.149 0.149 0.9888 -67.3531 99.2314)" class="st7" style="fill: rgb(249, 139, 56);"/>
				
					<path d="M 636.099976 464.700012 H 646.899976 V 510.300011 H 636.099976 V 464.700012 Z" id="XMLID_15_" transform="matrix(0.9888 -0.149 0.149 0.9888 -65.4818 101.0111)" class="st8" style="fill: rgb(247, 209, 52);"/>
				
					<path d="M 649.900024 457.399994 H 660.700025 V 508.199993 H 649.900024 V 457.399994 Z" id="XMLID_14_" transform="matrix(0.9888 -0.149 0.149 0.9888 -64.6255 103.0199)" class="st9" style="fill: rgb(84, 187, 155);"/>
				
					<path d="M 663.900024 451.799988 H 674.700025 V 506.099987 H 663.900024 V 451.799988 Z" id="XMLID_13_" transform="matrix(0.9888 -0.149 0.149 0.9888 -63.8893 105.0527)" class="st10" style="fill: rgb(40, 190, 224);"/>
				
					<path d="M 677.099976 436 H 687.899976 V 504.099998 H 677.099976 V 436 Z" id="XMLID_10_" transform="matrix(0.9888 -0.149 0.149 0.9888 -62.4105 106.9193)" class="st6" style="fill: rgb(235, 76, 69);"/>
				
					<path d="M 691 429.600006 H 701.8 V 502.000008 H 691 V 429.600006 Z" id="XMLID_9_" transform="matrix(0.9888 -0.149 0.149 0.9888 -61.618 108.9419)" class="st7" style="fill: rgb(249, 139, 56);"/>
				
					<path d="M 706.200012 441.200012 H 717.000012 V 499.800011 H 706.200012 V 441.200012 Z" id="XMLID_11_" transform="matrix(0.9888 -0.149 0.149 0.9888 -62.149 111.2712)" class="st8" style="fill: rgb(247, 209, 52);"/>
			</g>
			
				<path d="M 492.799988 518.200012 H 726.999985 V 521.600012 H 492.799988 V 518.200012 Z" id="XMLID_22_" transform="matrix(0.9888 -0.149 0.149 0.9888 -70.6486 96.6785)" class="st11" style="fill: rgb(65, 64, 66);"/>
			<g id="XMLID_26_">
				<g id="XMLID_28_">
					<g id="XMLID_30_">
						<g id="XMLID_31_">
							<path id="XMLID_186_" class="st10" d="M660.1,357.5c-0.8-5.6-6-9.4-11.6-8.6c-5.6,0.8-9.4,6-8.6,11.6c0.4,2.7,1.9,5,3.9,6.5&#10;&#9;&#9;&#9;&#9;&#9;&#9;&#9;&#9;l-9.3,20.2c-0.5,0-1.1,0-1.6,0.1c-2.8,0.4-5.2,2-6.7,4.1l-20-9.1c0.2-1,0.2-2.1,0.1-3.1c-0.8-5.6-6-9.4-11.6-8.6&#10;&#9;&#9;&#9;&#9;&#9;&#9;&#9;&#9;c-5.6,0.8-9.4,6-8.6,11.6c0.4,2.5,1.7,4.7,3.5,6.2l-23.7,38.8c-1.8-0.9-3.9-1.3-6.1-1c-2.8,0.4-5.2,2-6.7,4.1l-29.3-12.3&#10;&#9;&#9;&#9;&#9;&#9;&#9;&#9;&#9;c0.3-1.3,0.4-2.7,0.2-4c-0.8-5.6-6-9.4-11.6-8.6c-5.6,0.8-9.4,6-8.6,11.6c0.2,1.5,0.8,2.8,1.6,4l-21.3,23.7l3.2,2.9&#10;&#9;&#9;&#9;&#9;&#9;&#9;&#9;&#9;l21.2-23.6c2,1.3,4.4,1.9,6.9,1.5c2.6-0.4,4.8-1.8,6.4-3.7l29.6,12.4c-0.2,1.1-0.3,2.3-0.1,3.5c0.8,5.6,6,9.4,11.6,8.6&#10;&#9;&#9;&#9;&#9;&#9;&#9;&#9;&#9;c5.6-0.8,9.4-6,8.6-11.6c-0.3-1.8-1-3.4-2.1-4.8l24.2-39.5c1.3,0.4,2.8,0.5,4.2,0.3c2.9-0.4,5.4-2.1,6.9-4.4l19.9,9.1&#10;&#9;&#9;&#9;&#9;&#9;&#9;&#9;&#9;c-0.2,1.1-0.3,2.3-0.1,3.5c0.8,5.6,6,9.4,11.6,8.6c5.6-0.8,9.4-6,8.6-11.6c-0.5-3.4-2.7-6.2-5.6-7.6l8.9-19.3&#10;&#9;&#9;&#9;&#9;&#9;&#9;&#9;&#9;c1.2,0.3,2.5,0.4,3.8,0.2c2.5-0.4,4.6-1.6,6.1-3.4l44.6,24.2l2.1-3.8l-44.6-24.2C660.2,360.5,660.3,359,660.1,357.5z&#10;&#9;&#9;&#9;&#9;&#9;&#9;&#9;&#9; M514.8,421.3c-3.2,0.5-6.2-1.7-6.6-4.9c-0.5-3.2,1.7-6.2,4.9-6.6c3.2-0.5,6.2,1.7,6.6,4.9&#10;&#9;&#9;&#9;&#9;&#9;&#9;&#9;&#9;C520.1,417.9,517.9,420.9,514.8,421.3z M562.2,442.1c-3.2,0.5-6.2-1.7-6.6-4.9c-0.5-3.2,1.7-6.2,4.9-6.6&#10;&#9;&#9;&#9;&#9;&#9;&#9;&#9;&#9;c3.2-0.5,6.2,1.7,6.6,4.9C567.6,438.6,565.4,441.6,562.2,442.1z M597,386.5c-3.2,0.5-6.2-1.7-6.6-4.9&#10;&#9;&#9;&#9;&#9;&#9;&#9;&#9;&#9;c-0.5-3.2,1.7-6.2,4.9-6.6c3.2-0.5,6.2,1.7,6.6,4.9C602.4,383,600.2,386,597,386.5z M635.3,403.2c-3.2,0.5-6.2-1.7-6.6-4.9&#10;&#9;&#9;&#9;&#9;&#9;&#9;&#9;&#9;c-0.5-3.2,1.7-6.2,4.9-6.6c3.2-0.5,6.2,1.7,6.6,4.9C640.7,399.7,638.5,402.7,635.3,403.2z M650.9,364.8&#10;&#9;&#9;&#9;&#9;&#9;&#9;&#9;&#9;c-3.2,0.5-6.2-1.7-6.6-4.9c-0.5-3.2,1.7-6.2,4.9-6.6c3.2-0.5,6.2,1.7,6.6,4.9C656.3,361.3,654.1,364.3,650.9,364.8z" style="fill: rgb(48, 207, 255);"/>
						</g>
					</g>
				</g>
				<path d="M 706.599988 388 A 3.3 3.3 0 0 1 703.299988 391.3 A 3.3 3.3 0 0 1 699.999988 388 A 3.3 3.3 0 0 1 703.299988 384.7 A 3.3 3.3 0 0 1 706.599988 388 Z" id="XMLID_23_" class="st10" style="fill: rgb(40, 190, 224);"/>
				<path d="M 489.3 446 A 3.3 3.3 0 0 1 486 449.3 A 3.3 3.3 0 0 1 482.7 446 A 3.3 3.3 0 0 1 486 442.7 A 3.3 3.3 0 0 1 489.3 446 Z" id="XMLID_27_" class="st10" style="fill: rgb(40, 190, 224);"/>
			</g>
			
				<path d="M 503.5 234.100006 H 634.600006 V 263.400005 H 503.5 V 234.100006 Z" id="XMLID_32_" transform="matrix(0.9888 -0.149 0.149 0.9888 -30.7019 87.5642)" class="st10" style="fill: rgb(48, 207, 255);"/>
			
				<path d="M 468.5 287.799988 H 682.300003 V 294.799988 H 468.5 V 287.799988 Z" id="XMLID_34_" transform="matrix(0.9888 -0.149 0.149 0.9888 -36.9823 88.9793)" class="st12" style="fill: rgb(209, 211, 212);"/>
			
				<path d="M 470.200012 299.299988 H 684.000015 V 306.299988 H 470.200012 V 299.299988 Z" id="XMLID_35_" transform="matrix(0.9888 -0.149 0.149 0.9888 -38.6755 89.3658)" class="st12" style="fill: rgb(209, 211, 212);"/>
			
				<path d="M 472 310.799988 H 685.800003 V 317.799988 H 472 V 310.799988 Z" id="XMLID_36_" transform="matrix(0.9888 -0.149 0.149 0.9888 -40.3687 89.7521)" class="st12" style="fill: rgb(209, 211, 212);"/>
			
				<path d="M 473.700012 322.299988 H 687.500015 V 329.299988 H 473.700012 V 322.299988 Z" id="XMLID_55_" transform="matrix(0.9888 -0.149 0.149 0.9888 -42.0619 90.1384)" class="st12" style="fill: rgb(209, 211, 212);"/>
			
				<path d="M 475.399994 333.799988 H 689.199997 V 340.799988 H 475.399994 V 333.799988 Z" id="XMLID_74_" transform="matrix(0.9888 -0.149 0.149 0.9888 -43.755 90.5245)" class="st12" style="fill: rgb(209, 211, 212);"/>
			
				<path d="M 477.700012 353.200012 H 586.000015 V 360.200012 H 477.700012 V 353.200012 Z" id="XMLID_98_" transform="matrix(0.9888 -0.149 0.149 0.9888 -47.2018 83.2249)" class="st12" style="fill: rgb(209, 211, 212);"/>
		</g>
	</g>
	<g id="XMLID_183_">
		<g id="XMLID_119_">
			<path d="M 925.9000244140625 202.1999969482422 L 731.4000244140625 169.60000610351562 L 674 510.79998779296875 L 933.9000244140625 554.5 L 980.2999877929688 278.5 Z" id="XMLID_176_" class="st3" style="fill: rgb(255, 255, 255); stroke: rgb(0, 0, 0);"/>
			<path d="M 915 267.5 L 980.2999877929688 278.5 L 925.9000244140625 202.1999969482422 Z" id="XMLID_129_" class="st5" style="fill: rgb(244, 244, 244);"/>
		</g>
		<g id="XMLID_3_">
			<g id="XMLID_46_">
				<path d="M 734.9000244140625 465.6000061035156 L 891.0999755859375 491.79998779296875 L 877.2000122070312 454.5 L 760.2999877929688 434.79998779296875 Z" id="XMLID_51_" class="st9" style="fill: rgb(84, 187, 155);"/>
				<path d="M 708.9000244140625 500.20001220703125 L 904.4000244140625 533.0999755859375 L 890.5 495.70001220703125 L 734.2000122070312 469.5 Z" id="XMLID_50_" class="st10" style="fill: rgb(40, 190, 224);"/>
				<path d="M 850.7000122070312 371.8999938964844 L 812.2999877929688 365.5 L 787 396.20001220703125 L 864.5999755859375 409.29998779296875 Z" id="XMLID_49_" class="st7" style="fill: rgb(255, 191, 41);"/>
				<path d="M 786.2999877929688 400.20001220703125 L 760.9000244140625 430.8999938964844 L 877.9000244140625 450.6000061035156 L 863.9000244140625 413.20001220703125 Z" id="XMLID_48_" class="st8" style="fill: rgb(255, 204, 85);"/>
				<path d="M 837.7999877929688 331.20001220703125 L 813.0999755859375 361.20001220703125 L 851.4000244140625 367.6000061035156 Z" id="XMLID_47_" class="st6" style="fill: rgb(255, 179, 0);"/>
			</g>
		</g>
		
			<path d="M 789.099976 216.899994 H 920.199982 V 245.499994 H 789.099976 V 216.899994 Z" id="XMLID_52_" transform="matrix(0.9862 0.1657 -0.1657 0.9862 50.1121 -138.383)" class="st6" style="fill: rgb(255, 191, 41);"/>
		
			<path d="M 737.299988 267.5 H 958.699982 V 274.1 H 737.299988 V 267.5 Z" id="XMLID_1227_" transform="matrix(0.9862 0.1657 -0.1657 0.9862 56.5715 -136.7365)" class="st12" style="fill: rgb(209, 211, 212);"/>
		
			<path d="M 735.5 278.100006 H 956.899994 V 284.700006 H 735.5 V 278.100006 Z" id="XMLID_1228_" transform="matrix(0.9862 0.1657 -0.1657 0.9862 58.3053 -136.2944)" class="st12" style="fill: rgb(209, 211, 212);"/>
		
			<path d="M 733.700012 288.700012 H 955.100006 V 295.300012 H 733.700012 V 288.700012 Z" id="XMLID_1229_" transform="matrix(0.9862 0.1657 -0.1657 0.9862 60.0391 -135.8524)" class="st12" style="fill: rgb(209, 211, 212);"/>
		
			<path d="M 731.900024 299.299988 H 953.300018 V 305.899988 H 731.900024 V 299.299988 Z" id="XMLID_1234_" transform="matrix(0.9862 0.1657 -0.1657 0.9862 61.7727 -135.4101)" class="st12" style="fill: rgb(209, 211, 212);"/>
		
			<path d="M 730.099976 309.899994 H 951.499969 V 316.499994 H 730.099976 V 309.899994 Z" id="XMLID_1239_" transform="matrix(0.9862 0.1657 -0.1657 0.9862 63.5065 -134.968)" class="st12" style="fill: rgb(209, 211, 212);"/>
		
			<path d="M 729.599976 306.100006 H 776.999977 V 312.700006 H 729.599976 V 306.100006 Z" id="XMLID_1245_" transform="matrix(0.9862 0.1657 -0.1657 0.9862 61.669 -120.5179)" class="st12" style="fill: rgb(209, 211, 212);"/>
	</g>
	<path d="M 706.2000122070312 274.29998779296875 L 674 510.79998779296875 L 709.7999877929688 298.1000061035156 Z" id="XMLID_17_" class="st13" style="opacity: 0.1; fill: rgb(96, 96, 96);"/>
	<path d="M 674 510.79998779296875 L 745.2999877929688 533.9000244140625 L 743.5999755859375 522.5 Z" id="XMLID_25_" class="st13" style="opacity: 0.1; fill: rgb(96, 96, 96);"/>
</g>
<g id="XMLID_44_" transform="matrix(1, 0, 0, 1, -366.6010437011719, -142.15142440795898)">
	<g id="XMLID_63_">
		<g id="XMLID_127_">
			<path d="M 651.099976 730.299988 H 767.599976 V 779.999989 H 651.099976 V 730.299988 Z" id="XMLID_131_" class="st14" style="fill: rgb(114, 117, 122); stroke: rgb(0, 0, 0);"/>
			<path d="M 651.099976 780 H 767.599976 V 801.200001 H 651.099976 V 780 Z" id="XMLID_132_" class="st15" style="fill: rgb(169, 169, 170); stroke: rgb(0, 0, 0);"/>
		</g>
		<path id="XMLID_66_" class="st11" d="M812.3,801.2H606.4c-0.6,0-1.1,0.1-1.6,0.4l-21.5,11.5c-3.1,1.7-1.9,6.4,1.6,6.4h249&#10;&#9;&#9;&#9;c3.6,0,4.7-4.8,1.6-6.4l-21.5-11.5C813.4,801.4,812.9,801.2,812.3,801.2z" style="fill: rgb(169, 169, 170); stroke: rgb(0, 0, 0);"/>
		<path id="XMLID_65_" class="st11" d="M969.7,773H449c-7.1,0-12.8-5.7-12.8-12.8V436.8c0-7.1,5.7-12.8,12.8-12.8h520.8&#10;&#9;&#9;&#9;c7.1,0,12.8,5.7,12.8,12.8v323.5C982.5,767.3,976.8,773,969.7,773z" style="fill: rgb(169, 169, 170); stroke: rgb(0, 0, 0);"/>
		<path d="M 446.5 433.200012 H 972.200012 V 733.800018 H 446.5 V 433.200012 Z" id="XMLID_64_" class="st3" style="fill: rgb(255, 255, 255);"/>
		<path id="XMLID_79_" class="st16" d="M951.1,758H906c-2.1,0-3.8-1.7-3.8-3.8l0,0c0-2.1,1.7-3.8,3.8-3.8h45.1&#10;&#9;&#9;&#9;c2.1,0,3.8,1.7,3.8,3.8l0,0C954.9,756.3,953.2,758,951.1,758z" style="fill: rgb(47, 47, 49);"/>
	</g>
	<g id="XMLID_2339_">
		<path d="M 530.700012 519.799988 H 881.600006 V 523.999988 H 530.700012 V 519.799988 Z" id="XMLID_2322_" class="st12" style="fill: rgb(209, 211, 212);"/>
		<path d="M 530.700012 528.599976 H 881.600006 V 532.799975 H 530.700012 V 528.599976 Z" id="XMLID_2321_" class="st12" style="fill: rgb(209, 211, 212);"/>
		<path d="M 530.700012 537.400024 H 881.600006 V 541.600024 H 530.700012 V 537.400024 Z" id="XMLID_2320_" class="st12" style="fill: rgb(209, 211, 212);"/>
		<path d="M 530.700012 547.400024 H 881.600006 V 551.600024 H 530.700012 V 547.400024 Z" id="XMLID_2325_" class="st12" style="fill: rgb(209, 211, 212);"/>
		<path d="M 530.700012 556.200012 H 881.600006 V 560.400012 H 530.700012 V 556.200012 Z" id="XMLID_2324_" class="st12" style="fill: rgb(209, 211, 212);"/>
		<path d="M 530.700012 565 H 744.500015 V 569.2 H 530.700012 V 565 Z" id="XMLID_2323_" class="st12" style="fill: rgb(209, 211, 212);"/>
		<path d="M 530.700012 583.799988 H 881.600006 V 587.999988 H 530.700012 V 583.799988 Z" id="XMLID_2327_" class="st12" style="fill: rgb(209, 211, 212);"/>
		<path d="M 530.700012 592.599976 H 691.200012 V 596.799975 H 530.700012 V 592.599976 Z" id="XMLID_2326_" class="st12" style="fill: rgb(209, 211, 212);"/>
		<path d="M 530.700012 611.299988 H 881.600006 V 615.499988 H 530.700012 V 611.299988 Z" id="XMLID_2329_" class="st12" style="fill: rgb(209, 211, 212);"/>
		<path d="M 530.700012 620.099976 H 797.700012 V 624.299975 H 530.700012 V 620.099976 Z" id="XMLID_2328_" class="st12" style="fill: rgb(209, 211, 212);"/>
	</g>
	<path d="M 494.700012 465.200012 H 924.100006 V 496.300013 H 494.700012 V 465.200012 Z" id="XMLID_2305_" class="st8" style="fill: rgb(48, 207, 255);"/>
	<path d="M 714.1 752.799988 A 7.1 7.1 0 0 1 707 759.899988 A 7.1 7.1 0 0 1 699.9 752.799988 A 7.1 7.1 0 0 1 707 745.699988 A 7.1 7.1 0 0 1 714.1 752.799988 Z" id="XMLID_61_" class="st10" style="fill: rgb(48, 207, 255);"/>
</g>
<g id="XMLID_60_" transform="matrix(1, 0, 0, 1, -366.6010437011719, -142.15142440795898)">
	<path d="M 568.200012 712 H 581.400012 V 719.4 H 568.200012 V 712 Z" id="XMLID_108_" class="st6" style="fill: rgb(255, 219, 135);"/>
	<path d="M 585.799988 698.200012 H 598.999988 V 719.500011 H 585.799988 V 698.200012 Z" id="XMLID_105_" class="st7" style="fill: rgb(255, 204, 85);"/>
	<path d="M 603.5 682.799988 H 616.7 V 719.499989 H 603.5 V 682.799988 Z" id="XMLID_104_" class="st8" style="fill: rgb(255, 191, 41);"/>
	<path d="M 621.099976 678.599976 H 634.299975 V 719.399975 H 621.099976 V 678.599976 Z" id="XMLID_103_" class="st9" style="fill: rgb(255, 179, 0);"/>
	<path d="M 638.700012 675.799988 H 651.900012 V 719.499989 H 638.700012 V 675.799988 Z" id="XMLID_99_" class="st10" style="fill: rgb(137, 227, 253);"/>
	<path d="M 656.299988 664.700012 H 669.499988 V 719.400013 H 656.299988 V 664.700012 Z" id="XMLID_97_" class="st6" style="fill: rgb(91, 218, 254);"/>
	<path d="M 674 661.200012 H 687.2 V 719.400013 H 674 V 661.200012 Z" id="XMLID_78_" class="st7" style="fill: rgb(48, 209, 254);"/>
	<path d="M 691.599976 672.299988 H 704.799975 V 719.399986 H 691.599976 V 672.299988 Z" id="XMLID_76_" class="st8" style="fill: rgb(8, 199, 253);"/>
	<path d="M 709.200012 708.099976 H 722.400012 V 719.399976 H 709.200012 V 708.099976 Z" id="XMLID_75_" class="st6" style="fill: rgb(255, 219, 135);"/>
	<path d="M 726.799988 686.900024 H 739.999988 V 719.300026 H 726.799988 V 686.900024 Z" id="XMLID_73_" class="st7" style="fill: rgb(255, 204, 85);"/>
	<path d="M 744.400024 663.5 H 757.600024 V 719.400002 H 744.400024 V 663.5 Z" id="XMLID_72_" class="st8" style="fill: rgb(255, 191, 41);"/>
	<path d="M 762.099976 657.099976 H 775.299975 V 719.399975 H 762.099976 V 657.099976 Z" id="XMLID_71_" class="st9" style="fill: rgb(255, 179, 0);"/>
	<path d="M 779.700012 652.799988 H 792.900012 V 719.399986 H 779.700012 V 652.799988 Z" id="XMLID_70_" class="st10" style="fill: rgb(137, 227, 253);"/>
	<path d="M 797.299988 635.900024 H 810.499988 V 719.300026 H 797.299988 V 635.900024 Z" id="XMLID_69_" class="st6" style="fill: rgb(91, 218, 254);"/>
	<path d="M 814.900024 630.599976 H 828.100024 V 719.299973 H 814.900024 V 630.599976 Z" id="XMLID_68_" class="st7" style="fill: rgb(48, 209, 254);"/>
	<path d="M 832.599976 647.599976 H 845.799975 V 719.399979 H 832.599976 V 647.599976 Z" id="XMLID_62_" class="st8" style="fill: rgb(8, 199, 253);"/>
<path d="M 538.1801147460938 634.9556274414062" style="fill: rgb(255, 204, 85); fill-opacity: 1; stroke: rgb(0, 0, 0); stroke-opacity: 1; stroke-width: 0; paint-order: fill;"/></g>
<g id="XMLID_43_" transform="matrix(1, 0, 0, 1, -366.6010437011719, -142.15142440795898)">
	<path id="XMLID_115_" class="st17" d="M1070.5,444.6L1070.5,444.6c-7.5,7.5-19.7,7.5-27.3,0l-58.8-58.8l27.3-27.3l58.8,58.8&#10;&#9;&#9;C1078,424.9,1078,437.1,1070.5,444.6z" style="fill: rgb(169, 169, 170); stroke: rgb(0, 0, 0);"/>
	<g id="XMLID_116_">
		<g id="XMLID_113_">
			<path id="XMLID_137_" class="st18" d="M1018,364.9l-6.3-6.3l-27.3,27.3l6.3,6.3c5.4-3.3,10.6-7.3,15.3-12&#10;&#9;&#9;&#9;&#9;S1014.7,370.3,1018,364.9z" style="fill: rgb(76, 63, 57);"/>
		</g>
		<path id="XMLID_124_" class="st19" d="M995.2,272.1c-26.8-26.8-70.4-26.8-97.2,0c-26.8,26.8-26.8,70.4,0,97.2s70.4,26.8,97.2,0&#10;&#9;&#9;&#9;S1022,299,995.2,272.1z M991.7,365.8c-24.9,24.9-65.3,24.9-90.2,0c-24.9-24.9-24.9-65.3,0-90.2c24.9-24.9,65.3-24.9,90.2,0&#10;&#9;&#9;&#9;C1016.6,300.6,1016.6,340.9,991.7,365.8z" style="fill: rgb(160, 160, 160);"/>
		<path d="M 1010.399975 320.700012 A 63.799999 63.799999 0 0 1 946.599976 384.500011 A 63.799999 63.799999 0 0 1 882.799976 320.700012 A 63.799999 63.799999 0 0 1 946.599976 256.900013 A 63.799999 63.799999 0 0 1 1010.399975 320.700012 Z" id="XMLID_125_" class="st20" style="opacity: 0.5; fill: rgb(134, 230, 252);"/>
		<path id="XMLID_121_" class="st21" d="M1003.6,263.7c-31.5-31.5-82.5-31.5-114,0s-31.5,82.5,0,114c31.5,31.5,82.5,31.5,114,0&#10;&#9;&#9;&#9;C1035.1,346.3,1035.1,295.2,1003.6,263.7z M995.2,369.4c-26.8,26.8-70.4,26.8-97.2,0s-26.8-70.4,0-97.2&#10;&#9;&#9;&#9;c26.8-26.8,70.4-26.8,97.2,0C1022,299,1022,342.5,995.2,369.4z" style="fill: rgb(169, 169, 170); stroke: rgb(0, 0, 0);"/>
	<path d="M 871.2037353515625 331.25506591796875" style="fill: rgb(169, 169, 170); fill-opacity: 1; stroke: rgb(0, 0, 0); stroke-opacity: 1; stroke-width: 0; paint-order: fill;"/></g>
	<path d="M 1063.800025 431 A 7.4 7.4 0 0 1 1056.400024 438.4 A 7.4 7.4 0 0 1 1049.000024 431 A 7.4 7.4 0 0 1 1056.400024 423.6 A 7.4 7.4 0 0 1 1063.800025 431 Z" id="XMLID_112_" class="st0" style="fill: rgb(48, 207, 255);"/>
<path d="M 998.50146484375 519.57373046875" style="fill: rgb(169, 169, 170); fill-opacity: 1; stroke: rgb(0, 0, 0); stroke-opacity: 1; stroke-width: 0; paint-order: fill;"/></g>
</svg>