<?xml version="1.0" encoding="utf-8"?>
<svg id="master-artboard" viewBox="0 0 1400 980" version="1.1" xmlns="http://www.w3.org/2000/svg" x="0px" y="0px" style="enable-background:new 0 0 1400 980;" width="1400px" height="980px"><g transform="matrix(0.9800000190734863, 0, 0, 0.9800000190734863, 13.999963760375977, 0.0000022451374519505407)">
	<path class="st0" d="M465.5,500c0-38.8,9.4-76.2,27-109.5l-15.4-8.9c-19.2,36-29.4,76.4-29.4,118.4c0,42,10.2,82.4,29.4,118.4&#10;&#9;&#9;l15.4-8.9C474.9,576.2,465.5,538.8,465.5,500z" style="fill: rgb(48, 209, 254);"/>
	<path class="st0" d="M708.9,265.7c59.3,2.2,114.7,26.3,156.9,68.5c12.5,12.5,23.5,26.3,32.7,40.9l15.4-8.9&#10;&#9;&#9;c-10-16-21.9-30.9-35.6-44.6c-45.5-45.5-105.4-71.5-169.5-73.7V265.7z" style="fill: rgb(48, 209, 254);"/>
	<path class="st1" d="M934.5,500c0,38.8-9.4,76.2-27,109.5l15.4,8.9c19.2-36,29.4-76.4,29.4-118.4c0-42-10.2-82.4-29.4-118.4&#10;&#9;&#9;l-15.4,8.9C925.1,423.8,934.5,461.2,934.5,500z" style="fill: rgb(255, 219, 135);"/>
	<path class="st0" d="M898.6,624.9c-9.3,14.6-20.2,28.4-32.7,40.9c-42.2,42.2-97.6,66.3-156.9,68.5v17.8&#10;&#9;&#9;c64.1-2.2,124-28.2,169.5-73.7c13.7-13.7,25.6-28.6,35.6-44.6L898.6,624.9z" style="fill: rgb(48, 209, 254);"/>
	<path class="st1" d="M691.1,734.3c-59.3-2.2-114.7-26.3-156.9-68.5c-12.5-12.5-23.5-26.3-32.7-40.9l-15.4,8.9&#10;&#9;&#9;c10,16,21.9,30.9,35.6,44.6c45.5,45.5,105.5,71.5,169.5,73.7V734.3z" style="fill: rgb(255, 219, 135);"/>
	<path class="st1" d="M501.4,375.1c9.3-14.6,20.2-28.4,32.7-40.9c42.2-42.2,97.6-66.3,156.9-68.5v-17.8&#10;&#9;&#9;c-64.1,2.2-124,28.2-169.5,73.7c-13.7,13.7-25.6,28.6-35.6,44.6L501.4,375.1z" style="fill: rgb(255, 219, 135);"/>
	<path d="M 916.699997 500 A 216.699997 216.699997 0 0 1 700 716.699997 A 216.699997 216.699997 0 0 1 483.300003 500 A 216.699997 216.699997 0 0 1 700 283.300003 A 216.699997 216.699997 0 0 1 916.699997 500 Z" class="st1" style="fill: rgb(255, 219, 135);"/>
	<g>
		<path class="st1" d="M1038.2,504.4h-85.9c-2.5,0-4.4-2-4.4-4.4c0-2.5,2-4.4,4.4-4.4h85.9c2.5,0,4.4,2,4.4,4.4&#10;&#9;&#9;&#9;C1042.7,502.5,1040.7,504.4,1038.2,504.4z" style="fill: rgb(255, 219, 135);"/>
	</g>
	<g>
		<path class="st0" d="M447.7,504.4h-85.9c-2.5,0-4.4-2-4.4-4.4c0-2.5,2-4.4,4.4-4.4h85.9c2.5,0,4.4,2,4.4,4.4&#10;&#9;&#9;&#9;C452.2,502.5,450.2,504.4,447.7,504.4z" style="fill: rgb(82, 179, 225);"/>
	</g>
	<g>
		<path class="st0" d="M816.2,288.6c-1.1,0-2.3-0.4-3.1-1.3c-1.7-1.7-1.7-4.6,0-6.3l64.4-64.4c0.8-0.8,2-1.3,3.1-1.3h157.6&#10;&#9;&#9;&#9;c2.5,0,4.4,2,4.4,4.4c0,2.5-2,4.4-4.4,4.4H882.4l-63.1,63.1C818.5,288.2,817.3,288.6,816.2,288.6z" style="fill: rgb(48, 209, 254);"/>
	</g>
	<g>
		<path class="st1" d="M583.8,288.6c-1.1,0-2.3-0.4-3.1-1.3l-63.1-63.1H361.8c-2.5,0-4.4-2-4.4-4.4c0-2.5,2-4.4,4.4-4.4h157.6&#10;&#9;&#9;&#9;c1.2,0,2.3,0.5,3.1,1.3L587,281c1.7,1.7,1.7,4.6,0,6.3C586.1,288.2,585,288.6,583.8,288.6z" style="fill: rgb(255, 219, 135);"/>
	</g>
	<g>
		<path class="st0" d="M1038.2,784.7H880.6c-1.2,0-2.3-0.5-3.1-1.3L813,719c-1.7-1.7-1.7-4.6,0-6.3c1.7-1.7,4.6-1.7,6.3,0l63.1,63.1&#10;&#9;&#9;&#9;h155.8c2.5,0,4.4,2,4.4,4.4C1042.7,782.7,1040.7,784.7,1038.2,784.7z" style="fill: rgb(48, 209, 254);"/>
	</g>
	<g>
		<path class="st1" d="M519.4,784.7H361.8c-2.5,0-4.4-2-4.4-4.4c0-2.5,2-4.4,4.4-4.4h155.8l63.1-63.1c1.7-1.7,4.6-1.7,6.3,0&#10;&#9;&#9;&#9;c1.7,1.7,1.7,4.6,0,6.3l-64.4,64.4C521.7,784.2,520.6,784.7,519.4,784.7z" style="fill: rgb(255, 219, 135);"/>
	</g>
	<g>
		<path class="st0" d="M845,526.5H555c-4.9,0-8.9-4-8.9-8.9v-35.3c0-4.9,4-8.9,8.9-8.9H845c4.9,0,8.9,4,8.9,8.9v35.3&#10;&#9;&#9;&#9;C853.9,522.5,849.9,526.5,845,526.5z" style="fill: rgb(48, 209, 254);"/>
		<g>
			<path d="M 576.399988 500 A 7.6 7.6 0 0 1 568.799988 507.6 A 7.6 7.6 0 0 1 561.199988 500 A 7.6 7.6 0 0 1 568.799988 492.4 A 7.6 7.6 0 0 1 576.399988 500 Z" class="st2" style="fill: rgb(251, 179, 42);"/>
		</g>
		<g>
			<path class="st2" d="M700,504.4H591.5c-2.5,0-4.4-2-4.4-4.4c0-2.5,2-4.4,4.4-4.4H700c2.5,0,4.4,2,4.4,4.4&#10;&#9;&#9;&#9;&#9;C704.4,502.5,702.5,504.4,700,504.4z" style="fill: rgb(251, 179, 42);"/>
		</g>
		<path class="st0" d="M845,458.3H555c-4.9,0-8.9-4-8.9-8.9v-35.3c0-4.9,4-8.9,8.9-8.9H845c4.9,0,8.9,4,8.9,8.9v35.3&#10;&#9;&#9;&#9;C853.9,454.3,849.9,458.3,845,458.3z" style="fill: rgb(48, 209, 254);"/>
		<g>
			<path d="M 576.399988 431.799988 A 7.6 7.6 0 0 1 568.799988 439.399988 A 7.6 7.6 0 0 1 561.199988 431.799988 A 7.6 7.6 0 0 1 568.799988 424.199988 A 7.6 7.6 0 0 1 576.399988 431.799988 Z" class="st2" style="fill: rgb(255, 191, 41);"/>
		</g>
		<g>
			<path class="st2" d="M700,436.2H591.5c-2.5,0-4.4-2-4.4-4.4c0-2.5,2-4.4,4.4-4.4H700c2.5,0,4.4,2,4.4,4.4&#10;&#9;&#9;&#9;&#9;C704.4,434.3,702.5,436.2,700,436.2z" style="fill: rgb(255, 191, 41);"/>
		</g>
		<path class="st0" d="M845,594.7H555c-4.9,0-8.9-4-8.9-8.9v-35.3c0-4.9,4-8.9,8.9-8.9H845c4.9,0,8.9,4,8.9,8.9v35.3&#10;&#9;&#9;&#9;C853.9,590.7,849.9,594.7,845,594.7z" style="fill: rgb(48, 209, 254);"/>
		<g>
			<path d="M 576.399988 568.200012 A 7.6 7.6 0 0 1 568.799988 575.800012 A 7.6 7.6 0 0 1 561.199988 568.200012 A 7.6 7.6 0 0 1 568.799988 560.600012 A 7.6 7.6 0 0 1 576.399988 568.200012 Z" class="st2" style="fill: rgb(251, 179, 42);"/>
		</g>
		<g>
			<path class="st2" d="M700,572.6H591.5c-2.5,0-4.4-2-4.4-4.4c0-2.5,2-4.4,4.4-4.4H700c2.5,0,4.4,2,4.4,4.4&#10;&#9;&#9;&#9;&#9;C704.4,570.7,702.5,572.6,700,572.6z" style="fill: rgb(251, 179, 42);"/>
		</g>
	</g>
	<path d="M 361.699997 500 A 119.800003 119.800003 0 0 1 241.899994 619.800003 A 119.800003 119.800003 0 0 1 122.099991 500 A 119.800003 119.800003 0 0 1 241.899994 380.199997 A 119.800003 119.800003 0 0 1 361.699997 500 Z" class="st0" style="fill: rgb(48, 209, 254);"/>
	<path d="M 361.699997 780.299988 A 119.800003 119.800003 0 0 1 241.899994 900.099991 A 119.800003 119.800003 0 0 1 122.099991 780.299988 A 119.800003 119.800003 0 0 1 241.899994 660.499985 A 119.800003 119.800003 0 0 1 361.699997 780.299988 Z" class="st1" style="fill: rgb(255, 219, 135);"/>
	<path d="M 1277.899979 219.699997 A 119.800003 119.800003 0 0 1 1158.099976 339.5 A 119.800003 119.800003 0 0 1 1038.299973 219.699997 A 119.800003 119.800003 0 0 1 1158.099976 99.899994 A 119.800003 119.800003 0 0 1 1277.899979 219.699997 Z" class="st0" style="fill: rgb(48, 209, 254);"/>
	<path d="M 1277.899979 500 A 119.800003 119.800003 0 0 1 1158.099976 619.800003 A 119.800003 119.800003 0 0 1 1038.299973 500 A 119.800003 119.800003 0 0 1 1158.099976 380.199997 A 119.800003 119.800003 0 0 1 1277.899979 500 Z" class="st1" style="fill: rgb(255, 219, 135);"/>
	<path d="M 1277.899979 780.299988 A 119.800003 119.800003 0 0 1 1158.099976 900.099991 A 119.800003 119.800003 0 0 1 1038.299973 780.299988 A 119.800003 119.800003 0 0 1 1158.099976 660.499985 A 119.800003 119.800003 0 0 1 1277.899979 780.299988 Z" class="st0" style="fill: rgb(48, 209, 254);"/>
	<path class="st3" d="M357.9,530.3c-0.5-0.5-1-1-1.8-1.8c0,0,0,0-0.1-0.1c-0.5-0.5-0.7-0.7-0.8-0.8c0,0,0,0,0,0c0,0-0.4-0.4-3.3-3.3&#10;&#9;&#9;c0,0,0,0-0.1-0.1c-0.5-0.5-0.7-0.7-0.8-0.8c0,0,0,0,0,0c0,0-0.4-0.4-3.3-3.3c0,0,0,0-0.1-0.1c-2.6-2.6,0.1,0.1-3.4-3.4&#10;&#9;&#9;c0,0,0,0-0.1-0.1c-0.2-0.2-0.4-0.4-0.6-0.6c0,0,0,0-0.1-0.1c-2.4-2.4,0.1,0.1-3.4-3.4c0,0,0,0-0.1-0.1c-0.2-0.2-0.4-0.4-0.6-0.6&#10;&#9;&#9;c0,0,0,0-0.1-0.1c-1.5-1.5-3-3-3.4-3.4c0,0,0,0-0.1-0.1c-0.2-0.2-0.4-0.4-0.6-0.6c0,0,0,0-0.1-0.1c-1.5-1.5-3-3-3.4-3.4&#10;&#9;&#9;c0,0,0,0-0.1-0.1c-0.2-0.2-0.4-0.4-0.6-0.6c0,0,0,0-0.1-0.1c-3.7-3.7-0.5-0.5-3.4-3.4c0,0,0,0-0.1-0.1c-0.5-0.5-0.7-0.7-0.8-0.8&#10;&#9;&#9;c0,0,0,0,0,0c0,0-0.4-0.4-3.3-3.3c0,0,0,0-0.1-0.1c-2.1-2.1-1.8-1.8-4.1-4.1c0,0,0,0-0.1-0.1c-0.5-0.5-0.7-0.7-0.8-0.8c0,0,0,0,0,0&#10;&#9;&#9;c0,0-0.4-0.4-3.3-3.3c0,0,0,0-0.1-0.1c-2.1-2.1-1.8-1.8-4.1-4.1c0,0,0,0-0.1-0.1c-2.1-2.1-1.8-1.8-4.1-4.1c0,0,0,0-0.1-0.1&#10;&#9;&#9;c-2.1-2.1-1.8-1.8-4.1-4.1c0,0,0,0-0.1-0.1c-2.6-2.6,0.1,0.1-3.4-3.4c0,0,0,0-0.1-0.1c-0.2-0.2-0.4-0.4-0.6-0.6c0,0,0,0-0.1-0.1&#10;&#9;&#9;c-2.4-2.4,0.1,0.1-3.4-3.4c0,0,0,0-0.1-0.1c-0.2-0.2-0.4-0.4-0.6-0.6l0,0l0,0c-2.6-2.6,0.1,0.1-3.4-3.4c0,0,0,0-0.1-0.1&#10;&#9;&#9;c-0.2-0.2-0.4-0.4-0.6-0.6c0,0,0,0-0.1-0.1c-2.1-2.1-1.3-1.3-3.5-3.5h0c-1.2-1.2,1.3,1.3-4.2-4.2h0l-0.7-0.7&#10;&#9;&#9;c-1.7-1.7-4.6-1.7-6.3,0l-6.3,6.3c-0.3-0.3-18.8-18.8-19.2-19.1c-0.8-1-2.1-1.7-3.5-1.7h-9c-2.5,0-4.4,2-4.4,4.4v11.3&#10;&#9;&#9;c-5.8,1.1-11.4,3.4-16.5,6.8l-0.3-0.3c-0.5-0.5-0.9-0.9-1.4-1.4c-1-1-1.8-1.8-2.8-2.8l-0.7-0.7l-0.7-0.7c-0.1-0.1-0.7-0.7-2.1-2.1&#10;&#9;&#9;c-1.7-1.7-4.6-1.7-6.3,0l-6.3,6.3c-1.7,1.7-1.7,4.6,0,6.3l8,8c-3.4,5-5.7,10.6-6.8,16.5h-11.3c-2.5,0-4.4,2-4.4,4.4v9&#10;&#9;&#9;c0,1.4,0.7,2.6,1.7,3.5c0,0,19.1,19.2,19.1,19.2l-6.3,6.3c-1.7,1.7-1.7,4.6,0,6.3c9.1,9.1,43.2,43.2,76.3,76.3&#10;&#9;&#9;C314.1,605.1,347,572.1,357.9,530.3z" style="fill: rgb(1, 192, 246);"/>
	<path class="st3" d="M1274.1,249.9c0,0-75.5-75.6-73.1-73.1c-11.8-11.8-27.4-17.8-43-17.8c-15.6,0-31.1,5.9-43,17.8&#10;&#9;&#9;c-23.7,23.7-23.7,62.2,0,85.9c0,0,73.1,73.1,73.1,73.1C1230.2,324.9,1263.2,291.8,1274.1,249.9z" style="fill: rgb(1, 192, 246);"/>
	<path class="st3" d="M1277.9,780.3c0-2.1-0.1-4.3-0.2-6.4c-0.1-0.1-0.2-0.2-0.3-0.3c-0.4-0.4-45.6-45.6-46.2-46.2&#10;&#9;&#9;c-1.6-1.9-4-3-6.7-3h-133c-4.9,0-8.9,4-8.9,8.9v94c0,2.7,1.2,5.1,3,6.7c0.9,1,65.1,65.1,66,66c2.1,0.1,4.2,0.2,6.4,0.2&#10;&#9;&#9;C1224.3,900.1,1277.9,846.5,1277.9,780.3z" style="fill: rgb(1, 192, 246);"/>
	<path d="M 361.699997 219.699997 A 119.800003 119.800003 0 0 1 241.899994 339.5 A 119.800003 119.800003 0 0 1 122.099991 219.699997 A 119.800003 119.800003 0 0 1 241.899994 99.899994 A 119.800003 119.800003 0 0 1 361.699997 219.699997 Z" class="st1" style="fill: rgb(255, 219, 135);"/>
	<path class="st4" d="M357.9,249.9c-36.1-36.1-72.4-72.4-72.7-72.7c-11-11.2-26.4-18.2-43.3-18.2c-33.5,0-60.8,27.3-60.8,60.8&#10;&#9;&#9;c0,16.9,7,32.3,18.2,43.3c0.2,0.2,36.6,36.6,72.7,72.7C314,324.9,347.1,291.9,357.9,249.9z" style="fill: rgb(255, 204, 122);"/>
	<path class="st4" d="M1277.9,500c0-3.1-0.1-6.1-0.3-9.1c-0.1-0.1-0.2-0.2-0.4-0.3c-0.3-0.3-0.5-0.6-0.9-0.9&#10;&#9;&#9;c-0.3-0.3-0.5-0.6-0.9-0.9c-0.3-0.3-0.5-0.6-0.9-0.9c-0.3-0.3-0.5-0.6-0.9-0.9c-0.3-0.3-0.5-0.6-0.9-0.9c-0.3-0.3-0.5-0.6-0.9-0.9&#10;&#9;&#9;c-0.3-0.3-0.5-0.6-0.9-0.9c-0.3-0.3-0.5-0.6-0.9-0.9c-0.3-0.3-0.5-0.6-0.9-0.9c-0.3-0.3-0.5-0.6-0.9-0.9c-0.3-0.3-0.5-0.6-0.9-0.9&#10;&#9;&#9;c-0.3-0.3-0.5-0.6-0.9-0.9c-0.3-0.3-0.5-0.6-0.9-0.9c-0.3-0.3-0.5-0.6-0.9-0.9c-0.3-0.3-0.5-0.6-0.9-0.9c-0.3-0.3-0.5-0.6-0.9-0.9&#10;&#9;&#9;c-0.3-0.3-0.5-0.6-0.9-0.9c-0.3-0.3-0.5-0.6-0.9-0.9c-0.3-0.3-0.5-0.6-0.9-0.9c-0.3-0.3-0.5-0.6-0.9-0.9c-0.3-0.3-0.5-0.6-0.9-0.9&#10;&#9;&#9;c-0.3-0.3-0.5-0.6-0.9-0.9c-0.3-0.3-0.5-0.6-0.9-0.9c-0.3-0.3-0.5-0.6-0.9-0.9c-0.3-0.3-0.5-0.6-0.9-0.9c-0.3-0.3-0.5-0.6-0.9-0.9&#10;&#9;&#9;c-0.3-0.3-0.5-0.6-0.9-0.9c-0.3-0.3-0.5-0.6-0.9-0.9c-0.3-0.3-0.5-0.6-0.9-0.9c-0.3-0.3-0.5-0.6-0.9-0.9c-0.3-0.3-0.5-0.6-0.9-0.9&#10;&#9;&#9;c-0.3-0.3-0.5-0.6-0.9-0.9c-0.3-0.3-0.5-0.6-0.9-0.9c-0.3-0.3-0.5-0.6-0.9-0.9c-0.3-0.3-0.5-0.6-0.9-0.9c-0.3-0.3-0.5-0.6-0.9-0.9&#10;&#9;&#9;c-0.3-0.3-0.5-0.6-0.9-0.9c-0.3-0.3-0.5-0.6-0.9-0.9c-0.3-0.3-0.5-0.6-0.9-0.9c-0.3-0.3-0.5-0.6-0.9-0.9c-0.3-0.3-0.5-0.6-0.9-0.9&#10;&#9;&#9;c-0.3-0.3-0.5-0.6-0.9-0.9c-0.3-0.3-0.5-0.6-0.9-0.9c-0.3-0.3-0.5-0.6-0.9-0.9c-0.3-0.3-0.5-0.6-0.9-0.9c-0.3-0.3-0.5-0.6-0.9-0.9&#10;&#9;&#9;c-0.3-0.3-0.5-0.6-0.9-0.9c-0.3-0.3-0.5-0.6-0.9-0.9c-0.3-0.3-0.5-0.6-0.9-0.9c-0.3-0.3-0.5-0.6-0.9-0.9c-0.3-0.3-0.5-0.6-0.9-0.9&#10;&#9;&#9;c-0.8-1.1-2.1-1.8-3.5-1.8h-90.3l-0.6-0.7h-0.2l-0.7-0.9h-0.2l-0.7-0.9h-0.2l-0.7-0.9h-0.2l-0.7-0.9h-0.2l-0.7-0.9h-0.2l-0.7-0.9&#10;&#9;&#9;h-0.2l-0.7-0.9h-0.2l-0.7-0.9h-0.2l-0.7-0.9h-0.2l-0.7-0.9h-0.2l-0.7-0.9h-0.2l-0.7-0.9h-44.9v22.5v80.5c0,2.7,1.2,5.1,3.1,6.7&#10;&#9;&#9;c0.5,0.6,76.6,76.7,77.1,77.1c0.1,0.1,0.1,0.1,0.2,0.2C1226.9,617.2,1277.9,564.5,1277.9,500z" style="fill: rgb(255, 204, 122);"/>
	<path class="st0" d="M241.9,280.5c-33.5,0-60.8-27.3-60.8-60.8s27.3-60.8,60.8-60.8s60.8,27.3,60.8,60.8S275.4,280.5,241.9,280.5z" style="fill: rgb(48, 209, 254);"/>
	<g>
		<g>
			<path class="st5" d="M241.9,193.8c15.5,0,30.1,3,41,8.4c9.8,4.9,15.4,11.3,15.4,17.5c0,6.2-5.6,12.6-15.4,17.5&#10;&#9;&#9;&#9;&#9;c-10.9,5.4-25.4,8.4-41,8.4c-15.5,0-30.1-3-41-8.4c-9.8-4.9-15.4-11.3-15.4-17.5c0-6.2,5.6-12.6,15.4-17.5&#10;&#9;&#9;&#9;&#9;C211.8,196.8,226.4,193.8,241.9,193.8 M241.9,189.4c-33.5,0-60.8,13.6-60.8,30.4s27.3,30.4,60.8,30.4s60.8-13.6,60.8-30.4&#10;&#9;&#9;&#9;&#9;S275.4,189.4,241.9,189.4L241.9,189.4z" style="fill: rgb(255, 255, 255);"/>
		</g>
		<g>
			<path class="st5" d="M241.9,163.4c6.2,0,12.6,5.6,17.5,15.4c5.4,10.9,8.4,25.4,8.4,41c0,15.5-3,30.1-8.4,41&#10;&#9;&#9;&#9;&#9;c-4.9,9.8-11.3,15.4-17.5,15.4c-6.2,0-12.6-5.6-17.5-15.4c-5.4-10.9-8.4-25.4-8.4-41c0-15.5,3-30.1,8.4-41&#10;&#9;&#9;&#9;&#9;C229.3,169,235.7,163.4,241.9,163.4 M241.9,159c-16.8,0-30.4,27.3-30.4,60.8s13.6,60.8,30.4,60.8c16.8,0,30.4-27.3,30.4-60.8&#10;&#9;&#9;&#9;&#9;S258.7,159,241.9,159L241.9,159z" style="fill: rgb(255, 255, 255);"/>
		</g>
		<g>
			<path d="M 181.199997 217.5 H 302.699997 V 221.9 H 181.199997 V 217.5 Z" class="st5" style="fill: rgb(255, 255, 255);"/>
		</g>
		<g>
			<path d="M 239.699997 159 H 244.099997 V 280.5 H 239.699997 V 159 Z" class="st5" style="fill: rgb(255, 255, 255);"/>
		</g>
	</g>
	<g>
		<path class="st2" d="M197,508.9c1.2,5.9,3.5,11.5,6.8,16.5l-8,8c-1.7,1.7-1.7,4.6,0,6.3l6.3,6.3c1.7,1.7,4.6,1.7,6.3,0l8-8&#10;&#9;&#9;&#9;c5.1,3.4,10.7,5.7,16.5,6.8v11.3c0,2.5,2,4.4,4.4,4.4h9c2.5,0,4.4-2,4.4-4.4v-11.3c5.8-1.1,11.4-3.4,16.5-6.8l8,8&#10;&#9;&#9;&#9;c1.7,1.7,4.6,1.7,6.3,0l6.3-6.3c1.7-1.7,1.7-4.6,0-6.3l-8-8c3.4-5,5.7-10.6,6.8-16.5h11.3c2.5,0,4.4-2,4.4-4.4v-9&#10;&#9;&#9;&#9;c0-2.5-2-4.4-4.4-4.4h-11.3c-1.2-5.9-3.5-11.5-6.8-16.5l8-8c1.7-1.7,1.7-4.6,0-6.3l-6.3-6.3c-1.7-1.7-4.6-1.7-6.3,0l-8,8&#10;&#9;&#9;&#9;c-5.1-3.4-10.7-5.7-16.5-6.8v-11.3c0-2.5-2-4.4-4.4-4.4h-9c-2.5,0-4.4,2-4.4,4.4v11.3c-5.8,1.1-11.4,3.4-16.5,6.8l-8-8&#10;&#9;&#9;&#9;c-1.7-1.7-4.6-1.7-6.3,0l-6.3,6.3c-1.7,1.7-1.7,4.6,0,6.3l8,8c-3.4,5-5.7,10.6-6.8,16.5h-11.3c-2.5,0-4.4,2-4.4,4.4v9&#10;&#9;&#9;&#9;c0,2.5,2,4.4,4.4,4.4H197z M214.6,500c0-15.1,12.2-27.3,27.3-27.3h0c15.1,0,27.3,12.2,27.3,27.3v0c0,15.1-12.2,27.3-27.3,27.3h0&#10;&#9;&#9;&#9;C226.8,527.3,214.6,515.1,214.6,500L214.6,500z" style="fill: rgb(255, 191, 41);"/>
		<g>
			<path d="M 250.799994 500 A 8.9 8.9 0 0 1 241.899994 508.9 A 8.9 8.9 0 0 1 232.999994 500 A 8.9 8.9 0 0 1 241.899994 491.1 A 8.9 8.9 0 0 1 250.799994 500 Z" class="st2" style="fill: rgb(251, 179, 42);"/>
		</g>
		<g>
			<path class="st2" d="M269.2,501.5h-54.6c-0.8,0-1.5-0.7-1.5-1.5s0.7-1.5,1.5-1.5h54.6c0.8,0,1.5,0.7,1.5,1.5&#10;&#9;&#9;&#9;&#9;S270,501.5,269.2,501.5z" style="fill: rgb(251, 179, 42);"/>
		</g>
		<g>
			<path class="st2" d="M241.9,528.8c-0.8,0-1.5-0.7-1.5-1.5v-54.6c0-0.8,0.7-1.5,1.5-1.5s1.5,0.7,1.5,1.5v54.6&#10;&#9;&#9;&#9;&#9;C243.4,528.1,242.8,528.8,241.9,528.8z" style="fill: rgb(251, 179, 42);"/>
		</g>
		<g>
			<path class="st2" d="M222.6,520.8c-0.4,0-0.8-0.1-1.1-0.4c-0.6-0.6-0.6-1.6,0-2.1l38.6-38.6c0.6-0.6,1.6-0.6,2.1,0&#10;&#9;&#9;&#9;&#9;c0.6,0.6,0.6,1.6,0,2.1l-38.6,38.6C223.4,520.7,223,520.8,222.6,520.8z" style="fill: rgb(251, 179, 42);"/>
		</g>
		<g>
			<path class="st2" d="M261.2,520.8c-0.4,0-0.8-0.1-1.1-0.4l-38.6-38.6c-0.6-0.6-0.6-1.6,0-2.1c0.6-0.6,1.6-0.6,2.1,0l38.6,38.6&#10;&#9;&#9;&#9;&#9;c0.6,0.6,0.6,1.6,0,2.1C262,520.7,261.6,520.8,261.2,520.8z" style="fill: rgb(255, 191, 41);"/>
		</g>
	</g>
	<path class="st4" d="M360.1,800C360.1,799.9,360.1,799.9,360.1,800c-0.6-0.6-83.8-83.8-84.1-84.1c-0.2-0.3-0.5-0.5-0.8-0.8&#10;&#9;&#9;c-8.5-8.7-20.3-14.1-33.4-14.1c-25.7,0-46.7,20.9-46.7,46.7v19.6l-9.7,1.6c-2.4,0.4-4.2,2.5-4.2,4.9v71.4c0,1.6,0.7,3,1.9,3.9&#10;&#9;&#9;c0.3,0.3,4.3,4.4,4.5,4.5c0.5,0.6,45.6,45.7,46.1,46.1c2.7,0.2,5.3,0.3,8,0.3C301.4,900.1,350.7,856.8,360.1,800z" style="fill: rgb(255, 204, 122);"/>
	<g>
		<path class="st2" d="M1115.1,176.8c-23.7,23.7-23.7,62.2,0,85.9c11.8,11.8,27.4,17.8,43,17.8V159&#10;&#9;&#9;&#9;C1142.5,159,1127,164.9,1115.1,176.8z" style="fill: rgb(255, 191, 41);"/>
		<path class="st5" d="M1201,176.8c-11.8-11.8-27.4-17.8-43-17.8v60.7h60.7C1218.8,204.2,1212.9,188.6,1201,176.8z" style="fill: rgb(255, 255, 255);"/>
		<path class="st5" d="M1201,262.7c11.8-11.8,17.8-27.4,17.8-43h-60.7L1201,262.7L1201,262.7z" style="fill: rgb(255, 255, 255);"/>
		<path class="st2" d="M1158.1,280.5c15.6,0,31.1-5.9,43-17.8l-43-43h0V280.5z" style="fill: rgb(251, 179, 42);"/>
	</g>
	<path class="st2" d="M1233.5,455.3h-107.5v-11.2H1229c2.5,0,4.4,2,4.4,4.4V455.3z" style="fill: rgb(251, 179, 42);"/>
	<path class="st0" d="M1145.4,455.3l-17.8-22.5h-44.9v22.5v80.5c0,4.9,4,8.9,8.9,8.9h133c4.9,0,8.9-4,8.9-8.9v-80.5H1145.4z" style="fill: rgb(48, 209, 254);"/>
	<path d="M 1100.5 488.899994 H 1145 V 511.099995 H 1100.5 V 488.899994 Z" class="st5" style="fill: rgb(255, 255, 255);"/>
	<path d="M 1215.7 515.700012 A 11.2 11.2 0 0 1 1204.5 526.900012 A 11.2 11.2 0 0 1 1193.3 515.700012 A 11.2 11.2 0 0 1 1204.5 504.500012 A 11.2 11.2 0 0 1 1215.7 515.700012 Z" class="st5" style="fill: rgb(255, 255, 255);"/>
	<path class="st2" d="M1224.6,724.4h-133c-4.9,0-8.9,4-8.9,8.9v94c0,4.9,4,8.9,8.9,8.9h133c4.9,0,8.9-4,8.9-8.9v-94&#10;&#9;&#9;C1233.5,728.3,1229.5,724.4,1224.6,724.4z" style="fill: rgb(251, 179, 42);"/>
	
		<path d="M 1120 722.700012 H 1196.199997 V 837.900009 H 1120 V 722.700012 Z" transform="matrix(-1.836970e-16 1 -1 -1.836970e-16 1938.3455 -377.8253)" class="st5" style="fill: rgb(255, 255, 255);"/>
	<path d="M 1158.0999755859375 818.4000244140625 L 1100.5 818.4000244140625 L 1129.300048828125 780.2999877929688 Z" class="st0" style="fill: rgb(48, 209, 254);"/>
	<path d="M 1215.699951171875 818.4000244140625 L 1129.300048828125 818.4000244140625 L 1172.5 761.2000122070312 Z" class="st0" style="fill: rgb(48, 209, 254);"/>
	<g>
		<path class="st2" d="M200.6,775c-3,0-5.4-2.4-5.4-5.4v-21.9c0-25.7,20.9-46.7,46.7-46.7c25.7,0,46.7,20.9,46.7,46.7&#10;&#9;&#9;&#9;c0,3-2.4,5.4-5.4,5.4s-5.4-2.4-5.4-5.4c0-19.8-16.1-36-36-36c-19.8,0-36,16.1-36,36v21.9C206,772.6,203.6,775,200.6,775z" style="fill: rgb(251, 179, 42);"/>
	</g>
	<path class="st0" d="M298.3,850.2l-56.4,9.3l-56.4-9.3c-2.4-0.4-4.2-2.5-4.2-4.9v-71.4c0-2.4,1.8-4.5,4.2-4.9l56.4-9.3l56.4,9.3&#10;&#9;&#9;c2.4,0.4,4.2,2.5,4.2,4.9v71.4C302.5,847.7,300.7,849.8,298.3,850.2z" style="fill: rgb(48, 209, 254);"/>
	<path d="M 302.5 838.7999877929688 L 288.6000061035156 821.9000244140625 L 288.6000061035156 797.2000122070312 L 302.5 780.2999877929688 Z" class="st5" style="fill: rgb(255, 255, 255);"/>
	<path d="M 181.3000030517578 838.7999877929688 L 195.1999969482422 821.9000244140625 L 195.1999969482422 797.2000122070312 L 181.3000030517578 780.2999877929688 Z" class="st5" style="fill: rgb(255, 255, 255);"/>
	<path d="M 250.699994 809.599976 A 8.8 8.8 0 0 1 241.899994 818.399976 A 8.8 8.8 0 0 1 233.099994 809.599976 A 8.8 8.8 0 0 1 241.899994 800.799975 A 8.8 8.8 0 0 1 250.699994 809.599976 Z" class="st5" style="fill: rgb(255, 255, 255);"/>
</g></svg>