<?xml version="1.0" encoding="utf-8"?>
<svg id="master-artboard" viewBox="0 0 1400 980" version="1.1" xmlns="http://www.w3.org/2000/svg" x="0px" y="0px" width="1400px" height="980px" enable-background="new 0 0 1400 980"><rect id="ee-background" x="0" y="0" width="1400" height="980" style="fill: white; fill-opacity: 0; pointer-events: none;"/>
<path d="M 139.6999969482422 626.4000244140625 L 101 626.4000244140625 L 139.6999969482422 660.0999755859375 Z" fill="#E6CA8A" transform="matrix(1.0518206088849669, 0, 0, 1.0518206088849669, 850.9766091289135, -438.784520586398)" style="fill: rgb(96, 219, 215);"/><path d="M139.7,662.2c-0.5,0-1-0.2-1.4-0.5L99.6,628c-0.7-0.6-0.9-1.5-0.6-2.4c0.3-0.8,1.1-1.4,2-1.4h38.7c1.2,0,2.1,1,2.1,2.1&#10;&#9;&#9;&#9;v33.7c0,0.8-0.5,1.6-1.3,2C140.3,662.2,140,662.2,139.7,662.2z M106.7,628.6l30.8,26.8v-26.8H106.7z" transform="matrix(1.0518206088849669, 0, 0, 1.0518206088849669, 850.9766091289135, -438.784520586398)"/><path d="M 387.3999938964844 660.0999755859375 L 426.1000061035156 626.4000244140625 L 387.3999938964844 626.4000244140625 Z" fill="#E6CA8A" transform="matrix(1.0518206088849669, 0, 0, 1.0518206088849669, 850.9766091289135, -438.784520586398)" style="fill: rgb(96, 219, 215);"/><path d="M387.4,662.2c-0.3,0-0.6-0.1-0.9-0.2c-0.8-0.3-1.3-1.1-1.3-2v-33.7c0-1.2,1-2.1,2.1-2.1h38.7c0.9,0,1.7,0.6,2,1.4&#10;&#9;&#9;&#9;c0.3,0.8,0.1,1.8-0.6,2.4l-38.7,33.7C388.5,662,388,662.2,387.4,662.2z M389.6,628.6v26.8l30.8-26.8H389.6z" transform="matrix(1.0518206088849669, 0, 0, 1.0518206088849669, 850.9766091289135, -438.784520586398)"/><path d="M 139.6999969482422 592.7999877929688 L 101 626.4000244140625 L 139.6999969482422 626.4000244140625 Z" fill="#FFE399" transform="matrix(1.0518206088849669, 0, 0, 1.0518206088849669, 850.9766091289135, -438.784520586398)" style="fill: rgb(96, 219, 215);"/><path d="M139.7,628.6H101c-0.9,0-1.7-0.6-2-1.4c-0.3-0.8-0.1-1.8,0.6-2.4l38.7-33.7c0.6-0.6,1.5-0.7,2.3-0.3&#10;&#9;&#9;&#9;c0.8,0.3,1.3,1.1,1.3,2v33.7C141.8,627.6,140.9,628.6,139.7,628.6z M106.7,624.3h30.8v-26.8L106.7,624.3z" transform="matrix(1.0518206088849669, 0, 0, 1.0518206088849669, 850.9766091289135, -438.784520586398)"/><path d="M 426.1000061035156 626.4000244140625 L 387.3999938964844 592.7999877929688 L 387.3999938964844 626.4000244140625 Z" fill="#FFE399" transform="matrix(1.0518206088849669, 0, 0, 1.0518206088849669, 850.9766091289135, -438.784520586398)" style="fill: rgb(96, 219, 215);"/><path d="M426.1,628.6h-38.7c-1.2,0-2.1-1-2.1-2.1v-33.7c0-0.8,0.5-1.6,1.3-2c0.8-0.3,1.7-0.2,2.3,0.3l38.7,33.7&#10;&#9;&#9;&#9;c0.7,0.6,0.9,1.5,0.6,2.4C427.8,628,427,628.6,426.1,628.6z M389.6,624.3h30.8l-30.8-26.8V624.3z" transform="matrix(1.0518206088849669, 0, 0, 1.0518206088849669, 850.9766091289135, -438.784520586398)"/><path d="M263.6,770.1c-0.5,0-1-0.2-1.4-0.5L138.3,661.7c-0.5-0.4-0.7-1-0.7-1.6V424.2c0-1.2,1-2.1,2.1-2.1h247.8&#10;&#9;&#9;&#9;c1.2,0,2.1,1,2.1,2.1v235.9c0,0.6-0.3,1.2-0.7,1.6L265,769.5C264.6,769.9,264.1,770.1,263.6,770.1z M141.8,659.1l121.7,106&#10;&#9;&#9;&#9;l121.7-106V426.3H141.8V659.1z" transform="matrix(1.0518206088849669, 0, 0, 1.0518206088849669, 850.9766091289135, -438.784520586398)"/><path d="M 387.3999938964844 660.0999755859375 L 263.6000061035156 767.9000244140625 L 139.6999969482422 660.0999755859375 L 101 626.4000244140625 L 101 849.7999877929688 L 426.1000061035156 849.7999877929688 L 426.1000061035156 626.4000244140625 Z" fill="#FFE399" transform="matrix(1.0518206088849669, 0, 0, 1.0518206088849669, 850.9766091289135, -438.784520586398)" style="fill: rgb(40, 129, 255);"/><path d="M426.1,852H101c-1.2,0-2.1-1-2.1-2.1V626.4c0-0.8,0.5-1.6,1.3-2c0.8-0.3,1.7-0.2,2.3,0.3l161.1,140.3l161.1-140.3&#10;&#9;&#9;&#9;c0.6-0.6,1.5-0.7,2.3-0.3c0.8,0.3,1.3,1.1,1.3,2v223.4C428.3,851,427.3,852,426.1,852z M103.2,847.7H424V631.1L265,769.5&#10;&#9;&#9;&#9;c-0.8,0.7-2,0.7-2.8,0l-159-138.4V847.7z" transform="matrix(1.051820635795593, 0, 0, 1.051820635795593, 853.3723575071529, -438.7845153808594)"/><path d="M 186.399994 473 H 339.299988 V 668.300003 H 186.399994 V 473 Z" fill="#F1F2F2" transform="matrix(1.0518206088849669, 0, 0, 1.0518206088849669, 850.9766091289135, -438.784520586398)"/><path d="M339.3,670.5H186.4c-1.2,0-2.1-1-2.1-2.1V473c0-1.2,1-2.1,2.1-2.1h152.9c1.2,0,2.1,1,2.1,2.1v195.3&#10;&#9;&#9;&#9;C341.4,669.6,340.5,670.5,339.3,670.5z M188.5,666.2h148.6v-191H188.5V666.2z" transform="matrix(1.0518206088849669, 0, 0, 1.0518206088849669, 850.9766091289135, -438.784520586398)"/><g transform="matrix(1.0518206088849669, 0, 0, 1.0518206088849669, 850.9766091289135, -438.784520586398)">
			<path d="M266.2,655.3v-15.9h-2.1c-0.9,0-1.9,0-3-0.1c-1-0.1-2.1-0.1-3.1-0.3l-1-0.1v16.4h-4.6v-17.1l-0.7-0.2&#10;&#9;&#9;&#9;&#9;c-6.8-1.6-12.6-4.7-17.3-9.1c-7.4-7.1-11.7-16.8-12.7-29.1h4.1c0.8,11,4.7,19.8,11.5,26.3c3.7,3.7,8.4,6.5,13.9,8.1l1.1,0.3&#10;&#9;&#9;&#9;&#9;v-53.5l4.6,1.3v53l0.7,0.1c2.2,0.4,4.3,0.5,6.5,0.5h1.9v-48.8l4.6,1.2v47.3l1-0.1c7.4-1.1,13.8-3.8,19-8c6.9-5.6,10.4-13,10.4-22&#10;&#9;&#9;&#9;&#9;c0-10-4.1-17.7-12.2-22.8c-4-2.4-12.4-5.5-25.6-9.3l-2.3-0.7c-14.5-4.1-23.7-7.9-27.4-11.3c-5.8-5.2-8.7-12.1-8.7-20.4&#10;&#9;&#9;&#9;&#9;c0-9.6,3.4-17.5,10.1-23.6c4.7-4,10.3-6.6,16.7-7.7l0.7-0.1v-19.3h4.6v18.7l1-0.2c0.7-0.1,1.3-0.2,2-0.2h3.7&#10;&#9;&#9;&#9;&#9;c0.4,0,0.9,0.1,1.4,0.2l1,0.2v-18.7h4.6v19.1l0.7,0.1c7.4,1.1,13.8,4.2,19,9c6.8,6.1,10.6,14.8,11.3,25.7h-3.9&#10;&#9;&#9;&#9;&#9;c-0.4-9.7-3.8-17.5-10.1-23.3c-4.5-4.1-9.8-6.8-15.9-8l-1-0.2v49.4l-4.6-1.3V512h-6.3c-0.8,0-1.5,0.1-2.1,0.2l-0.7,0.1v45.5&#10;&#9;&#9;&#9;&#9;l-4.6-1.3v-43.7l-1.1,0.3c-5.5,1.3-10.1,3.6-13.6,6.7c-5.9,5.2-8.9,12.4-8.9,21.3c0,6.8,2.7,12.8,8,17.8&#10;&#9;&#9;&#9;&#9;c4,3.7,12.4,7.1,25.4,10.4c0.1,0.1,0.6,0.2,1.1,0.3c0.3,0,0.8,0.2,1.3,0.4c6.8,1.7,12.4,3.4,17,5.1c4.5,1.7,8.1,3.4,10.8,5.1&#10;&#9;&#9;&#9;&#9;c8.6,5.6,13,13.6,13,23.8c0,10.8-3.8,19.4-11.2,25.8c-5.8,4.9-13.5,8.1-22.7,9.3l-0.7,0.1v16.1H266.2z"/>
		</g><path fill="#F1F2F2" d="M500.5,809.6v11c0,16.1,13.1,29.2,29.2,29.2h356.7c16.1,0,29.2-13.1,29.2-29.2v-11H500.5z" transform="matrix(1.4971507787704468, 0, 0, 1.4971507787704468, -263.69257406612206, -406.01883564152354)"/><path d="M886.4,851.9H529.8c-17.3,0-31.4-14.1-31.4-31.4v-11c0-1.2,1-2.1,2.1-2.1h415.1c1.2,0,2.1,1,2.1,2.1v11&#10;&#9;&#9;&#9;C917.8,837.8,903.7,851.9,886.4,851.9z M502.7,811.7v8.8c0,14.9,12.1,27.1,27.1,27.1h356.7c14.9,0,27.1-12.1,27.1-27.1v-8.8H502.7&#10;&#9;&#9;&#9;z" transform="matrix(1.4971507787704468, 0, 0, 1.4971507787704468, -263.69257406612206, -406.01883564152354)"/><path d="M751,831.8h-85.9c-1.2,0-2.1-1-2.1-2.1v-9.5c0-1.2,1-2.1,2.1-2.1c1.2,0,2.1,1,2.1,2.1v7.4h81.6v-7.4c0-1.2,1-2.1,2.1-2.1&#10;&#9;&#9;&#9;c1.2,0,2.1,1,2.1,2.1v9.5C753.2,830.9,752.2,831.8,751,831.8z" transform="matrix(1.4971507787704468, 0, 0, 1.4971507787704468, -263.69257406612206, -406.01883564152354)"/><g transform="matrix(1.4971507787704468, 0, 0, 1.4971507787704468, -263.69257406612206, -406.01883564152354)">
			<path d="M 537.099976 588 H 878.999969 V 618.299999 H 537.099976 V 588 Z" fill="#A7A9AC"/>
			<path d="M879.1,620.5H537.1c-1.2,0-2.1-1-2.1-2.1V588c0-1.2,1-2.1,2.1-2.1h341.9c1.2,0,2.1,1,2.1,2.1v30.3&#10;&#9;&#9;&#9;&#9;C881.2,619.6,880.2,620.5,879.1,620.5z M539.3,616.2h337.6v-26.1H539.3V616.2z"/>
		</g><path d="M879.1,811.7H537.1c-1.2,0-2.1-1-2.1-2.1V618.4c0-1.2,1-2.1,2.1-2.1h341.9c1.2,0,2.1,1,2.1,2.1v191.2&#10;&#9;&#9;&#9;&#9;C881.2,810.8,880.2,811.7,879.1,811.7z M539.3,807.4h337.6V620.5H539.3V807.4z" transform="matrix(1.4971507787704468, 0, 0, 1.4971507787704468, -263.69257406612206, -406.01883564152354)"/><path d="M1324.6,556H950.8c-1.2,0-2.1-1-2.1-2.1s1-2.1,2.1-2.1h373.8c1.2,0,2.1,1,2.1,2.1S1325.8,556,1324.6,556z" transform="matrix(1.3845953941345215, 0, 0, 1.3845953941345215, -1278.2509446379931, -641.1542649504934)"/><path d="M1281,852H994.2c-10.7,0-19.3-8.7-19.3-19.3V553.4c0-1.2,1-2.1,2.1-2.1h321.2c1.2,0,2.1,1,2.1,2.1v279.3&#10;&#9;&#9;&#9;&#9;C1300.3,843.3,1291.6,852,1281,852z M979.1,555.5v277.2c0,8.3,6.7,15,15,15H1281c8.3,0,15-6.7,15-15V555.5H979.1z" transform="matrix(1.3845953941345215, 0, 0, 1.3845953941345215, -1278.2509446379931, -641.1542649504934)"/><path d="M1039.4,530.7c-1.2,0-2.1-1-2.1-2.1V490c0-1.2,1-2.1,2.1-2.1s2.1,1,2.1,2.1v38.5C1041.5,529.7,1040.6,530.7,1039.4,530.7z&#10;&#9;&#9;&#9;" transform="matrix(1.3845953941345215, 0, 0, 1.3845953941345215, -1278.2509446379931, -641.1542649504934)"/><path d="M1104.8,530.7c-1.2,0-2.1-1-2.1-2.1V490c0-1.2,1-2.1,2.1-2.1c1.2,0,2.1,1,2.1,2.1v38.5&#10;&#9;&#9;&#9;C1107,529.7,1106,530.7,1104.8,530.7z" transform="matrix(1.3845953941345215, 0, 0, 1.3845953941345215, -1278.2509446379931, -641.1542649504934)"/><path d="M1170.3,530.7c-1.2,0-2.1-1-2.1-2.1V490c0-1.2,1-2.1,2.1-2.1c1.2,0,2.1,1,2.1,2.1v38.5&#10;&#9;&#9;&#9;C1172.5,529.7,1171.5,530.7,1170.3,530.7z" transform="matrix(1.3845953941345215, 0, 0, 1.3845953941345215, -1278.2509446379931, -641.1542649504934)"/><path d="M1235.8,530.7c-1.2,0-2.1-1-2.1-2.1V490c0-1.2,1-2.1,2.1-2.1c1.2,0,2.1,1,2.1,2.1v38.5&#10;&#9;&#9;&#9;C1237.9,529.7,1237,530.7,1235.8,530.7z" transform="matrix(1.3845953941345215, 0, 0, 1.3845953941345215, -1278.2509446379931, -641.1542649504934)"/><path d="M1054.5,652.5h-43.9c-1.2,0-2.1-1-2.1-2.1v-43.9c0-1.2,1-2.1,2.1-2.1h43.9c1.2,0,2.1,1,2.1,2.1v43.9&#10;&#9;&#9;&#9;C1056.7,651.6,1055.7,652.5,1054.5,652.5z M1012.8,648.2h39.6v-39.6h-39.6V648.2z" transform="matrix(1.3845953941345215, 0, 0, 1.3845953941345215, -1278.2509446379931, -641.1542649504934)"/><path d="M1124.5,652.5h-43.9c-1.2,0-2.1-1-2.1-2.1v-43.9c0-1.2,1-2.1,2.1-2.1h43.9c1.2,0,2.1,1,2.1,2.1v43.9&#10;&#9;&#9;&#9;C1126.7,651.6,1125.7,652.5,1124.5,652.5z M1082.8,648.2h39.6v-39.6h-39.6V648.2z" transform="matrix(1.3845953941345215, 0, 0, 1.3845953941345215, -1278.2509446379931, -641.1542649504934)"/><path d="M 1150.599976 606.5 H 1194.499977 V 650.400002 H 1150.599976 V 606.5 Z" fill="#F1F2F2" transform="matrix(1.3845953941345215, 0, 0, 1.3845953941345215, -1278.2509446379931, -641.1542649504934)" style="fill: rgb(133, 135, 242);"/><path d="M1194.5,652.5h-43.9c-1.2,0-2.1-1-2.1-2.1v-43.9c0-1.2,1-2.1,2.1-2.1h43.9c1.2,0,2.1,1,2.1,2.1v43.9&#10;&#9;&#9;&#9;C1196.7,651.6,1195.7,652.5,1194.5,652.5z M1152.8,648.2h39.6v-39.6h-39.6V648.2z" transform="matrix(1.3845953941345215, 0, 0, 1.3845953941345215, -1278.2509446379931, -641.1542649504934)"/><path d="M 1220.599976 606.5 H 1264.499977 V 650.400002 H 1220.599976 V 606.5 Z" fill="#F1F2F2" transform="matrix(1.3845953941345215, 0, 0, 1.3845953941345215, -1278.2509446379931, -641.1542649504934)"/><path d="M1264.5,652.5h-43.9c-1.2,0-2.1-1-2.1-2.1v-43.9c0-1.2,1-2.1,2.1-2.1h43.9c1.2,0,2.1,1,2.1,2.1v43.9&#10;&#9;&#9;&#9;C1266.7,651.6,1265.7,652.5,1264.5,652.5z M1222.8,648.2h39.6v-39.6h-39.6V648.2z" transform="matrix(1.3845953941345215, 0, 0, 1.3845953941345215, -1278.2509446379931, -641.1542649504934)"/><path d="M1054.5,725.7h-43.9c-1.2,0-2.1-1-2.1-2.1v-43.9c0-1.2,1-2.1,2.1-2.1h43.9c1.2,0,2.1,1,2.1,2.1v43.9&#10;&#9;&#9;&#9;C1056.7,724.7,1055.7,725.7,1054.5,725.7z M1012.8,721.4h39.6v-39.6h-39.6V721.4z" transform="matrix(1.3845953941345215, 0, 0, 1.3845953941345215, -1278.2509446379931, -641.1542649504934)"/><path d="M1124.5,725.7h-43.9c-1.2,0-2.1-1-2.1-2.1v-43.9c0-1.2,1-2.1,2.1-2.1h43.9c1.2,0,2.1,1,2.1,2.1v43.9&#10;&#9;&#9;&#9;C1126.7,724.7,1125.7,725.7,1124.5,725.7z M1082.8,721.4h39.6v-39.6h-39.6V721.4z" transform="matrix(1.3845953941345215, 0, 0, 1.3845953941345215, -1278.2509446379931, -641.1542649504934)"/><path d="M 1150.599976 679.700012 H 1194.499977 V 723.600014 H 1150.599976 V 679.700012 Z" fill="#F1F2F2" transform="matrix(1.3845953941345215, 0, 0, 1.3845953941345215, -1278.2509446379931, -641.1542649504934)"/><path d="M1194.5,725.7h-43.9c-1.2,0-2.1-1-2.1-2.1v-43.9c0-1.2,1-2.1,2.1-2.1h43.9c1.2,0,2.1,1,2.1,2.1v43.9&#10;&#9;&#9;&#9;C1196.7,724.7,1195.7,725.7,1194.5,725.7z M1152.8,721.4h39.6v-39.6h-39.6V721.4z" transform="matrix(1.3845953941345215, 0, 0, 1.3845953941345215, -1278.2509446379931, -641.1542649504934)"/><path d="M 1220.599976 679.700012 H 1264.499977 V 723.600014 H 1220.599976 V 679.700012 Z" fill="#F1F2F2" transform="matrix(1.3845953941345215, 0, 0, 1.3845953941345215, -1278.2509446379931, -641.1542649504934)"/><path d="M1264.5,725.7h-43.9c-1.2,0-2.1-1-2.1-2.1v-43.9c0-1.2,1-2.1,2.1-2.1h43.9c1.2,0,2.1,1,2.1,2.1v43.9&#10;&#9;&#9;&#9;C1266.7,724.7,1265.7,725.7,1264.5,725.7z M1222.8,721.4h39.6v-39.6h-39.6V721.4z" transform="matrix(1.3845953941345215, 0, 0, 1.3845953941345215, -1278.2509446379931, -641.1542649504934)"/><path d="M 1010.599976 752.799988 H 1054.499977 V 796.699989 H 1010.599976 V 752.799988 Z" fill="#F1F2F2" transform="matrix(1.3845953941345215, 0, 0, 1.3845953941345215, -1278.2509446379931, -641.1542649504934)"/><path d="M1054.5,798.9h-43.9c-1.2,0-2.1-1-2.1-2.1v-43.9c0-1.2,1-2.1,2.1-2.1h43.9c1.2,0,2.1,1,2.1,2.1v43.9&#10;&#9;&#9;&#9;C1056.7,797.9,1055.7,798.9,1054.5,798.9z M1012.8,794.6h39.6V755h-39.6V794.6z" transform="matrix(1.3845953941345215, 0, 0, 1.3845953941345215, -1278.2509446379931, -641.1542649504934)"/><path d="M 1080.599976 752.799988 H 1124.499977 V 796.699989 H 1080.599976 V 752.799988 Z" fill="#F1F2F2" transform="matrix(1.3845953941345215, 0, 0, 1.3845953941345215, -1278.2509446379931, -641.1542649504934)"/><path d="M1124.5,798.9h-43.9c-1.2,0-2.1-1-2.1-2.1v-43.9c0-1.2,1-2.1,2.1-2.1h43.9c1.2,0,2.1,1,2.1,2.1v43.9&#10;&#9;&#9;&#9;C1126.7,797.9,1125.7,798.9,1124.5,798.9z M1082.8,794.6h39.6V755h-39.6V794.6z" transform="matrix(1.3845953941345215, 0, 0, 1.3845953941345215, -1278.2509446379931, -641.1542649504934)"/><path d="M 1150.599976 752.799988 H 1194.499977 V 796.699989 H 1150.599976 V 752.799988 Z" fill="#F1F2F2" transform="matrix(1.3845953941345215, 0, 0, 1.3845953941345215, -1278.2509446379931, -641.1542649504934)"/><path d="M1194.5,798.9h-43.9c-1.2,0-2.1-1-2.1-2.1v-43.9c0-1.2,1-2.1,2.1-2.1h43.9c1.2,0,2.1,1,2.1,2.1v43.9&#10;&#9;&#9;&#9;C1196.7,797.9,1195.7,798.9,1194.5,798.9z M1152.8,794.6h39.6V755h-39.6V794.6z" transform="matrix(1.3845953941345215, 0, 0, 1.3845953941345215, -1278.2509446379931, -641.1542649504934)"/><path d="M 1220.599976 752.799988 H 1264.499977 V 796.699989 H 1220.599976 V 752.799988 Z" fill="#F1F2F2" transform="matrix(1.3845953941345215, 0, 0, 1.3845953941345215, -1278.2509446379931, -641.1542649504934)"/><path d="M1264.5,798.9h-43.9c-1.2,0-2.1-1-2.1-2.1v-43.9c0-1.2,1-2.1,2.1-2.1h43.9c1.2,0,2.1,1,2.1,2.1v43.9&#10;&#9;&#9;&#9;C1266.7,797.9,1265.7,798.9,1264.5,798.9z M1222.8,794.6h39.6V755h-39.6V794.6z" transform="matrix(1.3845953941345215, 0, 0, 1.3845953941345215, -1278.2509446379931, -641.1542649504934)"/><path d="M 214.300003 794.400024 L 312.799988 794.400024" fill="#FFFFFF" transform="matrix(1.0518206088849669, 0, 0, 1.0518206088849669, 850.9766091289135, -438.784520586398)"/><path d="M312.8,796.6h-98.4c-1.2,0-2.1-1-2.1-2.1c0-1.2,1-2.1,2.1-2.1h98.4c1.2,0,2.1,1,2.1,2.1&#10;&#9;&#9;&#9;C314.9,795.6,314,796.6,312.8,796.6z" transform="matrix(1.0518206088849669, 0, 0, 1.0518206088849669, 850.9766091289135, -438.784520586398)"/><g transform="matrix(1.4971507787704468, 0, 0, 1.4971507787704468, -263.69257406612206, -406.01883564152354)">
			<g>
				<path d="M 767.0999755859375 679.7999877929688 L 648.5999755859375 679.7999877929688 L 630.0999755859375 679.7999877929688 L 648.5999755859375 695.9000244140625 L 707.7999877929688 747.5 L 767.0999755859375 695.9000244140625 L 785.5999755859375 679.7999877929688 Z" fill="#76CDFF" style="fill: rgb(40, 129, 255);"/>
				<path d="M707.8,749.6c-0.5,0-1-0.2-1.4-0.5l-77.8-67.7c-0.7-0.6-0.9-1.5-0.6-2.4c0.3-0.8,1.1-1.4,2-1.4h155.5&#10;&#9;&#9;&#9;&#9;&#9;c0.9,0,1.7,0.6,2,1.4c0.3,0.8,0.1,1.8-0.6,2.4l-77.8,67.7C708.8,749.4,708.3,749.6,707.8,749.6z M635.8,681.9l72,62.7l72-62.7&#10;&#9;&#9;&#9;&#9;&#9;H635.8z"/>
			<path d="M 945.3279418945312 710.5712280273438" style="fill: rgb(40, 129, 255); fill-opacity: 1; stroke: rgb(0, 0, 0); stroke-opacity: 1; stroke-width: 0; paint-order: fill;"/></g>
			<g>
				<path d="M 707.7999877929688 747.5 L 648.5999755859375 695.9000244140625 L 630.0999755859375 679.7999877929688 L 630.0999755859375 786.5999755859375 L 785.5999755859375 786.5999755859375 L 785.5999755859375 679.7999877929688 L 767.0999755859375 695.9000244140625 Z" fill="#76CDFF" style="fill: rgb(40, 129, 255);"/>
				<path d="M785.6,788.8H630.1c-1.2,0-2.1-1-2.1-2.1V679.8c0-0.8,0.5-1.6,1.3-2c0.8-0.4,1.7-0.2,2.3,0.3l76.3,66.5l76.3-66.5&#10;&#9;&#9;&#9;&#9;&#9;c0.6-0.6,1.5-0.7,2.3-0.3c0.8,0.3,1.3,1.1,1.3,2v106.9C787.7,787.8,786.8,788.8,785.6,788.8z M632.2,784.5h151.2v-100&#10;&#9;&#9;&#9;&#9;&#9;l-74.2,64.6c-0.8,0.7-2,0.7-2.8,0l-74.2-64.6V784.5z"/>
			<path d="M 667.6106567382812 701.9277954101562" style="fill: rgb(40, 129, 255); fill-opacity: 1; stroke: rgb(0, 0, 0); stroke-opacity: 1; stroke-width: 0; paint-order: fill;"/><path d="M 673.2476806640625 697.0424194335938 L 673.2476806640625 697.0424194335938 L 684.521728515625 705.31005859375" style="fill: rgb(40, 129, 255); fill-opacity: 1; stroke: rgb(0, 0, 0); stroke-opacity: 1; stroke-width: 0; paint-order: fill;"/><path d="M 701.4327392578125 709.8196411132812 L 701.4327392578125 709.44384765625" style="fill: rgb(40, 129, 255); fill-opacity: 1; stroke: rgb(0, 0, 0); stroke-opacity: 1; stroke-width: 0; paint-order: fill;"/></g>
		</g><path d="M 684.299988 760.099976 L 731.400024 760.099976" fill="#FFFFFF" transform="matrix(1.4971507787704468, 0, 0, 1.4971507787704468, -263.69257406612206, -406.01883564152354)"/><path d="M731.4,762.3h-47.1c-1.2,0-2.1-1-2.1-2.1c0-1.2,1-2.1,2.1-2.1h47.1c1.2,0,2.1,1,2.1,2.1&#10;&#9;&#9;&#9;&#9;C733.5,761.3,732.6,762.3,731.4,762.3z" transform="matrix(1.4971507787704468, 0, 0, 1.4971507787704468, -263.69257406612206, -406.01883564152354)"/><path d="M674,681.9c-1.2,0-2.1-1-2.1-2.1v-78.3c0-1.2,1-2.1,2.1-2.1c1.2,0,2.1,1,2.1,2.1v78.3C676.2,681,675.2,681.9,674,681.9z" transform="matrix(1.4971507787704468, 0, 0, 1.4971507787704468, -263.69257406612206, -406.01883564152354)"/><path d="M 655.2000122070312 601.5 L 674 568.9000244140625 L 692.7999877929688 601.5 Z" fill="#FFFFFF" transform="matrix(1.4971507787704468, 0, 0, 1.4971507787704468, -263.69257406612206, -406.01883564152354)"/><path d="M692.9,603.7C692.9,603.7,692.9,603.7,692.9,603.7h-37.7c-0.8,0-1.5-0.4-1.9-1.1c-0.4-0.7-0.4-1.5,0-2.1l18.8-32.6&#10;&#9;&#9;&#9;c0.8-1.3,3-1.3,3.7,0l18.5,32.1c0.4,0.4,0.6,0.9,0.6,1.5C695.1,602.7,694.1,603.7,692.9,603.7z M658.9,599.4h30.2L674,573.2&#10;&#9;&#9;&#9;L658.9,599.4z" transform="matrix(1.4971507787704468, 0, 0, 1.4971507787704468, -263.69257406612206, -406.01883564152354)"/><path d="M741.7,681.9c-1.2,0-2.1-1-2.1-2.1v-78.3c0-1.2,1-2.1,2.1-2.1s2.1,1,2.1,2.1v78.3C743.8,681,742.8,681.9,741.7,681.9z" transform="matrix(1.4971507787704468, 0, 0, 1.4971507787704468, -263.69257406612206, -406.01883564152354)"/><path d="M 722.9000244140625 601.5 L 741.7000122070312 568.9000244140625 L 760.5 601.5 Z" fill="#FFFFFF" transform="matrix(1.4971507787704468, 0, 0, 1.4971507787704468, -263.69257406612206, -406.01883564152354)"/><path d="M760.5,603.7C760.5,603.7,760.5,603.7,760.5,603.7h-37.7c-0.8,0-1.5-0.4-1.9-1.1c-0.4-0.7-0.4-1.5,0-2.1l18.8-32.6&#10;&#9;&#9;&#9;c0.8-1.3,3-1.3,3.7,0l18.5,32.1c0.4,0.4,0.6,0.9,0.6,1.5C762.7,602.7,761.7,603.7,760.5,603.7z M726.6,599.4h30.2l-15.1-26.1&#10;&#9;&#9;&#9;L726.6,599.4z" transform="matrix(1.4971507787704468, 0, 0, 1.4971507787704468, -263.69257406612206, -406.01883564152354)"/><path d="M426.1,575c-1.2,0-2.1-1-2.1-2.1V472.4c0-1.2,1-2.1,2.1-2.1c1.2,0,2.1,1,2.1,2.1v100.4C428.3,574.1,427.3,575,426.1,575z" transform="matrix(1.0518206088849669, 0, 0, 1.0518206088849669, 850.9766091289135, -438.784520586398)"/><path d="M452.4,575c-1.2,0-2.1-1-2.1-2.1v-34.1c0-1.2,1-2.1,2.1-2.1c1.2,0,2.1,1,2.1,2.1v34.1C454.6,574.1,453.6,575,452.4,575z" transform="matrix(1.0518206088849669, 0, 0, 1.0518206088849669, 850.9766091289135, -438.784520586398)"/>
<g transform="matrix(1.3845953941345215, 0, 0, 1.3845953941345215, -1276.6597129303018, -641.1542358398438)">
			<path d="M 977 503.700012 H 1298.200012 V 553.400013 H 977 V 503.700012 Z" fill="#FFE399" style="fill: rgb(40, 129, 255);"/>
			<path d="M1298.2,555.5H977c-1.2,0-2.1-1-2.1-2.1v-49.7c0-1.2,1-2.1,2.1-2.1h321.2c1.2,0,2.1,1,2.1,2.1v49.7&#10;&#9;&#9;&#9;&#9;C1300.3,554.5,1299.3,555.5,1298.2,555.5z M979.1,551.2H1296v-45.4H979.1V551.2z"/>
		<path d="M 1505.2171630859375 649.7388305664062" style="fill: rgb(40, 129, 255); fill-opacity: 1; stroke: rgb(0, 0, 0); stroke-opacity: 1; stroke-width: 0; paint-order: fill;"/><path d="M 1383.3953857421875 538.2603759765625" style="fill: rgb(40, 129, 255); fill-opacity: 1; stroke: rgb(0, 0, 0); stroke-opacity: 1; stroke-width: 0; paint-order: fill;"/><path d="M 1659.2183837890625 695.7092895507812" style="fill: rgb(40, 129, 255); fill-opacity: 1; stroke: rgb(0, 0, 0); stroke-opacity: 1; stroke-width: 0; paint-order: fill;"/></g><path d="M 1019.2279052734375 366.9798278808594 L 1019.2279052734375 366.9798278808594" style="fill: rgb(40, 129, 255); fill-opacity: 1; stroke: rgb(0, 0, 0); stroke-opacity: 1; stroke-width: 0; paint-order: fill;"/><path d="M 1263.5927734375 817.3778076171875" style="fill: rgb(40, 129, 255); fill-opacity: 1; stroke: rgb(0, 0, 0); stroke-opacity: 1; stroke-width: 0; paint-order: fill;"/><path d="M 930.3511962890625 194.105224609375" style="fill: rgb(96, 219, 215); fill-opacity: 1; stroke: rgb(0, 0, 0); stroke-opacity: 1; stroke-width: 0; paint-order: fill;"/><path d="M 987.3967895507812 211.21890258789062 L 987.3967895507812 206.65525817871094" style="fill: rgb(96, 219, 215); fill-opacity: 1; stroke: rgb(0, 0, 0); stroke-opacity: 1; stroke-width: 0; paint-order: fill;"/><path d="M 1279.4703369140625 231.1848602294922" style="fill: rgb(96, 219, 215); fill-opacity: 1; stroke: rgb(0, 0, 0); stroke-opacity: 1; stroke-width: 0; paint-order: fill;"/><path d="M 1276.047607421875 228.33258056640625 L 1276.047607421875 228.33258056640625" style="fill: rgb(96, 219, 215); fill-opacity: 1; stroke: rgb(0, 0, 0); stroke-opacity: 1; stroke-width: 0; paint-order: fill;"/><path d="M 1276.047607421875 264.8417663574219" style="fill: rgb(96, 219, 215); fill-opacity: 1; stroke: rgb(0, 0, 0); stroke-opacity: 1; stroke-width: 0; paint-order: fill;"/><path d="M 904.6806640625 301.9214172363281" style="fill: rgb(96, 219, 215); fill-opacity: 1; stroke: rgb(0, 0, 0); stroke-opacity: 1; stroke-width: 0; paint-order: fill;"/><path d="M 1268.3795166015625 669.6639404296875" style="fill: rgb(96, 219, 215); fill-opacity: 1; stroke: rgb(0, 0, 0); stroke-opacity: 1; stroke-width: 0; paint-order: fill;"/><path class="st0" d="M1259.7,674c-4-36.9-27.9-68.6-65.7-86.9c-15.8-7.7-32.5-11.6-49.4-11.6c0,0,0,0,0,0&#10;&#9;&#9;c-36.4,0-66.6,17.6-85.5,32.3c-21.3,16.5-39.8,38.8-48.5,58c-14.9,33.2-17.7,34.9-21.3,37.1c-0.7,0.4-1.4,0.9-2.2,1.4&#10;&#9;&#9;c-2.8,1.9-4.5,5-4.5,8.4c0,3.2,1.6,6.1,4.1,8c-5.5,4.8-7.9,12.1-5.9,19c1.5,5.1,5,9.1,9.7,10.9c-10.9,11.5-17.2,21.4-10.1,34.9&#10;&#9;&#9;c2.9,5.5,8.2,8.8,14.1,8.8c5.3,0,10.2-2.6,13.8-6.7c1.7,0.7,3.6,1.1,5.7,1.1c0.4,0,0.9,0,1.4,0c7.6-0.5,11.4-4.9,12.7-9.2&#10;&#9;&#9;c3-0.6,5.6-2.6,7-5.2c1.2,1.5,2.5,3.4,4,5.4c4.1,5.6,9.7,13.2,18.3,23.2c18.5,21.5,53.8,44.5,97.2,44.5c14.5,0,29.1-2.5,43.6-7.6&#10;&#9;&#9;c5.2-1.8,7.9-7.4,6.2-12.6s-7.3-8-12.5-6.4c-0.1,0-8.5,2.7-21.1,2.7c-16.3,0-40.5-4.4-63.4-25.6c-23.5-21.6-36.6-49.1-36-75.4&#10;&#9;&#9;c0.5-20.9,9.8-39.5,27-53.8c10.5-8.7,22.3-13.2,35.3-13.2c20.2,0,37.6,10.9,45.9,21.7c5.2,6.8,7.2,13.6,5.8,19.2&#10;&#9;&#9;c-3.9,14.7-12.9,23.8-23.6,23.8c-6.6,0-13.4-3.5-19.3-9.8c-4.6-4.9-6.5-9.7-5.8-14.8c1.1-9,10-17.5,13.8-19.9&#10;&#9;&#9;c3.7-2.3,5.3-6.8,4.2-11c-1.1-4.2-4.9-7.2-9.3-7.4c0,0-0.2,0-0.5,0c-15,0-42.2,10.4-48.6,49.4c-2.6,15.7,2.7,32.2,14.9,46.5&#10;&#9;&#9;c15.6,18.4,39.1,29.4,62.8,29.4c17,0,33.4-5.8,47.3-16.7C1248.6,744.2,1263.4,709,1259.7,674z" style="opacity: 0.25; fill: rgb(20, 96, 147);" transform="matrix(0.24084144830703735, 0, 0, 0.24084144830703735, 734.8525292307302, 237.53059681591952)"/><path class="st1" d="M1256.2,670.5c-4-36.9-27.9-68.6-65.7-86.9c-15.8-7.7-32.5-11.6-49.4-11.6c0,0,0,0,0,0&#10;&#9;&#9;&#9;c-36.4,0-66.6,17.6-85.5,32.3c-21.3,16.5-39.8,38.8-48.5,58c-14.9,33.2-17.7,34.9-21.3,37.1c-0.7,0.4-1.4,0.9-2.2,1.4&#10;&#9;&#9;&#9;c-2.8,1.9-4.5,5-4.5,8.4c0,3.2,1.6,6.1,4.1,8c-5.5,4.8-7.9,12.1-5.9,19c1.5,5.1,5,9.1,9.7,10.9c-10.9,11.5-17.2,21.4-10.1,34.9&#10;&#9;&#9;&#9;c2.9,5.5,8.2,8.8,14.1,8.8c5.3,0,10.2-2.6,13.8-6.7c1.7,0.7,3.6,1.1,5.7,1.1c0.4,0,0.9,0,1.4,0c7.6-0.5,11.4-4.9,12.7-9.2&#10;&#9;&#9;&#9;c3-0.6,5.6-2.6,7-5.2c1.2,1.5,2.5,3.4,4,5.4c4.1,5.6,9.7,13.2,18.3,23.2c18.5,21.5,53.8,44.5,97.2,44.5c14.5,0,29.1-2.5,43.6-7.6&#10;&#9;&#9;&#9;c5.2-1.8,7.9-7.4,6.2-12.6c-1.7-5.2-7.3-8-12.5-6.4c-0.1,0-8.5,2.7-21.1,2.7c-16.3,0-40.5-4.4-63.4-25.6&#10;&#9;&#9;&#9;c-23.5-21.6-36.6-49.1-36-75.4c0.5-20.9,9.8-39.5,27-53.8c10.5-8.7,22.3-13.2,35.3-13.2c20.2,0,37.6,10.9,45.9,21.7&#10;&#9;&#9;&#9;c5.2,6.8,7.2,13.6,5.8,19.2c-3.9,14.7-12.9,23.8-23.6,23.8c-6.6,0-13.4-3.5-19.3-9.8c-4.6-4.9-6.5-9.7-5.8-14.8&#10;&#9;&#9;&#9;c1.1-9,10-17.5,13.8-19.9c3.7-2.3,5.3-6.8,4.2-11c-1.1-4.2-4.9-7.2-9.3-7.4c0,0-0.2,0-0.5,0c-15,0-42.2,10.4-48.6,49.4&#10;&#9;&#9;&#9;c-2.6,15.7,2.7,32.2,14.9,46.5c15.6,18.4,39.1,29.4,62.8,29.4c17,0,33.4-5.8,47.3-16.7C1245.1,740.7,1260,705.5,1256.2,670.5z" style="fill: rgb(255, 255, 255);" transform="matrix(0.24084115028381342, 0, 0, 0.24084115028381342, 735.1978051096366, 238.2205077045914)"/><g transform="matrix(0.24084119498729706, 0, 0, 0.24084119498729706, 735.0828148752616, 237.76071461377109)">
				<path class="st3" d="M1151.1,832.3c-39.5,0-71.6-20.9-88.5-40.5c-8.3-9.7-13.8-17.1-17.7-22.5c-6.1-8.3-9.2-12.5-14.6-14&#10;&#9;&#9;&#9;&#9;&#9;c-0.8-0.2-1.6-0.3-2.3-0.3c-1.8,0-3.3,0.7-4.5,1.9c-1.3,1.4-1.9,3.4-2.1,5.2c-6.5-9.8-2.4-23.5-2.4-23.7c0.2-0.6,0-1.2-0.4-1.6&#10;&#9;&#9;&#9;&#9;&#9;c-0.3-0.2-0.6-0.4-1-0.4c-0.2,0-0.4,0-0.6,0.1c-17.6,7.8-17.7,20.4-17.8,29.6c0,1.2,0,2.3-0.1,3.4c-0.2,5.5-4.4,9.6-8,9.6&#10;&#9;&#9;&#9;&#9;&#9;c-1.7,0-3-0.9-4-2.7c-3.5-6.6-2.3-11,11.7-25.2c13.5-13.7,18.5-28.9,21.7-43.2c0.8-3.7,0.7-6.1-0.5-7.5c-0.5-0.6-1.4-1.3-3-1.3&#10;&#9;&#9;&#9;&#9;&#9;c-2.9,0-7.3,2.6-13.2,7.6c-2.1,1.8-4.5,2.8-7.2,2.8c-1.7,0-3.3-0.4-4.5-0.8c5.6-3.4,9.4-6.4,25.4-41.9&#10;&#9;&#9;&#9;&#9;&#9;c13.1-29.1,62.8-83.5,123.5-83.5c15.2,0,30.2,3.5,44.4,10.4c34.6,16.8,55.7,44.4,59.2,77.8c3.3,31.1-9.8,62.3-34.4,81.6&#10;&#9;&#9;&#9;&#9;&#9;c-11.9,9.3-25.8,14.3-40.2,14.3c-20.1,0-40.7-9.7-54-25.3c-9.9-11.7-14.3-24.9-12.3-37.2c5-30.4,23.3-37.6,32.4-39.2&#10;&#9;&#9;&#9;&#9;&#9;c-5.6,4.9-13.4,13.9-14.8,24.9c-1.1,8.5,1.9,16.6,8.8,24.1c8.1,8.7,17.9,13.4,27.7,13.4c16.1,0,29.5-12.4,34.8-32.3&#10;&#9;&#9;&#9;&#9;&#9;c2.4-9.1-0.3-19.5-7.8-29.2c-12.3-15.9-33.9-26.2-55-26.2c-15.5,0-30.3,5.5-42.7,15.8c-19.8,16.5-30.5,38-31.1,62.3&#10;&#9;&#9;&#9;&#9;&#9;c-0.7,29.6,13.8,60.3,39.7,84.2c24.7,22.8,50.9,28.2,69.1,28.6C1160.4,832,1155.7,832.3,1151.1,832.3&#10;&#9;&#9;&#9;&#9;&#9;C1151.1,832.3,1151.1,832.3,1151.1,832.3z" style="fill: rgb(48, 207, 255); stroke-opacity: 1;"/>
				<path class="st4" d="M1141.1,585C1141.1,585,1141.1,585,1141.1,585c15,0,29.7,3.5,43.8,10.3c17.7,8.6,31.9,20.1,42,34.1&#10;&#9;&#9;&#9;&#9;&#9;c9.1,12.6,14.8,27.3,16.4,42.6c3.3,30.6-9.7,61.3-33.8,80.2c-11.8,9.3-25,13.9-39.3,13.9c-19.6,0-39.9-9.5-52.9-24.8&#10;&#9;&#9;&#9;&#9;&#9;c-9.7-11.4-13.9-24.2-12-36c2.6-15.9,9.2-27.2,19.5-33.5c2.1-1.3,4.2-2.2,6.1-3c-4.9,5.3-9.9,12.9-11,21.7&#10;&#9;&#9;&#9;&#9;&#9;c-1.1,9,2,17.5,9.2,25.3c8.4,9,18.6,13.9,28.8,13.9c16.9,0,30.7-12.8,36.2-33.4c2.5-9.6-0.3-20.4-8-30.5&#10;&#9;&#9;&#9;&#9;&#9;c-12.5-16.3-34.6-26.8-56.2-26.8c-15.9,0-30.9,5.6-43.6,16.2c-20.1,16.8-31,38.7-31.6,63.4c-0.7,30.1,13.9,61.2,40.2,85.3&#10;&#9;&#9;&#9;&#9;&#9;c17.2,15.8,35.1,23.4,50.6,26.7c-36.5-1.8-66-21.4-81.9-39.8c-8.3-9.6-13.7-17-17.7-22.4c-6.1-8.4-9.5-13-15.5-14.5&#10;&#9;&#9;&#9;&#9;&#9;c-1-0.2-1.9-0.4-2.7-0.4c-2.2,0-4.2,0.8-5.6,2.4c-0.6,0.7-1.1,1.4-1.4,2.2c-3.6-8.7-0.5-19.1-0.5-19.2c0.3-1.1,0-2.3-0.9-3.1&#10;&#9;&#9;&#9;&#9;&#9;c-0.6-0.5-1.3-0.8-2-0.8c-0.4,0-0.8,0.1-1.2,0.3c-1.9,0.9-3.7,1.8-5.2,2.7c5.8-9.7,8.7-19.8,10.9-29.4c1-4.2,0.7-7-0.8-8.8&#10;&#9;&#9;&#9;&#9;&#9;c-1-1.2-2.5-1.9-4.2-1.9c-1.2,0-4.9,0-14.1,8c-1.9,1.6-3.9,2.4-6.2,2.4c-0.2,0-0.5,0-0.7,0c4.7-3.7,9.5-10.7,23-40.6&#10;&#9;&#9;&#9;&#9;&#9;c6.1-13.7,21.1-34.8,44.6-53.1C1080.9,601.1,1108.5,585,1141.1,585 M998.9,753.4c-1.3,4.6-1.3,9.1-1.4,12.8c0,1.2,0,2.3-0.1,3.3&#10;&#9;&#9;&#9;&#9;&#9;c-0.2,5-4,8.2-6.5,8.2c-0.4,0-1.6,0-2.6-1.9C985.5,770.5,985.6,767,998.9,753.4 M1141.2,582c-59.6,0-110.5,52.3-124.9,84.4&#10;&#9;&#9;&#9;&#9;&#9;c-18,39.9-20.2,38.1-27.1,42.7c0,0,3.3,2.1,7.6,2.1c2.5,0,5.4-0.7,8.2-3.1c4.3-3.7,9.3-7.2,12.2-7.2c2.1,0,3.2,1.9,2,7&#10;&#9;&#9;&#9;&#9;&#9;c-2.8,12.2-7.2,28.1-21.3,42.5c-14.2,14.4-16,19.4-12,26.9c1.3,2.4,3.2,3.5,5.3,3.5c4.3,0,9.2-4.7,9.5-11.1&#10;&#9;&#9;&#9;&#9;&#9;c0.4-9.4-2-23.3,17-31.7c0,0-5.4,17.8,5.2,28.1c0,0-1-9.7,5.2-9.7c0.6,0,1.2,0.1,2,0.3c8.4,2.2,11,12.1,31.6,36&#10;&#9;&#9;&#9;&#9;&#9;c15.8,18.4,48,41,89.7,41c12.6,0,26.1-2.1,40.3-7c0,0-9.6,3.2-24.2,3.2c-18.5,0-45.1-5.1-70.2-28.2&#10;&#9;&#9;&#9;&#9;&#9;c-44.9-41.3-55.9-104.8-8.7-144.2c13.2-11,27.8-15.5,41.7-15.5c35.9,0,67.7,29.6,61.3,53.5c-5.4,20.4-18.8,31.2-33.3,31.2&#10;&#9;&#9;&#9;&#9;&#9;c-9,0-18.5-4.2-26.6-13c-21.2-22.7,2.4-45.2,9.9-50c0,0-0.1,0-0.2,0c-2.4,0-32.1,0.8-38.7,41c-5.1,30.8,29.4,64.3,67.8,64.3&#10;&#9;&#9;&#9;&#9;&#9;c13.8,0,28-4.3,41.2-14.6c49.7-38.9,52.3-124.4-25.1-161.9C1171,585.2,1155.8,582,1141.2,582L1141.2,582z" style="fill: rgb(48, 207, 255);"/>
			</g><path class="st5" d="M992.6,736.7c-2-0.1-3.6-1.5-4.2-3.7c-0.6-2.1-0.2-5.4,3-7.7c3-2.2,7.2-2.9,10.3-3.1&#10;&#9;&#9;&#9;&#9;&#9;c-2.3,2.3-3.7,5.6-4.9,8.5c-1.3,3.1-2.5,5.9-4.1,5.9L992.6,736.7z" style="fill: rgb(28, 117, 188);" transform="matrix(0.24084144830703735, 0, 0, 0.24084144830703735, 734.8525292307302, 237.53059681591952)"/><path class="st6" d="M998.3,724.1c-1.2,2-2.1,4.1-2.9,6c-0.7,1.8-2,4.7-2.7,5c-2-0.1-2.7-2-2.9-2.6c-0.5-1.7-0.1-4.2,2.4-6.1&#10;&#9;&#9;&#9;&#9;&#9;C994,725.3,996.2,724.5,998.3,724.1 M1003.9,720.6c-3.6,0-9.3,0.5-13.4,3.5c-6.4,4.6-4.2,13.6,1.9,14.1c0.1,0,0.2,0,0.2,0&#10;&#9;&#9;&#9;&#9;&#9;c5.9,0,5.3-15.9,14.7-17.4C1007.4,720.8,1006,720.6,1003.9,720.6L1003.9,720.6z" style="fill: rgb(20, 96, 147);" transform="matrix(0.24084144830703735, 0, 0, 0.24084144830703735, 734.8525292307302, 237.53059681591952)"/><path class="st2" d="M1009.3,769c1.3,1,2.3,2.2,2.7,2.9c-0.2,0.1-0.6,0.1-1,0.2c-0.1,0-0.3,0-0.4,0c-0.5,0-1-0.1-1.1-0.3&#10;&#9;&#9;&#9;&#9;&#9;C1009.1,771.4,1009.1,770.3,1009.3,769 M1007.4,764.8c0,0-4.4,10.3,3.1,10.3c0.2,0,0.4,0,0.6,0&#10;&#9;&#9;&#9;&#9;&#9;C1019.5,774.5,1012.8,766.1,1007.4,764.8L1007.4,764.8z" style="fill: rgb(142, 205, 221);" transform="matrix(0.24084144830703735, 0, 0, 0.24084144830703735, 734.8525292307302, 237.53059681591952)"/><path class="st0" d="M1259.7,674c-4-36.9-27.9-68.6-65.7-86.9c-15.8-7.7-32.5-11.6-49.4-11.6c0,0,0,0,0,0&#10;&#9;&#9;c-36.4,0-66.6,17.6-85.5,32.3c-21.3,16.5-39.8,38.8-48.5,58c-14.9,33.2-17.7,34.9-21.3,37.1c-0.7,0.4-1.4,0.9-2.2,1.4&#10;&#9;&#9;c-2.8,1.9-4.5,5-4.5,8.4c0,3.2,1.6,6.1,4.1,8c-5.5,4.8-7.9,12.1-5.9,19c1.5,5.1,5,9.1,9.7,10.9c-10.9,11.5-17.2,21.4-10.1,34.9&#10;&#9;&#9;c2.9,5.5,8.2,8.8,14.1,8.8c5.3,0,10.2-2.6,13.8-6.7c1.7,0.7,3.6,1.1,5.7,1.1c0.4,0,0.9,0,1.4,0c7.6-0.5,11.4-4.9,12.7-9.2&#10;&#9;&#9;c3-0.6,5.6-2.6,7-5.2c1.2,1.5,2.5,3.4,4,5.4c4.1,5.6,9.7,13.2,18.3,23.2c18.5,21.5,53.8,44.5,97.2,44.5c14.5,0,29.1-2.5,43.6-7.6&#10;&#9;&#9;c5.2-1.8,7.9-7.4,6.2-12.6s-7.3-8-12.5-6.4c-0.1,0-8.5,2.7-21.1,2.7c-16.3,0-40.5-4.4-63.4-25.6c-23.5-21.6-36.6-49.1-36-75.4&#10;&#9;&#9;c0.5-20.9,9.8-39.5,27-53.8c10.5-8.7,22.3-13.2,35.3-13.2c20.2,0,37.6,10.9,45.9,21.7c5.2,6.8,7.2,13.6,5.8,19.2&#10;&#9;&#9;c-3.9,14.7-12.9,23.8-23.6,23.8c-6.6,0-13.4-3.5-19.3-9.8c-4.6-4.9-6.5-9.7-5.8-14.8c1.1-9,10-17.5,13.8-19.9&#10;&#9;&#9;c3.7-2.3,5.3-6.8,4.2-11c-1.1-4.2-4.9-7.2-9.3-7.4c0,0-0.2,0-0.5,0c-15,0-42.2,10.4-48.6,49.4c-2.6,15.7,2.7,32.2,14.9,46.5&#10;&#9;&#9;c15.6,18.4,39.1,29.4,62.8,29.4c17,0,33.4-5.8,47.3-16.7C1248.6,744.2,1263.4,709,1259.7,674z" style="opacity: 0.25; fill: rgb(20, 96, 147);" transform="matrix(0.19977319240570068, 0, 0, 0.19977319240570068, 491.8691492300194, 589.4165131115672)"/><path class="st1" d="M1256.2,670.5c-4-36.9-27.9-68.6-65.7-86.9c-15.8-7.7-32.5-11.6-49.4-11.6c0,0,0,0,0,0&#10;&#9;&#9;&#9;c-36.4,0-66.6,17.6-85.5,32.3c-21.3,16.5-39.8,38.8-48.5,58c-14.9,33.2-17.7,34.9-21.3,37.1c-0.7,0.4-1.4,0.9-2.2,1.4&#10;&#9;&#9;&#9;c-2.8,1.9-4.5,5-4.5,8.4c0,3.2,1.6,6.1,4.1,8c-5.5,4.8-7.9,12.1-5.9,19c1.5,5.1,5,9.1,9.7,10.9c-10.9,11.5-17.2,21.4-10.1,34.9&#10;&#9;&#9;&#9;c2.9,5.5,8.2,8.8,14.1,8.8c5.3,0,10.2-2.6,13.8-6.7c1.7,0.7,3.6,1.1,5.7,1.1c0.4,0,0.9,0,1.4,0c7.6-0.5,11.4-4.9,12.7-9.2&#10;&#9;&#9;&#9;c3-0.6,5.6-2.6,7-5.2c1.2,1.5,2.5,3.4,4,5.4c4.1,5.6,9.7,13.2,18.3,23.2c18.5,21.5,53.8,44.5,97.2,44.5c14.5,0,29.1-2.5,43.6-7.6&#10;&#9;&#9;&#9;c5.2-1.8,7.9-7.4,6.2-12.6c-1.7-5.2-7.3-8-12.5-6.4c-0.1,0-8.5,2.7-21.1,2.7c-16.3,0-40.5-4.4-63.4-25.6&#10;&#9;&#9;&#9;c-23.5-21.6-36.6-49.1-36-75.4c0.5-20.9,9.8-39.5,27-53.8c10.5-8.7,22.3-13.2,35.3-13.2c20.2,0,37.6,10.9,45.9,21.7&#10;&#9;&#9;&#9;c5.2,6.8,7.2,13.6,5.8,19.2c-3.9,14.7-12.9,23.8-23.6,23.8c-6.6,0-13.4-3.5-19.3-9.8c-4.6-4.9-6.5-9.7-5.8-14.8&#10;&#9;&#9;&#9;c1.1-9,10-17.5,13.8-19.9c3.7-2.3,5.3-6.8,4.2-11c-1.1-4.2-4.9-7.2-9.3-7.4c0,0-0.2,0-0.5,0c-15,0-42.2,10.4-48.6,49.4&#10;&#9;&#9;&#9;c-2.6,15.7,2.7,32.2,14.9,46.5c15.6,18.4,39.1,29.4,62.8,29.4c17,0,33.4-5.8,47.3-16.7C1245.1,740.7,1260,705.5,1256.2,670.5z" style="fill: rgb(255, 255, 255);" transform="matrix(0.19977353513240811, 0, 0, 0.19977353513240811, 492.15479376126945, 589.9882904553172)"/><g transform="matrix(0.19977353513240811, 0, 0, 0.19977353513240811, 492.0595178823632, 589.6068817639109)">
				<path class="st3" d="M1151.1,832.3c-39.5,0-71.6-20.9-88.5-40.5c-8.3-9.7-13.8-17.1-17.7-22.5c-6.1-8.3-9.2-12.5-14.6-14&#10;&#9;&#9;&#9;&#9;&#9;c-0.8-0.2-1.6-0.3-2.3-0.3c-1.8,0-3.3,0.7-4.5,1.9c-1.3,1.4-1.9,3.4-2.1,5.2c-6.5-9.8-2.4-23.5-2.4-23.7c0.2-0.6,0-1.2-0.4-1.6&#10;&#9;&#9;&#9;&#9;&#9;c-0.3-0.2-0.6-0.4-1-0.4c-0.2,0-0.4,0-0.6,0.1c-17.6,7.8-17.7,20.4-17.8,29.6c0,1.2,0,2.3-0.1,3.4c-0.2,5.5-4.4,9.6-8,9.6&#10;&#9;&#9;&#9;&#9;&#9;c-1.7,0-3-0.9-4-2.7c-3.5-6.6-2.3-11,11.7-25.2c13.5-13.7,18.5-28.9,21.7-43.2c0.8-3.7,0.7-6.1-0.5-7.5c-0.5-0.6-1.4-1.3-3-1.3&#10;&#9;&#9;&#9;&#9;&#9;c-2.9,0-7.3,2.6-13.2,7.6c-2.1,1.8-4.5,2.8-7.2,2.8c-1.7,0-3.3-0.4-4.5-0.8c5.6-3.4,9.4-6.4,25.4-41.9&#10;&#9;&#9;&#9;&#9;&#9;c13.1-29.1,62.8-83.5,123.5-83.5c15.2,0,30.2,3.5,44.4,10.4c34.6,16.8,55.7,44.4,59.2,77.8c3.3,31.1-9.8,62.3-34.4,81.6&#10;&#9;&#9;&#9;&#9;&#9;c-11.9,9.3-25.8,14.3-40.2,14.3c-20.1,0-40.7-9.7-54-25.3c-9.9-11.7-14.3-24.9-12.3-37.2c5-30.4,23.3-37.6,32.4-39.2&#10;&#9;&#9;&#9;&#9;&#9;c-5.6,4.9-13.4,13.9-14.8,24.9c-1.1,8.5,1.9,16.6,8.8,24.1c8.1,8.7,17.9,13.4,27.7,13.4c16.1,0,29.5-12.4,34.8-32.3&#10;&#9;&#9;&#9;&#9;&#9;c2.4-9.1-0.3-19.5-7.8-29.2c-12.3-15.9-33.9-26.2-55-26.2c-15.5,0-30.3,5.5-42.7,15.8c-19.8,16.5-30.5,38-31.1,62.3&#10;&#9;&#9;&#9;&#9;&#9;c-0.7,29.6,13.8,60.3,39.7,84.2c24.7,22.8,50.9,28.2,69.1,28.6C1160.4,832,1155.7,832.3,1151.1,832.3&#10;&#9;&#9;&#9;&#9;&#9;C1151.1,832.3,1151.1,832.3,1151.1,832.3z" style="fill: rgb(48, 207, 255); stroke-opacity: 1;"/>
				<path class="st4" d="M1141.1,585C1141.1,585,1141.1,585,1141.1,585c15,0,29.7,3.5,43.8,10.3c17.7,8.6,31.9,20.1,42,34.1&#10;&#9;&#9;&#9;&#9;&#9;c9.1,12.6,14.8,27.3,16.4,42.6c3.3,30.6-9.7,61.3-33.8,80.2c-11.8,9.3-25,13.9-39.3,13.9c-19.6,0-39.9-9.5-52.9-24.8&#10;&#9;&#9;&#9;&#9;&#9;c-9.7-11.4-13.9-24.2-12-36c2.6-15.9,9.2-27.2,19.5-33.5c2.1-1.3,4.2-2.2,6.1-3c-4.9,5.3-9.9,12.9-11,21.7&#10;&#9;&#9;&#9;&#9;&#9;c-1.1,9,2,17.5,9.2,25.3c8.4,9,18.6,13.9,28.8,13.9c16.9,0,30.7-12.8,36.2-33.4c2.5-9.6-0.3-20.4-8-30.5&#10;&#9;&#9;&#9;&#9;&#9;c-12.5-16.3-34.6-26.8-56.2-26.8c-15.9,0-30.9,5.6-43.6,16.2c-20.1,16.8-31,38.7-31.6,63.4c-0.7,30.1,13.9,61.2,40.2,85.3&#10;&#9;&#9;&#9;&#9;&#9;c17.2,15.8,35.1,23.4,50.6,26.7c-36.5-1.8-66-21.4-81.9-39.8c-8.3-9.6-13.7-17-17.7-22.4c-6.1-8.4-9.5-13-15.5-14.5&#10;&#9;&#9;&#9;&#9;&#9;c-1-0.2-1.9-0.4-2.7-0.4c-2.2,0-4.2,0.8-5.6,2.4c-0.6,0.7-1.1,1.4-1.4,2.2c-3.6-8.7-0.5-19.1-0.5-19.2c0.3-1.1,0-2.3-0.9-3.1&#10;&#9;&#9;&#9;&#9;&#9;c-0.6-0.5-1.3-0.8-2-0.8c-0.4,0-0.8,0.1-1.2,0.3c-1.9,0.9-3.7,1.8-5.2,2.7c5.8-9.7,8.7-19.8,10.9-29.4c1-4.2,0.7-7-0.8-8.8&#10;&#9;&#9;&#9;&#9;&#9;c-1-1.2-2.5-1.9-4.2-1.9c-1.2,0-4.9,0-14.1,8c-1.9,1.6-3.9,2.4-6.2,2.4c-0.2,0-0.5,0-0.7,0c4.7-3.7,9.5-10.7,23-40.6&#10;&#9;&#9;&#9;&#9;&#9;c6.1-13.7,21.1-34.8,44.6-53.1C1080.9,601.1,1108.5,585,1141.1,585 M998.9,753.4c-1.3,4.6-1.3,9.1-1.4,12.8c0,1.2,0,2.3-0.1,3.3&#10;&#9;&#9;&#9;&#9;&#9;c-0.2,5-4,8.2-6.5,8.2c-0.4,0-1.6,0-2.6-1.9C985.5,770.5,985.6,767,998.9,753.4 M1141.2,582c-59.6,0-110.5,52.3-124.9,84.4&#10;&#9;&#9;&#9;&#9;&#9;c-18,39.9-20.2,38.1-27.1,42.7c0,0,3.3,2.1,7.6,2.1c2.5,0,5.4-0.7,8.2-3.1c4.3-3.7,9.3-7.2,12.2-7.2c2.1,0,3.2,1.9,2,7&#10;&#9;&#9;&#9;&#9;&#9;c-2.8,12.2-7.2,28.1-21.3,42.5c-14.2,14.4-16,19.4-12,26.9c1.3,2.4,3.2,3.5,5.3,3.5c4.3,0,9.2-4.7,9.5-11.1&#10;&#9;&#9;&#9;&#9;&#9;c0.4-9.4-2-23.3,17-31.7c0,0-5.4,17.8,5.2,28.1c0,0-1-9.7,5.2-9.7c0.6,0,1.2,0.1,2,0.3c8.4,2.2,11,12.1,31.6,36&#10;&#9;&#9;&#9;&#9;&#9;c15.8,18.4,48,41,89.7,41c12.6,0,26.1-2.1,40.3-7c0,0-9.6,3.2-24.2,3.2c-18.5,0-45.1-5.1-70.2-28.2&#10;&#9;&#9;&#9;&#9;&#9;c-44.9-41.3-55.9-104.8-8.7-144.2c13.2-11,27.8-15.5,41.7-15.5c35.9,0,67.7,29.6,61.3,53.5c-5.4,20.4-18.8,31.2-33.3,31.2&#10;&#9;&#9;&#9;&#9;&#9;c-9,0-18.5-4.2-26.6-13c-21.2-22.7,2.4-45.2,9.9-50c0,0-0.1,0-0.2,0c-2.4,0-32.1,0.8-38.7,41c-5.1,30.8,29.4,64.3,67.8,64.3&#10;&#9;&#9;&#9;&#9;&#9;c13.8,0,28-4.3,41.2-14.6c49.7-38.9,52.3-124.4-25.1-161.9C1171,585.2,1155.8,582,1141.2,582L1141.2,582z" style="fill: rgb(48, 207, 255);"/>
			</g><path class="st5" d="M992.6,736.7c-2-0.1-3.6-1.5-4.2-3.7c-0.6-2.1-0.2-5.4,3-7.7c3-2.2,7.2-2.9,10.3-3.1&#10;&#9;&#9;&#9;&#9;&#9;c-2.3,2.3-3.7,5.6-4.9,8.5c-1.3,3.1-2.5,5.9-4.1,5.9L992.6,736.7z" style="fill: rgb(28, 117, 188);" transform="matrix(0.19977319240570068, 0, 0, 0.19977319240570068, 491.8691492300194, 589.4165131115672)"/><path class="st6" d="M998.3,724.1c-1.2,2-2.1,4.1-2.9,6c-0.7,1.8-2,4.7-2.7,5c-2-0.1-2.7-2-2.9-2.6c-0.5-1.7-0.1-4.2,2.4-6.1&#10;&#9;&#9;&#9;&#9;&#9;C994,725.3,996.2,724.5,998.3,724.1 M1003.9,720.6c-3.6,0-9.3,0.5-13.4,3.5c-6.4,4.6-4.2,13.6,1.9,14.1c0.1,0,0.2,0,0.2,0&#10;&#9;&#9;&#9;&#9;&#9;c5.9,0,5.3-15.9,14.7-17.4C1007.4,720.8,1006,720.6,1003.9,720.6L1003.9,720.6z" style="fill: rgb(20, 96, 147);" transform="matrix(0.19977319240570068, 0, 0, 0.19977319240570068, 491.8691492300194, 589.4165131115672)"/><path class="st2" d="M1009.3,769c1.3,1,2.3,2.2,2.7,2.9c-0.2,0.1-0.6,0.1-1,0.2c-0.1,0-0.3,0-0.4,0c-0.5,0-1-0.1-1.1-0.3&#10;&#9;&#9;&#9;&#9;&#9;C1009.1,771.4,1009.1,770.3,1009.3,769 M1007.4,764.8c0,0-4.4,10.3,3.1,10.3c0.2,0,0.4,0,0.6,0&#10;&#9;&#9;&#9;&#9;&#9;C1019.5,774.5,1012.8,766.1,1007.4,764.8L1007.4,764.8z" style="fill: rgb(142, 205, 221);" transform="matrix(0.19977319240570068, 0, 0, 0.19977319240570068, 491.8691492300194, 589.4165131115672)"/></svg>