<?xml version="1.0" encoding="utf-8"?>
<svg id="master-artboard" viewBox="0 0 440.3041076660156 507.90545654296875" version="1.1" xmlns="http://www.w3.org/2000/svg" x="0px" y="0px" enable-background="new 0 0 1400 980" width="440.3041076660156px" height="507.90545654296875px"><rect id="ee-background" x="0" y="0" width="440.3041076660156" height="507.90545654296875" style="fill: white; fill-opacity: 0; pointer-events: none;"/>

<path d="M 310.101009 610.663025 A 42.117001 42.117001 0 0 1 267.984009 652.780025 A 42.117001 42.117001 0 0 1 225.867008 610.663025 A 42.117001 42.117001 0 0 1 267.984009 568.546024 A 42.117001 42.117001 0 0 1 310.101009 610.663025 Z" fill="#F09B36" transform="matrix(1, 0, 0, 1, -167.1283721923828, -177.46620178222656)" style="fill: rgb(255, 191, 41);"/>
<path d="M 518.197998 214.779999 H 561.897999 V 348.701004 H 518.197998 V 214.779999 Z" fill="#D6562B" transform="matrix(1, 0, 0, 1, -167.1283721923828, -177.46620178222656)" style="fill: rgb(48, 209, 254);"/><path d="M 518.197998 348.700989 H 561.897999 V 482.621994 H 518.197998 V 348.700989 Z" fill="#D6562B" transform="matrix(1, 0, 0, 1, -167.1283721923828, -177.46620178222656)" style="fill: rgb(48, 209, 254);"/><path d="M 518.197998 482.622009 H 561.897999 V 616.543015 H 518.197998 V 482.622009 Z" fill="#D6562B" transform="matrix(1, 0, 0, 1, -167.1283721923828, -177.46620178222656)" style="fill: rgb(48, 209, 254);"/><path d="M 213 214.779999 H 496.347992 V 348.701004 H 213 V 214.779999 Z" fill="#FFFFFF" transform="matrix(1, 0, 0, 1, -167.1283721923828, -177.46620178222656)"/><path d="M 496.347992 214.779999 H 540.047993 V 348.701004 H 496.347992 V 214.779999 Z" fill="#00ADDC" transform="matrix(1, 0, 0, 1, -167.1283721923828, -177.46620178222656)" style="fill: rgb(137, 227, 253);"/><path d="M 213 348.700989 H 496.347992 V 482.621994 H 213 V 348.700989 Z" fill="#FFFFFF" transform="matrix(1, 0, 0, 1, -167.1283721923828, -177.46620178222656)"/><path d="M 496.347992 348.700989 H 540.047993 V 482.621994 H 496.347992 V 348.700989 Z" fill="#ED174C" transform="matrix(1, 0, 0, 1, -167.1283721923828, -177.46620178222656)" style="fill: rgb(255, 151, 135);"/><path d="M 213 482.622009 H 496.347992 V 616.543015 H 213 V 482.622009 Z" fill="#FFFFFF" transform="matrix(1, 0, 0, 1, -167.1283721923828, -177.46620178222656)"/><path d="M 496.347992 482.622009 H 540.047993 V 616.543015 H 496.347992 V 482.622009 Z" fill="#009245" transform="matrix(1, 0, 0, 1, -167.1283721923828, -177.46620178222656)" style="fill: rgb(255, 219, 135);"/><path d="M 213 348.700989 H 496.347992 V 359.038989 H 213 V 348.700989 Z" fill="#B3B3B3" transform="matrix(1, 0, 0, 1, -167.1283721923828, -177.46620178222656)"/><path d="M 213 482.622009 H 496.347992 V 492.96001 H 213 V 482.622009 Z" fill="#B3B3B3" transform="matrix(1, 0, 0, 1, -167.1283721923828, -177.46620178222656)"/><path d="M 225.216995 233.576004 L 333.764008 233.576004" fill="none" stroke="#666666" stroke-width="2" stroke-linecap="round" stroke-miterlimit="10" transform="matrix(1, 0, 0, 1, -167.1283721923828, -177.46620178222656)"/><path d="M 225.216995 250.962006 L 484.131012 250.962006" fill="none" stroke="#666666" stroke-width="2" stroke-linecap="round" stroke-miterlimit="10" transform="matrix(1, 0, 0, 1, -167.1283721923828, -177.46620178222656)"/><path d="M 225.216995 264.119995 L 484.131012 264.119995" fill="none" stroke="#666666" stroke-width="2" stroke-linecap="round" stroke-miterlimit="10" transform="matrix(1, 0, 0, 1, -167.1283721923828, -177.46620178222656)"/><path d="M 225.216995 277.277008 L 484.131012 277.277008" fill="none" stroke="#666666" stroke-width="2" stroke-linecap="round" stroke-miterlimit="10" transform="matrix(1, 0, 0, 1, -167.1283721923828, -177.46620178222656)"/><path d="M 225.216995 290.43399 L 484.131012 290.43399" fill="none" stroke="#666666" stroke-width="2" stroke-linecap="round" stroke-miterlimit="10" transform="matrix(1, 0, 0, 1, -167.1283721923828, -177.46620178222656)"/><path d="M 225.216995 303.591003 L 484.131012 303.591003" fill="none" stroke="#666666" stroke-width="2" stroke-linecap="round" stroke-miterlimit="10" transform="matrix(1, 0, 0, 1, -167.1283721923828, -177.46620178222656)"/><path d="M 225.216995 316.747986 L 484.131012 316.747986" fill="none" stroke="#666666" stroke-width="2" stroke-linecap="round" stroke-miterlimit="10" transform="matrix(1, 0, 0, 1, -167.1283721923828, -177.46620178222656)"/><path d="M 225.216995 329.904999 L 484.131012 329.904999" fill="none" stroke="#666666" stroke-width="2" stroke-linecap="round" stroke-miterlimit="10" transform="matrix(1, 0, 0, 1, -167.1283721923828, -177.46620178222656)"/><path d="M 225.216995 367.497009 L 333.764008 367.497009" fill="none" stroke="#666666" stroke-width="2" stroke-linecap="round" stroke-miterlimit="10" transform="matrix(1, 0, 0, 1, -167.1283721923828, -177.46620178222656)"/><path d="M 225.216995 384.882996 L 484.131012 384.882996" fill="none" stroke="#666666" stroke-width="2" stroke-linecap="round" stroke-miterlimit="10" transform="matrix(1, 0, 0, 1, -167.1283721923828, -177.46620178222656)"/><path d="M 225.216995 398.040009 L 484.131012 398.040009" fill="none" stroke="#666666" stroke-width="2" stroke-linecap="round" stroke-miterlimit="10" transform="matrix(1, 0, 0, 1, -167.1283721923828, -177.46620178222656)"/><path d="M 225.216995 411.196991 L 484.131012 411.196991" fill="none" stroke="#666666" stroke-width="2" stroke-linecap="round" stroke-miterlimit="10" transform="matrix(1, 0, 0, 1, -167.1283721923828, -177.46620178222656)"/><path d="M 225.216995 424.355011 L 484.131012 424.355011" fill="none" stroke="#666666" stroke-width="2" stroke-linecap="round" stroke-miterlimit="10" transform="matrix(1, 0, 0, 1, -167.1283721923828, -177.46620178222656)"/><path d="M 225.216995 437.511993 L 484.131012 437.511993" fill="none" stroke="#666666" stroke-width="2" stroke-linecap="round" stroke-miterlimit="10" transform="matrix(1, 0, 0, 1, -167.1283721923828, -177.46620178222656)"/><path d="M 225.216995 450.669006 L 484.131012 450.669006" fill="none" stroke="#666666" stroke-width="2" stroke-linecap="round" stroke-miterlimit="10" transform="matrix(1, 0, 0, 1, -167.1283721923828, -177.46620178222656)"/><path d="M 225.216995 463.825989 L 484.131012 463.825989" fill="none" stroke="#666666" stroke-width="2" stroke-linecap="round" stroke-miterlimit="10" transform="matrix(1, 0, 0, 1, -167.1283721923828, -177.46620178222656)"/><path d="M 225.216995 501.417999 L 333.764008 501.417999" fill="none" stroke="#666666" stroke-width="2" stroke-linecap="round" stroke-miterlimit="10" transform="matrix(1, 0, 0, 1, -167.1283721923828, -177.46620178222656)"/><path d="M 225.216995 518.804016 L 484.131012 518.804016" fill="none" stroke="#666666" stroke-width="2" stroke-linecap="round" stroke-miterlimit="10" transform="matrix(1, 0, 0, 1, -167.1283721923828, -177.46620178222656)"/><path d="M 225.216995 531.960999 L 484.131012 531.960999" fill="none" stroke="#666666" stroke-width="2" stroke-linecap="round" stroke-miterlimit="10" transform="matrix(1, 0, 0, 1, -167.1283721923828, -177.46620178222656)"/><path d="M 225.216995 545.117981 L 484.131012 545.117981" fill="none" stroke="#666666" stroke-width="2" stroke-linecap="round" stroke-miterlimit="10" transform="matrix(1, 0, 0, 1, -167.1283721923828, -177.46620178222656)"/><path d="M 225.216995 558.275024 L 484.131012 558.275024" fill="none" stroke="#666666" stroke-width="2" stroke-linecap="round" stroke-miterlimit="10" transform="matrix(1, 0, 0, 1, -167.1283721923828, -177.46620178222656)"/><path d="M 225.216995 571.432983 L 484.131012 571.432983" fill="none" stroke="#666666" stroke-width="2" stroke-linecap="round" stroke-miterlimit="10" transform="matrix(1, 0, 0, 1, -167.1283721923828, -177.46620178222656)"/><path d="M 225.216995 584.590027 L 484.131012 584.590027" fill="none" stroke="#666666" stroke-width="2" stroke-linecap="round" stroke-miterlimit="10" transform="matrix(1, 0, 0, 1, -167.1283721923828, -177.46620178222656)"/><path d="M 225.216995 597.747009 L 484.131012 597.747009" fill="none" stroke="#666666" stroke-width="2" stroke-linecap="round" stroke-miterlimit="10" transform="matrix(1, 0, 0, 1, -167.1283721923828, -177.46620178222656)"/><path d="M 507.27301 229.927994 L 507.27301 333.553009" fill="none" stroke="#FFFFFF" stroke-width="3" stroke-linecap="round" stroke-miterlimit="10" transform="matrix(1, 0, 0, 1, -167.1283721923828, -177.46620178222656)"/><path d="M 507.27301 363.848999 L 507.27301 467.473999" fill="none" stroke="#FFFFFF" stroke-width="3" stroke-linecap="round" stroke-miterlimit="10" transform="matrix(1, 0, 0, 1, -167.1283721923828, -177.46620178222656)"/><path d="M 507.27301 497.769989 L 507.27301 601.39502" fill="none" stroke="#FFFFFF" stroke-width="3" stroke-linecap="round" stroke-miterlimit="10" transform="matrix(1, 0, 0, 1, -167.1283721923828, -177.46620178222656)"/>
</svg>