<?xml version="1.0" encoding="utf-8"?>
<svg id="master-artboard" viewBox="0 0 1288.882568359375 1070.014892578125" version="1.1" xmlns="http://www.w3.org/2000/svg" x="0px" y="0px" width="1288.882568359375px" height="1070.014892578125px" enable-background="new 0 0 1400 1400"><rect id="ee-background" x="0" y="0" width="1288.882568359375" height="1070.014892578125" style="fill: white; fill-opacity: 0; pointer-events: none;"/>



<path d="M 259.447998046875 445.6470031738281 L 700 191.29400634765625 L 1140.552001953125 445.6470031738281 L 1140.552001953125 954.35302734375 L 700 1208.7060546875 L 259.447998046875 954.35302734375 Z" opacity="0.5" fill="#C9CACC" transform="matrix(1, 0, 0, 1, -50.50791549682617, -134.68777465820312)" style="fill: rgb(137, 227, 253);"/><path d="M 278.5220031738281 302.0069885253906 L 382.6090087890625 241.91299438476562 L 486.6960144042969 302.0069885253906 L 486.6960144042969 422.1969909667969 L 382.6090087890625 482.2919921875 L 278.5220031738281 422.1969909667969 Z" fill="#CCDAE1" transform="matrix(1, 0, 0, 1, -50.50791549682617, -134.68777465820312)" style="fill: rgb(48, 209, 254);"/><path d="M 1081.52197265625 1072.60302734375 L 1137.010986328125 1040.5670166015625 L 1192.4959716796875 1072.60302734375 L 1192.4959716796875 1136.6739501953125 L 1137.010986328125 1168.708984375 L 1081.52197265625 1136.6739501953125 Z" fill="#CCDAE1" transform="matrix(1, 0, 0, 1, -50.50791549682617, -134.68777465820312)" style="fill: rgb(48, 209, 254);"/><path d="M 1026.982056 447.833008 L 1202.342041 447.833008 L 1202.342041 310.372009" fill="none" stroke="#0F1041" stroke-width="11" stroke-linecap="round" stroke-linejoin="round" stroke-miterlimit="10" transform="matrix(1, 0, 0, 1, -50.50791549682617, -134.68777465820312)" style="stroke: rgb(169, 169, 170);"/><path d="M 1028.848999 803.60498 L 1170.848999 803.60498" fill="none" stroke="#0F1041" stroke-width="11" stroke-linecap="round" stroke-linejoin="round" stroke-miterlimit="10" transform="matrix(1, 0, 0, 1, -50.50791549682617, -134.68777465820312)" style="stroke: rgb(169, 169, 170);"/><path d="M 1202.342041 379.102997 L 1268.407959 379.102997" fill="none" stroke="#0F1041" stroke-width="11" stroke-linecap="round" stroke-linejoin="round" stroke-miterlimit="10" transform="matrix(1, 0, 0, 1, -50.50791549682617, -134.68777465820312)" style="stroke: rgb(169, 169, 170);"/><path d="M 1219.342041 293.372009 A 17 17 0 0 1 1202.342041 310.372009 A 17 17 0 0 1 1185.342041 293.372009 A 17 17 0 0 1 1202.342041 276.372009 A 17 17 0 0 1 1219.342041 293.372009 Z" fill="#0F1041" transform="matrix(1, 0, 0, 1, -50.50791549682617, -134.68777465820312)" style="fill: rgb(169, 169, 170);"/><path d="M 131.592003 832.60498 A 17 17 0 0 1 114.592003 849.60498 A 17 17 0 0 1 97.592003 832.60498 A 17 17 0 0 1 114.592003 815.60498 A 17 17 0 0 1 131.592003 832.60498 Z" fill="#0F1041" transform="matrix(1, 0, 0, 1, -50.50791549682617, -134.68777465820312)" style="fill: rgb(169, 169, 170);"/><path d="M 131.592003 1058.60498 A 17 17 0 0 1 114.592003 1075.60498 A 17 17 0 0 1 97.592003 1058.60498 A 17 17 0 0 1 114.592003 1041.60498 A 17 17 0 0 1 131.592003 1058.60498 Z" fill="#0F1041" transform="matrix(1, 0, 0, 1, -50.50791549682617, -134.68777465820312)" style="fill: rgb(169, 169, 170);"/><path d="M 211.259003 1143.270996 A 17 17 0 0 1 194.259003 1160.270996 A 17 17 0 0 1 177.259003 1143.270996 A 17 17 0 0 1 194.259003 1126.270996 A 17 17 0 0 1 211.259003 1143.270996 Z" fill="#0F1041" transform="matrix(1, 0, 0, 1, -50.50791549682617, -134.68777465820312)" style="fill: rgb(169, 169, 170);"/><path d="M 1302.407959 379.102997 A 17 17 0 0 1 1285.407959 396.102997 A 17 17 0 0 1 1268.407959 379.102997 A 17 17 0 0 1 1285.407959 362.102997 A 17 17 0 0 1 1302.407959 379.102997 Z" fill="#0F1041" transform="matrix(1, 0, 0, 1, -50.50791549682617, -134.68777465820312)" style="fill: rgb(169, 169, 170);"/><path d="M 273.59201 832.60498 L 131.591995 832.60498" fill="none" stroke="#0F1041" stroke-width="11" stroke-linecap="round" stroke-linejoin="round" stroke-miterlimit="10" transform="matrix(1, 0, 0, 1, -50.50791549682617, -134.68777465820312)" style="stroke: rgb(169, 169, 170);"/><path d="M 1204.092041 803.60498 A 17 17 0 0 1 1187.092041 820.60498 A 17 17 0 0 1 1170.092041 803.60498 A 17 17 0 0 1 1187.092041 786.60498 A 17 17 0 0 1 1204.092041 803.60498 Z" fill="#0F1041" transform="matrix(1, 0, 0, 1, -50.50791549682617, -134.68777465820312)" style="fill: rgb(169, 169, 170);"/><path d="M 332.259003 980.270996 L 194.259003 980.270996 L 194.259003 1126.270996" fill="none" stroke="#0F1041" stroke-width="11" stroke-linecap="round" stroke-linejoin="round" stroke-miterlimit="10" transform="matrix(1, 0, 0, 1, -50.50791549682617, -134.68777465820312)" style="stroke: rgb(169, 169, 170);"/><path d="M 189.591995 1058.60498 L 131.591995 1058.60498" fill="none" stroke="#0F1041" stroke-width="11" stroke-linecap="round" stroke-linejoin="round" stroke-miterlimit="10" transform="matrix(1, 0, 0, 1, -50.50791549682617, -134.68777465820312)" style="stroke: rgb(169, 169, 170);"/><path d="M 1060.625 692.690979 H 1065.282 V 779.009979 H 1060.625 V 692.690979 Z" fill="#F68B20" transform="matrix(1, 0, 0, 1, -50.50791549682617, -134.68777465820312)"/>
<g transform="matrix(1, 0, 0, 1, -50.50791549682617, -134.68777465820312)">
		<g>
			<path fill="#FAB818" d="M1157.418,576.706c1.65,0,3-1.35,3-3v-38.145c0-1.65-1.35-3-3-3h-17.409c-1.65,0-3,1.35-3,3v38.145&#10;&#9;&#9;&#9;&#9;c0,1.65,1.35,3,3,3H1157.418z" style="fill: rgb(255, 219, 135);"/>
		</g>
		<g>
			<path fill="#FAB818" d="M1192.281,576.706c1.65,0,3-1.35,3-3v-38.145c0-1.65-1.35-3-3-3h-17.408c-1.65,0-3,1.35-3,3v38.145&#10;&#9;&#9;&#9;&#9;c0,1.65,1.35,3,3,3H1192.281z" style="fill: rgb(255, 219, 135);"/>
		</g>
		<g>
			<path fill="#FAB818" d="M1227.148,576.706c1.65,0,3-1.35,3-3v-38.145c0-1.65-1.35-3-3-3h-17.41c-1.65,0-3,1.35-3,3v38.145&#10;&#9;&#9;&#9;&#9;c0,1.65,1.35,3,3,3H1227.148z" style="fill: rgb(255, 219, 135);"/>
		</g>
		<path d="M 1137.009033 547.395996 H 1160.418034 V 554.581996 H 1137.009033 V 547.395996 Z" fill="#F68B20" style="fill: rgb(255, 179, 0);"/>
		<path d="M 1137.009033 562.546021 H 1160.418034 V 569.73202 H 1137.009033 V 562.546021 Z" fill="#F68B20" style="fill: rgb(255, 179, 0);"/>
		<path d="M 1171.873047 547.395996 H 1195.281048 V 554.581996 H 1171.873047 V 547.395996 Z" fill="#F68B20" style="fill: rgb(255, 179, 0);"/>
		<path d="M 1171.873047 562.546021 H 1195.281048 V 569.73202 H 1171.873047 V 562.546021 Z" fill="#F68B20" style="fill: rgb(255, 179, 0);"/>
		<path d="M 1206.738037 547.395996 H 1230.148037 V 554.581996 H 1206.738037 V 547.395996 Z" fill="#F68B20" style="fill: rgb(255, 179, 0);"/>
		<path d="M 1206.738037 562.546021 H 1230.148037 V 569.73202 H 1206.738037 V 562.546021 Z" fill="#F68B20" style="fill: rgb(255, 179, 0);"/>
		<path fill="#FAB818" d="M1241.546,513.909v17.441c0,4.543-3.155,8.261-7.013,8.261h-232.578c-3.858,0-7.014-3.718-7.014-8.261&#10;&#9;&#9;&#9;v-17.441c0-4.543,3.155-8.261,7.014-8.261h232.578C1238.391,505.648,1241.546,509.366,1241.546,513.909z" style="fill: rgb(255, 219, 135);"/>
		<path fill="#F68B20" d="M1241.546,522.635v8.715c0,4.543-3.155,8.261-7.013,8.261H994.941v-16.976H1241.546z" style="fill: rgb(255, 179, 0);"/>
	<path d="M 1291.1092529296875 512.2937622070312" style="fill: rgb(255, 179, 0); fill-opacity: 1; stroke: rgb(0, 0, 0); stroke-opacity: 1; stroke-width: 0; paint-order: fill;"/><path d="M 1339.715576171875 601.1259765625" style="fill: rgb(255, 179, 0); fill-opacity: 1; stroke: rgb(0, 0, 0); stroke-opacity: 1; stroke-width: 0; paint-order: fill;"/><path d="M 1146.40771484375 513.9697875976562 L 1146.40771484375 513.9697875976562" style="fill: rgb(255, 219, 135); fill-opacity: 1; stroke: rgb(0, 0, 0); stroke-opacity: 1; stroke-width: 0; paint-order: fill;"/></g><path d="M 1084.448974609375 632.5750122070312 L 1255.9449462890625 632.5750122070312 L 1248.907958984375 623.7940063476562 L 1245.3909912109375 619.3800048828125 L 1238.3590087890625 610.5969848632812 L 1078.3819580078125 610.5969848632812 L 1080.8160400390625 619.3800048828125 L 1082.02001953125 623.7940063476562 Z" fill="#FAB818" transform="matrix(1, 0, 0, 1, -50.50791549682617, -134.68777465820312)" style="fill: rgb(255, 219, 135);"/><path d="M 1082.02001953125 623.7940063476562 L 1248.907958984375 623.7940063476562 L 1245.3909912109375 619.3800048828125 L 1080.8160400390625 619.3800048828125 Z" fill="#F68B20" transform="matrix(1, 0, 0, 1, -50.50791549682617, -134.68777465820312)" style="fill: rgb(255, 179, 0);"/><path fill="#F7FAFC" d="M1114.88,381.45v343.47c0,5.5-4.5,10-10,10h-564.2c-5.5,0-10-4.5-10-10V381.45c0-5.5,4.5-10,10-10h564.2&#10;&#9;&#9;C1110.38,371.45,1114.88,375.95,1114.88,381.45z" transform="matrix(1, 0, 0, 1, -50.50791549682617, -134.68777465820312)"/><path fill="#223D4B" d="M1071.41,425.29v255.78c0,5.5-4.5,10-10,10H584.16c-5.5,0-10-4.5-10-10V425.29c0-5.5,4.5-10,10-10h477.25&#10;&#9;&#9;C1066.91,415.29,1071.41,419.79,1071.41,425.29z" transform="matrix(1, 0, 0, 1, -50.50791549682617, -134.68777465820312)" style="fill: rgb(52, 52, 54);"/><path fill="#CCDAE1" d="M1105.425,734.917c5.5,0,7.366,3.648,4.147,8.108L946.413,969.081c-3.219,4.46-10.353,8.108-15.853,8.108&#10;&#9;&#9;&#9;H345.623c-5.5,0-7.183-3.509-3.739-7.798l182.001-226.677c3.443-4.289,10.761-7.798,16.261-7.798H1105.425z" transform="matrix(1, 0, 0, 1, -50.50791549682617, -134.68777465820312)"/><path fill="#7BA1B3" d="M1105.42,734.92c5.5,0,7.366,3.648,4.147,8.108L946.412,969.082c-3.219,4.46-10.353,8.108-15.853,8.108&#10;&#9;&#9;&#9;h-5.52c-5.5,0-7.366-3.648-4.147-8.108l163.155-226.054c3.219-4.46,10.353-8.108,15.853-8.108H1105.42z" transform="matrix(1, 0, 0, 1, -50.50791549682617, -134.68777465820312)" style="fill: rgb(246, 246, 246);"/><path fill="#CCDAE1" d="M1079.9,734.92c5.5,0,7.366,3.648,4.147,8.108L920.893,969.082c-3.219,4.46-10.353,8.108-15.853,8.108&#10;&#9;&#9;&#9;H345.62c-5.5,0-7.183-3.509-3.739-7.798l182.008-226.675c3.443-4.289,10.761-7.798,16.261-7.798H1079.9z" transform="matrix(1, 0, 0, 1, -50.50791549682617, -134.68777465820312)"/><path d="M 1112.77099609375 736.3679809570312 L 1112.77099609375 778.3060302734375 L 938.0369873046875 1023.1160278320312 L 938.0369873046875 981.177978515625 Z" fill="#4F7E97" transform="matrix(1, 0, 0, 1, -50.50791549682617, -134.68777465820312)" style="fill: rgb(223, 226, 228);"/><path fill="#7BA1B3" d="M1022.436,770.187c1.633-2.213,0.719-4.023-2.031-4.023H557.797c-2.75,0-6.33,1.815-7.955,4.033&#10;&#9;&#9;&#9;L475.99,871.014c-1.625,2.218-0.705,4.033,2.045,4.033h462.025c2.75,0,6.336-1.811,7.969-4.023L1022.436,770.187z" transform="matrix(1, 0, 0, 1, -50.50791549682617, -134.68777465820312)"/><path opacity="0.6" fill="#162C35" d="M1071.41,532.56v148.51c0,5.5-4.5,10-10,10H584.16c-5.5,0-10-4.5-10-10V532.56H1071.41z" transform="matrix(1, 0, 0, 1, -50.50791549682617, -134.68777465820312)" style="fill: rgb(47, 47, 49);"/><path d="M 939.6199951171875 977.1900024414062 L 939.6199951171875 1021.989990234375 L 918.0700073242188 1021.8400268554688 L 335.6199951171875 1017.8599853515625 L 335.6199951171875 977.1900024414062 Z" fill="#B5C9D4" transform="matrix(1, 0, 0, 1, -50.50791549682617, -134.68777465820312)"/><path fill="#4F7E97" d="M781.583,627.697c-111.421,0-228.993-98.116-264.478-130.222l-0.187,0.181l-0.187-0.181&#10;&#9;&#9;c-35.484,32.104-153.055,130.219-264.477,130.222c-8.233,0-16.321-0.54-24.203-1.611c11.708,73.219,52.172,325.278,59.894,360.049&#10;&#9;&#9;l0.156,0.701l0.083,0.713c0.025,0.211,3.245,21.987,31.156,52.372c27.521,29.96,84.096,73.008,197.578,108.771&#10;&#9;&#9;c111.207-35.046,167.549-77.082,195.289-106.32c28.77-30.322,33.158-53.192,33.451-54.906l0.036-0.446l0.196-0.885&#10;&#9;&#9;c7.722-34.771,48.187-286.83,59.895-360.049C797.904,627.157,789.815,627.697,781.583,627.697z" transform="matrix(1, 0, 0, 1, -50.50791549682617, -134.68777465820312)" style="fill: rgb(8, 199, 253);"/><path fill="#103447" d="M516.924,1103.49c-101.034-33.733-147.148-72.227-165.917-92.658c-14.838-16.153-19.394-27.723-20.4-30.727&#10;&#9;&#9;l-0.051-0.437l-0.635-2.857c-5.282-23.787-28.736-166.539-51.4-307.549c93.262-10.014,238.396-115.079,238.396-115.079&#10;&#9;&#9;S662.053,659.25,755.314,669.263c-22.667,141.021-46.122,283.78-51.401,307.55l-0.694,3.129&#10;&#9;&#9;c-1.171,3.454-6.209,15.974-22.206,32.834C657.898,1037.14,610.817,1072.194,516.924,1103.49z" transform="matrix(1, 0, 0, 1, -50.50791549682617, -134.68777465820312)" style="fill: rgb(47, 47, 49);"/><path fill="#B5C9D4" d="M516.911,497.654v651.04c-113.48-35.771-170.05-78.82-197.58-108.78c-27.91-30.38-31.13-52.16-31.15-52.37&#10;&#9;&#9;l-0.08-0.71l-0.16-0.7c-7.72-34.77-48.19-286.83-59.89-360.05c7.88,1.07,15.97,1.61,24.2,1.61c111.42,0,228.99-98.12,264.48-130.22&#10;&#9;&#9;L516.911,497.654z" transform="matrix(1, 0, 0, 1, -50.50791549682617, -134.68777465820312)" style="fill: rgb(137, 227, 253);"/><path fill="#123A4C" d="M516.911,554.184v549.3c-101.03-33.73-147.14-72.221-165.91-92.66c-14.84-16.15-19.39-27.72-20.4-30.72&#10;&#9;&#9;l-0.05-0.44l-0.63-2.86c-5.29-23.779-28.74-166.529-51.4-307.54C371.781,659.244,516.911,554.184,516.911,554.184z" transform="matrix(1, 0, 0, 1, -50.50791549682617, -134.68777465820312)" style="fill: rgb(52, 52, 54);"/><path fill="#8EA0A3" d="M541.589,860.859h-49.342c-36.668,0-66.5-29.832-66.5-66.5v-49.342c0-36.668,29.832-66.5,66.5-66.5h49.342&#10;&#9;&#9;&#9;c36.668,0,66.5,29.832,66.5,66.5v49.342C608.089,831.027,578.257,860.859,541.589,860.859z M492.247,703.518&#10;&#9;&#9;&#9;c-22.883,0-41.5,18.617-41.5,41.5v49.342c0,22.883,18.617,41.5,41.5,41.5h49.342c22.883,0,41.5-18.617,41.5-41.5v-49.342&#10;&#9;&#9;&#9;c0-22.883-18.617-41.5-41.5-41.5H492.247z" transform="matrix(1, 0, 0, 1, -50.50791549682617, -134.68777465820312)" style="fill: rgb(181, 201, 212);"/><path fill="#98A8A9" d="M492.25,703.52h24.67v-25h-24.67c-36.67,0-66.5,29.83-66.5,66.5v49.341c0,36.67,29.83,66.5,66.5,66.5&#10;&#9;&#9;&#9;h24.67v-25h-24.67c-22.89,0-41.5-18.62-41.5-41.5V745.02C450.75,722.13,469.36,703.52,492.25,703.52z" transform="matrix(1, 0, 0, 1, -50.50791549682617, -134.68777465820312)" style="fill: rgb(204, 218, 225);"/><path fill="#C7C8CC" d="M632.866,962.996c0,5.5-4.5,10-10,10H410.97c-5.5,0-10-4.5-10-10V796.488c0-5.5,4.5-10,10-10h211.896&#10;&#9;&#9;&#9;c5.5,0,10,4.5,10,10V962.996z" transform="matrix(1, 0, 0, 1, -50.50791549682617, -134.68777465820312)"/><path fill="#DBDBDD" d="M516.918,786.486v186.51H410.97c-5.5,0-10-4.5-10-10v-166.51c0-5.5,4.5-10,10-10H516.918z" transform="matrix(1, 0, 0, 1, -50.50791549682617, -134.68777465820312)"/><path fill="#3D565D" d="M509.812,877.926l-5.471,37.178h20.801h4.354l-5.471-37.178c6.143-2.717,10.42-8.869,10.42-16.016&#10;&#9;&#9;&#9;c0-9.68-7.848-17.529-17.527-17.529c-9.679,0-17.527,7.85-17.527,17.529C499.391,869.057,503.668,875.209,509.812,877.926z" transform="matrix(1, 0, 0, 1, -50.50791549682617, -134.68777465820312)" style="fill: rgb(1, 192, 246);"/><path fill="#5C6C73" d="M499.391,861.91c0,7.146,4.277,13.299,10.421,16.016l-5.471,37.178h12.577v-70.723&#10;&#9;&#9;&#9;C507.239,844.381,499.391,852.23,499.391,861.91z" transform="matrix(1, 0, 0, 1, -50.50791549682617, -134.68777465820312)" style="fill: rgb(48, 209, 254);"/><path opacity="0.4" fill="#BCBEC0" d="M1114.88,381.45v343.47c0,5.5-4.5,10-10,10H1089.9V371.45h14.979&#10;&#9;&#9;C1110.38,371.45,1114.88,375.95,1114.88,381.45z" transform="matrix(1, 0, 0, 1, -50.50791549682617, -134.68777465820312)"/>
<path d="M 1075.29296875 655.072021484375 L 1111.26904296875 655.072021484375 L 1122.31494140625 644.0230102539062 L 1123.56396484375 645.2509765625 L 1129.8900146484375 651.5770263671875 L 1141.198974609375 651.5770263671875 L 1152.199951171875 640.5770263671875 L 1169.904052734375 640.5770263671875 L 1181.6090087890625 652.2849731445312 L 1190.0379638671875 652.2849731445312 L 1196.5760498046875 645.7470092773438 L 1207.0830078125 645.7470092773438 L 1214.8699951171875 653.5360107421875 L 1226.2020263671875 653.5360107421875 L 1236.7049560546875 643.031982421875 L 1245.510009765625 643.031982421875 L 1255.9449462890625 632.5750122070312 L 1075.29296875 632.5750122070312 Z" fill="#F68B20" transform="matrix(1, 0, 0, 1, -50.50791549682617, -134.68777465820312)" style="fill: rgb(255, 179, 0);"/></svg>