<?xml version="1.0" encoding="utf-8"?>
<svg id="master-artboard" viewBox="0 0 1400 980" version="1.1" xmlns="http://www.w3.org/2000/svg" x="0px" y="0px" style="enable-background:new 0 0 1400 980;" width="1400px" height="980px">




<path class="st0" d="M1259.7,674c-4-36.9-27.9-68.6-65.7-86.9c-15.8-7.7-32.5-11.6-49.4-11.6c0,0,0,0,0,0&#10;&#9;&#9;c-36.4,0-66.6,17.6-85.5,32.3c-21.3,16.5-39.8,38.8-48.5,58c-14.9,33.2-17.7,34.9-21.3,37.1c-0.7,0.4-1.4,0.9-2.2,1.4&#10;&#9;&#9;c-2.8,1.9-4.5,5-4.5,8.4c0,3.2,1.6,6.1,4.1,8c-5.5,4.8-7.9,12.1-5.9,19c1.5,5.1,5,9.1,9.7,10.9c-10.9,11.5-17.2,21.4-10.1,34.9&#10;&#9;&#9;c2.9,5.5,8.2,8.8,14.1,8.8c5.3,0,10.2-2.6,13.8-6.7c1.7,0.7,3.6,1.1,5.7,1.1c0.4,0,0.9,0,1.4,0c7.6-0.5,11.4-4.9,12.7-9.2&#10;&#9;&#9;c3-0.6,5.6-2.6,7-5.2c1.2,1.5,2.5,3.4,4,5.4c4.1,5.6,9.7,13.2,18.3,23.2c18.5,21.5,53.8,44.5,97.2,44.5c14.5,0,29.1-2.5,43.6-7.6&#10;&#9;&#9;c5.2-1.8,7.9-7.4,6.2-12.6s-7.3-8-12.5-6.4c-0.1,0-8.5,2.7-21.1,2.7c-16.3,0-40.5-4.4-63.4-25.6c-23.5-21.6-36.6-49.1-36-75.4&#10;&#9;&#9;c0.5-20.9,9.8-39.5,27-53.8c10.5-8.7,22.3-13.2,35.3-13.2c20.2,0,37.6,10.9,45.9,21.7c5.2,6.8,7.2,13.6,5.8,19.2&#10;&#9;&#9;c-3.9,14.7-12.9,23.8-23.6,23.8c-6.6,0-13.4-3.5-19.3-9.8c-4.6-4.9-6.5-9.7-5.8-14.8c1.1-9,10-17.5,13.8-19.9&#10;&#9;&#9;c3.7-2.3,5.3-6.8,4.2-11c-1.1-4.2-4.9-7.2-9.3-7.4c0,0-0.2,0-0.5,0c-15,0-42.2,10.4-48.6,49.4c-2.6,15.7,2.7,32.2,14.9,46.5&#10;&#9;&#9;c15.6,18.4,39.1,29.4,62.8,29.4c17,0,33.4-5.8,47.3-16.7C1248.6,744.2,1263.4,709,1259.7,674z" style="opacity: 0.25; fill: rgb(20, 96, 147);" transform="matrix(3.3343158564525592, 0, 0, 3.3343158564525592, -3045.126911320547, -1896.9446923823189)"/><path class="st1" d="M1256.2,670.5c-4-36.9-27.9-68.6-65.7-86.9c-15.8-7.7-32.5-11.6-49.4-11.6c0,0,0,0,0,0&#10;&#9;&#9;&#9;c-36.4,0-66.6,17.6-85.5,32.3c-21.3,16.5-39.8,38.8-48.5,58c-14.9,33.2-17.7,34.9-21.3,37.1c-0.7,0.4-1.4,0.9-2.2,1.4&#10;&#9;&#9;&#9;c-2.8,1.9-4.5,5-4.5,8.4c0,3.2,1.6,6.1,4.1,8c-5.5,4.8-7.9,12.1-5.9,19c1.5,5.1,5,9.1,9.7,10.9c-10.9,11.5-17.2,21.4-10.1,34.9&#10;&#9;&#9;&#9;c2.9,5.5,8.2,8.8,14.1,8.8c5.3,0,10.2-2.6,13.8-6.7c1.7,0.7,3.6,1.1,5.7,1.1c0.4,0,0.9,0,1.4,0c7.6-0.5,11.4-4.9,12.7-9.2&#10;&#9;&#9;&#9;c3-0.6,5.6-2.6,7-5.2c1.2,1.5,2.5,3.4,4,5.4c4.1,5.6,9.7,13.2,18.3,23.2c18.5,21.5,53.8,44.5,97.2,44.5c14.5,0,29.1-2.5,43.6-7.6&#10;&#9;&#9;&#9;c5.2-1.8,7.9-7.4,6.2-12.6c-1.7-5.2-7.3-8-12.5-6.4c-0.1,0-8.5,2.7-21.1,2.7c-16.3,0-40.5-4.4-63.4-25.6&#10;&#9;&#9;&#9;c-23.5-21.6-36.6-49.1-36-75.4c0.5-20.9,9.8-39.5,27-53.8c10.5-8.7,22.3-13.2,35.3-13.2c20.2,0,37.6,10.9,45.9,21.7&#10;&#9;&#9;&#9;c5.2,6.8,7.2,13.6,5.8,19.2c-3.9,14.7-12.9,23.8-23.6,23.8c-6.6,0-13.4-3.5-19.3-9.8c-4.6-4.9-6.5-9.7-5.8-14.8&#10;&#9;&#9;&#9;c1.1-9,10-17.5,13.8-19.9c3.7-2.3,5.3-6.8,4.2-11c-1.1-4.2-4.9-7.2-9.3-7.4c0,0-0.2,0-0.5,0c-15,0-42.2,10.4-48.6,49.4&#10;&#9;&#9;&#9;c-2.6,15.7,2.7,32.2,14.9,46.5c15.6,18.4,39.1,29.4,62.8,29.4c17,0,33.4-5.8,47.3-16.7C1245.1,740.7,1260,705.5,1256.2,670.5z" style="fill: rgb(255, 255, 255);" transform="matrix(3.3343157768249516, 0, 0, 3.3343157768249516, -3040.353240896082, -1887.3971525024579)"/><g transform="matrix(3.3343157768249516, 0, 0, 3.3343157768249516, -3041.944450598481, -1893.7621748840413)">
				<path class="st3" d="M1151.1,832.3c-39.5,0-71.6-20.9-88.5-40.5c-8.3-9.7-13.8-17.1-17.7-22.5c-6.1-8.3-9.2-12.5-14.6-14&#10;&#9;&#9;&#9;&#9;&#9;c-0.8-0.2-1.6-0.3-2.3-0.3c-1.8,0-3.3,0.7-4.5,1.9c-1.3,1.4-1.9,3.4-2.1,5.2c-6.5-9.8-2.4-23.5-2.4-23.7c0.2-0.6,0-1.2-0.4-1.6&#10;&#9;&#9;&#9;&#9;&#9;c-0.3-0.2-0.6-0.4-1-0.4c-0.2,0-0.4,0-0.6,0.1c-17.6,7.8-17.7,20.4-17.8,29.6c0,1.2,0,2.3-0.1,3.4c-0.2,5.5-4.4,9.6-8,9.6&#10;&#9;&#9;&#9;&#9;&#9;c-1.7,0-3-0.9-4-2.7c-3.5-6.6-2.3-11,11.7-25.2c13.5-13.7,18.5-28.9,21.7-43.2c0.8-3.7,0.7-6.1-0.5-7.5c-0.5-0.6-1.4-1.3-3-1.3&#10;&#9;&#9;&#9;&#9;&#9;c-2.9,0-7.3,2.6-13.2,7.6c-2.1,1.8-4.5,2.8-7.2,2.8c-1.7,0-3.3-0.4-4.5-0.8c5.6-3.4,9.4-6.4,25.4-41.9&#10;&#9;&#9;&#9;&#9;&#9;c13.1-29.1,62.8-83.5,123.5-83.5c15.2,0,30.2,3.5,44.4,10.4c34.6,16.8,55.7,44.4,59.2,77.8c3.3,31.1-9.8,62.3-34.4,81.6&#10;&#9;&#9;&#9;&#9;&#9;c-11.9,9.3-25.8,14.3-40.2,14.3c-20.1,0-40.7-9.7-54-25.3c-9.9-11.7-14.3-24.9-12.3-37.2c5-30.4,23.3-37.6,32.4-39.2&#10;&#9;&#9;&#9;&#9;&#9;c-5.6,4.9-13.4,13.9-14.8,24.9c-1.1,8.5,1.9,16.6,8.8,24.1c8.1,8.7,17.9,13.4,27.7,13.4c16.1,0,29.5-12.4,34.8-32.3&#10;&#9;&#9;&#9;&#9;&#9;c2.4-9.1-0.3-19.5-7.8-29.2c-12.3-15.9-33.9-26.2-55-26.2c-15.5,0-30.3,5.5-42.7,15.8c-19.8,16.5-30.5,38-31.1,62.3&#10;&#9;&#9;&#9;&#9;&#9;c-0.7,29.6,13.8,60.3,39.7,84.2c24.7,22.8,50.9,28.2,69.1,28.6C1160.4,832,1155.7,832.3,1151.1,832.3&#10;&#9;&#9;&#9;&#9;&#9;C1151.1,832.3,1151.1,832.3,1151.1,832.3z" style="fill: rgb(48, 207, 255); stroke-opacity: 1;"/>
				<path class="st4" d="M1141.1,585C1141.1,585,1141.1,585,1141.1,585c15,0,29.7,3.5,43.8,10.3c17.7,8.6,31.9,20.1,42,34.1&#10;&#9;&#9;&#9;&#9;&#9;c9.1,12.6,14.8,27.3,16.4,42.6c3.3,30.6-9.7,61.3-33.8,80.2c-11.8,9.3-25,13.9-39.3,13.9c-19.6,0-39.9-9.5-52.9-24.8&#10;&#9;&#9;&#9;&#9;&#9;c-9.7-11.4-13.9-24.2-12-36c2.6-15.9,9.2-27.2,19.5-33.5c2.1-1.3,4.2-2.2,6.1-3c-4.9,5.3-9.9,12.9-11,21.7&#10;&#9;&#9;&#9;&#9;&#9;c-1.1,9,2,17.5,9.2,25.3c8.4,9,18.6,13.9,28.8,13.9c16.9,0,30.7-12.8,36.2-33.4c2.5-9.6-0.3-20.4-8-30.5&#10;&#9;&#9;&#9;&#9;&#9;c-12.5-16.3-34.6-26.8-56.2-26.8c-15.9,0-30.9,5.6-43.6,16.2c-20.1,16.8-31,38.7-31.6,63.4c-0.7,30.1,13.9,61.2,40.2,85.3&#10;&#9;&#9;&#9;&#9;&#9;c17.2,15.8,35.1,23.4,50.6,26.7c-36.5-1.8-66-21.4-81.9-39.8c-8.3-9.6-13.7-17-17.7-22.4c-6.1-8.4-9.5-13-15.5-14.5&#10;&#9;&#9;&#9;&#9;&#9;c-1-0.2-1.9-0.4-2.7-0.4c-2.2,0-4.2,0.8-5.6,2.4c-0.6,0.7-1.1,1.4-1.4,2.2c-3.6-8.7-0.5-19.1-0.5-19.2c0.3-1.1,0-2.3-0.9-3.1&#10;&#9;&#9;&#9;&#9;&#9;c-0.6-0.5-1.3-0.8-2-0.8c-0.4,0-0.8,0.1-1.2,0.3c-1.9,0.9-3.7,1.8-5.2,2.7c5.8-9.7,8.7-19.8,10.9-29.4c1-4.2,0.7-7-0.8-8.8&#10;&#9;&#9;&#9;&#9;&#9;c-1-1.2-2.5-1.9-4.2-1.9c-1.2,0-4.9,0-14.1,8c-1.9,1.6-3.9,2.4-6.2,2.4c-0.2,0-0.5,0-0.7,0c4.7-3.7,9.5-10.7,23-40.6&#10;&#9;&#9;&#9;&#9;&#9;c6.1-13.7,21.1-34.8,44.6-53.1C1080.9,601.1,1108.5,585,1141.1,585 M998.9,753.4c-1.3,4.6-1.3,9.1-1.4,12.8c0,1.2,0,2.3-0.1,3.3&#10;&#9;&#9;&#9;&#9;&#9;c-0.2,5-4,8.2-6.5,8.2c-0.4,0-1.6,0-2.6-1.9C985.5,770.5,985.6,767,998.9,753.4 M1141.2,582c-59.6,0-110.5,52.3-124.9,84.4&#10;&#9;&#9;&#9;&#9;&#9;c-18,39.9-20.2,38.1-27.1,42.7c0,0,3.3,2.1,7.6,2.1c2.5,0,5.4-0.7,8.2-3.1c4.3-3.7,9.3-7.2,12.2-7.2c2.1,0,3.2,1.9,2,7&#10;&#9;&#9;&#9;&#9;&#9;c-2.8,12.2-7.2,28.1-21.3,42.5c-14.2,14.4-16,19.4-12,26.9c1.3,2.4,3.2,3.5,5.3,3.5c4.3,0,9.2-4.7,9.5-11.1&#10;&#9;&#9;&#9;&#9;&#9;c0.4-9.4-2-23.3,17-31.7c0,0-5.4,17.8,5.2,28.1c0,0-1-9.7,5.2-9.7c0.6,0,1.2,0.1,2,0.3c8.4,2.2,11,12.1,31.6,36&#10;&#9;&#9;&#9;&#9;&#9;c15.8,18.4,48,41,89.7,41c12.6,0,26.1-2.1,40.3-7c0,0-9.6,3.2-24.2,3.2c-18.5,0-45.1-5.1-70.2-28.2&#10;&#9;&#9;&#9;&#9;&#9;c-44.9-41.3-55.9-104.8-8.7-144.2c13.2-11,27.8-15.5,41.7-15.5c35.9,0,67.7,29.6,61.3,53.5c-5.4,20.4-18.8,31.2-33.3,31.2&#10;&#9;&#9;&#9;&#9;&#9;c-9,0-18.5-4.2-26.6-13c-21.2-22.7,2.4-45.2,9.9-50c0,0-0.1,0-0.2,0c-2.4,0-32.1,0.8-38.7,41c-5.1,30.8,29.4,64.3,67.8,64.3&#10;&#9;&#9;&#9;&#9;&#9;c13.8,0,28-4.3,41.2-14.6c49.7-38.9,52.3-124.4-25.1-161.9C1171,585.2,1155.8,582,1141.2,582L1141.2,582z" style="fill: rgb(48, 207, 255);"/>
			</g><path class="st5" d="M992.6,736.7c-2-0.1-3.6-1.5-4.2-3.7c-0.6-2.1-0.2-5.4,3-7.7c3-2.2,7.2-2.9,10.3-3.1&#10;&#9;&#9;&#9;&#9;&#9;c-2.3,2.3-3.7,5.6-4.9,8.5c-1.3,3.1-2.5,5.9-4.1,5.9L992.6,736.7z" style="fill: rgb(28, 117, 188);" transform="matrix(3.3343158564525592, 0, 0, 3.3343158564525592, -3045.126911320547, -1896.9446923823189)"/><path class="st6" d="M998.3,724.1c-1.2,2-2.1,4.1-2.9,6c-0.7,1.8-2,4.7-2.7,5c-2-0.1-2.7-2-2.9-2.6c-0.5-1.7-0.1-4.2,2.4-6.1&#10;&#9;&#9;&#9;&#9;&#9;C994,725.3,996.2,724.5,998.3,724.1 M1003.9,720.6c-3.6,0-9.3,0.5-13.4,3.5c-6.4,4.6-4.2,13.6,1.9,14.1c0.1,0,0.2,0,0.2,0&#10;&#9;&#9;&#9;&#9;&#9;c5.9,0,5.3-15.9,14.7-17.4C1007.4,720.8,1006,720.6,1003.9,720.6L1003.9,720.6z" style="fill: rgb(20, 96, 147);" transform="matrix(3.3343158564525592, 0, 0, 3.3343158564525592, -3045.126911320547, -1896.9446923823189)"/><path class="st2" d="M1009.3,769c1.3,1,2.3,2.2,2.7,2.9c-0.2,0.1-0.6,0.1-1,0.2c-0.1,0-0.3,0-0.4,0c-0.5,0-1-0.1-1.1-0.3&#10;&#9;&#9;&#9;&#9;&#9;C1009.1,771.4,1009.1,770.3,1009.3,769 M1007.4,764.8c0,0-4.4,10.3,3.1,10.3c0.2,0,0.4,0,0.6,0&#10;&#9;&#9;&#9;&#9;&#9;C1019.5,774.5,1012.8,766.1,1007.4,764.8L1007.4,764.8z" style="fill: rgb(142, 205, 221);" transform="matrix(3.3343158564525592, 0, 0, 3.3343158564525592, -3045.126911320547, -1896.9446923823189)"/>



</svg>