<?xml version="1.0" encoding="utf-8"?>
<svg id="master-artboard" viewBox="0 0 288.380126953125 120.31705474853516" version="1.1" xmlns="http://www.w3.org/2000/svg" x="0px" y="0px" width="288.380126953125px" height="120.31705474853516px" enable-background="new 0 0 335.986 235.19"><rect id="ee-background" x="0" y="0" width="288.380126953125" height="120.31705474853516" style="fill: white; fill-opacity: 0; pointer-events: none;"/>

<path fill="#5DC4E9" d="M328.898,165.511c0,4.281-3.469,7.752-7.748,7.752H15.163c-4.281,0-7.751-3.471-7.751-7.752v-40.864&#10;&#9;&#9;c0-4.278,3.47-7.749,7.751-7.749H321.15c4.279,0,7.748,3.471,7.748,7.749V165.511z" transform="matrix(0.8308260440826416, 0, 0, 0.8308260440826416, 4.322193145751953, -34.456085205078125)" style="fill: rgb(48, 209, 254);"/>









<path fill="#6FC3C1" d="M263.465,47.898c0,4.401-3.551,7.97-7.932,7.97H124.795c-4.381,0-7.932-3.568-7.932-7.97V17.077&#10;&#9;&#9;c0-4.402,3.551-7.971,7.932-7.971h130.738c4.381,0,7.932,3.568,7.932,7.971V47.898z" transform="matrix(1, 0, 0, 1, -51.318946838378906, 0)" style="fill: rgb(255, 191, 41);"/>
<path fill="#6FC3C1" d="M327.84,47.898c0,4.401-3.551,7.97-7.93,7.97h-85.664c-4.379,0-7.93-3.568-7.93-7.97V17.077&#10;&#9;&#9;c0-4.402,3.551-7.971,7.93-7.971h85.664c4.379,0,7.93,3.568,7.93,7.971V47.898z" transform="matrix(1, 0, 0, 1, -51.318946838378906, 0)" style="fill: rgb(255, 191, 41);"/>


<path fill="#FFFFFF" d="M316.686,27.257c0,0.552-0.449,1-1,1h-7.549c-0.551,0-1-0.448-1-1v-7.549c0-0.553,0.449-1,1-1h7.549&#10;&#9;&#9;c0.551,0,1,0.447,1,1V27.257z" transform="matrix(1, 0, 0, 1, -58.318946838378906, 0)"/>
<path fill="#FFFFFF" d="M316.686,44.176c0,0.552-0.449,1-1,1h-7.549c-0.551,0-1-0.448-1-1v-7.549c0-0.553,0.449-1,1-1h7.549&#10;&#9;&#9;c0.551,0,1,0.447,1,1V44.176z" transform="matrix(1, 0, 0, 1, -58.318946838378906, 0)"/>










<path fill="#4B5964" d="M40.225,160.309h13.103c0-9.422-8.136-9.577-10.185-11.962l-0.242-1.296&#10;&#9;&#9;c2.588-1.352,4.406-4.538,4.406-8.256c0-4.939-3.213-8.944-7.175-8.944s-7.177,4.005-7.177,8.944c0,3.75,1.852,6.955,4.477,8.286&#10;&#9;&#9;l-0.213,1.143c-1.869,2.506-10.284,2.502-10.284,12.085h13.103H40.225z" transform="matrix(1, 0, 0, 1, -1.3189468383789062, -59)"/>
<path fill="#4B5964" d="M56.637,160.309h10.258c0-7.376-6.37-7.498-7.975-9.365l-0.189-1.014c2.025-1.059,3.45-3.554,3.45-6.464&#10;&#9;&#9;c0-3.867-2.516-7.003-5.617-7.003c-3.101,0-5.618,3.136-5.618,7.003c0,2.936,1.449,5.445,3.504,6.487l-0.166,0.895&#10;&#9;&#9;c-1.464,1.962-8.052,1.959-8.052,9.461h10.257H56.637z" transform="matrix(1, 0, 0, 1, -1.3189468383789062, -59)"/>

<path fill="#4B5964" d="M130.816,26.868h22.514l0.246-2.036c0.026-0.677,0.155-1.328,0.358-1.943h-23.118V26.868z" transform="matrix(1, 0, 0, 1, -51.318946838378906, 0)"/>
<path fill="#4B5964" d="M151.583,41.333l0.027-0.239l0.156-1.293h-12.769v3.982h12.941c-0.228-0.697-0.356-1.44-0.356-2.211V41.333&#10;&#9;&#9;z" transform="matrix(1, 0, 0, 1, -51.318946838378906, 0)"/>
<path d="M 134.68699645996094 35.98899841308594 L 152.2259979248047 35.98899841308594 L 152.70799255371094 32.00899887084961 L 134.68699645996094 32.00899887084961 Z" fill="#4B5964" transform="matrix(1, 0, 0, 1, -51.318946838378906, 0)"/>
<path fill="#4B5964" d="M174.695,34.87c-0.025,0.014-0.045,0.024-0.066,0.036c-0.117,0.06-0.238,0.107-0.359,0.139&#10;&#9;&#9;c-0.014,0.005-0.023,0.008-0.037,0.01c-0.133,0.031-0.271,0.049-0.404,0.049h-0.004h-0.002c-0.135,0-0.27-0.018-0.404-0.049&#10;&#9;&#9;c-0.014-0.002-0.025-0.005-0.037-0.01c-0.121-0.031-0.242-0.079-0.359-0.139c-0.021-0.012-0.045-0.022-0.066-0.036&#10;&#9;&#9;c-0.02-0.011-0.043-0.019-0.061-0.032l-14.769-10.011v-1.503c-0.243,0.344-0.41,0.739-0.498,1.164&#10;&#9;&#9;c-0.004-0.002-0.008-0.003-0.008-0.006c-0.005,0.021-0.005,0.042-0.01,0.061c-0.034,0.188-0.059,0.379-0.059,0.573l-0.834,6.893&#10;&#9;&#9;l-0.094,0.8l-1.061,8.764c0,0.215,0.02,0.426,0.062,0.629c0.006,0.03,0.019,0.058,0.027,0.087c0.039,0.173,0.088,0.341,0.154,0.5&#10;&#9;&#9;c0.01,0.019,0.02,0.032,0.028,0.048c0.076,0.169,0.159,0.332,0.265,0.484c0.003,0.004,0.006,0.006,0.009,0.011&#10;&#9;&#9;c0.11,0.162,0.237,0.315,0.372,0.452c0.564,0.558,1.338,0.905,2.195,0.905h28.611c1.721,0,3.115-1.396,3.117-3.116l1.992-16.453&#10;&#9;&#9;c0-0.152-0.023-0.297-0.043-0.439l-17.598,10.158C174.734,34.852,174.715,34.859,174.695,34.87z" transform="matrix(1, 0, 0, 1, -51.318946838378906, 0)"/>
<path fill="#4B5964" d="M160.278,22.041l13.544,9.23l16.025-9.212c-0.188-0.033-0.375-0.057-0.57-0.057h-28.61&#10;&#9;&#9;C160.532,22.003,160.407,22.026,160.278,22.041z" transform="matrix(1, 0, 0, 1, -51.318946838378906, 0)"/>
<g transform="matrix(1, 0, 0, 1, -78.3189468383789, 0)">
		<path fill="#FFFFFF" d="M251.363,20.857v26.765c0,0.777,0.537,1.409,1.201,1.409h31.217c0.664,0,1.201-0.632,1.201-1.409V20.857&#10;&#9;&#9;&#9;H251.363z"/>
	</g>
<g transform="matrix(1, 0, 0, 1, -78.3189468383789, 0)">
		<path fill-rule="evenodd" clip-rule="evenodd" fill="#4B5964" d="M282.883,17.513h-29.42c-1.16,0-2.102,0.94-2.102,2.103v8.404&#10;&#9;&#9;&#9;h33.621v-8.404C284.982,18.453,284.043,17.513,282.883,17.513z M261.26,24.494c-0.957,0-1.73-0.773-1.73-1.73&#10;&#9;&#9;&#9;c0-0.952,0.773-1.727,1.73-1.727c0.953,0,1.729,0.774,1.729,1.727C262.988,23.721,262.213,24.494,261.26,24.494z M275.088,24.494&#10;&#9;&#9;&#9;c-0.955,0-1.729-0.773-1.729-1.73c0-0.952,0.773-1.727,1.729-1.727s1.727,0.774,1.727,1.727&#10;&#9;&#9;&#9;C276.814,23.721,276.043,24.494,275.088,24.494z"/>
	</g>
<path fill="#4B5964" stroke="#4B5964" stroke-width="0.5" stroke-miterlimit="10" d="M266.961,40.098&#10;&#9;&#9;c0,1.729-1.416,2.776-3.676,2.776c-1.129,0-2.408-0.218-3.457-0.694l0.6-1.551c0.789,0.381,1.742,0.558,2.559,0.558&#10;&#9;&#9;c1.402,0,1.986-0.408,1.986-1.171c0-0.871-0.898-1.225-2.613-1.225h-0.748v-1.66h0.775c1.566,0,2.451-0.341,2.451-1.253&#10;&#9;&#9;c0-0.789-0.682-1.17-1.934-1.17c-0.762,0-1.578,0.19-2.178,0.517l-0.6-1.551c0.75-0.382,1.838-0.654,3.076-0.654&#10;&#9;&#9;c2.096,0,3.621,1.049,3.621,2.695c0,1.116-0.572,1.852-1.484,2.246C266.32,38.273,266.961,39.063,266.961,40.098z" transform="matrix(1, 0, 0, 1, -78.3189468383789, 0)"/><path fill="#4B5964" stroke="#4B5964" stroke-width="0.5" stroke-miterlimit="10" d="M271.838,36.886l-0.994-1.307l3.24-2.396&#10;&#9;&#9;h1.715v9.527h-1.961v-7.309L271.838,36.886z" transform="matrix(1, 0, 0, 1, -78.3189468383789, 0)"/>
<g transform="matrix(1, 0, 0, 1, -1.3189468383789062, -59)">
		<path fill="#FFFFFF" d="M120.687,133.698H95.225c-0.254,0-0.459,0.207-0.459,0.461v17.025c0,0.253,0.205,0.46,0.459,0.46h25.462&#10;&#9;&#9;&#9;c0.254,0,0.461-0.207,0.461-0.46v-17.025C121.148,133.905,120.941,133.698,120.687,133.698z"/>
	</g><path d="M 141.279007 156.455994 H 145.538007 V 159.011994 H 141.279007 V 156.455994 Z" fill="#FFFFFF" transform="matrix(1, 0, 0, 1, -1.3189468383789062, -59)"/><path fill="#FFFFFF" d="M150.479,132.561h-14.143c-0.602,0-1.091,0.466-1.091,1.039v20.297c0,0.572,0.489,1.038,1.091,1.038&#10;&#9;&#9;&#9;h14.145c0.602,0,1.092-0.466,1.092-1.038V133.6C151.573,133.026,151.083,132.561,150.479,132.561z" transform="matrix(1, 0, 0, 1, -1.3189468383789062, -59)"/><path fill="#4B5964" d="M151.289,129.888h-15.76c-1.882,0-3.407,1.526-3.407,3.409v23.565c0,1.883,1.525,3.409,3.407,3.409h15.76&#10;&#9;&#9;&#9;c1.882,0,3.406-1.526,3.406-3.409v-23.565C154.695,131.414,153.17,129.888,151.289,129.888z M145.538,159.012h-4.259v-2.556h4.259&#10;&#9;&#9;&#9;V159.012z M151.573,153.896c0,0.572-0.49,1.038-1.092,1.038h-14.145c-0.602,0-1.091-0.466-1.091-1.038V133.6&#10;&#9;&#9;&#9;c0-0.573,0.489-1.039,1.091-1.039h14.143c0.604,0,1.094,0.466,1.094,1.039V153.896z" transform="matrix(1, 0, 0, 1, -1.3189468383789062, -59)"/><path fill="#4B5964" d="M120.687,130.479H95.225c-2.031,0-3.681,1.646-3.681,3.681v17.025c0,2.033,1.649,3.681,3.681,3.681h8.365&#10;&#9;&#9;&#9;v2.056h-4.223c-0.762,0-1.381,0.619-1.381,1.381c0,0.764,0.619,1.38,1.381,1.38h17.178c0.764,0,1.383-0.616,1.383-1.38&#10;&#9;&#9;&#9;c0-0.762-0.619-1.381-1.383-1.381h-4.223v-2.056h8.364c2.034,0,3.681-1.647,3.681-3.681v-17.025&#10;&#9;&#9;&#9;C124.368,132.125,122.721,130.479,120.687,130.479z M121.148,151.185c0,0.253-0.207,0.46-0.461,0.46H95.225&#10;&#9;&#9;&#9;c-0.254,0-0.459-0.207-0.459-0.46v-17.025c0-0.254,0.205-0.461,0.459-0.461h25.462c0.254,0,0.461,0.207,0.461,0.461V151.185z" transform="matrix(1, 0, 0, 1, -1.3189468383789062, -59)"/>









<path fill="#4B5964" d="M229.021,146.654l17.037-16.156v6.915h50.592v-10.067h18.539v17.485&#10;&#9;&#9;c-0.004,6.146-4.975,11.117-11.123,11.124h-58.008v6.857L229.021,146.654z" transform="matrix(1, 0, 0, 1, -51.318946838378906, -59)"/>












</svg>