<?xml version="1.0" encoding="utf-8"?>
<svg id="master-artboard" viewBox="0 0 522.5077514648438 454.1260681152344" version="1.1" xmlns="http://www.w3.org/2000/svg" x="0px" y="0px" width="522.5077514648438px" height="454.1260681152344px" enable-background="new 0 0 1400 980"><rect id="ee-background" x="0" y="0" width="522.5077514648438" height="454.1260681152344" style="fill: white; fill-opacity: 0; pointer-events: none;"/>

















































































































































































































<path fill-rule="evenodd" clip-rule="evenodd" fill="#ED8322" d="M238.079,168.859h-13.023v-5.952h13.023V168.859z M212.032,168.859&#10;&#9;h-13.025v-5.952h13.025V168.859z M185.981,168.859h-13.025v-5.952h13.025V168.859z" style="fill: rgb(48, 209, 254);" transform="matrix(1, 0, 0, 1, -109.88274383544922, -28.25591468811035)"/>
<path fill-rule="evenodd" clip-rule="evenodd" fill="#ED8322" d="M480.248,390.156l-8.526-7.51c-0.32-0.281-0.5-0.685-0.497-1.104&#10;&#9;c0-0.429,0.184-0.833,0.503-1.105l8.533-7.361l1.914,2.225l-7.255,6.257l7.269,6.398L480.248,390.156z" style="fill: rgb(48, 209, 254);" transform="matrix(1, 0, 0, 1, -109.88274383544922, -28.25591468811035)"/>
<path d="M 472.825012 381.394012 H 514.044014 V 384.320013 H 472.825012 V 381.394012 Z" fill-rule="evenodd" clip-rule="evenodd" fill="#ED8322" style="fill: rgb(48, 209, 254);" transform="matrix(1, 0, 0, 1, -109.88274383544922, -28.25591468811035)"/>
<path fill-rule="evenodd" clip-rule="evenodd" fill="#ED8322" d="M529.677,408.697l-1.914-2.218l7.256-6.256l-7.266-6.407&#10;&#9;l1.934-2.192l8.533,7.511c0.316,0.279,0.497,0.683,0.497,1.111c-0.007,0.422-0.19,0.826-0.511,1.097L529.677,408.697z" style="fill: rgb(48, 209, 254);" transform="matrix(1, 0, 0, 1, -109.88274383544922, -28.25591468811035)"/>
<path d="M 490.22699 399.710999 H 537.85799 V 402.637999 H 490.22699 V 399.710999 Z" fill-rule="evenodd" clip-rule="evenodd" fill="#ED8322" style="fill: rgb(48, 209, 254);" transform="matrix(1, 0, 0, 1, -109.88274383544922, -28.25591468811035)"/>
<path d="M 520.455994 381.394012 H 532.362993 V 384.320013 H 520.455994 V 381.394012 Z" fill-rule="evenodd" clip-rule="evenodd" fill="#ED8322" style="fill: rgb(48, 209, 254);" transform="matrix(1, 0, 0, 1, -109.88274383544922, -28.25591468811035)"/>
<path d="M 467.329987 399.710999 H 483.815987 V 402.637999 H 467.329987 V 399.710999 Z" fill-rule="evenodd" clip-rule="evenodd" fill="#ED8322" style="fill: rgb(48, 209, 254);" transform="matrix(1, 0, 0, 1, -109.88274383544922, -28.25591468811035)"/>






<text transform="matrix(1, 0, 0, 1, 114.30675506591797, 91.58588409423828)" fill="#F6F5BE" font-family="'ArialMT'" font-size="20.5395" style="fill: rgb(246, 245, 190); font-family: ArialMT; font-size: 20.5395px; white-space: pre;">24</text>
<text transform="matrix(1, 0, 0, 1, 114.30675506591797, 91.58588409423828)" fill="#F6F5BE" font-family="'ArialMT'" font-size="20.5395" style="fill: rgb(246, 245, 190); font-family: ArialMT; font-size: 20.5395px; white-space: pre;">24</text>





<path fill-rule="evenodd" clip-rule="evenodd" fill="#EE8422" d="M240.909,255.961V245.41h-15.652v10.552H164.35V245.41h-15.659&#10;&#9;v10.552h-14.896v111.193h122.017V255.961H240.909z M228.208,248.361h9.748v16.577h-9.748V248.361z M151.643,248.361h9.755v16.577&#10;&#9;h-9.755V248.361z M252.856,364.204h-116.11v-83.374h116.11V364.204z M252.856,277.878h-116.11v-18.965h11.945v8.977h15.659v-8.977&#10;&#9;h60.907v8.977h15.652v-8.977h11.948V277.878z" style="fill: rgb(48, 209, 254);" transform="matrix(1, 0, 0, 1, -109.88274383544922, 17.74408531188965)"/>
<path fill-rule="evenodd" clip-rule="evenodd" fill="#EE8422" d="M192.545,343.214h-23.303l1.966-1.813&#10;&#9;c11.679-11.25,19.939-20.087,19.939-31.427c0-8.919-5.809-17.921-18.787-17.921c-6.287,0-12.312,2.163-16.967,6.093l-0.848,0.718&#10;&#9;l3.689,8.179l1.495-1.243c2.431-2.026,6.33-4.443,11.059-4.443c6.469,0,9.75,3.219,9.75,9.559&#10;&#9;c-0.077,7.758-6.137,14.769-20.608,28.54l-6.447,6.263v6.799h39.061V343.214z M189.592,349.566h-33.155v-2.6l5.545-5.383&#10;&#9;c14.549-13.853,21.42-21.392,21.51-30.653c0-7.96-4.627-12.526-12.702-12.526c-4.799,0-8.788,2.07-11.428,3.953l-1.195-2.651&#10;&#9;c3.982-3.034,9.011-4.7,14.195-4.7c11.692,0,15.834,8.063,15.834,14.968c0,10.172-7.879,18.555-19.009,29.28l-5.002,4.615v2.296&#10;&#9;h25.407V349.566z" style="fill: rgb(255, 191, 41);" transform="matrix(1, 0, 0, 1, -109.88274383544922, 17.74408531188965)"/>
<path fill-rule="evenodd" clip-rule="evenodd" fill="#EE8422" d="M213.937,344.345c-5.162,0-9.929-2.183-11.735-3.333l-1.563-1.004&#10;&#9;l-3.098,8.763l0.965,0.633c2.862,1.878,8.644,4.072,15.515,4.072c15.264,0,22.101-9.263,22.101-18.442&#10;&#9;c0-6.701-3.865-12.315-10.163-14.888c5.162-2.943,7.988-7.566,7.988-13.127c0-7.45-5.462-14.964-17.661-14.964&#10;&#9;c-6.468,0-12.527,2.33-15.666,4.637l-0.89,0.652l3.035,8.442l1.592-1.134c2.237-1.601,6.316-3.466,10.449-3.466&#10;&#9;c7.344,0,8.441,4.417,8.441,7.048c0,5.942-6.655,8.097-11.136,8.097h-5.739v8.694h5.739c6.01,0,13.061,2.583,13.139,9.862&#10;&#9;c0.048,2.428-0.857,4.767-2.475,6.415C220.794,343.32,217.82,344.345,213.937,344.345 M228.198,334.84&#10;&#9;c-0.103-9.425-8.73-12.769-16.088-12.769h-2.787v-2.792h2.787c7.004,0,14.089-3.793,14.089-11.047&#10;&#9;c0-4.835-2.995-10.002-11.395-10.002c-4.668,0-8.643,1.891-10.546,2.981l-0.988-2.748c2.676-1.641,7.54-3.457,13.014-3.457&#10;&#9;c10.858,0,14.709,6.467,14.709,12.011c0,5.475-3.361,9.71-9.469,11.922l-0.974,0.354v2.419l1.188,0.235&#10;&#9;c6.942,1.392,11.43,6.528,11.43,13.085c0,7.71-5.921,15.49-19.148,15.49c-5.428,0-10.249-1.575-12.91-3.003l1.104-3.127&#10;&#9;c1.869,0.93,6.461,2.904,11.722,2.904c4.704,0,8.386-1.321,10.952-3.929C227.054,341.158,228.263,338.049,228.198,334.84z" style="fill: rgb(255, 191, 41);" transform="matrix(1, 0, 0, 1, -109.88274383544922, 17.74408531188965)"/>
<path fill-rule="evenodd" clip-rule="evenodd" fill="#EE8422" d="M567.072,293.124c-0.32-5.017-1.383-9.816-3.177-14.268&#10;&#9;l-1.175-2.93h0.006l-1.117-2.15h-0.092l-0.609-1.075c-7.92-13.839-22.146-22.715-38.039-23.746l-1.996-0.131v-0.1h-2.118v0.1&#10;&#9;l-2.002,0.131c-15.887,1.028-30.113,9.906-38.033,23.746l-0.62,1.075h-0.082l-1.287,2.481l-1.028,2.588&#10;&#9;c-1.764,4.47-2.826,9.276-3.146,14.278l-0.122,1.999h-0.078v2.122h0.078l0.122,1.999c0.328,5.012,1.383,9.816,3.146,14.278&#10;&#9;l1.028,2.593l1.273,2.454h0.096l0.62,1.076c7.913,13.856,22.135,22.743,38.033,23.773l2.002,0.129v0.068h2.118v-0.068l1.996-0.129&#10;&#9;c15.9-1.032,30.123-9.918,38.039-23.773l0.609-1.076h0.106l1.103-2.126h-0.006l1.175-2.93c1.787-4.444,2.857-9.243,3.177-14.269&#10;&#9;l0.122-1.999h0.048v-2.122h-0.048L567.072,293.124z M483.043,270.417c4.525-6.459,10.443-11.453,17.606-14.836l7.559-3.576&#10;&#9;l-4.917,6.761c-2.649,3.628-4.879,8.187-6.653,13.544l-0.483,1.466h-15.458L483.043,270.417z M474.895,292.829&#10;&#9;c0.409-5.577,1.757-10.848,4.001-15.669l0.569-1.234h16.03l-0.599,2.611c-1.063,4.66-1.689,9.547-1.852,14.523l-0.068,2.062h-18.257&#10;&#9;L474.895,292.829z M478.889,315.203c-2.237-4.842-3.585-10.113-3.994-15.666l-0.177-2.293h18.257l0.068,2.063&#10;&#9;c0.163,4.985,0.79,9.871,1.852,14.523l0.599,2.61h-16.03L478.889,315.203z M500.656,336.766&#10;&#9;c-7.136-3.348-13.054-8.339-17.613-14.841l-2.353-3.358h15.465l0.483,1.467c1.753,5.329,3.991,9.886,6.653,13.542l4.882,6.716&#10;&#9;L500.656,336.766z M518.757,341.342l-2.737-0.803c-6.708-1.97-12.55-8.746-16.453-19.081l-1.093-2.891h20.283V341.342z&#10;&#9; M518.757,316.44h-20.746l-0.412-1.611c-1.158-4.595-1.849-9.619-2.104-15.356l-0.095-2.23h23.357V316.44z M518.757,295.122h-23.357&#10;&#9;l0.095-2.23c0.259-5.765,0.943-10.788,2.104-15.356l0.412-1.61h20.746V295.122z M518.757,273.776H498.47l1.097-2.891&#10;&#9;c3.916-10.342,9.758-17.118,16.453-19.076l2.737-0.802V273.776z M560.698,277.151c2.268,4.814,3.63,10.09,4.038,15.68l0.174,2.291&#10;&#9;h-18.24l-0.075-2.051c-0.208-5.14-0.834-10.029-1.869-14.532l-0.596-2.613h15.993L560.698,277.151z M538.982,255.58&#10;&#9;c7.177,3.403,13.095,8.396,17.603,14.838l2.35,3.358h-15.485l-0.48-1.466c-1.781-5.388-4.008-9.946-6.629-13.544l-4.93-6.779&#10;&#9;L538.982,255.58z M520.875,251.003l2.737,0.806c6.698,1.968,12.541,8.743,16.446,19.077l1.097,2.89h-20.28V251.003z&#10;&#9; M520.875,275.926h20.746l0.412,1.61c1.158,4.58,1.859,9.75,2.084,15.368l0.082,2.218h-23.324V275.926z M520.875,297.244h23.324&#10;&#9;l-0.082,2.218c-0.225,5.669-0.906,10.696-2.084,15.368l-0.412,1.611h-20.746V297.244z M520.875,341.345v-22.778h20.28l-1.09,2.887&#10;&#9;c-3.905,10.327-9.741,17.104-16.453,19.084L520.875,341.345z M556.585,321.925c-4.474,6.39-10.569,11.524-17.61,14.841l-7.532,3.544&#10;&#9;l4.896-6.734c2.635-3.628,4.862-8.183,6.626-13.541l0.483-1.469h15.485L556.585,321.925z M564.736,299.535&#10;&#9;c-0.408,5.568-1.771,10.841-4.031,15.676l-0.576,1.229h-16l0.596-2.613c1.035-4.493,1.662-9.382,1.869-14.532l0.075-2.051h18.24&#10;&#9;L564.736,299.535z" style="fill: rgb(255, 191, 41);" transform="matrix(1, 0, 0, 1, -109.88274383544922, -28.25591468811035)"/>
<path fill-rule="evenodd" clip-rule="evenodd" fill="#EE8422" d="M416.535,214.224h86.713V108.072h-86.713V214.224z&#10;&#9; M419.028,110.567h81.724v101.161h-81.724V110.567z" style="fill: rgb(255, 191, 41);" transform="matrix(1, 0, 0, 1, -109.88274383544922, -28.25591468811035)"/>
<path d="M 425.712006 121.352997 H 494.071007 V 123.848997 H 425.712006 V 121.352997 Z" fill-rule="evenodd" clip-rule="evenodd" fill="#4A8F8B" transform="matrix(1, 0, 0, 1, -109.88274383544922, -28.25591468811035)"/>
<path d="M 425.712006 199.292007 H 494.071007 V 201.788007 H 425.712006 V 199.292007 Z" fill-rule="evenodd" clip-rule="evenodd" fill="#00B1AC" style="fill: rgb(48, 209, 254);" transform="matrix(1, 0, 0, 1, -109.88274383544922, -28.25591468811035)"/>
<path d="M 425.712006 130.013 H 494.071007 V 132.509001 H 425.712006 V 130.013 Z" fill-rule="evenodd" clip-rule="evenodd" fill="#4A8F8B" transform="matrix(1, 0, 0, 1, -109.88274383544922, -28.25591468811035)"/>
<path d="M 425.712006 138.673004 H 494.071007 V 141.167004 H 425.712006 V 138.673004 Z" fill-rule="evenodd" clip-rule="evenodd" fill="#4A8F8B" transform="matrix(1, 0, 0, 1, -109.88274383544922, -28.25591468811035)"/>
<path d="M 425.712006 173.313004 H 494.071007 V 175.809004 H 425.712006 V 173.313004 Z" fill-rule="evenodd" clip-rule="evenodd" fill="#4A8F8B" transform="matrix(1, 0, 0, 1, -109.88274383544922, -28.25591468811035)"/>
<path d="M 425.712006 181.973007 H 494.071007 V 184.467007 H 425.712006 V 181.973007 Z" fill-rule="evenodd" clip-rule="evenodd" fill="#4A8F8B" transform="matrix(1, 0, 0, 1, -109.88274383544922, -28.25591468811035)"/>
<path d="M 425.712006 190.634003 H 494.071007 V 193.128003 H 425.712006 V 190.634003 Z" fill-rule="evenodd" clip-rule="evenodd" fill="#00B1AC" style="fill: rgb(48, 209, 254);" transform="matrix(1, 0, 0, 1, -109.88274383544922, -28.25591468811035)"/>
<path d="M 425.712006 147.332993 H 494.071007 V 149.826993 H 425.712006 V 147.332993 Z" fill-rule="evenodd" clip-rule="evenodd" fill="#4A8F8B" transform="matrix(1, 0, 0, 1, -109.88274383544922, -28.25591468811035)"/>
<path d="M 425.712006 155.994003 H 494.071007 V 158.488003 H 425.712006 V 155.994003 Z" fill-rule="evenodd" clip-rule="evenodd" fill="#4A8F8B" transform="matrix(1, 0, 0, 1, -109.88274383544922, -28.25591468811035)"/>
<path d="M 425.712006 164.653 H 494.071007 V 167.149 H 425.712006 V 164.653 Z" fill-rule="evenodd" clip-rule="evenodd" fill="#4A8F8B" transform="matrix(1, 0, 0, 1, -109.88274383544922, -28.25591468811035)"/>
<path d="M 447.9219970703125 90.51100158691406 L 447.9219970703125 106.93099975585938 L 450.4169921875 106.93099975585938 L 450.4169921875 93.00499725341797 L 532.14501953125 93.00499725341797 L 532.14501953125 194.16600036621094 L 504.6610107421875 194.16600036621094 L 504.6610107421875 196.66200256347656 L 534.6370239257812 196.66200256347656 L 534.6370239257812 90.51100158691406 Z" fill-rule="evenodd" clip-rule="evenodd" fill="#EE8422" style="fill: rgb(255, 191, 41);" transform="matrix(1, 0, 0, 1, -109.88274383544922, -28.25591468811035)"/>
<path d="M 457.10199 103.792 H 525.457993 V 106.286 H 457.10199 V 103.792 Z" fill-rule="evenodd" clip-rule="evenodd" fill="#00B1AC" style="fill: rgb(48, 209, 254);" transform="matrix(1, 0, 0, 1, -109.88274383544922, -28.25591468811035)"/>
<path d="M 504.661011 181.729996 H 525.458012 V 184.225996 H 504.661011 V 181.729996 Z" fill-rule="evenodd" clip-rule="evenodd" fill="#00B1AC" style="fill: rgb(48, 209, 254);" transform="matrix(1, 0, 0, 1, -109.88274383544922, -28.25591468811035)"/>
<path d="M 504.661011 112.452003 H 525.458012 V 114.946003 H 504.661011 V 112.452003 Z" fill-rule="evenodd" clip-rule="evenodd" fill="#00B1AC" style="fill: rgb(48, 209, 254);" transform="matrix(1, 0, 0, 1, -109.88274383544922, -28.25591468811035)"/>
<path d="M 504.661011 121.111 H 525.458012 V 123.607 H 504.661011 V 121.111 Z" fill-rule="evenodd" clip-rule="evenodd" fill="#00B1AC" style="fill: rgb(48, 209, 254);" transform="matrix(1, 0, 0, 1, -109.88274383544922, -28.25591468811035)"/>
<path d="M 504.661011 155.75 H 525.458012 V 158.244 H 504.661011 V 155.75 Z" fill-rule="evenodd" clip-rule="evenodd" fill="#00B1AC" style="fill: rgb(48, 209, 254);" transform="matrix(1, 0, 0, 1, -109.88274383544922, -28.25591468811035)"/>
<path d="M 504.661011 164.408997 H 525.458012 V 166.904997 H 504.661011 V 164.408997 Z" fill-rule="evenodd" clip-rule="evenodd" fill="#00B1AC" style="fill: rgb(48, 209, 254);" transform="matrix(1, 0, 0, 1, -109.88274383544922, -28.25591468811035)"/>
<path d="M 504.661011 173.070999 H 525.458012 V 175.564999 H 504.661011 V 173.070999 Z" fill-rule="evenodd" clip-rule="evenodd" fill="#00B1AC" style="fill: rgb(48, 209, 254);" transform="matrix(1, 0, 0, 1, -109.88274383544922, -28.25591468811035)"/>
<path d="M 504.661011 129.770004 H 525.458012 V 132.268004 H 504.661011 V 129.770004 Z" fill-rule="evenodd" clip-rule="evenodd" fill="#00B1AC" style="fill: rgb(48, 209, 254);" transform="matrix(1, 0, 0, 1, -109.88274383544922, -28.25591468811035)"/>
<path d="M 504.661011 138.429993 H 525.458012 V 140.925993 H 504.661011 V 138.429993 Z" fill-rule="evenodd" clip-rule="evenodd" fill="#00B1AC" style="fill: rgb(48, 209, 254);" transform="matrix(1, 0, 0, 1, -109.88274383544922, -28.25591468811035)"/>
<path d="M 504.661011 147.089996 H 525.458012 V 149.583996 H 504.661011 V 147.089996 Z" fill-rule="evenodd" clip-rule="evenodd" fill="#00B1AC" style="fill: rgb(48, 209, 254);" transform="matrix(1, 0, 0, 1, -109.88274383544922, -28.25591468811035)"/>
<path fill-rule="evenodd" clip-rule="evenodd" fill="#00B1AC" d="M227.034,206.637c-10.151,6.079-13.464,19.283-7.385,29.437&#10;&#9;c6.078,10.152,19.279,13.466,29.435,7.389c10.154-6.08,13.466-19.284,7.389-29.436C250.391,203.874,237.19,200.559,227.034,206.637&#10;&#9; M242.979,233.268c-4.539,2.717-10.422,1.24-13.139-3.298c-2.71-4.534-1.236-10.42,3.303-13.136&#10;&#9;c4.535-2.717,10.419-1.238,13.136,3.296C248.995,224.667,247.524,230.55,242.979,233.268z" style="fill: rgb(255, 191, 41);" transform="matrix(1, 0, 0, 1, -97.88274383544922, -16.25591468811035)"/>
<path fill-rule="evenodd" clip-rule="evenodd" fill="#00B1AC" d="M278.733,223.911l-3.565-15.555l-8.906,2.038&#10;&#9;c-0.286-0.558-0.6-1.119-0.93-1.672c-0.33-0.555-0.674-1.091-1.039-1.61l6.003-6.891l-12.026-10.487l-6.01,6.89&#10;&#9;c-1.141-0.574-2.312-1.084-3.524-1.513l0.807-9.097l-15.89-1.414l-0.811,9.096c-1.25,0.213-2.509,0.485-3.746,0.85l-4.685-7.828&#10;&#9;l-13.692,8.199l4.683,7.828c-0.902,0.918-1.736,1.895-2.516,2.899l-8.398-3.582l-6.26,14.678l8.4,3.584&#10;&#9;c-0.196,1.267-0.3,2.542-0.334,3.825l-8.907,2.038l3.565,15.554l8.907-2.036c0.292,0.562,0.596,1.12,0.93,1.676&#10;&#9;c0.327,0.551,0.674,1.089,1.035,1.608l-6.003,6.888l12.026,10.487l6.004-6.884c1.153,0.573,2.321,1.083,3.529,1.512l-0.813,9.092&#10;&#9;l15.904,1.42l0.813-9.098c1.25-0.206,2.51-0.479,3.735-0.849l4.692,7.826l13.694-8.197l-4.692-7.828&#10;&#9;c0.912-0.916,1.743-1.888,2.516-2.899l8.4,3.582l6.258-14.684l-8.396-3.58c0.191-1.265,0.3-2.541,0.334-3.821L278.733,223.911z&#10;&#9; M250.177,245.292c-11.158,6.684-25.68,3.04-32.363-8.124c-6.677-11.161-3.036-25.678,8.131-32.362&#10;&#9;c11.154-6.682,25.68-3.037,32.359,8.124C264.984,224.093,261.341,238.61,250.177,245.292z" style="fill: rgb(255, 191, 41);" transform="matrix(1, 0, 0, 1, -97.88274383544922, -15.255914688110352)"/>

<path fill-rule="evenodd" clip-rule="evenodd" fill="#4A8F8B" d="M308.976,138.969c-11.458,6.859-15.196,21.758-8.338,33.211&#10;&#9;c6.861,11.454,21.76,15.194,33.21,8.337c11.458-6.859,15.196-21.755,8.339-33.211C335.329,135.852,320.43,132.112,308.976,138.969&#10;&#9; M326.963,169.018c-5.114,3.064-11.757,1.398-14.821-3.722c-3.065-5.116-1.396-11.757,3.725-14.821&#10;&#9;c5.114-3.066,11.754-1.396,14.812,3.721C333.75,159.313,332.081,165.952,326.963,169.018z" transform="matrix(1, 0, 0, 1, -109.88274383544922, -28.25591468811035)"/>





























































<path d="M 296.942993 128.182999 H 407.035995 V 144.546 H 296.942993 V 128.182999 Z" fill-rule="evenodd" clip-rule="evenodd" fill="#D3D1D0" transform="matrix(1, 0, 0, 1, -109.88274383544922, -28.25591468811035)"/>
<path d="M 331.165009 414.571014 H 363.154009 V 448.790016 H 331.165009 V 414.571014 Z" fill-rule="evenodd" clip-rule="evenodd" fill="#D3D1D0" transform="matrix(1, 0, 0, 1, -109.88274383544922, -28.25591468811035)"/>
<path d="M 309.588013 420.519012 H 332.653013 V 441.350012 H 309.588013 V 420.519012 Z" fill-rule="evenodd" clip-rule="evenodd" fill="#00B1AC" transform="matrix(1, 0, 0, 1, -109.88274383544922, -28.25591468811035)"/>
<path d="M 361.662994 419.037994 H 384.720995 V 442.090994 H 361.662994 V 419.037994 Z" fill-rule="evenodd" clip-rule="evenodd" fill="#00B1AC" transform="matrix(1, 0, 0, 1, -109.88274383544922, -28.25591468811035)"/>
<path d="M 264.99798583984375 155.8000030517578 L 264.99798583984375 413.36199951171875 L 429.9540100097656 413.36199951171875 L 429.9540100097656 410.63800048828125 Z" fill-rule="evenodd" clip-rule="evenodd" fill="#00B1AC" style="fill: rgb(8, 199, 253);" transform="matrix(1, 0, 0, 1, -109.88274383544922, -28.25591468811035)"/>
<path d="M 429.9540100097656 150.44000244140625 L 264.99798583984375 150.44000244140625 L 264.99798583984375 155.8000030517578 L 429.9540100097656 410.63800048828125 Z" fill-rule="evenodd" clip-rule="evenodd" fill="#029E9E" style="fill: rgb(1, 192, 246);" transform="matrix(1, 0, 0, 1, -109.88274383544922, -28.25591468811035)"/>


<path fill-rule="evenodd" clip-rule="evenodd" fill="#424551" d="M421.588,119.228h-74.192v12.55h39.708&#10;&#9;c2.917,0,5.284,2.363,5.284,5.283c0,2.91-2.367,5.284-5.284,5.284h-39.708v12.54h81.036v255.589h-81.036v7.419&#10;&#9;c7.256,0,13.14,5.883,13.14,13.139c0,7.254-5.887,13.138-13.14,13.138v7.91h74.192c12.383,0,22.486-10.121,22.486-22.486V141.714&#10;&#9;C444.074,129.337,433.955,119.228,421.588,119.228 M370.332,436.283c-2.901,0-5.25-2.353-5.25-5.25s2.349-5.252,5.25-5.252&#10;&#9;c2.901,0,5.25,2.355,5.25,5.252S373.232,436.283,370.332,436.283z" style="fill: rgb(82, 85, 97);" transform="matrix(1, 0, 0, 1, -109.88274383544922, -28.25591468811035)"/>
<path fill-rule="evenodd" clip-rule="evenodd" fill="#4F5662" d="M334.257,431.033c0-7.256,5.88-13.139,13.139-13.139v-7.419H266.36&#10;&#9;V154.885h81.036v-12.54h-39.711c-2.918,0-5.285-2.375-5.285-5.284c0-2.919,2.366-5.283,5.285-5.283h39.711v-12.55h-74.199&#10;&#9;c-12.366,0-22.482,10.121-22.482,22.486v287.891c0,12.376,10.116,22.476,22.482,22.476h74.199v-7.91&#10;&#9;C340.137,444.171,334.257,438.287,334.257,431.033 M324.458,436.283c-2.901,0-5.25-2.353-5.25-5.25&#10;&#9;c0.003-2.897,2.349-5.252,5.25-5.252c2.904,0,5.254,2.355,5.254,5.252S327.362,436.283,324.458,436.283z" style="fill: rgb(66, 69, 81);" transform="matrix(1, 0, 0, 1, -109.88274383544922, -28.25591468811035)"/>
<path fill-rule="evenodd" clip-rule="evenodd" fill="#424551" d="M514.368,143.066c0,32.8-26.589,59.389-59.392,59.389&#10;&#9;c-32.799,0-59.388-26.589-59.388-59.389c0-32.801,26.588-59.392,59.388-59.392C487.779,83.674,514.368,110.265,514.368,143.066" transform="matrix(1, 0, 0, 1, -109.88274383544922, -28.25591468811035)"/>
<path d="M 421.20401 134.772995 H 488.004013 V 175.537994 H 421.20401 V 134.772995 Z" fill="#E97C60" style="fill: rgb(255, 191, 41);" transform="matrix(1, 0, 0, 1, -109.88274383544922, -28.25591468811035)"/>
<path d="M 454.6029968261719 155.15499877929688 L 421.2040100097656 134.7729949951172 L 488.0039978027344 134.7729949951172 Z" fill="#E55E3A" style="fill: rgb(255, 179, 0);" transform="matrix(1, 0, 0, 1, -109.88274383544922, -28.25591468811035)"/>
<path d="M 488.0039978027344 175.53799438476562 L 421.2040100097656 175.53799438476562 L 421.2040100097656 134.7729949951172 Z" fill="#E97C60" style="fill: rgb(255, 191, 41);" transform="matrix(1, 0, 0, 1, -109.88274383544922, -28.25591468811035)"/>
<path d="M 488.0039978027344 134.7729949951172 L 421.2040100097656 134.7729949951172 L 454.6029968261719 114.39099884033203 Z" fill="#E55E3A" style="fill: rgb(255, 179, 0);" transform="matrix(1, 0, 0, 1, -109.88274383544922, -28.25591468811035)"/>
<path d="M 454.6029968261719 155.15499877929688 L 477.3059997558594 141.3000030517578 L 477.3059997558594 106.9260025024414 L 431.89801025390625 106.9260025024414 L 431.89801025390625 141.3000030517578 Z" fill="#F6F5BE" style="fill: rgb(255, 219, 135);" transform="matrix(1, 0, 0, 1, -109.88274383544922, -28.25591468811035)"/>
<path d="M 488.0039978027344 175.53799438476562 L 421.2040100097656 175.53799438476562 L 454.6029968261719 155.15499877929688 Z" fill="#E55E3A" style="fill: rgb(255, 179, 0);" transform="matrix(1, 0, 0, 1, -109.88274383544922, -28.25591468811035)"/>
<path d="M 438.649994 114.764 H 470.556993 V 117.008 H 438.649994 V 114.764 Z" fill="#E55E3A" style="fill: rgb(48, 209, 254);" transform="matrix(1, 0, 0, 1, -109.88274383544922, -28.25591468811035)"/>
<path d="M 438.649994 121 H 470.556993 V 123.244 H 438.649994 V 121 Z" fill="#E55E3A" style="fill: rgb(48, 209, 254);" transform="matrix(1, 0, 0, 1, -109.88274383544922, -28.25591468811035)"/>
<path d="M 438.649994 127.236 H 470.556993 V 129.48 H 438.649994 V 127.236 Z" fill="#E55E3A" transform="matrix(1, 0, 0, 1, -109.88274383544922, -28.089052200317383)" style="fill: rgb(48, 209, 254);"/>
<path d="M 438.649994 133.473007 H 470.556993 V 135.716007 H 438.649994 V 133.473007 Z" fill="#E55E3A" style="fill: rgb(48, 209, 254);" transform="matrix(1, 0, 0, 1, -109.88274383544922, -28.25591468811035)"/>




<path fill-rule="evenodd" clip-rule="evenodd" fill="#029E9E" d="M901.207,341.887l-1.431-2.412&#10;&#9;c1.717-1.013,3.385-2.152,4.958-3.385l1.729,2.207C904.791,339.605,903.025,340.813,901.207,341.887 M911.214,334.056l-1.999-1.965&#10;&#9;c1.399-1.423,2.717-2.952,3.919-4.545l2.237,1.69C914.098,330.924,912.698,332.545,911.214,334.056z M918.871,323.916l-2.438-1.384&#10;&#9;c0.987-1.738,1.869-3.557,2.618-5.402l2.598,1.052C920.853,320.143,919.92,322.072,918.871,323.916z M923.651,312.137l-2.714-0.705&#10;&#9;c0.501-1.929,0.879-3.914,1.124-5.897l2.781,0.344C924.584,307.983,924.183,310.09,923.651,312.137z M922.412,299.541&#10;&#9;c-0.011-2.002-0.153-4.018-0.423-5.986l2.779-0.38c0.283,2.089,0.436,4.224,0.449,6.349L922.412,299.541z M920.791,287.671&#10;&#9;c-0.524-1.92-1.185-3.829-1.958-5.669l2.585-1.086c0.82,1.953,1.522,3.979,2.076,6.02L920.791,287.671z M916.147,276.637&#10;&#9;c-1.001-1.721-2.136-3.395-3.354-4.971l2.214-1.718c1.297,1.674,2.496,3.448,3.564,5.274L916.147,276.637z M908.816,267.17&#10;&#9;c-1.416-1.406-2.938-2.734-4.525-3.946l1.702-2.227c1.683,1.284,3.296,2.692,4.798,4.184L908.816,267.17z M899.293,259.901&#10;&#9;c-1.732-0.996-3.548-1.887-5.391-2.644l1.069-2.593c1.954,0.803,3.879,1.749,5.717,2.806L899.293,259.901z M888.214,255.339&#10;&#9;c-1.928-0.51-3.909-0.898-5.891-1.154l0.357-2.78c2.104,0.269,4.205,0.683,6.251,1.225L888.214,255.339z M870.341,254.201&#10;&#9;l-0.364-2.778c2.098-0.278,4.232-0.417,6.354-0.419l0.004,2.802C874.335,253.809,872.32,253.942,870.341,254.201z" transform="matrix(1, 0, 0, 1, -768.665885925293, -235.1201934814453)" style="fill: rgb(48, 209, 254);"/>
<path fill-rule="evenodd" clip-rule="evenodd" fill="#E55E3A" d="M845.915,299.448c0,17.133,13.889,31.025,31.024,31.025&#10;&#9;c17.135,0,31.025-13.892,31.025-31.025c0-17.135-13.891-31.027-31.025-31.027C859.804,268.421,845.915,282.313,845.915,299.448" transform="matrix(1, 0, 0, 1, -768.665885925293, -235.1201934814453)" style="fill: rgb(255, 191, 41);"/>
<path fill-rule="evenodd" clip-rule="evenodd" fill="#029E9E" d="M881.448,347.864c-0.303,0-0.606-0.098-0.855-0.29l-12.611-9.677&#10;&#9;c-18.169-4.007-30.827-19.902-30.827-38.76c0-21.89,17.811-39.699,39.701-39.699c21.739,0,39.429,17.809,39.429,39.699&#10;&#9;c0,19.764-13.988,36.042-33.437,39.158v8.167c0,0.534-0.304,1.021-0.78,1.256C881.87,347.818,881.659,347.864,881.448,347.864&#10;&#9; M876.855,262.243c-20.345,0-36.899,16.551-36.899,36.895c0.003,17.629,11.894,32.467,28.922,36.085&#10;&#9;c0.203,0.043,0.394,0.133,0.561,0.259l10.607,8.139v-6.537c0-0.703,0.521-1.299,1.219-1.389&#10;&#9;c18.668-2.434,32.213-17.808,32.213-36.557C913.478,278.794,897.049,262.243,876.855,262.243z" transform="matrix(1, 0, 0, 1, -768.665885925293, -235.1201934814453)" style="fill: rgb(48, 209, 254);"/>
<path fill-rule="evenodd" clip-rule="evenodd" fill="#029E9E" d="M880.573,320.705h-7.011c-0.776,0-1.403-0.626-1.403-1.401v-28.036&#10;&#9;c0-0.776,0.627-1.403,1.403-1.403h7.011c0.772,0,1.398,0.626,1.398,1.403v28.036C881.972,320.079,881.346,320.705,880.573,320.705&#10;&#9; M874.965,317.903h4.205v-25.233h-4.205V317.903z" transform="matrix(1, 0, 0, 1, -768.665885925293, -235.1201934814453)" style="fill: rgb(48, 209, 254);"/>
<path fill-rule="evenodd" clip-rule="evenodd" fill="#029E9E" d="M877.022,287.55c-3.393,0-6.149-2.76-6.149-6.15&#10;&#9;c0-3.392,2.757-6.15,6.149-6.15c3.391,0,6.148,2.758,6.148,6.15C883.171,284.79,880.413,287.55,877.022,287.55 M877.022,278.052&#10;&#9;c-1.847,0-3.349,1.503-3.349,3.348c0,1.845,1.502,3.347,3.349,3.347c1.845,0,3.347-1.501,3.347-3.347&#10;&#9;C880.369,279.555,878.867,278.052,877.022,278.052z" transform="matrix(1, 0, 0, 1, -768.665885925293, -235.1201934814453)" style="fill: rgb(48, 209, 254);"/>








<path fill-rule="evenodd" clip-rule="evenodd" fill="#EE8422" d="M555.434,258.15c2.227,0,4.291,0.657,5.996,1.833&#10;&#9;c1.158-1.313,2.748-2.246,4.552-2.545c-0.075-0.507-0.116-1.028-0.116-1.556c0-5.834,4.733-10.57,10.569-10.57&#10;&#9;c5.833,0,10.569,4.729,10.569,10.565c0,0.861-0.109,1.695-0.303,2.496c0.783-0.184,1.597-0.223,2.435-0.223&#10;&#9;c5.836,0,10.569,4.852,10.569,10.625h-54.835C544.869,263.002,549.599,258.15,555.434,258.15" style="fill: rgb(48, 209, 254);" transform="matrix(1, 0, 0, 1, -109.88274383544922, -28.25591468811035)"/>




















<path d="M 517.7963256835938 195.20713806152344 L 517.7963256835938 195.37400817871094" style="fill: rgb(238, 132, 34); fill-opacity: 1; stroke: rgb(0, 0, 0); stroke-opacity: 1; stroke-width: 0; paint-order: fill;" transform="matrix(1, 0, 0, 1, -109.88274383544922, -28.25591468811035)"/></svg>