<?xml version="1.0" encoding="utf-8"?>
<svg id="master-artboard" viewBox="0 0 1147.8389892578125 1137.440673828125" xmlns="http://www.w3.org/2000/svg" width="1147.8389892578125px" height="1137.440673828125px"><rect id="ee-background" x="0" y="0" width="1147.8389892578125" height="1137.440673828125" style="fill: white; fill-opacity: 0; pointer-events: none;"/><defs><mask id="mask" x="176" y="758" width="117" height="91" maskUnits="userSpaceOnUse"><g id="mask-2"><path d="M 176 758 H 292 V 821 H 176 V 758 Z" id="path-1" class="cls-1" style="fill: rgb(255, 255, 255);"/></g></mask><mask id="mask-2-2" x="176" y="758" width="116" height="63" maskUnits="userSpaceOnUse"><g id="mask-2-3" data-name="mask-2"><path d="M 176 758 H 292 V 821 H 176 V 758 Z" id="path-1-2" data-name="path-1" class="cls-1" style="fill: rgb(255, 255, 255);"/></g></mask><mask id="mask-3" x="518" y="461" width="241" height="91" maskUnits="userSpaceOnUse"><g id="mask-4"><path d="M 518 461 H 759 V 524 H 518 V 461 Z" id="path-3" class="cls-1" style="fill: rgb(255, 255, 255);"/></g></mask></defs><title>10</title><g id="Group-17" transform="matrix(1, 0, 0, 1, -103.98394012451172, -168.9738998413086)"><g id="Group-13"><path d="M 180 545 H 407 A 20 20 0 0 1 427 565 V 835 A 20 20 0 0 1 407 855 H 180 A 20 20 0 0 1 160 835 V 565 A 20 20 0 0 1 180 545 Z" id="Rectangle-3-Copy-30" class="cls-1" style="fill: rgb(169, 169, 170);"/><g id="Group-7"><path d="M 176 561 H 411 V 574 H 176 V 561 Z" id="Rectangle-2" class="cls-4" style="fill: rgb(48, 207, 255);"/><path d="M 176 825 H 411 V 838 H 176 V 825 Z" id="Rectangle-2-Copy-6" class="cls-4" style="fill: rgb(48, 207, 255);"/><g id="Group-5"><path d="M 176 578 H 411 V 664 H 176 V 578 Z" id="Rectangle-2-Copy" class="cls-5" style="fill: rgb(246, 246, 246);"/><path d="M 328 614 H 388 V 629 H 328 V 614 Z" id="Rectangle-2-Copy-3" class="cls-6" style="fill: rgb(230, 230, 230);"/></g><path d="M 176 668 H 411 V 754 H 176 V 668 Z" id="Rectangle-2-Copy-2" class="cls-5" style="fill: rgb(246, 246, 246);"/><path d="M 295 758 H 411 V 821 H 295 V 758 Z" id="Rectangle-2-Copy-7" class="cls-5" style="fill: rgb(246, 246, 246);"/><g id="Group"><path d="M 200 691 H 260 V 706 H 200 V 691 Z" id="Rectangle-2-Copy-2-2" data-name="Rectangle-2-Copy-2" class="cls-6" style="fill: rgb(230, 230, 230);"/><path d="M 264 691 H 324 V 706 H 264 V 691 Z" id="Rectangle-2-Copy-3-2" data-name="Rectangle-2-Copy-3" class="cls-6" style="fill: rgb(230, 230, 230);"/><path d="M 264 716 H 324 V 731 H 264 V 716 Z" id="Rectangle-2-Copy-5" class="cls-7" style="fill: rgb(255, 191, 41);"/><path d="M 328 691 H 388 V 706 H 328 V 691 Z" id="Rectangle-2-Copy-4" class="cls-6" style="fill: rgb(230, 230, 230);"/></g><g id="Group-6"><path d="M 323 768 H 383 V 778 H 323 V 768 Z" id="Rectangle-2-Copy-8" class="cls-6" style="fill: rgb(230, 230, 230);"/><path d="M 323 783 H 383 V 793 H 323 V 783 Z" id="Rectangle-2-Copy-9" class="cls-6" style="fill: rgb(230, 230, 230);"/><path d="M 323 798 H 383 V 808 H 323 V 798 Z" id="Rectangle-2-Copy-10" class="cls-6" style="fill: rgb(230, 230, 230);"/></g><g id="Group-3"><g id="Mask-4-2" data-name="Mask"><path d="M 176 758 H 292 V 821 H 176 V 758 Z" id="path-1-3" data-name="path-1" class="cls-5" style="fill: rgb(246, 246, 246);"/></g><g class="cls-8" style="mask: url('#mask');"><g id="Group-2"><path d="M 176 778 H 292 V 782 H 176 V 778 Z" id="Rectangle-4" class="cls-7" style="fill: rgb(255, 191, 41);"/><path d="M 263 758 H 266 V 849 H 263 V 758 Z" id="Rectangle-4-2" data-name="Rectangle-4" class="cls-7" style="fill: rgb(255, 191, 41);"/><path d="M 176 782 H 203 V 802 H 176 V 782 Z" id="Rectangle-3-Copy-4" class="cls-6" style="fill: rgb(230, 230, 230);"/><path d="M 176 758 H 203 V 778 H 176 V 758 Z" id="Rectangle-3-Copy-12" class="cls-6" style="fill: rgb(230, 230, 230);"/><path d="M 176 829 H 203 V 849 H 176 V 829 Z" id="Rectangle-3-Copy-14" class="cls-6" style="fill: rgb(230, 230, 230);"/><path d="M 236 829 H 263 V 849 H 236 V 829 Z" id="Rectangle-3-Copy-16" class="cls-6" style="fill: rgb(230, 230, 230);"/><path d="M 206 758 H 233 V 778 H 206 V 758 Z" id="Rectangle-3-Copy-13" class="cls-6" style="fill: rgb(230, 230, 230);"/><path d="M 206 829 H 233 V 849 H 206 V 829 Z" id="Rectangle-3-Copy-15" class="cls-6" style="fill: rgb(230, 230, 230);"/><path d="M 266 829 H 293 V 849 H 266 V 829 Z" id="Rectangle-3-Copy-17" class="cls-6" style="fill: rgb(230, 230, 230);"/><path d="M 176 806 H 203 V 826 H 176 V 806 Z" id="Rectangle-3-Copy-8" class="cls-6" style="fill: rgb(230, 230, 230);"/><path id="Combined-Shape" class="cls-6" d="M209.52,782H233v18Zm17.91,20H206V785.6Z" style="fill: rgb(230, 230, 230);"/><path d="M 206 806 H 233 V 826 H 206 V 806 Z" id="Rectangle-3-Copy-9" class="cls-6" style="fill: rgb(230, 230, 230);"/><path id="Combined-Shape-2" data-name="Combined-Shape" class="cls-6" d="M263,772.29a7,7,0,0,0-4.93,5.71H236V758h27Z" style="fill: rgb(230, 230, 230);"/><path id="Combined-Shape-3" data-name="Combined-Shape" class="cls-6" d="M258.67,782a7,7,0,0,0,4.33,3.71V802H236V782Z" style="fill: rgb(230, 230, 230);"/><path id="Combined-Shape-4" data-name="Combined-Shape" class="cls-6" d="M240.89,806H263v16.91Zm17.91,20H236V808.55Z" style="fill: rgb(230, 230, 230);"/><path id="Combined-Shape-5" data-name="Combined-Shape" class="cls-6" d="M271.93,778a7,7,0,0,0-5.93-5.93V758h26v20Z" style="fill: rgb(230, 230, 230);"/><path id="Combined-Shape-6" data-name="Combined-Shape" class="cls-6" d="M271.33,782H292v20H266V785.93A7,7,0,0,0,271.33,782Z" style="fill: rgb(230, 230, 230);"/><path d="M 266 806 H 292 V 826 H 266 V 806 Z" id="Rectangle-3-Copy-11" class="cls-6" style="fill: rgb(230, 230, 230);"/><path d="M 273 779.5 A 8.5 8.5 0 0 1 264.5 788 A 8.5 8.5 0 0 1 256 779.5 A 8.5 8.5 0 0 1 264.5 771 A 8.5 8.5 0 0 1 273 779.5 Z" id="Oval-2" class="cls-7" style="fill: rgb(255, 191, 41);"/><path d="M 259.8277893066406 858.3262939453125" style="fill: rgb(255, 191, 41); fill-opacity: 1; stroke: rgb(0, 0, 0); stroke-opacity: 1; stroke-width: 0; paint-order: fill;"/></g></g><g class="cls-9" style="mask: url('#mask-2-2');"><g id="Group-4"><path id="Oval-3" class="cls-10" d="M204.5,810s4.5-6,4.5-8.5a4.5,4.5,0,0,0-9,0C200,804,204.5,810,204.5,810Z" style="fill: rgb(255, 191, 41);"/><path d="M 207 801.5 A 2.5 2.5 0 0 1 204.5 804 A 2.5 2.5 0 0 1 202 801.5 A 2.5 2.5 0 0 1 204.5 799 A 2.5 2.5 0 0 1 207 801.5 Z" id="Oval-4" class="cls-1" style="fill: rgb(255, 255, 255);"/></g></g></g><path d="M -1644.4049072265625 1362.07373046875" style="fill: rgb(48, 207, 255); fill-opacity: 1; stroke: rgb(0, 0, 0); stroke-opacity: 1; stroke-width: 0; paint-order: fill;"/></g><path d="M 892.1160278320312 929.2476806640625" style="fill: rgb(169, 169, 170); fill-opacity: 1; stroke: rgb(0, 0, 0); stroke-opacity: 1; stroke-width: 0; paint-order: fill;"/></g></g><path d="M 499 1057 H 607 A 20 20 0 0 1 627 1077 V 1253 A 20 20 0 0 1 607 1273 H 499 A 20 20 0 0 1 479 1253 V 1077 A 20 20 0 0 1 499 1057 Z" id="Rectangle-3-Copy-30-2" data-name="Rectangle-3-Copy-30" class="cls-1" style="fill: rgb(169, 169, 170);" transform="matrix(1, 0, 0, 1, -103.98394012451172, -168.9738998413086)"/><path d="M 495 1073 H 612 V 1086 H 495 V 1073 Z" id="Rectangle-2-2" data-name="Rectangle-2" class="cls-4" style="fill: rgb(48, 207, 255);" transform="matrix(1, 0, 0, 1, -103.98394012451172, -168.9738998413086)"/><path d="M 495 1090 H 612 V 1176 H 495 V 1090 Z" id="Rectangle-2-Copy-2-3" data-name="Rectangle-2-Copy" class="cls-5" style="fill: rgb(246, 246, 246);" transform="matrix(1, 0, 0, 1, -103.98394012451172, -168.9738998413086)"/><path d="M 523 1126 H 583 V 1141 H 523 V 1126 Z" id="Rectangle-2-Copy-3-3" data-name="Rectangle-2-Copy-3" class="cls-6" style="fill: rgb(230, 230, 230);" transform="matrix(1, 0, 0, 1, -103.98394012451172, -168.9738998413086)"/><path d="M 495 1180 H 612 V 1258 H 495 V 1180 Z" id="Rectangle-2-Copy-2-4" data-name="Rectangle-2-Copy-2" class="cls-5" style="fill: rgb(246, 246, 246);" transform="matrix(1, 0, 0, 1, -103.98394012451172, -168.9738998413086)"/><path d="M 507 1203 H 537 V 1218 H 507 V 1203 Z" id="Rectangle-2-Copy-2-5" data-name="Rectangle-2-Copy-2" class="cls-6" style="fill: rgb(230, 230, 230);" transform="matrix(1, 0, 0, 1, -103.98394012451172, -168.9738998413086)"/><path d="M 539 1203 H 569 V 1218 H 539 V 1203 Z" id="Rectangle-2-Copy-3-4" data-name="Rectangle-2-Copy-3" class="cls-6" style="fill: rgb(230, 230, 230);" transform="matrix(1, 0, 0, 1, -103.98394012451172, -168.9738998413086)"/><path d="M 524 1229 H 584 V 1244 H 524 V 1229 Z" id="Rectangle-2-Copy-5-2" data-name="Rectangle-2-Copy-5" class="cls-7" style="fill: rgb(255, 191, 41);" transform="matrix(1, 0, 0, 1, -103.98394012451172, -168.9738998413086)"/><path d="M 571 1203 H 599 V 1218 H 571 V 1203 Z" id="Rectangle-2-Copy-4-2" data-name="Rectangle-2-Copy-4" class="cls-6" style="fill: rgb(230, 230, 230);" transform="matrix(1, 0, 0, 1, -103.98394012451172, -168.9738998413086)"/><g id="Group-12" transform="matrix(1, 0, 0, 1, -103.98394012451172, -168.9738998413086)"><path d="M 713 585 L 803 585 L 803 628 L 713 628 L 713 585 Z" id="Rectangle-3-Copy" class="cls-5" style="fill: rgb(169, 169, 170);"/><path id="Rectangle-3-Copy-2" data-name="Rectangle-3-Copy" class="cls-1" d="M662.5,632h191A14.5,14.5,0,0,1,868,646.5h0A14.5,14.5,0,0,1,853.5,661h-191A14.5,14.5,0,0,1,648,646.5h0A14.5,14.5,0,0,1,662.5,632Z" style="fill: rgb(169, 169, 170);"/></g><path d="M 522 217 H 994 A 20 20 0 0 1 1014 237 V 561 A 20 20 0 0 1 994 581 H 522 A 20 20 0 0 1 502 561 V 237 A 20 20 0 0 1 522 217 Z" id="Rectangle-3" class="cls-1" style="fill: rgb(169, 169, 170);" transform="matrix(1, 0, 0, 1, -103.98394012451172, -168.9738998413086)"/><g id="Group-8" transform="matrix(1, 0, 0, 1, -103.98394012451172, -168.9738998413086)"><path id="Rectangle-3-2" data-name="Rectangle-3" class="cls-5" d="M528,237H988a10,10,0,0,1,10,10v13H518V247A10,10,0,0,1,528,237Z" style="fill: rgb(246, 246, 246);"/><path d="M 537 249 A 5 5 0 0 1 532 254 A 5 5 0 0 1 527 249 A 5 5 0 0 1 532 244 A 5 5 0 0 1 537 249 Z" id="Oval-5" class="cls-4" style="fill: rgb(48, 207, 255);"/><path d="M 557 249 A 5 5 0 0 1 552 254 A 5 5 0 0 1 547 249 A 5 5 0 0 1 552 244 A 5 5 0 0 1 557 249 Z" id="Oval-5-Copy" class="cls-4" style="fill: rgb(48, 207, 255);"/><path d="M 577 249 A 5 5 0 0 1 572 254 A 5 5 0 0 1 567 249 A 5 5 0 0 1 572 244 A 5 5 0 0 1 577 249 Z" id="Oval-5-Copy-2" class="cls-4" style="fill: rgb(48, 207, 255);"/></g><path d="M 518 264 H 998 V 277 H 518 V 264 Z" id="Rectangle-2-3" data-name="Rectangle-2" class="cls-4" style="fill: rgb(48, 207, 255);" transform="matrix(1, 0, 0, 1, -103.98394012451172, -168.9738998413086)"/><path d="M 518 528 H 998 V 541 H 518 V 528 Z" id="Rectangle-2-Copy-6-2" data-name="Rectangle-2-Copy-6" class="cls-4" style="fill: rgb(48, 207, 255);" transform="matrix(1, 0, 0, 1, -103.98394012451172, -168.9738998413086)"/><path d="M 518 281 H 998 V 367 H 518 V 281 Z" id="Rectangle-2-Copy-3-5" data-name="Rectangle-2-Copy" class="cls-5" style="fill: rgb(246, 246, 246);" transform="matrix(1, 0, 0, 1, -103.98394012451172, -168.9738998413086)"/><path d="M 851 317 H 911 V 332 H 851 V 317 Z" id="Rectangle-2-Copy-3-6" data-name="Rectangle-2-Copy-3" class="cls-7" style="fill: rgb(255, 191, 41);" transform="matrix(1, 0, 0, 1, -103.98394012451172, -168.9738998413086)"/><path d="M 518 371 H 998 V 457 H 518 V 371 Z" id="Rectangle-2-Copy-2-6" data-name="Rectangle-2-Copy-2" class="cls-5" style="fill: rgb(246, 246, 246);" transform="matrix(1, 0, 0, 1, -103.98394012451172, -168.9738998413086)"/><g id="Mask-5" data-name="Mask" transform="matrix(1, 0, 0, 1, -103.98394012451172, -168.9738998413086)"><path d="M 518 461 H 759 V 524 H 518 V 461 Z" id="path-3-2" data-name="path-3" class="cls-5" style="fill: rgb(246, 246, 246);"/></g><g id="Group-10" transform="matrix(1, 0, 0, 1, -103.98394012451172, -168.9738998413086)" style="mask: url('#mask-3');"><g id="Group-3-3" data-name="Group-3"><g id="Group-2-3" data-name="Group-2"><path d="M 518 481 H 759 V 485 H 518 V 481 Z" id="Rectangle-4-3" data-name="Rectangle-4" class="cls-7" style="fill: rgb(255, 191, 41);"/><path d="M 666.849976 461 L 669.889976 461 L 669.889976 552 L 666.849976 552 L 666.8499755859375 485.48956298828125 L 666.8499755859375 461 Z" id="Rectangle-4-4" data-name="Rectangle-4" class="cls-7" style="fill: rgb(255, 191, 41);"/><path d="M 578.76001 485 H 606.10001 V 505 H 578.76001 V 485 Z" id="Rectangle-3-Copy-4-2" data-name="Rectangle-3-Copy-4" class="cls-6" style="fill: rgb(230, 230, 230);"/><path d="M 548.380005 485 H 575.720005 V 505 H 548.380005 V 485 Z" id="Rectangle-3-Copy-20" class="cls-6" style="fill: rgb(230, 230, 230);"/><path d="M 518 485 H 545.34 V 505 H 518 V 485 Z" id="Rectangle-3-Copy-21" class="cls-6" style="fill: rgb(230, 230, 230);"/><path d="M 700.27002 485 H 727.61002 V 505 H 700.27002 V 485 Z" id="Rectangle-3-Copy-24" class="cls-6" style="fill: rgb(230, 230, 230);"/><path d="M 731.659973 485 H 758.999973 V 505 H 731.659973 V 485 Z" id="Rectangle-3-Copy-27" class="cls-6" style="fill: rgb(230, 230, 230);"/><path d="M 578.76001 461 H 606.10001 V 481 H 578.76001 V 461 Z" id="Rectangle-3-Copy-12-2" data-name="Rectangle-3-Copy-12" class="cls-6" style="fill: rgb(230, 230, 230);"/><path d="M 548.380005 461 H 575.720005 V 481 H 548.380005 V 461 Z" id="Rectangle-3-Copy-22" class="cls-6" style="fill: rgb(230, 230, 230);"/><path d="M 518 461 H 545.34 V 481 H 518 V 461 Z" id="Rectangle-3-Copy-23" class="cls-6" style="fill: rgb(230, 230, 230);"/><path d="M 700.27002 461 H 727.61002 V 481 H 700.27002 V 461 Z" id="Rectangle-3-Copy-25" class="cls-6" style="fill: rgb(230, 230, 230);"/><path d="M 731.659973 461 H 758.999973 V 481 H 731.659973 V 461 Z" id="Rectangle-3-Copy-28" class="cls-6" style="fill: rgb(230, 230, 230);"/><path d="M 578.76001 532 H 606.10001 V 552 H 578.76001 V 532 Z" id="Rectangle-3-Copy-14-2" data-name="Rectangle-3-Copy-14" class="cls-6" style="fill: rgb(230, 230, 230);"/><path d="M 639.51001 532 H 666.85001 V 552 H 639.51001 V 532 Z" id="Rectangle-3-Copy-16-2" data-name="Rectangle-3-Copy-16" class="cls-6" style="fill: rgb(230, 230, 230);"/><path d="M 609.130005 461 H 636.470005 V 481 H 609.130005 V 461 Z" id="Rectangle-3-Copy-13-2" data-name="Rectangle-3-Copy-13" class="cls-6" style="fill: rgb(230, 230, 230);"/><path d="M 609.130005 532 H 636.470005 V 552 H 609.130005 V 532 Z" id="Rectangle-3-Copy-15-2" data-name="Rectangle-3-Copy-15" class="cls-6" style="fill: rgb(230, 230, 230);"/><path d="M 669.890015 532 H 697.230015 V 552 H 669.890015 V 532 Z" id="Rectangle-3-Copy-17-2" data-name="Rectangle-3-Copy-17" class="cls-6" style="fill: rgb(230, 230, 230);"/><path d="M 578.76001 509 H 606.10001 V 529 H 578.76001 V 509 Z" id="Rectangle-3-Copy-8-2" data-name="Rectangle-3-Copy-8" class="cls-6" style="fill: rgb(230, 230, 230);"/><path d="M 548.380005 509 H 575.720005 V 529 H 548.380005 V 509 Z" id="Rectangle-3-Copy-18" class="cls-6" style="fill: rgb(230, 230, 230);"/><path d="M 518 509 H 545.34 V 529 H 518 V 509 Z" id="Rectangle-3-Copy-19" class="cls-6" style="fill: rgb(230, 230, 230);"/><path d="M 700.27002 509 H 727.61002 V 529 H 700.27002 V 509 Z" id="Rectangle-3-Copy-26" class="cls-6" style="fill: rgb(230, 230, 230);"/><path d="M 731.659973 509 H 758.999973 V 529 H 731.659973 V 509 Z" id="Rectangle-3-Copy-29" class="cls-6" style="fill: rgb(230, 230, 230);"/><path id="Combined-Shape-7" data-name="Combined-Shape" class="cls-6" d="M612.7,485h23.77v18Zm18.14,20H609.13V488.6Z" style="fill: rgb(230, 230, 230);"/><path d="M 609.130005 509 H 636.470005 V 529 H 609.130005 V 509 Z" id="Rectangle-3-Copy-9-2" data-name="Rectangle-3-Copy-9" class="cls-6" style="fill: rgb(230, 230, 230);"/><path id="Combined-Shape-8" data-name="Combined-Shape" class="cls-6" d="M666.85,475.29a7.06,7.06,0,0,0-5,5.71H639.51V461h27.34Z" style="fill: rgb(230, 230, 230);"/><path id="Combined-Shape-9" data-name="Combined-Shape" class="cls-6" d="M662.47,485a7.1,7.1,0,0,0,4.38,3.71V505H639.51V485Z" style="fill: rgb(230, 230, 230);"/><path id="Combined-Shape-10" data-name="Combined-Shape" class="cls-6" d="M644.47,509h22.38v16.91Zm18.13,20H639.51V511.55Z" style="fill: rgb(230, 230, 230);"/><path id="Combined-Shape-11" data-name="Combined-Shape" class="cls-6" d="M675.89,481a7,7,0,0,0-6-5.93V461h26.33v20Z" style="fill: rgb(230, 230, 230);"/><path id="Combined-Shape-12" data-name="Combined-Shape" class="cls-6" d="M675.28,485h20.94v20H669.89V488.93A7.08,7.08,0,0,0,675.28,485Z" style="fill: rgb(230, 230, 230);"/><path d="M 669.890015 509 H 696.220015 V 529 H 669.890015 V 509 Z" id="Rectangle-3-Copy-11-2" data-name="Rectangle-3-Copy-11" class="cls-6" style="fill: rgb(230, 230, 230);"/><path d="M 676.979995 482.5 A 8.61 8.5 0 0 1 668.369995 491 A 8.61 8.5 0 0 1 659.759995 482.5 A 8.61 8.5 0 0 1 668.369995 474 A 8.61 8.5 0 0 1 676.979995 482.5 Z" id="Oval-2-2" data-name="Oval-2" class="cls-7" style="fill: rgb(255, 191, 41);"/></g></g><g id="Group-4-2" data-name="Group-4"><path id="Oval-3-2" data-name="Oval-3" class="cls-10" d="M607.5,513s4.5-6,4.5-8.5a4.5,4.5,0,0,0-9,0C603,507,607.5,513,607.5,513Z" style="fill: rgb(255, 191, 41);"/><path d="M 610 504.5 A 2.5 2.5 0 0 1 607.5 507 A 2.5 2.5 0 0 1 605 504.5 A 2.5 2.5 0 0 1 607.5 502 A 2.5 2.5 0 0 1 610 504.5 Z" id="Oval-4-2" data-name="Oval-4" class="cls-1" style="fill: rgb(255, 255, 255);"/></g></g><path d="M 664 394 H 724 V 409 H 664 V 394 Z" id="Rectangle-2-Copy-2-7" data-name="Rectangle-2-Copy-2" class="cls-6" style="fill: rgb(230, 230, 230);" transform="matrix(1, 0, 0, 1, -103.98394012451172, -168.9738998413086)"/><path d="M 728 394 H 788 V 409 H 728 V 394 Z" id="Rectangle-2-Copy-3-7" data-name="Rectangle-2-Copy-3" class="cls-6" style="fill: rgb(230, 230, 230);" transform="matrix(1, 0, 0, 1, -103.98394012451172, -168.9738998413086)"/><path d="M 728 419 H 788 V 434 H 728 V 419 Z" id="Rectangle-2-Copy-5-3" data-name="Rectangle-2-Copy-5" class="cls-7" style="fill: rgb(255, 191, 41);" transform="matrix(1, 0, 0, 1, -103.98394012451172, -168.9738998413086)"/><path d="M 792 394 H 852 V 409 H 792 V 394 Z" id="Rectangle-2-Copy-4-3" data-name="Rectangle-2-Copy-4" class="cls-6" style="fill: rgb(230, 230, 230);" transform="matrix(1, 0, 0, 1, -103.98394012451172, -168.9738998413086)"/><path d="M 763 461 H 998 V 524 H 763 V 461 Z" id="Rectangle-2-Copy-7-2" data-name="Rectangle-2-Copy-7" class="cls-5" style="fill: rgb(246, 246, 246);" transform="matrix(1, 0, 0, 1, -103.98394012451172, -168.9738998413086)"/><path d="M 851 471 H 911 V 481 H 851 V 471 Z" id="Rectangle-2-Copy-8-2" data-name="Rectangle-2-Copy-8" class="cls-6" style="fill: rgb(230, 230, 230);" transform="matrix(1, 0, 0, 1, -103.98394012451172, -168.9738998413086)"/><path d="M 851 486 H 911 V 496 H 851 V 486 Z" id="Rectangle-2-Copy-9-2" data-name="Rectangle-2-Copy-9" class="cls-6" style="fill: rgb(230, 230, 230);" transform="matrix(1, 0, 0, 1, -103.98394012451172, -168.9738998413086)"/><path d="M 851 501 H 911 V 511 H 851 V 501 Z" id="Rectangle-2-Copy-10-2" data-name="Rectangle-2-Copy-10" class="cls-6" style="fill: rgb(230, 230, 230);" transform="matrix(1, 0, 0, 1, -103.98394012451172, -168.9738998413086)"/><path id="Oval-6" class="cls-12" d="M407.5,308A72.5,72.5,0,0,0,335,380.5" style="fill: none; stroke: rgb(230, 230, 230); stroke-linecap: round; stroke-miterlimit: 10; stroke-width: 15px;" transform="matrix(1, 0, 0, 1, -103.98394012451172, -168.9738998413086)"/><path d="M 392.940002 274 L 426.880005 307.940002 L 392.940002 341.880005" id="Rectangle-5" class="cls-12" style="fill: none; stroke: rgb(230, 230, 230); stroke-linecap: round; stroke-miterlimit: 10; stroke-width: 15px;" transform="matrix(1, 0, 0, 1, -103.98394012451172, -168.9738998413086)"/><path id="Oval-6-2" data-name="Oval-6" class="cls-12" d="M1056,708.5A72.5,72.5,0,0,0,983.5,636" style="fill: none; stroke: rgb(230, 230, 230); stroke-linecap: round; stroke-miterlimit: 10; stroke-width: 15px;" transform="matrix(1, 0, 0, 1, -103.98394012451172, -170.47755343270515)"/><path d="M 1090 693.940002 L 1056.060059 727.880005 L 1022.119995 693.940002" id="Rectangle-5-2" data-name="Rectangle-5" class="cls-12" style="fill: none; stroke: rgb(230, 230, 230); stroke-linecap: round; stroke-miterlimit: 10; stroke-width: 15px;" transform="matrix(1, 0, 0, 1, -103.98394012451172, -168.9738998413086)"/><path id="Oval-6-3" data-name="Oval-6" class="cls-12" d="M328,973.5a72.5,72.5,0,0,0,72.5,72.5" style="fill: none; stroke: rgb(230, 230, 230); stroke-linecap: round; stroke-miterlimit: 10; stroke-width: 15px;" transform="matrix(1, 0, 0, 1, -103.98394012451172, -168.9738998413086)"/><path d="M 294 988.059998 L 327.940002 954.119995 L 361.880005 988.059998" id="Rectangle-5-3" data-name="Rectangle-5" class="cls-12" style="fill: none; stroke: rgb(230, 230, 230); stroke-linecap: round; stroke-miterlimit: 10; stroke-width: 15px;" transform="matrix(1, 0, 0, 1, -103.98394012451172, -168.9738998413086)"/><path id="Oval-6-4" data-name="Oval-6" class="cls-12" d="M834.5,1198a72.5,72.5,0,0,0,72.5-72.5" style="fill: none; stroke: rgb(230, 230, 230); stroke-linecap: round; stroke-miterlimit: 10; stroke-width: 15px;" transform="matrix(1, 0, 0, 1, -105.98394012451172, -168.9738998413086)"/><path d="M 849.059998 1232 L 815.119995 1198.060059 L 849.059998 1164.119995" id="Rectangle-5-4" data-name="Rectangle-5" class="cls-12" style="fill: none; stroke: rgb(230, 230, 230); stroke-linecap: round; stroke-miterlimit: 10; stroke-width: 15px;" transform="matrix(1, 0, 0, 1, -103.98394012451172, -168.9738998413086)"/><path d="M 902 859 H 1170 A 20 20 0 0 1 1190 879 V 1030 A 20 20 0 0 1 1170 1050 H 902 A 20 20 0 0 1 882 1030 V 879 A 20 20 0 0 1 902 859 Z" id="Rectangle-3-Copy-31" class="cls-1" style="fill: rgb(169, 169, 170);" transform="matrix(1, 0, 0, 1, -103.98394012451172, -168.9738998413086)"/><path id="Rectangle-3-Copy-32" class="cls-5" d="M861,1054h350v6a10,10,0,0,1-10,10H871a10,10,0,0,1-10-10Z" style="fill: rgb(169, 169, 170);" transform="matrix(1, 0, 0, 1, -103.98394012451172, -168.9738998413086)"/><g id="Group-8-2" data-name="Group-8" transform="matrix(1, 0, 0, 1, -103.98394012451172, -168.9738998413086)"><path id="Rectangle-3-3" data-name="Rectangle-3" class="cls-5" d="M907,869h258a10,10,0,0,1,10,10v13H897V879A10,10,0,0,1,907,869Z" style="fill: rgb(246, 246, 246);"/><path d="M 916 881 A 5 5 0 0 1 911 886 A 5 5 0 0 1 906 881 A 5 5 0 0 1 911 876 A 5 5 0 0 1 916 881 Z" id="Oval-5-2" data-name="Oval-5" class="cls-4" style="fill: rgb(48, 207, 255);"/><path d="M 936 881 A 5 5 0 0 1 931 886 A 5 5 0 0 1 926 881 A 5 5 0 0 1 931 876 A 5 5 0 0 1 936 881 Z" id="Oval-5-Copy-2-2" data-name="Oval-5-Copy" class="cls-4" style="fill: rgb(48, 207, 255);"/><path d="M 956 881 A 5 5 0 0 1 951 886 A 5 5 0 0 1 946 881 A 5 5 0 0 1 951 876 A 5 5 0 0 1 956 881 Z" id="Oval-5-Copy-2-3" data-name="Oval-5-Copy-2" class="cls-4" style="fill: rgb(48, 207, 255);"/></g><path d="M 897 896 H 1175 V 909 H 897 V 896 Z" id="Rectangle-2-4" data-name="Rectangle-2" class="cls-4" style="fill: rgb(48, 207, 255);" transform="matrix(1, 0, 0, 1, -103.98394012451172, -168.9738998413086)"/><path d="M 897 913 H 1175 V 980 H 897 V 913 Z" id="Rectangle-2-Copy-4-4" data-name="Rectangle-2-Copy" class="cls-5" style="fill: rgb(246, 246, 246);" transform="matrix(1, 0, 0, 1, -103.98394012451172, -168.9738998413086)"/><path d="M 1090 939 H 1125 V 954 H 1090 V 939 Z" id="Rectangle-2-Copy-3-8" data-name="Rectangle-2-Copy-3" class="cls-7" style="fill: rgb(255, 191, 41);" transform="matrix(1, 0, 0, 1, -103.98394012451172, -168.9738998413086)"/><path d="M 897 984 H 1175 V 1035 H 897 V 984 Z" id="Rectangle-2-Copy-2-8" data-name="Rectangle-2-Copy-2" class="cls-5" style="fill: rgb(246, 246, 246);" transform="matrix(1, 0, 0, 1, -103.98394012451172, -168.9738998413086)"/><g id="Group-14" transform="matrix(1, 0, 0, 1, -103.98394012451172, -168.9738998413086)"><path d="M 942 1001 H 1002 V 1016 H 942 V 1001 Z" id="Rectangle-2-Copy-2-9" data-name="Rectangle-2-Copy-2" class="cls-6" style="fill: rgb(230, 230, 230);"/><path d="M 1006 1001 H 1066 V 1016 H 1006 V 1001 Z" id="Rectangle-2-Copy-3-9" data-name="Rectangle-2-Copy-3" class="cls-6" style="fill: rgb(230, 230, 230);"/><path d="M 1006 1026 H 1066 V 1035 H 1006 V 1026 Z" id="Rectangle-2-Copy-5-4" data-name="Rectangle-2-Copy-5" class="cls-7" style="fill: rgb(255, 191, 41);"/><path d="M 1070 1001 H 1130 V 1016 H 1070 V 1001 Z" id="Rectangle-2-Copy-4-5" data-name="Rectangle-2-Copy-4" class="cls-6" style="fill: rgb(230, 230, 230);"/></g><path d="M 826.7573852539062 1197.7113037109375 L 826.7573852539062 1197.7113037109375" style="fill-opacity: 1; stroke: rgb(47, 47, 49); stroke-opacity: 1; stroke-width: 15; paint-order: stroke;" transform="matrix(1, 0, 0, 1, -103.98394012451172, -168.9738998413086)"/><path d="M 438.0706481933594 1211.65283203125" style="fill: rgb(255, 191, 41); fill-opacity: 1; stroke: rgb(0, 0, 0); stroke-opacity: 1; stroke-width: 0; paint-order: fill;" transform="matrix(1, 0, 0, 1, -103.98394012451172, -168.9738998413086)"/><path d="M 783.7579345703125 850.3805541992188" style="fill: rgb(169, 169, 170); fill-opacity: 1; stroke: rgb(0, 0, 0); stroke-opacity: 1; stroke-width: 0; paint-order: fill;"/><path d="M 710.1033325195312 937.8223266601562" style="fill: rgb(169, 169, 170); fill-opacity: 1; stroke: rgb(230, 230, 230); stroke-opacity: 1; stroke-width: 15; paint-order: stroke;"/><path d="M 223.62660217285156 787.3250122070312 L 223.62660217285156 787.3250122070312" style="fill: rgb(169, 169, 170); fill-opacity: 1; stroke: rgb(230, 230, 230); stroke-opacity: 1; stroke-width: 15; paint-order: stroke;"/><path d="M 918.607666015625 480.2658996582031" style="fill: rgb(169, 169, 170); fill-opacity: 1; stroke: rgb(230, 230, 230); stroke-opacity: 1; stroke-width: 15; paint-order: stroke;"/><path d="M 400.5308837890625 648.3270263671875" style="fill: rgb(169, 169, 170); fill-opacity: 1; stroke: rgb(230, 230, 230); stroke-opacity: 1; stroke-width: 15; paint-order: stroke;"/></svg>