<?xml version="1.0" encoding="utf-8"?>
<svg id="master-artboard" viewBox="0 0 1096 780" version="1.1" xmlns="http://www.w3.org/2000/svg" x="0px" y="0px" style="enable-background:new 0 0 1096 780;" width="1096px" height="780px">


<g transform="matrix(0.9999999999999999, 0, 0, 0.9999999999999999, -5.684341886080802e-14, -1.2792520974103923)">
		<path d="M 48 642.900024 H 1048 V 682.900024 H 48 V 642.900024 Z" class="st2" style="fill: rgb(186, 151, 101);"/>
		<path d="M 48 642.900024 H 1048 V 647.900024 H 48 V 642.900024 Z" class="st3" style="opacity: 0.15;"/>
		<path d="M 48 677.900024 H 1048 V 682.900024 H 48 V 677.900024 Z" class="st3" style="opacity: 0.15;"/>
	</g><g transform="matrix(1, 0, 0, 1, 0, 0)">
			<g>
				<g>
					<path class="st4" d="M624.8,640.6c0,1.3-1.1,2.2-3.2,2.2H467.2c-2.2,0-3.1-0.9-3.1-2.2v-5c0,1.4,1,2.2,3.1,2.2h154.3&#10;&#9;&#9;&#9;&#9;&#9;&#9;c2.1,0,3.1-0.9,3.2-2.2L624.8,640.6z" style="fill: rgb(226, 227, 228);"/>
					<path class="st5" d="M594.4,558.4l3.7,25.9c2.8,17.5,2.3,20.2,8.4,27.3c9.2,10.6,13.8,17,16.3,19.9c2.9,3.3,2.7,6.3-1.2,6.3&#10;&#9;&#9;&#9;&#9;&#9;&#9;H467.2c-3.9,0-4-2.9-1.2-6.3c2.2-2.7,7.1-9.2,16.3-19.9c6.1-7.1,5.6-9.8,8.4-27.3l3.7-25.9H594.4z" style="fill: rgb(237, 237, 238);"/>
				</g>
				<path class="st4" d="M780.9,253.2v317c0,6-4.9,10.9-10.9,10.9H319.2c-6,0-10.9-4.9-10.9-10.9v-317c0-6,4.9-10.9,10.9-10.9H770&#10;&#9;&#9;&#9;&#9;&#9;C776,242.3,780.9,247.2,780.9,253.2z" style="fill: rgb(226, 227, 228);"/>
				<path d="M770.3,244.1c5,0,9.1,4.1,9.1,9.1V540h-469V253.2c0-5,4.1-9.1,9.1-9.1H770.3z"/>
				<path d="M 326.799988 261.399994 H 763 V 522.699982 H 326.799988 V 261.399994 Z" class="st6" style="fill: rgb(209, 211, 212); fill-opacity: 0.51;"/>
			</g>
			<g>
				<path d="M 546.400012 252.300003 A 3.2 3.2 0 0 1 543.200012 255.500003 A 3.2 3.2 0 0 1 540.000012 252.300003 A 3.2 3.2 0 0 1 543.200012 249.100003 A 3.2 3.2 0 0 1 546.400012 252.300003 Z" class="st7" style="fill: rgb(71, 75, 79);"/>
				<path d="M 544.600012 252.300003 A 1.4 1.4 0 0 1 543.200012 253.700003 A 1.4 1.4 0 0 1 541.800012 252.300003 A 1.4 1.4 0 0 1 543.200012 250.900003 A 1.4 1.4 0 0 1 544.600012 252.300003 Z"/>
				<path d="M 536.600012 252.300003 A 1.4 1.4 0 0 1 535.200012 253.700003 A 1.4 1.4 0 0 1 533.800012 252.300003 A 1.4 1.4 0 0 1 535.200012 250.900003 A 1.4 1.4 0 0 1 536.600012 252.300003 Z" class="st8" style="fill: rgb(141, 198, 63);"/>
			</g>
		</g><g transform="matrix(1, 0, 0, 1, 0, 0)">
			<g>
				<path class="st25" d="M1004.5,438.6v187.3c0,4.6-3.8,8.4-8.4,8.4H715.7c-4.6,0-8.4-3.8-8.4-8.4V438.6c0-4.6,3.8-8.4,8.4-8.4&#10;&#9;&#9;&#9;&#9;&#9;h280.4C1000.8,430.2,1004.5,434,1004.5,438.6z" style="fill: rgb(188, 190, 192);"/>
				<path d="M996.1,431.6c3.9,0,7,3.1,7,7v187.3c0,3.9-3.1,7-7,7H715.7c-3.9,0-7-3.1-7-7V438.6c0-3.9,3.1-7,7-7H996.1z"/>
				<path d="M 721.400024 444.899994 H 990.500031 V 619.5 H 721.400024 V 444.899994 Z" class="st6" style="fill: rgb(209, 211, 212);"/>
				<g>
					<path d="M 858.200012 437.899994 A 2.5 2.5 0 0 1 855.700012 440.399994 A 2.5 2.5 0 0 1 853.200012 437.899994 A 2.5 2.5 0 0 1 855.700012 435.399994 A 2.5 2.5 0 0 1 858.200012 437.899994 Z" class="st7" style="fill: rgb(71, 75, 79);"/>
					<path d="M 856.800012 437.899994 A 1.1 1.1 0 0 1 855.700012 438.999994 A 1.1 1.1 0 0 1 854.600012 437.899994 A 1.1 1.1 0 0 1 855.700012 436.799994 A 1.1 1.1 0 0 1 856.800012 437.899994 Z"/>
					<path d="M 850.6 437.899994 A 1.1 1.1 0 0 1 849.5 438.999994 A 1.1 1.1 0 0 1 848.4 437.899994 A 1.1 1.1 0 0 1 849.5 436.799994 A 1.1 1.1 0 0 1 850.6 437.899994 Z" class="st8" style="fill: rgb(141, 198, 63);"/>
				</g>
			</g>
			<g>
				<path d="M 679.400024 624.599976 H 1032.500031 V 637.699976 H 679.400024 V 624.599976 Z" class="st23" style="fill: rgb(230, 231, 232);"/>
				<path class="st22" d="M1032.5,637.7c0,2.6-4.7,5.1-15.5,5.1H694.8c-10.7,0-15.5-2.6-15.5-5.1H1032.5z" style="fill: rgb(220, 221, 222);"/>
				<path class="st18" d="M996.5,631.7c-0.6,0-1.1-0.5-1.1-1.1c0-0.6,0.5-1.1,1.1-1.1h14.7c0.6,0,1.1,0.5,1.1,1.1&#10;&#9;&#9;&#9;&#9;&#9;c0,0.6-0.5,1.1-1.1,1.1H996.5z" style="fill: rgb(255, 255, 255);"/>
				<path class="st6" d="M886.3,624.6c0,2.3-1.9,4.2-4.2,4.2h-52.3c-2.3,0-4.2-1.9-4.2-4.2H886.3z" style="fill: rgb(209, 211, 212);"/>
			</g>
		</g><g transform="matrix(1, 0, 0, 1, 0, 0)">
			<g>
				<path d="M 215.899994 446.700012 H 216.899994 V 455.900012 H 215.899994 V 446.700012 Z" class="st26" style="fill: rgb(75, 84, 91); fill-opacity: 0.68;"/>
				<path d="M 187.800003 419.700012 H 199.600003 V 420.700012 H 187.800003 V 419.700012 Z" class="st26" style="fill: rgb(75, 84, 91); fill-opacity: 0.68;"/>
				<path d="M 215.899994 459 H 216.899994 V 468.2 H 215.899994 V 459 Z" class="st26" style="fill: rgb(75, 84, 91); fill-opacity: 0.68;"/>
				<path class="st25" d="M209.6,642.9h-140c-3.5,0-6.3-2.8-6.3-6.3V427c0-3.5,2.8-6.3,6.3-6.3h140c3.5,0,6.3,2.8,6.3,6.3v209.6&#10;&#9;&#9;&#9;&#9;&#9;C215.9,640,213,642.9,209.6,642.9z" style="fill: rgb(188, 190, 192); fill-opacity: 0.68;"/>
				<path d="M214.8,636.6c0,2.9-2.3,5.2-5.2,5.2h-140c-2.9,0-5.2-2.3-5.2-5.2V427c0-2.9,2.3-5.2,5.2-5.2h140c2.9,0,5.2,2.3,5.2,5.2&#10;&#9;&#9;&#9;&#9;&#9;V636.6z" style="fill-opacity: 0.68;"/>
				<path d="M 70.300003 436.399994 H 209 V 619.5 H 70.300003 V 436.399994 Z" class="st6" style="fill: rgb(209, 211, 212); fill-opacity: 0.68;"/>
				<path class="st7" d="M144.2,625.8c-1.7-1.7-7.5-1.7-9.2,0c-1.7,1.7-1.7,7.5,0,9.2c1.7,1.7,7.5,1.7,9.2,0&#10;&#9;&#9;&#9;&#9;&#9;C145.9,633.3,145.9,627.5,144.2,625.8z" style="fill: rgb(71, 75, 79); fill-opacity: 0.68;"/>
				<path d="M139.6,633.6L139.6,633.6c-1.1,0-2-0.3-2.5-0.7c-1-1-1-4,0-5c0.4-0.4,1.4-0.7,2.5-0.7c1.1,0,2,0.3,2.5,0.7&#10;&#9;&#9;&#9;&#9;&#9;c0.4,0.4,0.7,1.4,0.7,2.5c0,1.1-0.3,2-0.7,2.5C141.6,633.3,140.7,633.6,139.6,633.6z M139.6,627.9c-0.9,0-1.7,0.2-2,0.5&#10;&#9;&#9;&#9;&#9;&#9;c-0.7,0.7-0.7,3.4,0,4.1c0.3,0.3,1.1,0.5,2,0.5l0,0c0.9,0,1.7-0.2,2-0.5c0.3-0.3,0.5-1.1,0.5-2c0-0.9-0.2-1.7-0.5-2&#10;&#9;&#9;&#9;&#9;&#9;C141.3,628.1,140.5,627.9,139.6,627.9z" style="fill-opacity: 0.68;"/>
				<path d="M 145.000006 429.399994 A 2.4 2.4 0 0 1 142.600006 431.799994 A 2.4 2.4 0 0 1 140.200006 429.399994 A 2.4 2.4 0 0 1 142.600006 426.999994 A 2.4 2.4 0 0 1 145.000006 429.399994 Z" class="st7" style="fill: rgb(71, 75, 79); fill-opacity: 0.68;"/>
				<path d="M 143.600006 429.399994 A 1 1 0 0 1 142.600006 430.399994 A 1 1 0 0 1 141.600006 429.399994 A 1 1 0 0 1 142.600006 428.399994 A 1 1 0 0 1 143.600006 429.399994 Z" style="fill-opacity: 0.68;"/>
				<path d="M 137.600006 429.399994 A 1 1 0 0 1 136.600006 430.399994 A 1 1 0 0 1 135.600006 429.399994 A 1 1 0 0 1 136.600006 428.399994 A 1 1 0 0 1 137.600006 429.399994 Z" class="st8" style="fill: rgb(141, 198, 63); fill-opacity: 0.68;"/>
			</g>
		</g>
<path class="st0" d="M1259.7,674c-4-36.9-27.9-68.6-65.7-86.9c-15.8-7.7-32.5-11.6-49.4-11.6c0,0,0,0,0,0&#10;&#9;&#9;c-36.4,0-66.6,17.6-85.5,32.3c-21.3,16.5-39.8,38.8-48.5,58c-14.9,33.2-17.7,34.9-21.3,37.1c-0.7,0.4-1.4,0.9-2.2,1.4&#10;&#9;&#9;c-2.8,1.9-4.5,5-4.5,8.4c0,3.2,1.6,6.1,4.1,8c-5.5,4.8-7.9,12.1-5.9,19c1.5,5.1,5,9.1,9.7,10.9c-10.9,11.5-17.2,21.4-10.1,34.9&#10;&#9;&#9;c2.9,5.5,8.2,8.8,14.1,8.8c5.3,0,10.2-2.6,13.8-6.7c1.7,0.7,3.6,1.1,5.7,1.1c0.4,0,0.9,0,1.4,0c7.6-0.5,11.4-4.9,12.7-9.2&#10;&#9;&#9;c3-0.6,5.6-2.6,7-5.2c1.2,1.5,2.5,3.4,4,5.4c4.1,5.6,9.7,13.2,18.3,23.2c18.5,21.5,53.8,44.5,97.2,44.5c14.5,0,29.1-2.5,43.6-7.6&#10;&#9;&#9;c5.2-1.8,7.9-7.4,6.2-12.6s-7.3-8-12.5-6.4c-0.1,0-8.5,2.7-21.1,2.7c-16.3,0-40.5-4.4-63.4-25.6c-23.5-21.6-36.6-49.1-36-75.4&#10;&#9;&#9;c0.5-20.9,9.8-39.5,27-53.8c10.5-8.7,22.3-13.2,35.3-13.2c20.2,0,37.6,10.9,45.9,21.7c5.2,6.8,7.2,13.6,5.8,19.2&#10;&#9;&#9;c-3.9,14.7-12.9,23.8-23.6,23.8c-6.6,0-13.4-3.5-19.3-9.8c-4.6-4.9-6.5-9.7-5.8-14.8c1.1-9,10-17.5,13.8-19.9&#10;&#9;&#9;c3.7-2.3,5.3-6.8,4.2-11c-1.1-4.2-4.9-7.2-9.3-7.4c0,0-0.2,0-0.5,0c-15,0-42.2,10.4-48.6,49.4c-2.6,15.7,2.7,32.2,14.9,46.5&#10;&#9;&#9;c15.6,18.4,39.1,29.4,62.8,29.4c17,0,33.4-5.8,47.3-16.7C1248.6,744.2,1263.4,709,1259.7,674z" style="opacity: 0.25; fill: rgb(20, 96, 147);" transform="matrix(0.9170775413513184, 0, 0, 0.9170775413513184, -482.4964758750488, -260.89788862047527)"/><path class="st1" d="M1256.2,670.5c-4-36.9-27.9-68.6-65.7-86.9c-15.8-7.7-32.5-11.6-49.4-11.6c0,0,0,0,0,0&#10;&#9;&#9;&#9;c-36.4,0-66.6,17.6-85.5,32.3c-21.3,16.5-39.8,38.8-48.5,58c-14.9,33.2-17.7,34.9-21.3,37.1c-0.7,0.4-1.4,0.9-2.2,1.4&#10;&#9;&#9;&#9;c-2.8,1.9-4.5,5-4.5,8.4c0,3.2,1.6,6.1,4.1,8c-5.5,4.8-7.9,12.1-5.9,19c1.5,5.1,5,9.1,9.7,10.9c-10.9,11.5-17.2,21.4-10.1,34.9&#10;&#9;&#9;&#9;c2.9,5.5,8.2,8.8,14.1,8.8c5.3,0,10.2-2.6,13.8-6.7c1.7,0.7,3.6,1.1,5.7,1.1c0.4,0,0.9,0,1.4,0c7.6-0.5,11.4-4.9,12.7-9.2&#10;&#9;&#9;&#9;c3-0.6,5.6-2.6,7-5.2c1.2,1.5,2.5,3.4,4,5.4c4.1,5.6,9.7,13.2,18.3,23.2c18.5,21.5,53.8,44.5,97.2,44.5c14.5,0,29.1-2.5,43.6-7.6&#10;&#9;&#9;&#9;c5.2-1.8,7.9-7.4,6.2-12.6c-1.7-5.2-7.3-8-12.5-6.4c-0.1,0-8.5,2.7-21.1,2.7c-16.3,0-40.5-4.4-63.4-25.6&#10;&#9;&#9;&#9;c-23.5-21.6-36.6-49.1-36-75.4c0.5-20.9,9.8-39.5,27-53.8c10.5-8.7,22.3-13.2,35.3-13.2c20.2,0,37.6,10.9,45.9,21.7&#10;&#9;&#9;&#9;c5.2,6.8,7.2,13.6,5.8,19.2c-3.9,14.7-12.9,23.8-23.6,23.8c-6.6,0-13.4-3.5-19.3-9.8c-4.6-4.9-6.5-9.7-5.8-14.8&#10;&#9;&#9;&#9;c1.1-9,10-17.5,13.8-19.9c3.7-2.3,5.3-6.8,4.2-11c-1.1-4.2-4.9-7.2-9.3-7.4c0,0-0.2,0-0.5,0c-15,0-42.2,10.4-48.6,49.4&#10;&#9;&#9;&#9;c-2.6,15.7,2.7,32.2,14.9,46.5c15.6,18.4,39.1,29.4,62.8,29.4c17,0,33.4-5.8,47.3-16.7C1245.1,740.7,1260,705.5,1256.2,670.5z" style="fill: rgb(255, 255, 255);" transform="matrix(0.9170771837234497, 0, 0, 0.9170771837234497, -481.1832129355957, -258.2716221409831)"/><g transform="matrix(0.9170779585838319, 0, 0, 0.9170779585838319, -481.6214758750488, -260.022827585319)">
				<path class="st3" d="M1151.1,832.3c-39.5,0-71.6-20.9-88.5-40.5c-8.3-9.7-13.8-17.1-17.7-22.5c-6.1-8.3-9.2-12.5-14.6-14&#10;&#9;&#9;&#9;&#9;&#9;c-0.8-0.2-1.6-0.3-2.3-0.3c-1.8,0-3.3,0.7-4.5,1.9c-1.3,1.4-1.9,3.4-2.1,5.2c-6.5-9.8-2.4-23.5-2.4-23.7c0.2-0.6,0-1.2-0.4-1.6&#10;&#9;&#9;&#9;&#9;&#9;c-0.3-0.2-0.6-0.4-1-0.4c-0.2,0-0.4,0-0.6,0.1c-17.6,7.8-17.7,20.4-17.8,29.6c0,1.2,0,2.3-0.1,3.4c-0.2,5.5-4.4,9.6-8,9.6&#10;&#9;&#9;&#9;&#9;&#9;c-1.7,0-3-0.9-4-2.7c-3.5-6.6-2.3-11,11.7-25.2c13.5-13.7,18.5-28.9,21.7-43.2c0.8-3.7,0.7-6.1-0.5-7.5c-0.5-0.6-1.4-1.3-3-1.3&#10;&#9;&#9;&#9;&#9;&#9;c-2.9,0-7.3,2.6-13.2,7.6c-2.1,1.8-4.5,2.8-7.2,2.8c-1.7,0-3.3-0.4-4.5-0.8c5.6-3.4,9.4-6.4,25.4-41.9&#10;&#9;&#9;&#9;&#9;&#9;c13.1-29.1,62.8-83.5,123.5-83.5c15.2,0,30.2,3.5,44.4,10.4c34.6,16.8,55.7,44.4,59.2,77.8c3.3,31.1-9.8,62.3-34.4,81.6&#10;&#9;&#9;&#9;&#9;&#9;c-11.9,9.3-25.8,14.3-40.2,14.3c-20.1,0-40.7-9.7-54-25.3c-9.9-11.7-14.3-24.9-12.3-37.2c5-30.4,23.3-37.6,32.4-39.2&#10;&#9;&#9;&#9;&#9;&#9;c-5.6,4.9-13.4,13.9-14.8,24.9c-1.1,8.5,1.9,16.6,8.8,24.1c8.1,8.7,17.9,13.4,27.7,13.4c16.1,0,29.5-12.4,34.8-32.3&#10;&#9;&#9;&#9;&#9;&#9;c2.4-9.1-0.3-19.5-7.8-29.2c-12.3-15.9-33.9-26.2-55-26.2c-15.5,0-30.3,5.5-42.7,15.8c-19.8,16.5-30.5,38-31.1,62.3&#10;&#9;&#9;&#9;&#9;&#9;c-0.7,29.6,13.8,60.3,39.7,84.2c24.7,22.8,50.9,28.2,69.1,28.6C1160.4,832,1155.7,832.3,1151.1,832.3&#10;&#9;&#9;&#9;&#9;&#9;C1151.1,832.3,1151.1,832.3,1151.1,832.3z" style="fill: rgb(48, 207, 255); stroke-opacity: 1;"/>
				<path class="st4" d="M1141.1,585C1141.1,585,1141.1,585,1141.1,585c15,0,29.7,3.5,43.8,10.3c17.7,8.6,31.9,20.1,42,34.1&#10;&#9;&#9;&#9;&#9;&#9;c9.1,12.6,14.8,27.3,16.4,42.6c3.3,30.6-9.7,61.3-33.8,80.2c-11.8,9.3-25,13.9-39.3,13.9c-19.6,0-39.9-9.5-52.9-24.8&#10;&#9;&#9;&#9;&#9;&#9;c-9.7-11.4-13.9-24.2-12-36c2.6-15.9,9.2-27.2,19.5-33.5c2.1-1.3,4.2-2.2,6.1-3c-4.9,5.3-9.9,12.9-11,21.7&#10;&#9;&#9;&#9;&#9;&#9;c-1.1,9,2,17.5,9.2,25.3c8.4,9,18.6,13.9,28.8,13.9c16.9,0,30.7-12.8,36.2-33.4c2.5-9.6-0.3-20.4-8-30.5&#10;&#9;&#9;&#9;&#9;&#9;c-12.5-16.3-34.6-26.8-56.2-26.8c-15.9,0-30.9,5.6-43.6,16.2c-20.1,16.8-31,38.7-31.6,63.4c-0.7,30.1,13.9,61.2,40.2,85.3&#10;&#9;&#9;&#9;&#9;&#9;c17.2,15.8,35.1,23.4,50.6,26.7c-36.5-1.8-66-21.4-81.9-39.8c-8.3-9.6-13.7-17-17.7-22.4c-6.1-8.4-9.5-13-15.5-14.5&#10;&#9;&#9;&#9;&#9;&#9;c-1-0.2-1.9-0.4-2.7-0.4c-2.2,0-4.2,0.8-5.6,2.4c-0.6,0.7-1.1,1.4-1.4,2.2c-3.6-8.7-0.5-19.1-0.5-19.2c0.3-1.1,0-2.3-0.9-3.1&#10;&#9;&#9;&#9;&#9;&#9;c-0.6-0.5-1.3-0.8-2-0.8c-0.4,0-0.8,0.1-1.2,0.3c-1.9,0.9-3.7,1.8-5.2,2.7c5.8-9.7,8.7-19.8,10.9-29.4c1-4.2,0.7-7-0.8-8.8&#10;&#9;&#9;&#9;&#9;&#9;c-1-1.2-2.5-1.9-4.2-1.9c-1.2,0-4.9,0-14.1,8c-1.9,1.6-3.9,2.4-6.2,2.4c-0.2,0-0.5,0-0.7,0c4.7-3.7,9.5-10.7,23-40.6&#10;&#9;&#9;&#9;&#9;&#9;c6.1-13.7,21.1-34.8,44.6-53.1C1080.9,601.1,1108.5,585,1141.1,585 M998.9,753.4c-1.3,4.6-1.3,9.1-1.4,12.8c0,1.2,0,2.3-0.1,3.3&#10;&#9;&#9;&#9;&#9;&#9;c-0.2,5-4,8.2-6.5,8.2c-0.4,0-1.6,0-2.6-1.9C985.5,770.5,985.6,767,998.9,753.4 M1141.2,582c-59.6,0-110.5,52.3-124.9,84.4&#10;&#9;&#9;&#9;&#9;&#9;c-18,39.9-20.2,38.1-27.1,42.7c0,0,3.3,2.1,7.6,2.1c2.5,0,5.4-0.7,8.2-3.1c4.3-3.7,9.3-7.2,12.2-7.2c2.1,0,3.2,1.9,2,7&#10;&#9;&#9;&#9;&#9;&#9;c-2.8,12.2-7.2,28.1-21.3,42.5c-14.2,14.4-16,19.4-12,26.9c1.3,2.4,3.2,3.5,5.3,3.5c4.3,0,9.2-4.7,9.5-11.1&#10;&#9;&#9;&#9;&#9;&#9;c0.4-9.4-2-23.3,17-31.7c0,0-5.4,17.8,5.2,28.1c0,0-1-9.7,5.2-9.7c0.6,0,1.2,0.1,2,0.3c8.4,2.2,11,12.1,31.6,36&#10;&#9;&#9;&#9;&#9;&#9;c15.8,18.4,48,41,89.7,41c12.6,0,26.1-2.1,40.3-7c0,0-9.6,3.2-24.2,3.2c-18.5,0-45.1-5.1-70.2-28.2&#10;&#9;&#9;&#9;&#9;&#9;c-44.9-41.3-55.9-104.8-8.7-144.2c13.2-11,27.8-15.5,41.7-15.5c35.9,0,67.7,29.6,61.3,53.5c-5.4,20.4-18.8,31.2-33.3,31.2&#10;&#9;&#9;&#9;&#9;&#9;c-9,0-18.5-4.2-26.6-13c-21.2-22.7,2.4-45.2,9.9-50c0,0-0.1,0-0.2,0c-2.4,0-32.1,0.8-38.7,41c-5.1,30.8,29.4,64.3,67.8,64.3&#10;&#9;&#9;&#9;&#9;&#9;c13.8,0,28-4.3,41.2-14.6c49.7-38.9,52.3-124.4-25.1-161.9C1171,585.2,1155.8,582,1141.2,582L1141.2,582z" style="fill: rgb(48, 207, 255);"/>
			</g><path class="st5" d="M992.6,736.7c-2-0.1-3.6-1.5-4.2-3.7c-0.6-2.1-0.2-5.4,3-7.7c3-2.2,7.2-2.9,10.3-3.1&#10;&#9;&#9;&#9;&#9;&#9;c-2.3,2.3-3.7,5.6-4.9,8.5c-1.3,3.1-2.5,5.9-4.1,5.9L992.6,736.7z" style="fill: rgb(28, 117, 188);" transform="matrix(0.9170775413513184, 0, 0, 0.9170775413513184, -482.4964758750488, -260.89788862047527)"/><path class="st6" d="M998.3,724.1c-1.2,2-2.1,4.1-2.9,6c-0.7,1.8-2,4.7-2.7,5c-2-0.1-2.7-2-2.9-2.6c-0.5-1.7-0.1-4.2,2.4-6.1&#10;&#9;&#9;&#9;&#9;&#9;C994,725.3,996.2,724.5,998.3,724.1 M1003.9,720.6c-3.6,0-9.3,0.5-13.4,3.5c-6.4,4.6-4.2,13.6,1.9,14.1c0.1,0,0.2,0,0.2,0&#10;&#9;&#9;&#9;&#9;&#9;c5.9,0,5.3-15.9,14.7-17.4C1007.4,720.8,1006,720.6,1003.9,720.6L1003.9,720.6z" style="fill: rgb(20, 96, 147);" transform="matrix(0.9170775413513184, 0, 0, 0.9170775413513184, -482.4964758750488, -260.89788862047527)"/><path class="st2" d="M1009.3,769c1.3,1,2.3,2.2,2.7,2.9c-0.2,0.1-0.6,0.1-1,0.2c-0.1,0-0.3,0-0.4,0c-0.5,0-1-0.1-1.1-0.3&#10;&#9;&#9;&#9;&#9;&#9;C1009.1,771.4,1009.1,770.3,1009.3,769 M1007.4,764.8c0,0-4.4,10.3,3.1,10.3c0.2,0,0.4,0,0.6,0&#10;&#9;&#9;&#9;&#9;&#9;C1019.5,774.5,1012.8,766.1,1007.4,764.8L1007.4,764.8z" style="fill: rgb(142, 205, 221);" transform="matrix(0.9170775413513184, 0, 0, 0.9170775413513184, -482.4964758750488, -260.89788862047527)"/><path class="st0" d="M1259.7,674c-4-36.9-27.9-68.6-65.7-86.9c-15.8-7.7-32.5-11.6-49.4-11.6c0,0,0,0,0,0&#10;&#9;&#9;c-36.4,0-66.6,17.6-85.5,32.3c-21.3,16.5-39.8,38.8-48.5,58c-14.9,33.2-17.7,34.9-21.3,37.1c-0.7,0.4-1.4,0.9-2.2,1.4&#10;&#9;&#9;c-2.8,1.9-4.5,5-4.5,8.4c0,3.2,1.6,6.1,4.1,8c-5.5,4.8-7.9,12.1-5.9,19c1.5,5.1,5,9.1,9.7,10.9c-10.9,11.5-17.2,21.4-10.1,34.9&#10;&#9;&#9;c2.9,5.5,8.2,8.8,14.1,8.8c5.3,0,10.2-2.6,13.8-6.7c1.7,0.7,3.6,1.1,5.7,1.1c0.4,0,0.9,0,1.4,0c7.6-0.5,11.4-4.9,12.7-9.2&#10;&#9;&#9;c3-0.6,5.6-2.6,7-5.2c1.2,1.5,2.5,3.4,4,5.4c4.1,5.6,9.7,13.2,18.3,23.2c18.5,21.5,53.8,44.5,97.2,44.5c14.5,0,29.1-2.5,43.6-7.6&#10;&#9;&#9;c5.2-1.8,7.9-7.4,6.2-12.6s-7.3-8-12.5-6.4c-0.1,0-8.5,2.7-21.1,2.7c-16.3,0-40.5-4.4-63.4-25.6c-23.5-21.6-36.6-49.1-36-75.4&#10;&#9;&#9;c0.5-20.9,9.8-39.5,27-53.8c10.5-8.7,22.3-13.2,35.3-13.2c20.2,0,37.6,10.9,45.9,21.7c5.2,6.8,7.2,13.6,5.8,19.2&#10;&#9;&#9;c-3.9,14.7-12.9,23.8-23.6,23.8c-6.6,0-13.4-3.5-19.3-9.8c-4.6-4.9-6.5-9.7-5.8-14.8c1.1-9,10-17.5,13.8-19.9&#10;&#9;&#9;c3.7-2.3,5.3-6.8,4.2-11c-1.1-4.2-4.9-7.2-9.3-7.4c0,0-0.2,0-0.5,0c-15,0-42.2,10.4-48.6,49.4c-2.6,15.7,2.7,32.2,14.9,46.5&#10;&#9;&#9;c15.6,18.4,39.1,29.4,62.8,29.4c17,0,33.4-5.8,47.3-16.7C1248.6,744.2,1263.4,709,1259.7,674z" style="opacity: 0.25; fill: rgb(20, 96, 147);" transform="matrix(0.5597801208496094, 0, 0, 0.5597801208496094, 229.2912677558457, 133.98214122413134)"/><path class="st1" d="M1256.2,670.5c-4-36.9-27.9-68.6-65.7-86.9c-15.8-7.7-32.5-11.6-49.4-11.6c0,0,0,0,0,0&#10;&#9;&#9;&#9;c-36.4,0-66.6,17.6-85.5,32.3c-21.3,16.5-39.8,38.8-48.5,58c-14.9,33.2-17.7,34.9-21.3,37.1c-0.7,0.4-1.4,0.9-2.2,1.4&#10;&#9;&#9;&#9;c-2.8,1.9-4.5,5-4.5,8.4c0,3.2,1.6,6.1,4.1,8c-5.5,4.8-7.9,12.1-5.9,19c1.5,5.1,5,9.1,9.7,10.9c-10.9,11.5-17.2,21.4-10.1,34.9&#10;&#9;&#9;&#9;c2.9,5.5,8.2,8.8,14.1,8.8c5.3,0,10.2-2.6,13.8-6.7c1.7,0.7,3.6,1.1,5.7,1.1c0.4,0,0.9,0,1.4,0c7.6-0.5,11.4-4.9,12.7-9.2&#10;&#9;&#9;&#9;c3-0.6,5.6-2.6,7-5.2c1.2,1.5,2.5,3.4,4,5.4c4.1,5.6,9.7,13.2,18.3,23.2c18.5,21.5,53.8,44.5,97.2,44.5c14.5,0,29.1-2.5,43.6-7.6&#10;&#9;&#9;&#9;c5.2-1.8,7.9-7.4,6.2-12.6c-1.7-5.2-7.3-8-12.5-6.4c-0.1,0-8.5,2.7-21.1,2.7c-16.3,0-40.5-4.4-63.4-25.6&#10;&#9;&#9;&#9;c-23.5-21.6-36.6-49.1-36-75.4c0.5-20.9,9.8-39.5,27-53.8c10.5-8.7,22.3-13.2,35.3-13.2c20.2,0,37.6,10.9,45.9,21.7&#10;&#9;&#9;&#9;c5.2,6.8,7.2,13.6,5.8,19.2c-3.9,14.7-12.9,23.8-23.6,23.8c-6.6,0-13.4-3.5-19.3-9.8c-4.6-4.9-6.5-9.7-5.8-14.8&#10;&#9;&#9;&#9;c1.1-9,10-17.5,13.8-19.9c3.7-2.3,5.3-6.8,4.2-11c-1.1-4.2-4.9-7.2-9.3-7.4c0,0-0.2,0-0.5,0c-15,0-42.2,10.4-48.6,49.4&#10;&#9;&#9;&#9;c-2.6,15.7,2.7,32.2,14.9,46.5c15.6,18.4,39.1,29.4,62.8,29.4c17,0,33.4-5.8,47.3-16.7C1245.1,740.7,1260,705.5,1256.2,670.5z" style="fill: rgb(255, 255, 255);" transform="matrix(0.5597805380821228, 0, 0, 0.5597805380821228, 230.09236944041612, 135.58464976905327)"/><g transform="matrix(0.5597805976867676, 0, 0, 0.5597805976867676, 229.82509649119737, 134.51589366553765)">
				<path class="st3" d="M1151.1,832.3c-39.5,0-71.6-20.9-88.5-40.5c-8.3-9.7-13.8-17.1-17.7-22.5c-6.1-8.3-9.2-12.5-14.6-14&#10;&#9;&#9;&#9;&#9;&#9;c-0.8-0.2-1.6-0.3-2.3-0.3c-1.8,0-3.3,0.7-4.5,1.9c-1.3,1.4-1.9,3.4-2.1,5.2c-6.5-9.8-2.4-23.5-2.4-23.7c0.2-0.6,0-1.2-0.4-1.6&#10;&#9;&#9;&#9;&#9;&#9;c-0.3-0.2-0.6-0.4-1-0.4c-0.2,0-0.4,0-0.6,0.1c-17.6,7.8-17.7,20.4-17.8,29.6c0,1.2,0,2.3-0.1,3.4c-0.2,5.5-4.4,9.6-8,9.6&#10;&#9;&#9;&#9;&#9;&#9;c-1.7,0-3-0.9-4-2.7c-3.5-6.6-2.3-11,11.7-25.2c13.5-13.7,18.5-28.9,21.7-43.2c0.8-3.7,0.7-6.1-0.5-7.5c-0.5-0.6-1.4-1.3-3-1.3&#10;&#9;&#9;&#9;&#9;&#9;c-2.9,0-7.3,2.6-13.2,7.6c-2.1,1.8-4.5,2.8-7.2,2.8c-1.7,0-3.3-0.4-4.5-0.8c5.6-3.4,9.4-6.4,25.4-41.9&#10;&#9;&#9;&#9;&#9;&#9;c13.1-29.1,62.8-83.5,123.5-83.5c15.2,0,30.2,3.5,44.4,10.4c34.6,16.8,55.7,44.4,59.2,77.8c3.3,31.1-9.8,62.3-34.4,81.6&#10;&#9;&#9;&#9;&#9;&#9;c-11.9,9.3-25.8,14.3-40.2,14.3c-20.1,0-40.7-9.7-54-25.3c-9.9-11.7-14.3-24.9-12.3-37.2c5-30.4,23.3-37.6,32.4-39.2&#10;&#9;&#9;&#9;&#9;&#9;c-5.6,4.9-13.4,13.9-14.8,24.9c-1.1,8.5,1.9,16.6,8.8,24.1c8.1,8.7,17.9,13.4,27.7,13.4c16.1,0,29.5-12.4,34.8-32.3&#10;&#9;&#9;&#9;&#9;&#9;c2.4-9.1-0.3-19.5-7.8-29.2c-12.3-15.9-33.9-26.2-55-26.2c-15.5,0-30.3,5.5-42.7,15.8c-19.8,16.5-30.5,38-31.1,62.3&#10;&#9;&#9;&#9;&#9;&#9;c-0.7,29.6,13.8,60.3,39.7,84.2c24.7,22.8,50.9,28.2,69.1,28.6C1160.4,832,1155.7,832.3,1151.1,832.3&#10;&#9;&#9;&#9;&#9;&#9;C1151.1,832.3,1151.1,832.3,1151.1,832.3z" style="fill: rgb(48, 207, 255); stroke-opacity: 1;"/>
				<path class="st4" d="M1141.1,585C1141.1,585,1141.1,585,1141.1,585c15,0,29.7,3.5,43.8,10.3c17.7,8.6,31.9,20.1,42,34.1&#10;&#9;&#9;&#9;&#9;&#9;c9.1,12.6,14.8,27.3,16.4,42.6c3.3,30.6-9.7,61.3-33.8,80.2c-11.8,9.3-25,13.9-39.3,13.9c-19.6,0-39.9-9.5-52.9-24.8&#10;&#9;&#9;&#9;&#9;&#9;c-9.7-11.4-13.9-24.2-12-36c2.6-15.9,9.2-27.2,19.5-33.5c2.1-1.3,4.2-2.2,6.1-3c-4.9,5.3-9.9,12.9-11,21.7&#10;&#9;&#9;&#9;&#9;&#9;c-1.1,9,2,17.5,9.2,25.3c8.4,9,18.6,13.9,28.8,13.9c16.9,0,30.7-12.8,36.2-33.4c2.5-9.6-0.3-20.4-8-30.5&#10;&#9;&#9;&#9;&#9;&#9;c-12.5-16.3-34.6-26.8-56.2-26.8c-15.9,0-30.9,5.6-43.6,16.2c-20.1,16.8-31,38.7-31.6,63.4c-0.7,30.1,13.9,61.2,40.2,85.3&#10;&#9;&#9;&#9;&#9;&#9;c17.2,15.8,35.1,23.4,50.6,26.7c-36.5-1.8-66-21.4-81.9-39.8c-8.3-9.6-13.7-17-17.7-22.4c-6.1-8.4-9.5-13-15.5-14.5&#10;&#9;&#9;&#9;&#9;&#9;c-1-0.2-1.9-0.4-2.7-0.4c-2.2,0-4.2,0.8-5.6,2.4c-0.6,0.7-1.1,1.4-1.4,2.2c-3.6-8.7-0.5-19.1-0.5-19.2c0.3-1.1,0-2.3-0.9-3.1&#10;&#9;&#9;&#9;&#9;&#9;c-0.6-0.5-1.3-0.8-2-0.8c-0.4,0-0.8,0.1-1.2,0.3c-1.9,0.9-3.7,1.8-5.2,2.7c5.8-9.7,8.7-19.8,10.9-29.4c1-4.2,0.7-7-0.8-8.8&#10;&#9;&#9;&#9;&#9;&#9;c-1-1.2-2.5-1.9-4.2-1.9c-1.2,0-4.9,0-14.1,8c-1.9,1.6-3.9,2.4-6.2,2.4c-0.2,0-0.5,0-0.7,0c4.7-3.7,9.5-10.7,23-40.6&#10;&#9;&#9;&#9;&#9;&#9;c6.1-13.7,21.1-34.8,44.6-53.1C1080.9,601.1,1108.5,585,1141.1,585 M998.9,753.4c-1.3,4.6-1.3,9.1-1.4,12.8c0,1.2,0,2.3-0.1,3.3&#10;&#9;&#9;&#9;&#9;&#9;c-0.2,5-4,8.2-6.5,8.2c-0.4,0-1.6,0-2.6-1.9C985.5,770.5,985.6,767,998.9,753.4 M1141.2,582c-59.6,0-110.5,52.3-124.9,84.4&#10;&#9;&#9;&#9;&#9;&#9;c-18,39.9-20.2,38.1-27.1,42.7c0,0,3.3,2.1,7.6,2.1c2.5,0,5.4-0.7,8.2-3.1c4.3-3.7,9.3-7.2,12.2-7.2c2.1,0,3.2,1.9,2,7&#10;&#9;&#9;&#9;&#9;&#9;c-2.8,12.2-7.2,28.1-21.3,42.5c-14.2,14.4-16,19.4-12,26.9c1.3,2.4,3.2,3.5,5.3,3.5c4.3,0,9.2-4.7,9.5-11.1&#10;&#9;&#9;&#9;&#9;&#9;c0.4-9.4-2-23.3,17-31.7c0,0-5.4,17.8,5.2,28.1c0,0-1-9.7,5.2-9.7c0.6,0,1.2,0.1,2,0.3c8.4,2.2,11,12.1,31.6,36&#10;&#9;&#9;&#9;&#9;&#9;c15.8,18.4,48,41,89.7,41c12.6,0,26.1-2.1,40.3-7c0,0-9.6,3.2-24.2,3.2c-18.5,0-45.1-5.1-70.2-28.2&#10;&#9;&#9;&#9;&#9;&#9;c-44.9-41.3-55.9-104.8-8.7-144.2c13.2-11,27.8-15.5,41.7-15.5c35.9,0,67.7,29.6,61.3,53.5c-5.4,20.4-18.8,31.2-33.3,31.2&#10;&#9;&#9;&#9;&#9;&#9;c-9,0-18.5-4.2-26.6-13c-21.2-22.7,2.4-45.2,9.9-50c0,0-0.1,0-0.2,0c-2.4,0-32.1,0.8-38.7,41c-5.1,30.8,29.4,64.3,67.8,64.3&#10;&#9;&#9;&#9;&#9;&#9;c13.8,0,28-4.3,41.2-14.6c49.7-38.9,52.3-124.4-25.1-161.9C1171,585.2,1155.8,582,1141.2,582L1141.2,582z" style="fill: rgb(48, 207, 255);"/>
			</g><path class="st5" d="M992.6,736.7c-2-0.1-3.6-1.5-4.2-3.7c-0.6-2.1-0.2-5.4,3-7.7c3-2.2,7.2-2.9,10.3-3.1&#10;&#9;&#9;&#9;&#9;&#9;c-2.3,2.3-3.7,5.6-4.9,8.5c-1.3,3.1-2.5,5.9-4.1,5.9L992.6,736.7z" style="fill: rgb(28, 117, 188);" transform="matrix(0.5597801208496094, 0, 0, 0.5597801208496094, 229.2912677558457, 133.98214122413134)"/><path class="st6" d="M998.3,724.1c-1.2,2-2.1,4.1-2.9,6c-0.7,1.8-2,4.7-2.7,5c-2-0.1-2.7-2-2.9-2.6c-0.5-1.7-0.1-4.2,2.4-6.1&#10;&#9;&#9;&#9;&#9;&#9;C994,725.3,996.2,724.5,998.3,724.1 M1003.9,720.6c-3.6,0-9.3,0.5-13.4,3.5c-6.4,4.6-4.2,13.6,1.9,14.1c0.1,0,0.2,0,0.2,0&#10;&#9;&#9;&#9;&#9;&#9;c5.9,0,5.3-15.9,14.7-17.4C1007.4,720.8,1006,720.6,1003.9,720.6L1003.9,720.6z" style="fill: rgb(20, 96, 147);" transform="matrix(0.5597801208496094, 0, 0, 0.5597801208496094, 229.2912677558457, 133.98214122413134)"/><path class="st2" d="M1009.3,769c1.3,1,2.3,2.2,2.7,2.9c-0.2,0.1-0.6,0.1-1,0.2c-0.1,0-0.3,0-0.4,0c-0.5,0-1-0.1-1.1-0.3&#10;&#9;&#9;&#9;&#9;&#9;C1009.1,771.4,1009.1,770.3,1009.3,769 M1007.4,764.8c0,0-4.4,10.3,3.1,10.3c0.2,0,0.4,0,0.6,0&#10;&#9;&#9;&#9;&#9;&#9;C1019.5,774.5,1012.8,766.1,1007.4,764.8L1007.4,764.8z" style="fill: rgb(142, 205, 221);" transform="matrix(0.5597801208496094, 0, 0, 0.5597801208496094, 229.2912677558457, 133.98214122413134)"/><path class="st0" d="M1259.7,674c-4-36.9-27.9-68.6-65.7-86.9c-15.8-7.7-32.5-11.6-49.4-11.6c0,0,0,0,0,0&#10;&#9;&#9;c-36.4,0-66.6,17.6-85.5,32.3c-21.3,16.5-39.8,38.8-48.5,58c-14.9,33.2-17.7,34.9-21.3,37.1c-0.7,0.4-1.4,0.9-2.2,1.4&#10;&#9;&#9;c-2.8,1.9-4.5,5-4.5,8.4c0,3.2,1.6,6.1,4.1,8c-5.5,4.8-7.9,12.1-5.9,19c1.5,5.1,5,9.1,9.7,10.9c-10.9,11.5-17.2,21.4-10.1,34.9&#10;&#9;&#9;c2.9,5.5,8.2,8.8,14.1,8.8c5.3,0,10.2-2.6,13.8-6.7c1.7,0.7,3.6,1.1,5.7,1.1c0.4,0,0.9,0,1.4,0c7.6-0.5,11.4-4.9,12.7-9.2&#10;&#9;&#9;c3-0.6,5.6-2.6,7-5.2c1.2,1.5,2.5,3.4,4,5.4c4.1,5.6,9.7,13.2,18.3,23.2c18.5,21.5,53.8,44.5,97.2,44.5c14.5,0,29.1-2.5,43.6-7.6&#10;&#9;&#9;c5.2-1.8,7.9-7.4,6.2-12.6s-7.3-8-12.5-6.4c-0.1,0-8.5,2.7-21.1,2.7c-16.3,0-40.5-4.4-63.4-25.6c-23.5-21.6-36.6-49.1-36-75.4&#10;&#9;&#9;c0.5-20.9,9.8-39.5,27-53.8c10.5-8.7,22.3-13.2,35.3-13.2c20.2,0,37.6,10.9,45.9,21.7c5.2,6.8,7.2,13.6,5.8,19.2&#10;&#9;&#9;c-3.9,14.7-12.9,23.8-23.6,23.8c-6.6,0-13.4-3.5-19.3-9.8c-4.6-4.9-6.5-9.7-5.8-14.8c1.1-9,10-17.5,13.8-19.9&#10;&#9;&#9;c3.7-2.3,5.3-6.8,4.2-11c-1.1-4.2-4.9-7.2-9.3-7.4c0,0-0.2,0-0.5,0c-15,0-42.2,10.4-48.6,49.4c-2.6,15.7,2.7,32.2,14.9,46.5&#10;&#9;&#9;c15.6,18.4,39.1,29.4,62.8,29.4c17,0,33.4-5.8,47.3-16.7C1248.6,744.2,1263.4,709,1259.7,674z" style="opacity: 0.25; fill: rgb(20, 96, 147);" transform="matrix(0.44742602109909063, 0, 0, 0.44742602109909063, -362.15756425341453, 208.72301147438412)"/><path class="st1" d="M1256.2,670.5c-4-36.9-27.9-68.6-65.7-86.9c-15.8-7.7-32.5-11.6-49.4-11.6c0,0,0,0,0,0&#10;&#9;&#9;&#9;c-36.4,0-66.6,17.6-85.5,32.3c-21.3,16.5-39.8,38.8-48.5,58c-14.9,33.2-17.7,34.9-21.3,37.1c-0.7,0.4-1.4,0.9-2.2,1.4&#10;&#9;&#9;&#9;c-2.8,1.9-4.5,5-4.5,8.4c0,3.2,1.6,6.1,4.1,8c-5.5,4.8-7.9,12.1-5.9,19c1.5,5.1,5,9.1,9.7,10.9c-10.9,11.5-17.2,21.4-10.1,34.9&#10;&#9;&#9;&#9;c2.9,5.5,8.2,8.8,14.1,8.8c5.3,0,10.2-2.6,13.8-6.7c1.7,0.7,3.6,1.1,5.7,1.1c0.4,0,0.9,0,1.4,0c7.6-0.5,11.4-4.9,12.7-9.2&#10;&#9;&#9;&#9;c3-0.6,5.6-2.6,7-5.2c1.2,1.5,2.5,3.4,4,5.4c4.1,5.6,9.7,13.2,18.3,23.2c18.5,21.5,53.8,44.5,97.2,44.5c14.5,0,29.1-2.5,43.6-7.6&#10;&#9;&#9;&#9;c5.2-1.8,7.9-7.4,6.2-12.6c-1.7-5.2-7.3-8-12.5-6.4c-0.1,0-8.5,2.7-21.1,2.7c-16.3,0-40.5-4.4-63.4-25.6&#10;&#9;&#9;&#9;c-23.5-21.6-36.6-49.1-36-75.4c0.5-20.9,9.8-39.5,27-53.8c10.5-8.7,22.3-13.2,35.3-13.2c20.2,0,37.6,10.9,45.9,21.7&#10;&#9;&#9;&#9;c5.2,6.8,7.2,13.6,5.8,19.2c-3.9,14.7-12.9,23.8-23.6,23.8c-6.6,0-13.4-3.5-19.3-9.8c-4.6-4.9-6.5-9.7-5.8-14.8&#10;&#9;&#9;&#9;c1.1-9,10-17.5,13.8-19.9c3.7-2.3,5.3-6.8,4.2-11c-1.1-4.2-4.9-7.2-9.3-7.4c0,0-0.2,0-0.5,0c-15,0-42.2,10.4-48.6,49.4&#10;&#9;&#9;&#9;c-2.6,15.7,2.7,32.2,14.9,46.5c15.6,18.4,39.1,29.4,62.8,29.4c17,0,33.4-5.8,47.3-16.7C1245.1,740.7,1260,705.5,1256.2,670.5z" style="fill: rgb(255, 255, 255);" transform="matrix(0.44742602109909063, 0, 0, 0.44742602109909063, -361.5170002885708, 210.00416992164975)"/><g transform="matrix(0.4474263787269592, 0, 0, 0.4474263787269592, -361.7308674760708, 209.14973876930594)">
				<path class="st3" d="M1151.1,832.3c-39.5,0-71.6-20.9-88.5-40.5c-8.3-9.7-13.8-17.1-17.7-22.5c-6.1-8.3-9.2-12.5-14.6-14&#10;&#9;&#9;&#9;&#9;&#9;c-0.8-0.2-1.6-0.3-2.3-0.3c-1.8,0-3.3,0.7-4.5,1.9c-1.3,1.4-1.9,3.4-2.1,5.2c-6.5-9.8-2.4-23.5-2.4-23.7c0.2-0.6,0-1.2-0.4-1.6&#10;&#9;&#9;&#9;&#9;&#9;c-0.3-0.2-0.6-0.4-1-0.4c-0.2,0-0.4,0-0.6,0.1c-17.6,7.8-17.7,20.4-17.8,29.6c0,1.2,0,2.3-0.1,3.4c-0.2,5.5-4.4,9.6-8,9.6&#10;&#9;&#9;&#9;&#9;&#9;c-1.7,0-3-0.9-4-2.7c-3.5-6.6-2.3-11,11.7-25.2c13.5-13.7,18.5-28.9,21.7-43.2c0.8-3.7,0.7-6.1-0.5-7.5c-0.5-0.6-1.4-1.3-3-1.3&#10;&#9;&#9;&#9;&#9;&#9;c-2.9,0-7.3,2.6-13.2,7.6c-2.1,1.8-4.5,2.8-7.2,2.8c-1.7,0-3.3-0.4-4.5-0.8c5.6-3.4,9.4-6.4,25.4-41.9&#10;&#9;&#9;&#9;&#9;&#9;c13.1-29.1,62.8-83.5,123.5-83.5c15.2,0,30.2,3.5,44.4,10.4c34.6,16.8,55.7,44.4,59.2,77.8c3.3,31.1-9.8,62.3-34.4,81.6&#10;&#9;&#9;&#9;&#9;&#9;c-11.9,9.3-25.8,14.3-40.2,14.3c-20.1,0-40.7-9.7-54-25.3c-9.9-11.7-14.3-24.9-12.3-37.2c5-30.4,23.3-37.6,32.4-39.2&#10;&#9;&#9;&#9;&#9;&#9;c-5.6,4.9-13.4,13.9-14.8,24.9c-1.1,8.5,1.9,16.6,8.8,24.1c8.1,8.7,17.9,13.4,27.7,13.4c16.1,0,29.5-12.4,34.8-32.3&#10;&#9;&#9;&#9;&#9;&#9;c2.4-9.1-0.3-19.5-7.8-29.2c-12.3-15.9-33.9-26.2-55-26.2c-15.5,0-30.3,5.5-42.7,15.8c-19.8,16.5-30.5,38-31.1,62.3&#10;&#9;&#9;&#9;&#9;&#9;c-0.7,29.6,13.8,60.3,39.7,84.2c24.7,22.8,50.9,28.2,69.1,28.6C1160.4,832,1155.7,832.3,1151.1,832.3&#10;&#9;&#9;&#9;&#9;&#9;C1151.1,832.3,1151.1,832.3,1151.1,832.3z" style="fill: rgb(48, 207, 255); stroke-opacity: 1;"/>
				<path class="st4" d="M1141.1,585C1141.1,585,1141.1,585,1141.1,585c15,0,29.7,3.5,43.8,10.3c17.7,8.6,31.9,20.1,42,34.1&#10;&#9;&#9;&#9;&#9;&#9;c9.1,12.6,14.8,27.3,16.4,42.6c3.3,30.6-9.7,61.3-33.8,80.2c-11.8,9.3-25,13.9-39.3,13.9c-19.6,0-39.9-9.5-52.9-24.8&#10;&#9;&#9;&#9;&#9;&#9;c-9.7-11.4-13.9-24.2-12-36c2.6-15.9,9.2-27.2,19.5-33.5c2.1-1.3,4.2-2.2,6.1-3c-4.9,5.3-9.9,12.9-11,21.7&#10;&#9;&#9;&#9;&#9;&#9;c-1.1,9,2,17.5,9.2,25.3c8.4,9,18.6,13.9,28.8,13.9c16.9,0,30.7-12.8,36.2-33.4c2.5-9.6-0.3-20.4-8-30.5&#10;&#9;&#9;&#9;&#9;&#9;c-12.5-16.3-34.6-26.8-56.2-26.8c-15.9,0-30.9,5.6-43.6,16.2c-20.1,16.8-31,38.7-31.6,63.4c-0.7,30.1,13.9,61.2,40.2,85.3&#10;&#9;&#9;&#9;&#9;&#9;c17.2,15.8,35.1,23.4,50.6,26.7c-36.5-1.8-66-21.4-81.9-39.8c-8.3-9.6-13.7-17-17.7-22.4c-6.1-8.4-9.5-13-15.5-14.5&#10;&#9;&#9;&#9;&#9;&#9;c-1-0.2-1.9-0.4-2.7-0.4c-2.2,0-4.2,0.8-5.6,2.4c-0.6,0.7-1.1,1.4-1.4,2.2c-3.6-8.7-0.5-19.1-0.5-19.2c0.3-1.1,0-2.3-0.9-3.1&#10;&#9;&#9;&#9;&#9;&#9;c-0.6-0.5-1.3-0.8-2-0.8c-0.4,0-0.8,0.1-1.2,0.3c-1.9,0.9-3.7,1.8-5.2,2.7c5.8-9.7,8.7-19.8,10.9-29.4c1-4.2,0.7-7-0.8-8.8&#10;&#9;&#9;&#9;&#9;&#9;c-1-1.2-2.5-1.9-4.2-1.9c-1.2,0-4.9,0-14.1,8c-1.9,1.6-3.9,2.4-6.2,2.4c-0.2,0-0.5,0-0.7,0c4.7-3.7,9.5-10.7,23-40.6&#10;&#9;&#9;&#9;&#9;&#9;c6.1-13.7,21.1-34.8,44.6-53.1C1080.9,601.1,1108.5,585,1141.1,585 M998.9,753.4c-1.3,4.6-1.3,9.1-1.4,12.8c0,1.2,0,2.3-0.1,3.3&#10;&#9;&#9;&#9;&#9;&#9;c-0.2,5-4,8.2-6.5,8.2c-0.4,0-1.6,0-2.6-1.9C985.5,770.5,985.6,767,998.9,753.4 M1141.2,582c-59.6,0-110.5,52.3-124.9,84.4&#10;&#9;&#9;&#9;&#9;&#9;c-18,39.9-20.2,38.1-27.1,42.7c0,0,3.3,2.1,7.6,2.1c2.5,0,5.4-0.7,8.2-3.1c4.3-3.7,9.3-7.2,12.2-7.2c2.1,0,3.2,1.9,2,7&#10;&#9;&#9;&#9;&#9;&#9;c-2.8,12.2-7.2,28.1-21.3,42.5c-14.2,14.4-16,19.4-12,26.9c1.3,2.4,3.2,3.5,5.3,3.5c4.3,0,9.2-4.7,9.5-11.1&#10;&#9;&#9;&#9;&#9;&#9;c0.4-9.4-2-23.3,17-31.7c0,0-5.4,17.8,5.2,28.1c0,0-1-9.7,5.2-9.7c0.6,0,1.2,0.1,2,0.3c8.4,2.2,11,12.1,31.6,36&#10;&#9;&#9;&#9;&#9;&#9;c15.8,18.4,48,41,89.7,41c12.6,0,26.1-2.1,40.3-7c0,0-9.6,3.2-24.2,3.2c-18.5,0-45.1-5.1-70.2-28.2&#10;&#9;&#9;&#9;&#9;&#9;c-44.9-41.3-55.9-104.8-8.7-144.2c13.2-11,27.8-15.5,41.7-15.5c35.9,0,67.7,29.6,61.3,53.5c-5.4,20.4-18.8,31.2-33.3,31.2&#10;&#9;&#9;&#9;&#9;&#9;c-9,0-18.5-4.2-26.6-13c-21.2-22.7,2.4-45.2,9.9-50c0,0-0.1,0-0.2,0c-2.4,0-32.1,0.8-38.7,41c-5.1,30.8,29.4,64.3,67.8,64.3&#10;&#9;&#9;&#9;&#9;&#9;c13.8,0,28-4.3,41.2-14.6c49.7-38.9,52.3-124.4-25.1-161.9C1171,585.2,1155.8,582,1141.2,582L1141.2,582z" style="fill: rgb(48, 207, 255);"/>
			</g><path class="st5" d="M992.6,736.7c-2-0.1-3.6-1.5-4.2-3.7c-0.6-2.1-0.2-5.4,3-7.7c3-2.2,7.2-2.9,10.3-3.1&#10;&#9;&#9;&#9;&#9;&#9;c-2.3,2.3-3.7,5.6-4.9,8.5c-1.3,3.1-2.5,5.9-4.1,5.9L992.6,736.7z" style="fill: rgb(28, 117, 188);" transform="matrix(0.44742602109909063, 0, 0, 0.44742602109909063, -362.15756425341453, 208.72301147438412)"/><path class="st6" d="M998.3,724.1c-1.2,2-2.1,4.1-2.9,6c-0.7,1.8-2,4.7-2.7,5c-2-0.1-2.7-2-2.9-2.6c-0.5-1.7-0.1-4.2,2.4-6.1&#10;&#9;&#9;&#9;&#9;&#9;C994,725.3,996.2,724.5,998.3,724.1 M1003.9,720.6c-3.6,0-9.3,0.5-13.4,3.5c-6.4,4.6-4.2,13.6,1.9,14.1c0.1,0,0.2,0,0.2,0&#10;&#9;&#9;&#9;&#9;&#9;c5.9,0,5.3-15.9,14.7-17.4C1007.4,720.8,1006,720.6,1003.9,720.6L1003.9,720.6z" style="fill: rgb(20, 96, 147);" transform="matrix(0.44742602109909063, 0, 0, 0.44742602109909063, -362.15756425341453, 208.72301147438412)"/><path class="st2" d="M1009.3,769c1.3,1,2.3,2.2,2.7,2.9c-0.2,0.1-0.6,0.1-1,0.2c-0.1,0-0.3,0-0.4,0c-0.5,0-1-0.1-1.1-0.3&#10;&#9;&#9;&#9;&#9;&#9;C1009.1,771.4,1009.1,770.3,1009.3,769 M1007.4,764.8c0,0-4.4,10.3,3.1,10.3c0.2,0,0.4,0,0.6,0&#10;&#9;&#9;&#9;&#9;&#9;C1019.5,774.5,1012.8,766.1,1007.4,764.8L1007.4,764.8z" style="fill: rgb(142, 205, 221);" transform="matrix(0.44742602109909063, 0, 0, 0.44742602109909063, -362.15756425341453, 208.72301147438412)"/><path d="M 480.18756103515625 189.79733276367188" style="fill: rgb(20, 96, 147); fill-opacity: 1; stroke: rgb(0, 0, 0); stroke-opacity: 1; stroke-width: 0; paint-order: fill;"/><path class="st5" d="M992.6,736.7c-2-0.1-3.6-1.5-4.2-3.7c-0.6-2.1-0.2-5.4,3-7.7c3-2.2,7.2-2.9,10.3-3.1&#10;&#9;&#9;&#9;&#9;&#9;c-2.3,2.3-3.7,5.6-4.9,8.5c-1.3,3.1-2.5,5.9-4.1,5.9L992.6,736.7z" style="fill: rgb(28, 117, 188);" transform="matrix(0.42958381772041315, 0, 0, 0.42958381772041315, -184.84902954101568, 269.42103476782404)"/><path class="st6" d="M998.3,724.1c-1.2,2-2.1,4.1-2.9,6c-0.7,1.8-2,4.7-2.7,5c-2-0.1-2.7-2-2.9-2.6c-0.5-1.7-0.1-4.2,2.4-6.1&#10;&#9;&#9;&#9;&#9;&#9;C994,725.3,996.2,724.5,998.3,724.1 M1003.9,720.6c-3.6,0-9.3,0.5-13.4,3.5c-6.4,4.6-4.2,13.6,1.9,14.1c0.1,0,0.2,0,0.2,0&#10;&#9;&#9;&#9;&#9;&#9;c5.9,0,5.3-15.9,14.7-17.4C1007.4,720.8,1006,720.6,1003.9,720.6L1003.9,720.6z" style="fill: rgb(20, 96, 147);" transform="matrix(0.42958381772041315, 0, 0, 0.42958381772041315, -184.84902954101568, 269.42103476782404)"/><path class="st2" d="M1009.3,769c1.3,1,2.3,2.2,2.7,2.9c-0.2,0.1-0.6,0.1-1,0.2c-0.1,0-0.3,0-0.4,0c-0.5,0-1-0.1-1.1-0.3&#10;&#9;&#9;&#9;&#9;&#9;C1009.1,771.4,1009.1,770.3,1009.3,769 M1007.4,764.8c0,0-4.4,10.3,3.1,10.3c0.2,0,0.4,0,0.6,0&#10;&#9;&#9;&#9;&#9;&#9;C1019.5,774.5,1012.8,766.1,1007.4,764.8L1007.4,764.8z" style="fill: rgb(142, 205, 221);" transform="matrix(0.42958381772041315, 0, 0, 0.42958381772041315, -184.84902954101568, 269.42103476782404)"/><path d="M 265.799995 146.399994 A 91.900002 91.900002 0 0 1 173.899994 238.299995 A 91.900002 91.900002 0 0 1 81.999992 146.399994 A 91.900002 91.900002 0 0 1 173.899994 54.499992 A 91.900002 91.900002 0 0 1 265.799995 146.399994 Z" transform="matrix(1, 0, 0, 1, 0, 0)"/><path d="M 250.499992 146.399994 A 76.599998 76.599998 0 0 1 173.899994 222.999992 A 76.599998 76.599998 0 0 1 97.299995 146.399994 A 76.599998 76.599998 0 0 1 173.899994 69.799995 A 76.599998 76.599998 0 0 1 250.499992 146.399994 Z" class="st18" style="fill: rgb(255, 255, 255);" transform="matrix(1, 0, 0, 1, 0, 0)"/><path class="st19" d="M247.4,146.4c0,40.6-32.9,73.5-73.5,73.5c-40.6,0-73.5-32.9-73.5-73.5c0-40.6,32.9-73.5,73.5-73.5&#10;&#9;&#9;&#9;&#9;C214.5,72.9,247.4,105.8,247.4,146.4z" style="fill: none; stroke: rgb(0, 0, 0); stroke-width: 1.5316; stroke-miterlimit: 10;" transform="matrix(1, 0, 0, 1, 0, 0)"/><path d="M 173.899994 72.900002 L 173.899994 81" class="st20" style="fill: none; stroke: rgb(0, 0, 0); stroke-width: 3.0631; stroke-miterlimit: 10;" transform="matrix(1, 0, 0, 1, 0, 0)"/><path d="M 100.400002 146.399994 L 108.5 146.399994" class="st20" style="fill: none; stroke: rgb(0, 0, 0); stroke-width: 3.0631; stroke-miterlimit: 10;" transform="matrix(1, 0, 0, 1, 0, 0)"/><path d="M 173.899994 219.899994 L 173.899994 211.800003" class="st20" style="fill: none; stroke: rgb(0, 0, 0); stroke-width: 3.0631; stroke-miterlimit: 10;" transform="matrix(1, 0, 0, 1, 0, 0)"/><path d="M 247.399994 146.399994 L 239.300003 146.399994" class="st20" style="fill: none; stroke: rgb(0, 0, 0); stroke-width: 3.0631; stroke-miterlimit: 10;" transform="matrix(1, 0, 0, 1, 0, 0)"/><path d="M 137.100006 82.800003 L 141.199997 89.800003" class="st20" style="fill: none; stroke: rgb(0, 0, 0); stroke-width: 3.0631; stroke-miterlimit: 10;" transform="matrix(1, 0, 0, 1, 0, 0)"/><path d="M 110.199997 183.199997 L 117.199997 179.100006" class="st20" style="fill: none; stroke: rgb(0, 0, 0); stroke-width: 3.0631; stroke-miterlimit: 10;" transform="matrix(1, 0, 0, 1, 0, 0)"/><path d="M 210.600006 210.100006 L 206.600006 203.100006" class="st20" style="fill: none; stroke: rgb(0, 0, 0); stroke-width: 3.0631; stroke-miterlimit: 10;" transform="matrix(1, 0, 0, 1, 0, 0)"/><path d="M 237.5 109.699997 L 230.5 113.699997" class="st20" style="fill: none; stroke: rgb(0, 0, 0); stroke-width: 3.0631; stroke-miterlimit: 10;" transform="matrix(1, 0, 0, 1, 0, 0)"/><path d="M 110.199997 109.699997 L 117.199997 113.699997" class="st20" style="fill: none; stroke: rgb(0, 0, 0); stroke-width: 3.0631; stroke-miterlimit: 10;" transform="matrix(1, 0, 0, 1, 0, 0)"/><path d="M 137.100006 210.100006 L 141.199997 203.100006" class="st20" style="fill: none; stroke: rgb(0, 0, 0); stroke-width: 3.0631; stroke-miterlimit: 10;" transform="matrix(1, 0, 0, 1, 0, 0)"/><path d="M 237.5 183.199997 L 230.5 179.100006" class="st20" style="fill: none; stroke: rgb(0, 0, 0); stroke-width: 3.0631; stroke-miterlimit: 10;" transform="matrix(1, 0, 0, 1, 0, 0)"/><path d="M 210.600006 82.800003 L 206.600006 89.800003" class="st20" style="fill: none; stroke: rgb(0, 0, 0); stroke-width: 3.0631; stroke-miterlimit: 10;" transform="matrix(1, 0, 0, 1, 0, 0)"/><path d="M 166.199997 73.300003 L 166.699997 78.300003" class="st19" style="fill: none; stroke: rgb(0, 0, 0); stroke-width: 1.5316; stroke-miterlimit: 10;" transform="matrix(1, 0, 0, 1, 0, 0)"/><path d="M 158.600006 74.5 L 159.600006 79.400002" class="st19" style="fill: none; stroke: rgb(0, 0, 0); stroke-width: 1.5316; stroke-miterlimit: 10;" transform="matrix(1, 0, 0, 1, 0, 0)"/><path d="M 151.199997 76.5 L 152.699997 81.300003" class="st19" style="fill: none; stroke: rgb(0, 0, 0); stroke-width: 1.5316; stroke-miterlimit: 10;" transform="matrix(1, 0, 0, 1, 0, 0)"/><path d="M 144 79.300003 L 146 83.900002" class="st19" style="fill: none; stroke: rgb(0, 0, 0); stroke-width: 1.5316; stroke-miterlimit: 10;" transform="matrix(1, 0, 0, 1, 0, 0)"/><path d="M 130.699997 86.900002 L 133.600006 91" class="st19" style="fill: none; stroke: rgb(0, 0, 0); stroke-width: 1.5316; stroke-miterlimit: 10;" transform="matrix(1, 0, 0, 1, 0, 0)"/><path d="M 124.699997 91.800003 L 128.100006 95.5" class="st19" style="fill: none; stroke: rgb(0, 0, 0); stroke-width: 1.5316; stroke-miterlimit: 10;" transform="matrix(1, 0, 0, 1, 0, 0)"/><path d="M 119.199997 97.199997 L 123 100.599998" class="st19" style="fill: none; stroke: rgb(0, 0, 0); stroke-width: 1.5316; stroke-miterlimit: 10;" transform="matrix(1, 0, 0, 1, 0, 0)"/><path d="M 114.400002 103.199997 L 118.5 106.199997" class="st19" style="fill: none; stroke: rgb(0, 0, 0); stroke-width: 1.5316; stroke-miterlimit: 10;" transform="matrix(1, 0, 0, 1, 0, 0)"/><path d="M 106.699997 116.5 L 111.300003 118.599998" class="st19" style="fill: none; stroke: rgb(0, 0, 0); stroke-width: 1.5316; stroke-miterlimit: 10;" transform="matrix(1, 0, 0, 1, 0, 0)"/><path d="M 104 123.699997 L 108.699997 125.300003" class="st19" style="fill: none; stroke: rgb(0, 0, 0); stroke-width: 1.5316; stroke-miterlimit: 10;" transform="matrix(1, 0, 0, 1, 0, 0)"/><path d="M 102 131.100006 L 106.900002 132.199997" class="st19" style="fill: none; stroke: rgb(0, 0, 0); stroke-width: 1.5316; stroke-miterlimit: 10;" transform="matrix(1, 0, 0, 1, 0, 0)"/><path d="M 100.800003 138.699997 L 105.800003 139.300003" class="st19" style="fill: none; stroke: rgb(0, 0, 0); stroke-width: 1.5316; stroke-miterlimit: 10;" transform="matrix(1, 0, 0, 1, 0, 0)"/><path d="M 100.800003 154.100006 L 105.800003 153.600006" class="st19" style="fill: none; stroke: rgb(0, 0, 0); stroke-width: 1.5316; stroke-miterlimit: 10;" transform="matrix(1, 0, 0, 1, 0, 0)"/><path d="M 102 161.699997 L 106.900002 160.699997" class="st19" style="fill: none; stroke: rgb(0, 0, 0); stroke-width: 1.5316; stroke-miterlimit: 10;" transform="matrix(1, 0, 0, 1, 0, 0)"/><path d="M 104 169.100006 L 108.699997 167.600006" class="st19" style="fill: none; stroke: rgb(0, 0, 0); stroke-width: 1.5316; stroke-miterlimit: 10;" transform="matrix(1, 0, 0, 1, 0, 0)"/><path d="M 106.699997 176.300003 L 111.300003 174.300003" class="st19" style="fill: none; stroke: rgb(0, 0, 0); stroke-width: 1.5316; stroke-miterlimit: 10;" transform="matrix(1, 0, 0, 1, 0, 0)"/><path d="M 114.400002 189.600006 L 118.5 186.699997" class="st19" style="fill: none; stroke: rgb(0, 0, 0); stroke-width: 1.5316; stroke-miterlimit: 10;" transform="matrix(1, 0, 0, 1, 0, 0)"/><path d="M 119.199997 195.600006 L 123 192.199997" class="st19" style="fill: none; stroke: rgb(0, 0, 0); stroke-width: 1.5316; stroke-miterlimit: 10;" transform="matrix(1, 0, 0, 1, 0, 0)"/><path d="M 124.699997 201.100006 L 128.100006 197.300003" class="st19" style="fill: none; stroke: rgb(0, 0, 0); stroke-width: 1.5316; stroke-miterlimit: 10;" transform="matrix(1, 0, 0, 1, 0, 0)"/><path d="M 130.699997 205.899994 L 133.600006 201.800003" class="st19" style="fill: none; stroke: rgb(0, 0, 0); stroke-width: 1.5316; stroke-miterlimit: 10;" transform="matrix(1, 0, 0, 1, 0, 0)"/><path d="M 144 213.600006 L 146 209" class="st19" style="fill: none; stroke: rgb(0, 0, 0); stroke-width: 1.5316; stroke-miterlimit: 10;" transform="matrix(1, 0, 0, 1, 0, 0)"/><path d="M 151.199997 216.300003 L 152.699997 211.600006" class="st19" style="fill: none; stroke: rgb(0, 0, 0); stroke-width: 1.5316; stroke-miterlimit: 10;" transform="matrix(1, 0, 0, 1, 0, 0)"/><path d="M 158.600006 218.300003 L 159.600006 213.399994" class="st19" style="fill: none; stroke: rgb(0, 0, 0); stroke-width: 1.5316; stroke-miterlimit: 10;" transform="matrix(1, 0, 0, 1, 0, 0)"/><path d="M 166.199997 219.5 L 166.699997 214.5" class="st19" style="fill: none; stroke: rgb(0, 0, 0); stroke-width: 1.5316; stroke-miterlimit: 10;" transform="matrix(1, 0, 0, 1, 0, 0)"/><path d="M 181.600006 219.5 L 181 214.5" class="st19" style="fill: none; stroke: rgb(0, 0, 0); stroke-width: 1.5316; stroke-miterlimit: 10;" transform="matrix(1, 0, 0, 1, 0, 0)"/><path d="M 189.199997 218.300003 L 188.100006 213.399994" class="st19" style="fill: none; stroke: rgb(0, 0, 0); stroke-width: 1.5316; stroke-miterlimit: 10;" transform="matrix(1, 0, 0, 1, 0, 0)"/><path d="M 196.600006 216.300003 L 195 211.600006" class="st19" style="fill: none; stroke: rgb(0, 0, 0); stroke-width: 1.5316; stroke-miterlimit: 10;" transform="matrix(1, 0, 0, 1, 0, 0)"/><path d="M 203.800003 213.600006 L 201.699997 209" class="st19" style="fill: none; stroke: rgb(0, 0, 0); stroke-width: 1.5316; stroke-miterlimit: 10;" transform="matrix(1, 0, 0, 1, 0, 0)"/><path d="M 217.100006 205.899994 L 214.100006 201.800003" class="st19" style="fill: none; stroke: rgb(0, 0, 0); stroke-width: 1.5316; stroke-miterlimit: 10;" transform="matrix(1, 0, 0, 1, 0, 0)"/><path d="M 223.100006 201.100006 L 219.699997 197.300003" class="st19" style="fill: none; stroke: rgb(0, 0, 0); stroke-width: 1.5316; stroke-miterlimit: 10;" transform="matrix(1, 0, 0, 1, 0, 0)"/><path d="M 228.5 195.600006 L 224.800003 192.199997" class="st19" style="fill: none; stroke: rgb(0, 0, 0); stroke-width: 1.5316; stroke-miterlimit: 10;" transform="matrix(1, 0, 0, 1, 0, 0)"/><path d="M 233.300003 189.600006 L 229.300003 186.699997" class="st19" style="fill: none; stroke: rgb(0, 0, 0); stroke-width: 1.5316; stroke-miterlimit: 10;" transform="matrix(1, 0, 0, 1, 0, 0)"/><path d="M 241 176.300003 L 236.399994 174.300003" class="st19" style="fill: none; stroke: rgb(0, 0, 0); stroke-width: 1.5316; stroke-miterlimit: 10;" transform="matrix(1, 0, 0, 1, 0, 0)"/><path d="M 243.800003 169.100006 L 239 167.600006" class="st19" style="fill: none; stroke: rgb(0, 0, 0); stroke-width: 1.5316; stroke-miterlimit: 10;" transform="matrix(1, 0, 0, 1, 0, 0)"/><path d="M 245.800003 161.699997 L 240.899994 160.699997" class="st19" style="fill: none; stroke: rgb(0, 0, 0); stroke-width: 1.5316; stroke-miterlimit: 10;" transform="matrix(1, 0, 0, 1, 0, 0)"/><path d="M 247 154.100006 L 242 153.600006" class="st19" style="fill: none; stroke: rgb(0, 0, 0); stroke-width: 1.5316; stroke-miterlimit: 10;" transform="matrix(1, 0, 0, 1, 0, 0)"/><path d="M 247 138.699997 L 242 139.300003" class="st19" style="fill: none; stroke: rgb(0, 0, 0); stroke-width: 1.5316; stroke-miterlimit: 10;" transform="matrix(1, 0, 0, 1, 0, 0)"/><path d="M 245.800003 131.100006 L 240.899994 132.199997" class="st19" style="fill: none; stroke: rgb(0, 0, 0); stroke-width: 1.5316; stroke-miterlimit: 10;" transform="matrix(1, 0, 0, 1, 0, 0)"/><path d="M 243.800003 123.699997 L 239 125.300003" class="st19" style="fill: none; stroke: rgb(0, 0, 0); stroke-width: 1.5316; stroke-miterlimit: 10;" transform="matrix(1, 0, 0, 1, 0, 0)"/><path d="M 241 116.5 L 236.399994 118.599998" class="st19" style="fill: none; stroke: rgb(0, 0, 0); stroke-width: 1.5316; stroke-miterlimit: 10;" transform="matrix(1, 0, 0, 1, 0, 0)"/><path d="M 233.300003 103.199997 L 229.300003 106.199997" class="st19" style="fill: none; stroke: rgb(0, 0, 0); stroke-width: 1.5316; stroke-miterlimit: 10;" transform="matrix(1, 0, 0, 1, 0, 0)"/><path d="M 228.5 97.199997 L 224.800003 100.599998" class="st19" style="fill: none; stroke: rgb(0, 0, 0); stroke-width: 1.5316; stroke-miterlimit: 10;" transform="matrix(1, 0, 0, 1, 0, 0)"/><path d="M 223.100006 91.800003 L 219.699997 95.5" class="st19" style="fill: none; stroke: rgb(0, 0, 0); stroke-width: 1.5316; stroke-miterlimit: 10;" transform="matrix(1, 0, 0, 1, 0, 0)"/><path d="M 217.100006 86.900002 L 214.100006 91" class="st19" style="fill: none; stroke: rgb(0, 0, 0); stroke-width: 1.5316; stroke-miterlimit: 10;" transform="matrix(1, 0, 0, 1, 0, 0)"/><path d="M 203.800003 79.300003 L 201.699997 83.900002" class="st19" style="fill: none; stroke: rgb(0, 0, 0); stroke-width: 1.5316; stroke-miterlimit: 10;" transform="matrix(1, 0, 0, 1, 0, 0)"/><path d="M 196.600006 76.5 L 195 81.300003" class="st19" style="fill: none; stroke: rgb(0, 0, 0); stroke-width: 1.5316; stroke-miterlimit: 10;" transform="matrix(1, 0, 0, 1, 0, 0)"/><path d="M 189.199997 74.5 L 188.100006 79.400002" class="st19" style="fill: none; stroke: rgb(0, 0, 0); stroke-width: 1.5316; stroke-miterlimit: 10;" transform="matrix(1, 0, 0, 1, 0, 0)"/><path d="M 181.600006 73.300003 L 181 78.300003" class="st19" style="fill: none; stroke: rgb(0, 0, 0); stroke-width: 1.5316; stroke-miterlimit: 10;" transform="matrix(1, 0, 0, 1, 0, 0)"/><path d="M 221.199997 99.400002 L 150.300003 170.399994" class="st19" style="fill: none; stroke: rgb(0, 0, 0); stroke-width: 1.5316; stroke-miterlimit: 10;" transform="matrix(1, 0, 0, 1, 0, 0)"/><path d="M 153.400003 171.800003 A 4.6 4.6 0 0 1 148.800003 176.400003 A 4.6 4.6 0 0 1 144.200003 171.800003 A 4.6 4.6 0 0 1 148.800003 167.200003 A 4.6 4.6 0 0 1 153.400003 171.800003 Z" transform="matrix(1, 0, 0, 1, 0, 0)"/><path d="M 142.5 115 L 187.399994 159.800003" class="st20" style="fill: none; stroke: rgb(0, 0, 0); stroke-width: 3.0631; stroke-miterlimit: 10;" transform="matrix(1, 0, 0, 1, 0, 0)"/><path d="M184.8,163.8c1.8,1.8,4.7,1.8,6.5,0c1.8-1.8,1.8-4.7,0-6.5c-1.8-1.8-4.7-1.8-6.5,0C183,159.1,183,162,184.8,163.8z" transform="matrix(1, 0, 0, 1, 0, 0)"/><path class="st21" d="M176.8,146.6c0,1.5-1.2,2.7-2.7,2.7c-1.5,0-2.7-1.2-2.7-2.7c0-1.5,1.2-2.7,2.7-2.7&#10;&#9;&#9;&#9;&#9;&#9;C175.6,143.9,176.8,145.1,176.8,146.6z" style="fill: rgb(255, 255, 255); stroke: rgb(0, 0, 0); stroke-width: 1.0195; stroke-miterlimit: 10;" transform="matrix(1, 0, 0, 1, 0, 0)"/><g transform="matrix(1, 0, 0, 1, 0, 0)">
			<g>
				<path d="M 351.5 561.5 H 359.3 V 562.5 H 351.5 V 561.5 Z" class="st27" style="fill: rgb(157, 159, 162);"/>
				<path d="M 379.899994 623.599976 H 380.899994 V 633.999975 H 379.899994 V 623.599976 Z" class="st27" style="fill: rgb(157, 159, 162);"/>
				<path d="M 339.799988 561.5 H 347.599988 V 562.5 H 339.799988 V 561.5 Z" class="st27" style="fill: rgb(157, 159, 162);"/>
				<path class="st25" d="M239.8,636.6v-67.8c0-3.5,2.8-6.3,6.3-6.3h127.6c3.5,0,6.3,2.8,6.3,6.3v67.8c0,3.5-2.8,6.3-6.3,6.3H246&#10;&#9;&#9;&#9;&#9;&#9;C242.6,642.9,239.8,640,239.8,636.6z" style="fill: rgb(188, 190, 192);"/>
				<path d="M246,641.8c-2.9,0-5.2-2.3-5.2-5.2v-67.8c0-2.9,2.3-5.2,5.2-5.2h127.6c2.9,0,5.2,2.3,5.2,5.2v67.8&#10;&#9;&#9;&#9;&#9;&#9;c0,2.9-2.3,5.2-5.2,5.2H246z"/>
				<path d="M 259.100006 567.5 H 364.200005 V 637.900002 H 259.100006 V 567.5 Z" class="st6" style="fill: rgb(34, 34, 34);"/>
				<path class="st7" d="M254.9,607.3c1.7-1.7,1.7-7.5,0-9.2c-1.7-1.7-7.5-1.7-9.2,0c-1.7,1.7-1.7,7.5,0,9.2&#10;&#9;&#9;&#9;&#9;&#9;C247.3,609,253.2,609,254.9,607.3z" style="fill: rgb(71, 75, 79);"/>
				<path class="st7" d="M369.5,594.9c0-1,0.8-1.8,1.8-1.8c1,0,1.8,0.8,1.8,1.8v15.5c0,1-0.8,1.8-1.8,1.8c-1,0-1.8-0.8-1.8-1.8&#10;&#9;&#9;&#9;&#9;&#9;V594.9z" style="fill: rgb(71, 75, 79);"/>
				<path d="M 373.599988 618.5 A 2.3 2.3 0 0 1 371.299988 620.8 A 2.3 2.3 0 0 1 368.999988 618.5 A 2.3 2.3 0 0 1 371.299988 616.2 A 2.3 2.3 0 0 1 373.599988 618.5 Z" class="st7" style="fill: rgb(71, 75, 79);"/>
				<path d="M 372.299988 618.5 A 1 1 0 0 1 371.299988 619.5 A 1 1 0 0 1 370.299988 618.5 A 1 1 0 0 1 371.299988 617.5 A 1 1 0 0 1 372.299988 618.5 Z"/>
				<path d="M247.1,602.7L247.1,602.7c0-1.1,0.3-2,0.7-2.5c1-1,4-1,5,0c0.4,0.4,0.7,1.4,0.7,2.5c0,1.1-0.3,2-0.7,2.5&#10;&#9;&#9;&#9;&#9;&#9;c-0.4,0.4-1.4,0.7-2.5,0.7c-1.1,0-2-0.3-2.5-0.7C247.3,604.7,247.1,603.8,247.1,602.7z M252.8,602.7c0-0.9-0.2-1.7-0.5-2&#10;&#9;&#9;&#9;&#9;&#9;c-0.7-0.7-3.3-0.7-4,0c-0.3,0.3-0.5,1.1-0.5,2v0c0,0.9,0.2,1.7,0.5,2c0.3,0.3,1.1,0.5,2,0.5c0.9,0,1.7-0.2,2-0.5&#10;&#9;&#9;&#9;&#9;&#9;C252.6,604.4,252.8,603.6,252.8,602.7z"/>
			<path d="M 64.43062591552734 141.1857452392578" style="fill: rgb(34, 34, 34); fill-opacity: 1; stroke: rgb(0, 0, 0); stroke-opacity: 1; stroke-width: 0; paint-order: fill;"/><path d="M 215.3823699951172 421.3419494628906" style="fill: rgb(34, 34, 34); fill-opacity: 1; stroke: rgb(0, 0, 0); stroke-opacity: 1; stroke-width: 0; paint-order: fill;"/></g>
		</g><path class="st0" d="M1259.7,674c-4-36.9-27.9-68.6-65.7-86.9c-15.8-7.7-32.5-11.6-49.4-11.6c0,0,0,0,0,0&#10;&#9;&#9;c-36.4,0-66.6,17.6-85.5,32.3c-21.3,16.5-39.8,38.8-48.5,58c-14.9,33.2-17.7,34.9-21.3,37.1c-0.7,0.4-1.4,0.9-2.2,1.4&#10;&#9;&#9;c-2.8,1.9-4.5,5-4.5,8.4c0,3.2,1.6,6.1,4.1,8c-5.5,4.8-7.9,12.1-5.9,19c1.5,5.1,5,9.1,9.7,10.9c-10.9,11.5-17.2,21.4-10.1,34.9&#10;&#9;&#9;c2.9,5.5,8.2,8.8,14.1,8.8c5.3,0,10.2-2.6,13.8-6.7c1.7,0.7,3.6,1.1,5.7,1.1c0.4,0,0.9,0,1.4,0c7.6-0.5,11.4-4.9,12.7-9.2&#10;&#9;&#9;c3-0.6,5.6-2.6,7-5.2c1.2,1.5,2.5,3.4,4,5.4c4.1,5.6,9.7,13.2,18.3,23.2c18.5,21.5,53.8,44.5,97.2,44.5c14.5,0,29.1-2.5,43.6-7.6&#10;&#9;&#9;c5.2-1.8,7.9-7.4,6.2-12.6s-7.3-8-12.5-6.4c-0.1,0-8.5,2.7-21.1,2.7c-16.3,0-40.5-4.4-63.4-25.6c-23.5-21.6-36.6-49.1-36-75.4&#10;&#9;&#9;c0.5-20.9,9.8-39.5,27-53.8c10.5-8.7,22.3-13.2,35.3-13.2c20.2,0,37.6,10.9,45.9,21.7c5.2,6.8,7.2,13.6,5.8,19.2&#10;&#9;&#9;c-3.9,14.7-12.9,23.8-23.6,23.8c-6.6,0-13.4-3.5-19.3-9.8c-4.6-4.9-6.5-9.7-5.8-14.8c1.1-9,10-17.5,13.8-19.9&#10;&#9;&#9;c3.7-2.3,5.3-6.8,4.2-11c-1.1-4.2-4.9-7.2-9.3-7.4c0,0-0.2,0-0.5,0c-15,0-42.2,10.4-48.6,49.4c-2.6,15.7,2.7,32.2,14.9,46.5&#10;&#9;&#9;c15.6,18.4,39.1,29.4,62.8,29.4c17,0,33.4-5.8,47.3-16.7C1248.6,744.2,1263.4,709,1259.7,674z" style="opacity: 0.25; fill: rgb(20, 96, 147);" transform="matrix(0.2495243847370148, 0, 0, 0.2495243847370148, 31.702554973378483, 425.0363769531251)"/><path class="st1" d="M1256.2,670.5c-4-36.9-27.9-68.6-65.7-86.9c-15.8-7.7-32.5-11.6-49.4-11.6c0,0,0,0,0,0&#10;&#9;&#9;&#9;c-36.4,0-66.6,17.6-85.5,32.3c-21.3,16.5-39.8,38.8-48.5,58c-14.9,33.2-17.7,34.9-21.3,37.1c-0.7,0.4-1.4,0.9-2.2,1.4&#10;&#9;&#9;&#9;c-2.8,1.9-4.5,5-4.5,8.4c0,3.2,1.6,6.1,4.1,8c-5.5,4.8-7.9,12.1-5.9,19c1.5,5.1,5,9.1,9.7,10.9c-10.9,11.5-17.2,21.4-10.1,34.9&#10;&#9;&#9;&#9;c2.9,5.5,8.2,8.8,14.1,8.8c5.3,0,10.2-2.6,13.8-6.7c1.7,0.7,3.6,1.1,5.7,1.1c0.4,0,0.9,0,1.4,0c7.6-0.5,11.4-4.9,12.7-9.2&#10;&#9;&#9;&#9;c3-0.6,5.6-2.6,7-5.2c1.2,1.5,2.5,3.4,4,5.4c4.1,5.6,9.7,13.2,18.3,23.2c18.5,21.5,53.8,44.5,97.2,44.5c14.5,0,29.1-2.5,43.6-7.6&#10;&#9;&#9;&#9;c5.2-1.8,7.9-7.4,6.2-12.6c-1.7-5.2-7.3-8-12.5-6.4c-0.1,0-8.5,2.7-21.1,2.7c-16.3,0-40.5-4.4-63.4-25.6&#10;&#9;&#9;&#9;c-23.5-21.6-36.6-49.1-36-75.4c0.5-20.9,9.8-39.5,27-53.8c10.5-8.7,22.3-13.2,35.3-13.2c20.2,0,37.6,10.9,45.9,21.7&#10;&#9;&#9;&#9;c5.2,6.8,7.2,13.6,5.8,19.2c-3.9,14.7-12.9,23.8-23.6,23.8c-6.6,0-13.4-3.5-19.3-9.8c-4.6-4.9-6.5-9.7-5.8-14.8&#10;&#9;&#9;&#9;c1.1-9,10-17.5,13.8-19.9c3.7-2.3,5.3-6.8,4.2-11c-1.1-4.2-4.9-7.2-9.3-7.4c0,0-0.2,0-0.5,0c-15,0-42.2,10.4-48.6,49.4&#10;&#9;&#9;&#9;c-2.6,15.7,2.7,32.2,14.9,46.5c15.6,18.4,39.1,29.4,62.8,29.4c17,0,33.4-5.8,47.3-16.7C1245.1,740.7,1260,705.5,1256.2,670.5z" style="fill: rgb(255, 255, 255);" transform="matrix(0.249524712562561, 0, 0, 0.249524712562561, 32.05947903038526, 425.7506103515624)"/><g transform="matrix(0.24952474236488345, 0, 0, 0.24952474236488345, 31.940346034779793, 425.2742004394531)">
				<path class="st3" d="M1151.1,832.3c-39.5,0-71.6-20.9-88.5-40.5c-8.3-9.7-13.8-17.1-17.7-22.5c-6.1-8.3-9.2-12.5-14.6-14&#10;&#9;&#9;&#9;&#9;&#9;c-0.8-0.2-1.6-0.3-2.3-0.3c-1.8,0-3.3,0.7-4.5,1.9c-1.3,1.4-1.9,3.4-2.1,5.2c-6.5-9.8-2.4-23.5-2.4-23.7c0.2-0.6,0-1.2-0.4-1.6&#10;&#9;&#9;&#9;&#9;&#9;c-0.3-0.2-0.6-0.4-1-0.4c-0.2,0-0.4,0-0.6,0.1c-17.6,7.8-17.7,20.4-17.8,29.6c0,1.2,0,2.3-0.1,3.4c-0.2,5.5-4.4,9.6-8,9.6&#10;&#9;&#9;&#9;&#9;&#9;c-1.7,0-3-0.9-4-2.7c-3.5-6.6-2.3-11,11.7-25.2c13.5-13.7,18.5-28.9,21.7-43.2c0.8-3.7,0.7-6.1-0.5-7.5c-0.5-0.6-1.4-1.3-3-1.3&#10;&#9;&#9;&#9;&#9;&#9;c-2.9,0-7.3,2.6-13.2,7.6c-2.1,1.8-4.5,2.8-7.2,2.8c-1.7,0-3.3-0.4-4.5-0.8c5.6-3.4,9.4-6.4,25.4-41.9&#10;&#9;&#9;&#9;&#9;&#9;c13.1-29.1,62.8-83.5,123.5-83.5c15.2,0,30.2,3.5,44.4,10.4c34.6,16.8,55.7,44.4,59.2,77.8c3.3,31.1-9.8,62.3-34.4,81.6&#10;&#9;&#9;&#9;&#9;&#9;c-11.9,9.3-25.8,14.3-40.2,14.3c-20.1,0-40.7-9.7-54-25.3c-9.9-11.7-14.3-24.9-12.3-37.2c5-30.4,23.3-37.6,32.4-39.2&#10;&#9;&#9;&#9;&#9;&#9;c-5.6,4.9-13.4,13.9-14.8,24.9c-1.1,8.5,1.9,16.6,8.8,24.1c8.1,8.7,17.9,13.4,27.7,13.4c16.1,0,29.5-12.4,34.8-32.3&#10;&#9;&#9;&#9;&#9;&#9;c2.4-9.1-0.3-19.5-7.8-29.2c-12.3-15.9-33.9-26.2-55-26.2c-15.5,0-30.3,5.5-42.7,15.8c-19.8,16.5-30.5,38-31.1,62.3&#10;&#9;&#9;&#9;&#9;&#9;c-0.7,29.6,13.8,60.3,39.7,84.2c24.7,22.8,50.9,28.2,69.1,28.6C1160.4,832,1155.7,832.3,1151.1,832.3&#10;&#9;&#9;&#9;&#9;&#9;C1151.1,832.3,1151.1,832.3,1151.1,832.3z" style="fill: rgb(48, 207, 255); stroke-opacity: 1;"/>
				<path class="st4" d="M1141.1,585C1141.1,585,1141.1,585,1141.1,585c15,0,29.7,3.5,43.8,10.3c17.7,8.6,31.9,20.1,42,34.1&#10;&#9;&#9;&#9;&#9;&#9;c9.1,12.6,14.8,27.3,16.4,42.6c3.3,30.6-9.7,61.3-33.8,80.2c-11.8,9.3-25,13.9-39.3,13.9c-19.6,0-39.9-9.5-52.9-24.8&#10;&#9;&#9;&#9;&#9;&#9;c-9.7-11.4-13.9-24.2-12-36c2.6-15.9,9.2-27.2,19.5-33.5c2.1-1.3,4.2-2.2,6.1-3c-4.9,5.3-9.9,12.9-11,21.7&#10;&#9;&#9;&#9;&#9;&#9;c-1.1,9,2,17.5,9.2,25.3c8.4,9,18.6,13.9,28.8,13.9c16.9,0,30.7-12.8,36.2-33.4c2.5-9.6-0.3-20.4-8-30.5&#10;&#9;&#9;&#9;&#9;&#9;c-12.5-16.3-34.6-26.8-56.2-26.8c-15.9,0-30.9,5.6-43.6,16.2c-20.1,16.8-31,38.7-31.6,63.4c-0.7,30.1,13.9,61.2,40.2,85.3&#10;&#9;&#9;&#9;&#9;&#9;c17.2,15.8,35.1,23.4,50.6,26.7c-36.5-1.8-66-21.4-81.9-39.8c-8.3-9.6-13.7-17-17.7-22.4c-6.1-8.4-9.5-13-15.5-14.5&#10;&#9;&#9;&#9;&#9;&#9;c-1-0.2-1.9-0.4-2.7-0.4c-2.2,0-4.2,0.8-5.6,2.4c-0.6,0.7-1.1,1.4-1.4,2.2c-3.6-8.7-0.5-19.1-0.5-19.2c0.3-1.1,0-2.3-0.9-3.1&#10;&#9;&#9;&#9;&#9;&#9;c-0.6-0.5-1.3-0.8-2-0.8c-0.4,0-0.8,0.1-1.2,0.3c-1.9,0.9-3.7,1.8-5.2,2.7c5.8-9.7,8.7-19.8,10.9-29.4c1-4.2,0.7-7-0.8-8.8&#10;&#9;&#9;&#9;&#9;&#9;c-1-1.2-2.5-1.9-4.2-1.9c-1.2,0-4.9,0-14.1,8c-1.9,1.6-3.9,2.4-6.2,2.4c-0.2,0-0.5,0-0.7,0c4.7-3.7,9.5-10.7,23-40.6&#10;&#9;&#9;&#9;&#9;&#9;c6.1-13.7,21.1-34.8,44.6-53.1C1080.9,601.1,1108.5,585,1141.1,585 M998.9,753.4c-1.3,4.6-1.3,9.1-1.4,12.8c0,1.2,0,2.3-0.1,3.3&#10;&#9;&#9;&#9;&#9;&#9;c-0.2,5-4,8.2-6.5,8.2c-0.4,0-1.6,0-2.6-1.9C985.5,770.5,985.6,767,998.9,753.4 M1141.2,582c-59.6,0-110.5,52.3-124.9,84.4&#10;&#9;&#9;&#9;&#9;&#9;c-18,39.9-20.2,38.1-27.1,42.7c0,0,3.3,2.1,7.6,2.1c2.5,0,5.4-0.7,8.2-3.1c4.3-3.7,9.3-7.2,12.2-7.2c2.1,0,3.2,1.9,2,7&#10;&#9;&#9;&#9;&#9;&#9;c-2.8,12.2-7.2,28.1-21.3,42.5c-14.2,14.4-16,19.4-12,26.9c1.3,2.4,3.2,3.5,5.3,3.5c4.3,0,9.2-4.7,9.5-11.1&#10;&#9;&#9;&#9;&#9;&#9;c0.4-9.4-2-23.3,17-31.7c0,0-5.4,17.8,5.2,28.1c0,0-1-9.7,5.2-9.7c0.6,0,1.2,0.1,2,0.3c8.4,2.2,11,12.1,31.6,36&#10;&#9;&#9;&#9;&#9;&#9;c15.8,18.4,48,41,89.7,41c12.6,0,26.1-2.1,40.3-7c0,0-9.6,3.2-24.2,3.2c-18.5,0-45.1-5.1-70.2-28.2&#10;&#9;&#9;&#9;&#9;&#9;c-44.9-41.3-55.9-104.8-8.7-144.2c13.2-11,27.8-15.5,41.7-15.5c35.9,0,67.7,29.6,61.3,53.5c-5.4,20.4-18.8,31.2-33.3,31.2&#10;&#9;&#9;&#9;&#9;&#9;c-9,0-18.5-4.2-26.6-13c-21.2-22.7,2.4-45.2,9.9-50c0,0-0.1,0-0.2,0c-2.4,0-32.1,0.8-38.7,41c-5.1,30.8,29.4,64.3,67.8,64.3&#10;&#9;&#9;&#9;&#9;&#9;c13.8,0,28-4.3,41.2-14.6c49.7-38.9,52.3-124.4-25.1-161.9C1171,585.2,1155.8,582,1141.2,582L1141.2,582z" style="fill: rgb(48, 207, 255);"/>
			</g><path class="st5" d="M992.6,736.7c-2-0.1-3.6-1.5-4.2-3.7c-0.6-2.1-0.2-5.4,3-7.7c3-2.2,7.2-2.9,10.3-3.1&#10;&#9;&#9;&#9;&#9;&#9;c-2.3,2.3-3.7,5.6-4.9,8.5c-1.3,3.1-2.5,5.9-4.1,5.9L992.6,736.7z" style="fill: rgb(28, 117, 188);" transform="matrix(0.2495243847370148, 0, 0, 0.2495243847370148, 31.702554973378483, 425.0363769531251)"/><path class="st6" d="M998.3,724.1c-1.2,2-2.1,4.1-2.9,6c-0.7,1.8-2,4.7-2.7,5c-2-0.1-2.7-2-2.9-2.6c-0.5-1.7-0.1-4.2,2.4-6.1&#10;&#9;&#9;&#9;&#9;&#9;C994,725.3,996.2,724.5,998.3,724.1 M1003.9,720.6c-3.6,0-9.3,0.5-13.4,3.5c-6.4,4.6-4.2,13.6,1.9,14.1c0.1,0,0.2,0,0.2,0&#10;&#9;&#9;&#9;&#9;&#9;c5.9,0,5.3-15.9,14.7-17.4C1007.4,720.8,1006,720.6,1003.9,720.6L1003.9,720.6z" style="fill: rgb(20, 96, 147);" transform="matrix(0.2495243847370148, 0, 0, 0.2495243847370148, 31.702554973378483, 425.0363769531251)"/><path class="st2" d="M1009.3,769c1.3,1,2.3,2.2,2.7,2.9c-0.2,0.1-0.6,0.1-1,0.2c-0.1,0-0.3,0-0.4,0c-0.5,0-1-0.1-1.1-0.3&#10;&#9;&#9;&#9;&#9;&#9;C1009.1,771.4,1009.1,770.3,1009.3,769 M1007.4,764.8c0,0-4.4,10.3,3.1,10.3c0.2,0,0.4,0,0.6,0&#10;&#9;&#9;&#9;&#9;&#9;C1019.5,774.5,1012.8,766.1,1007.4,764.8L1007.4,764.8z" style="fill: rgb(142, 205, 221);" transform="matrix(0.2495243847370148, 0, 0, 0.2495243847370148, 31.702554973378483, 425.0363769531251)"/></svg>