<?xml version="1.0" encoding="utf-8"?>
<svg id="master-artboard" viewBox="0 0 266.11529541015625 183.52503967285156" version="1.1" xmlns="http://www.w3.org/2000/svg" x="0px" y="0px" width="266.11529541015625px" height="183.52503967285156px" enable-background="new 0 0 335.986 235.19"><rect id="ee-background" x="0" y="0" width="266.11529541015625" height="183.52503967285156" style="fill: white; fill-opacity: 0; pointer-events: none;"/>
<path fill="#D1D3D4" d="M191.206,169.562c0,0-1.83-1.898-4.133-3.961c-2.301-2.061-1.978-3.576-1.978-3.576l-0.62-8.219h-14.167&#10;&#9;&#9;&#9;H169.6h-14.168l-0.618,8.219c0,0,0.325,1.516-1.979,3.576c-2.302,2.062-4.13,3.961-4.13,3.961s-0.267,0.461-0.267,1.111&#10;&#9;&#9;&#9;s0.384,0.68,1.977,0.68c1.409,0,15.817,0,19.186,0c0.449,0,0.709,0,0.709,0c3.368,0,17.776,0,19.185,0&#10;&#9;&#9;&#9;c1.594,0,1.977-0.029,1.977-0.68S191.206,169.562,191.206,169.562z" transform="matrix(1, 0, 0, 1, -16.72960662841797, -43.3001594543457)"/><path fill="#CECDCF" d="M191.206,169.562c0,0-1.83-1.898-4.133-3.961c-2.301-2.061-1.978-3.576-1.978-3.576l-0.62-8.219h-14.167&#10;&#9;&#9;&#9;H169.6h-14.168l-0.618,8.219c0,0,0.325,1.516-1.979,3.576c-2.302,2.062-4.13,3.961-4.13,3.961s-0.267,0.461-0.267,1.111&#10;&#9;&#9;&#9;s0.384,0.68,1.977,0.68c1.409,0,15.817,0,19.186,0c0.449,0,0.709,0,0.709,0c3.368,0,17.776,0,19.185,0&#10;&#9;&#9;&#9;c1.594,0,1.977-0.029,1.977-0.68S191.206,169.562,191.206,169.562z" transform="matrix(1, 0, 0, 1, -16.72960662841797, -43.3001594543457)"/><path fill="#B3B3B3" d="M230.788,59.836H109.119c-5.023,0-9.096,4.073-9.096,9.094v80.339c0,5.023,4.073,9.094,9.096,9.094h121.669&#10;&#9;&#9;c5.023,0,9.098-4.07,9.098-9.094V68.93C239.886,63.91,235.812,59.836,230.788,59.836L230.788,59.836z" transform="matrix(1, 0, 0, 1, -16.72960662841797, -43.3001594543457)"/><path fill="#DCDBDD" d="M230.788,59.836H109.119c-5.023,0-9.096,4.073-9.096,9.094v80.339c0,5.023,4.073,9.094,9.096,9.094h121.669&#10;&#9;&#9;c5.023,0,9.098-4.07,9.098-9.094V68.93C239.886,63.91,235.812,59.836,230.788,59.836z" transform="matrix(1, 0, 0, 1, -16.72960662841797, -43.3001594543457)"/><path d="M100.023,68.93v73.046h139.863V68.93c0-0.564-0.056-1.116-0.153-1.654H100.176&#10;&#9;&#9;C100.077,67.814,100.023,68.366,100.023,68.93z" transform="matrix(1, 0, 0, 1, -16.72960662841797, -43.3001594543457)"/><path fill="#4E4E4E" d="M100.023,68.93v73.046h139.863V68.93c0-0.564-0.056-1.116-0.153-1.654H100.176&#10;&#9;&#9;C100.077,67.814,100.023,68.366,100.023,68.93z" transform="matrix(1, 0, 0, 1, -16.72960662841797, -43.3001594543457)"/><path opacity="0.2" fill="#FFFFFF" d="M104.873,73.371v63.959h130.163V73.371c0-0.493-0.052-0.978-0.143-1.447H105.015&#10;&#9;&#9;C104.923,72.393,104.873,72.877,104.873,73.371z" transform="matrix(1, 0, 0, 1, -16.72960662841797, -43.3001594543457)"/><path d="M 39.702999 132.240005 H 107.111996 V 218.449005 H 39.702999 V 132.240005 Z" opacity="0.1" fill="#1D1D1B" transform="matrix(1, 0, 0, 1, -16.72960662841797, -43.3001594543457)"/><path d="M 47.041 125.695 H 114.449997 V 211.903999 H 47.041 V 125.695 Z" fill="#FFFFFF" transform="matrix(1, 0, 0, 1, -16.72960662841797, -43.3001594543457)"/><path d="M 47.041 125.695 H 114.449997 V 135.927 H 47.041 V 125.695 Z" fill="#FF643A" transform="matrix(1, 0, 0, 1, -16.72960662841797, -43.3001594543457)" style="fill: rgb(48, 209, 254);"/><path d="M 58.76 130.570007 A 2.329 2.329 0 0 1 56.431 132.899007 A 2.329 2.329 0 0 1 54.102 130.570007 A 2.329 2.329 0 0 1 56.431 128.241007 A 2.329 2.329 0 0 1 58.76 130.570007 Z" fill="#ADFDF4" transform="matrix(1, 0, 0, 1, -16.72960662841797, -43.3001594543457)" style="fill: rgb(255, 191, 41);"/><path d="M 67.143003 130.570007 A 2.328 2.328 0 0 1 64.815002 132.898007 A 2.328 2.328 0 0 1 62.487002 130.570007 A 2.328 2.328 0 0 1 64.815002 128.242007 A 2.328 2.328 0 0 1 67.143003 130.570007 Z" fill="#ADFDF4" transform="matrix(1, 0, 0, 1, -16.72960662841797, -43.3001594543457)" style="fill: rgb(255, 191, 41);"/><path d="M 75.526998 130.570007 A 2.328 2.328 0 0 1 73.198997 132.898007 A 2.328 2.328 0 0 1 70.870997 130.570007 A 2.328 2.328 0 0 1 73.198997 128.242007 A 2.328 2.328 0 0 1 75.526998 130.570007 Z" fill="#ADFDF4" transform="matrix(1, 0, 0, 1, -16.72960662841797, -43.3001594543457)" style="fill: rgb(255, 191, 41);"/><path d="M 107.722997 130.570007 A 2.328 2.328 0 0 1 105.394997 132.898007 A 2.328 2.328 0 0 1 103.066997 130.570007 A 2.328 2.328 0 0 1 105.394997 128.242007 A 2.328 2.328 0 0 1 107.722997 130.570007 Z" fill="#ADFDF4" transform="matrix(1, 0, 0, 1, -16.72960662841797, -43.3001594543457)" style="fill: rgb(255, 191, 41);"/><path d="M 135.240005 189.802994 H 252.651009 V 220.005993 H 135.240005 V 189.802994 Z" opacity="0.1" fill="#1D1D1B" transform="matrix(1, 0, 0, 1, -126.20457458496094, -169.94766235351562)"/><path d="M 141.380997 182.216995 H 258.792999 V 212.419994 H 141.380997 V 182.216995 Z" fill="#FFFFFF" transform="matrix(1, 0, 0, 1, -126.20457458496094, -169.94766235351562)"/><path d="M 141.380997 182.216995 H 258.792999 V 192.448996 H 141.380997 V 182.216995 Z" fill="#FF643A" transform="matrix(1, 0, 0, 1, -126.20457458496094, -169.94766235351562)" style="fill: rgb(48, 209, 254);"/><path d="M 153.099996 187.091995 A 2.329 2.329 0 0 1 150.770996 189.420995 A 2.329 2.329 0 0 1 148.441996 187.091995 A 2.329 2.329 0 0 1 150.770996 184.762995 A 2.329 2.329 0 0 1 153.099996 187.091995 Z" fill="#ADFDF4" transform="matrix(1, 0, 0, 1, -126.20457458496094, -169.94766235351562)" style="fill: rgb(255, 191, 41);"/><path d="M 161.482999 187.091995 A 2.328 2.328 0 0 1 159.154999 189.419995 A 2.328 2.328 0 0 1 156.826999 187.091995 A 2.328 2.328 0 0 1 159.154999 184.763995 A 2.328 2.328 0 0 1 161.482999 187.091995 Z" fill="#ADFDF4" transform="matrix(1, 0, 0, 1, -126.20457458496094, -169.94766235351562)" style="fill: rgb(255, 191, 41);"/><path d="M 169.867002 187.091995 A 2.328 2.328 0 0 1 167.539001 189.419995 A 2.328 2.328 0 0 1 165.211001 187.091995 A 2.328 2.328 0 0 1 167.539001 184.763995 A 2.328 2.328 0 0 1 169.867002 187.091995 Z" fill="#ADFDF4" transform="matrix(1, 0, 0, 1, -126.20457458496094, -169.94766235351562)" style="fill: rgb(255, 191, 41);"/><path d="M 252.065 187.091995 A 2.328 2.328 0 0 1 249.737 189.419995 A 2.328 2.328 0 0 1 247.408999 187.091995 A 2.328 2.328 0 0 1 249.737 184.763995 A 2.328 2.328 0 0 1 252.065 187.091995 Z" fill="#ADFDF4" transform="matrix(1, 0, 0, 1, -126.20457458496094, -169.94766235351562)" style="fill: rgb(255, 191, 41);"/><path d="M 63.276001 184.082001 H 95.403 V 188.203001 H 63.276001 V 184.082001 Z" opacity="0.3" fill="#FF643A" transform="matrix(1, 0, 0, 1, -16.72960662841797, -43.3001594543457)" style="fill: rgb(137, 227, 253);"/><path d="M 63.276001 191.406006 H 90.230001 V 195.527006 H 63.276001 V 191.406006 Z" opacity="0.3" fill="#FF643A" transform="matrix(1, 0, 0, 1, -16.72960662841797, -43.3001594543457)" style="fill: rgb(137, 227, 253);"/><path d="M 216.645996 200.130997 H 247.409996 V 204.251997 H 216.645996 V 200.130997 Z" opacity="0.3" fill="#FF643A" transform="matrix(1, 0, 0, 1, -126.20457458496094, -169.94766235351562)" style="fill: rgb(137, 227, 253);"/><path d="M 163.472 200.130997 H 191.296 V 204.251997 H 163.472 V 200.130997 Z" opacity="0.3" fill="#FF643A" transform="matrix(1, 0, 0, 1, -126.20457458496094, -169.94766235351562)" style="fill: rgb(137, 227, 253);"/><path d="M 150.197006 200.130997 H 158.278007 V 204.251997 H 150.197006 V 200.130997 Z" fill="#4E4E4E" transform="matrix(1, 0, 0, 1, -126.20457458496094, -169.94766235351562)"/><path d="M 195.457993 200.130997 H 209.127993 V 204.251997 H 195.457993 V 200.130997 Z" fill="#4E4E4E" transform="matrix(1, 0, 0, 1, -126.20457458496094, -169.94766235351562)"/><path d="M 62.999001 199.524994 H 97.223999 V 204.190994 H 62.999001 V 199.524994 Z" fill="#4E4E4E" transform="matrix(1, 0, 0, 1, -16.72960662841797, -43.3001594543457)"/><path d="M 65.7750015258789 152.7270050048828 L 80.97000122070312 143.9530029296875 L 96.16500091552734 152.7270050048828 L 96.16500091552734 170.27099609375 L 80.97000122070312 179.0449981689453 L 65.7750015258789 170.27099609375 Z" fill="#DCDBDD" transform="matrix(1, 0, 0, 1, -16.72960662841797, -43.3001594543457)"/><path d="M 65.7750015258789 152.7270050048828 L 80.97000122070312 161.69700622558594 L 80.97000122070312 179.0449981689453 L 65.7750015258789 170.27099609375 Z" fill="#4E4E4E" transform="matrix(1, 0, 0, 1, -16.72960662841797, -43.3001594543457)"/><path d="M 96.16500091552734 152.7270050048828 L 80.97000122070312 161.69700622558594 L 80.97000122070312 179.0449981689453 L 96.16500091552734 170.27099609375 Z" fill="#6F6F6E" transform="matrix(1, 0, 0, 1, -16.72960662841797, -43.3001594543457)"/><path opacity="0.1" fill="#1D1D1B" d="M260.522,110.141h-53.765c-2.122,0-3.841,1.72-3.841,3.843v15.36v38.402&#10;&#9;&#9;c0,2.123,1.719,3.84,3.841,3.84h53.765c2.122,0,3.842-1.717,3.842-3.84v-38.402v-15.36&#10;&#9;&#9;C264.364,111.861,262.645,110.141,260.522,110.141z" transform="matrix(1, 0, 0, 1, -16.72960662841797, -43.3001594543457)"/><path d="M 211.854004 113.077003 H 266.768005 V 166.840004 H 211.854004 V 113.077003 Z" fill-rule="evenodd" clip-rule="evenodd" fill="#FFFFFF" transform="matrix(1, 0, 0, 1, -16.72960662841797, -43.3001594543457)"/><g transform="matrix(1, 0, 0, 1, -16.72960662841797, -43.3001594543457)">
			<path fill="#C6C6C5" d="M209.163,124.598V163c0,2.123,1.717,3.84,3.84,3.84h53.765c2.122,0,3.842-1.717,3.842-3.84v-38.402&#10;&#9;&#9;&#9;&#9;H209.163z"/>
		</g><g transform="matrix(1, 0, 0, 1, -16.72960662841797, -43.3001594543457)">
			<path fill="#FFFFFF" d="M213.003,111.508v48.917c0,1.422,0.859,2.576,1.92,2.576h49.926c1.062,0,1.919-1.154,1.919-2.576v-48.917&#10;&#9;&#9;&#9;&#9;H213.003z"/>
		</g><g transform="matrix(1, 0, 0, 1, -16.72960662841797, -43.3001594543457)">
			<path fill-rule="evenodd" clip-rule="evenodd" fill="#FF643A" d="M266.768,105.395h-53.765c-2.123,0-3.84,1.72-3.84,3.843v15.36&#10;&#9;&#9;&#9;&#9;h61.446v-15.36C270.609,107.115,268.89,105.395,266.768,105.395z M227.249,118.156c-1.746,0-3.161-1.415-3.161-3.163&#10;&#9;&#9;&#9;&#9;c0-1.741,1.415-3.156,3.161-3.156s3.158,1.415,3.158,3.156C230.407,116.741,228.995,118.156,227.249,118.156z M252.524,118.156&#10;&#9;&#9;&#9;&#9;c-1.747,0-3.16-1.415-3.16-3.163c0-1.741,1.413-3.156,3.16-3.156c1.744,0,3.158,1.415,3.158,3.156&#10;&#9;&#9;&#9;&#9;C255.683,116.741,254.269,118.156,252.524,118.156z" style="fill: rgb(48, 209, 254);"/>
		<path d="M 238.35586547851562 115.21223449707031" style="fill: rgb(48, 209, 254); fill-opacity: 1; stroke: rgb(0, 0, 0); stroke-opacity: 1; stroke-width: 0; paint-order: fill;"/></g><text transform="matrix(1.1389999389648438, 0, 0, 1, 205.54088592529297, 110.73983764648438)" fill="#5A5A5A" font-family="'GloberxBold'" font-size="31.866" style="fill: rgb(90, 90, 90); font-family: GloberxBold; font-size: 31.866px; white-space: pre;">21</text><path d="M 149.1009979248047 107.88999938964844 L 166.1479949951172 101.4729995727539 L 172.2270050048828 104.68099975585938 L 185.81700134277344 90.94599914550781 L 190.16700744628906 93.93699645996094 L 190.16700744628906 83.16000366210938 L 177.56500244140625 84.8949966430664 L 181.7469940185547 87.83599853515625 L 171.63099670410156 98.06300354003906 L 165.31199645996094 96.45999908447266 L 149.1009979248047 103.59600067138672 Z" fill="#FF643A" transform="matrix(1, 0, 0, 1, -16.72960662841797, -43.3001594543457)" style="fill: rgb(48, 209, 254);"/><path d="M 165.7899932861328 104.93199920654297 L 167.99600219726562 105.86000061035156 L 167.99600219726562 122.35900115966797 L 159.29299926757812 122.35900115966797 L 159.29299926757812 107.23999786376953 Z" fill="#FFFFFF" transform="matrix(1, 0, 0, 1, -16.72960662841797, -43.3001594543457)"/><path d="M 179.08200073242188 102.57499694824219 L 179.08200073242188 122.35900115966797 L 170.38099670410156 122.35900115966797 L 170.38099670410156 106.83799743652344 L 173.27099609375 108.21700286865234 Z" fill="#FFFFFF" transform="matrix(1, 0, 0, 1, -16.72960662841797, -43.3001594543457)"/><path d="M 186.23399353027344 94.50599670410156 L 190.16700744628906 98.21499633789062 L 190.16700744628906 122.35900115966797 L 181.46600341796875 122.35900115966797 L 181.46600341796875 99.45800018310547 Z" fill="#FFFFFF" transform="matrix(1, 0, 0, 1, -16.72960662841797, -43.3001594543457)"/><path d="M 149.1009979248047 110.4990005493164 L 156.88999938964844 107.88999938964844 L 156.88999938964844 122.35900115966797 L 149.1009979248047 122.35900115966797 Z" fill="#FFFFFF" transform="matrix(1, 0, 0, 1, -16.72960662841797, -43.3001594543457)"/>







</svg>